<svg width="464" height="524" viewBox="0 0 464 524" fill="none" xmlns="http://www.w3.org/2000/svg">
<circle cx="270" cy="214.456" r="194" fill="url(#paint0_linear_33_66)"/>
<path d="M270 214.46L207.973 30.3581C231.2 22.1758 259.002 20.3502 270 20.4602V214.46Z" fill="#030225" stroke="#030225" stroke-width="0.659864"/>
<path d="M266.701 194.005L204.673 9.90255C227.901 1.72024 255.703 -0.105388 266.701 0.0045898V194.005Z" fill="url(#paint1_linear_33_66)"/>
<path d="M237.316 240.361L230.233 242.916L231.743 248.219L236.542 246.903V267.456H242.735V240.361H237.316ZM257.649 267.997C264.655 267.997 268.681 262.269 268.681 253.909C268.681 245.548 264.655 239.82 257.649 239.82C250.644 239.82 246.618 245.548 246.618 253.909C246.618 262.269 250.644 267.997 257.649 267.997ZM257.649 261.959C254.398 261.959 252.811 259.134 252.811 253.909C252.811 248.683 254.398 245.858 257.649 245.858C260.901 245.858 262.488 248.683 262.488 253.909C262.488 259.134 260.901 261.959 257.649 261.959ZM280.49 249.883H278.284L278.555 246.167H288.425V240.361H272.749L271.627 255.921H280.103C282.464 255.921 283.587 257.276 283.587 258.94C283.587 260.605 282.464 261.959 279.91 261.959C277.355 261.959 276.194 260.876 275.575 259.095L270.233 262.192C271.898 266.178 275.613 267.997 279.91 267.997C285.135 267.997 289.78 264.901 289.78 258.94C289.78 252.98 285.522 249.883 280.49 249.883ZM291.213 267.456H309.637V261.495H300.542L305.031 256.966C307.509 254.489 309.25 251.702 309.25 248.451C309.25 242.993 304.915 239.82 300.077 239.82C296.323 239.82 292.684 241.716 290.942 245.742L296.168 248.799C296.903 247.096 298.258 245.858 300.154 245.858C301.974 245.858 303.057 247.019 303.057 248.722C303.057 250.309 301.896 251.896 300.309 253.521L291.213 262.966V267.456Z" fill="black"/>
<path d="M230.154 28.8831H227.947L228.218 25.1673H238.088V19.3614H222.412L221.29 34.9212H229.766C232.128 34.9212 233.25 36.2759 233.25 37.9403C233.25 39.6046 232.128 40.9593 229.573 40.9593C227.018 40.9593 225.857 39.8756 225.238 38.0951L219.896 41.1916C221.561 45.1783 225.277 46.9974 229.573 46.9974C234.798 46.9974 239.443 43.901 239.443 37.9403C239.443 31.9796 235.185 28.8831 230.154 28.8831ZM240.412 19.3614V25.3222H251.327L242.812 46.4556H249.392L258.217 24.548V19.3614H240.412Z" fill="black"/>
<path d="M43.517 477V459.545H47.1477V466.108H47.2585C47.4176 465.756 47.6477 465.398 47.9489 465.034C48.2557 464.665 48.6534 464.358 49.142 464.114C49.6364 463.864 50.25 463.739 50.983 463.739C51.9375 463.739 52.8182 463.989 53.625 464.489C54.4318 464.983 55.0767 465.73 55.5597 466.73C56.0426 467.724 56.2841 468.972 56.2841 470.472C56.2841 471.932 56.0483 473.165 55.5767 474.17C55.1108 475.17 54.4744 475.929 53.6676 476.446C52.8665 476.957 51.9688 477.213 50.9744 477.213C50.2699 477.213 49.6705 477.097 49.1761 476.864C48.6875 476.631 48.2869 476.338 47.9744 475.986C47.6619 475.628 47.4233 475.267 47.2585 474.903H47.0966V477H43.517ZM47.071 470.455C47.071 471.233 47.179 471.912 47.3949 472.491C47.6108 473.071 47.9233 473.523 48.3324 473.847C48.7415 474.165 49.2386 474.324 49.8239 474.324C50.4148 474.324 50.9148 474.162 51.3239 473.838C51.733 473.509 52.0426 473.054 52.2528 472.474C52.4688 471.889 52.5767 471.216 52.5767 470.455C52.5767 469.699 52.4716 469.034 52.2614 468.46C52.0511 467.886 51.7415 467.437 51.3324 467.114C50.9233 466.79 50.4205 466.628 49.8239 466.628C49.233 466.628 48.733 466.784 48.3239 467.097C47.9205 467.409 47.6108 467.852 47.3949 468.426C47.179 469 47.071 469.676 47.071 470.455ZM64.6726 477.256C63.326 477.256 62.1669 476.983 61.1953 476.438C60.2294 475.886 59.4851 475.108 58.9624 474.102C58.4396 473.091 58.1783 471.895 58.1783 470.514C58.1783 469.168 58.4396 467.986 58.9624 466.969C59.4851 465.952 60.2209 465.159 61.1697 464.591C62.1243 464.023 63.2436 463.739 64.5277 463.739C65.3913 463.739 66.1953 463.878 66.9396 464.156C67.6896 464.429 68.343 464.841 68.8999 465.392C69.4624 465.943 69.8999 466.636 70.2124 467.472C70.5249 468.301 70.6811 469.273 70.6811 470.386V471.384H59.6271V469.134H67.2635C67.2635 468.611 67.1499 468.148 66.9226 467.744C66.6953 467.341 66.38 467.026 65.9766 466.798C65.5788 466.565 65.1158 466.449 64.5874 466.449C64.0362 466.449 63.5476 466.577 63.1214 466.832C62.701 467.082 62.3714 467.42 62.1328 467.847C61.8942 468.267 61.772 468.736 61.7663 469.253V471.392C61.7663 472.04 61.8857 472.599 62.1243 473.071C62.3686 473.543 62.7124 473.906 63.1555 474.162C63.5987 474.418 64.1243 474.545 64.7322 474.545C65.1357 474.545 65.505 474.489 65.8402 474.375C66.1754 474.261 66.4624 474.091 66.701 473.864C66.9396 473.636 67.1214 473.358 67.2464 473.028L70.6044 473.25C70.4339 474.057 70.0845 474.761 69.5561 475.364C69.0334 475.96 68.3572 476.426 67.5277 476.761C66.7038 477.091 65.7521 477.256 64.6726 477.256ZM63.1385 462.222L64.9453 458.344H68.3033L65.7038 462.222H63.1385ZM76.6811 469.432V477H73.0504V463.909H76.5107V466.219H76.6641C76.9538 465.457 77.4396 464.855 78.1214 464.412C78.8033 463.963 79.63 463.739 80.6016 463.739C81.5107 463.739 82.3033 463.938 82.9794 464.335C83.6555 464.733 84.1811 465.301 84.5561 466.04C84.9311 466.773 85.1186 467.648 85.1186 468.665V477H81.4879V469.312C81.4936 468.511 81.2891 467.886 80.8743 467.438C80.4595 466.983 79.8885 466.756 79.1612 466.756C78.6726 466.756 78.2408 466.861 77.8658 467.071C77.4964 467.281 77.2067 467.588 76.9964 467.991C76.7919 468.389 76.6868 468.869 76.6811 469.432ZM93.946 477.256C92.5994 477.256 91.4403 476.983 90.4688 476.438C89.5028 475.886 88.7585 475.108 88.2358 474.102C87.7131 473.091 87.4517 471.895 87.4517 470.514C87.4517 469.168 87.7131 467.986 88.2358 466.969C88.7585 465.952 89.4943 465.159 90.4432 464.591C91.3977 464.023 92.517 463.739 93.8011 463.739C94.6648 463.739 95.4688 463.878 96.2131 464.156C96.9631 464.429 97.6165 464.841 98.1733 465.392C98.7358 465.943 99.1733 466.636 99.4858 467.472C99.7983 468.301 99.9545 469.273 99.9545 470.386V471.384H88.9006V469.134H96.5369C96.5369 468.611 96.4233 468.148 96.196 467.744C95.9688 467.341 95.6534 467.026 95.25 466.798C94.8523 466.565 94.3892 466.449 93.8608 466.449C93.3097 466.449 92.821 466.577 92.3949 466.832C91.9744 467.082 91.6449 467.42 91.4062 467.847C91.1676 468.267 91.0455 468.736 91.0398 469.253V471.392C91.0398 472.04 91.1591 472.599 91.3977 473.071C91.642 473.543 91.9858 473.906 92.429 474.162C92.8722 474.418 93.3977 474.545 94.0057 474.545C94.4091 474.545 94.7784 474.489 95.1136 474.375C95.4489 474.261 95.7358 474.091 95.9744 473.864C96.2131 473.636 96.3949 473.358 96.5199 473.028L99.8778 473.25C99.7074 474.057 99.358 474.761 98.8295 475.364C98.3068 475.96 97.6307 476.426 96.8011 476.761C95.9773 477.091 95.0256 477.256 93.946 477.256ZM92.4119 462.222L94.2188 458.344H97.5767L94.9773 462.222H92.4119ZM109.364 463.909V466.636H101.284V463.909H109.364ZM103.134 477V462.963C103.134 462.014 103.318 461.227 103.688 460.602C104.062 459.977 104.574 459.509 105.222 459.196C105.869 458.884 106.605 458.727 107.429 458.727C107.986 458.727 108.494 458.77 108.955 458.855C109.42 458.94 109.767 459.017 109.994 459.085L109.347 461.812C109.205 461.767 109.028 461.724 108.818 461.685C108.614 461.645 108.403 461.625 108.188 461.625C107.653 461.625 107.281 461.75 107.071 462C106.861 462.244 106.756 462.588 106.756 463.031V477H103.134ZM111.582 477V463.909H115.212V477H111.582ZM113.406 462.222C112.866 462.222 112.403 462.043 112.016 461.685C111.636 461.321 111.445 460.886 111.445 460.381C111.445 459.881 111.636 459.452 112.016 459.094C112.403 458.73 112.866 458.548 113.406 458.548C113.945 458.548 114.406 458.73 114.786 459.094C115.173 459.452 115.366 459.881 115.366 460.381C115.366 460.886 115.173 461.321 114.786 461.685C114.406 462.043 113.945 462.222 113.406 462.222ZM124.036 477.256C122.695 477.256 121.541 476.972 120.575 476.403C119.615 475.83 118.876 475.034 118.359 474.017C117.848 473 117.592 471.83 117.592 470.506C117.592 469.165 117.851 467.989 118.368 466.977C118.891 465.96 119.632 465.168 120.592 464.599C121.553 464.026 122.695 463.739 124.018 463.739C125.161 463.739 126.161 463.946 127.018 464.361C127.876 464.776 128.555 465.358 129.055 466.108C129.555 466.858 129.831 467.739 129.882 468.75H126.456C126.359 468.097 126.104 467.571 125.689 467.173C125.28 466.77 124.743 466.568 124.078 466.568C123.516 466.568 123.024 466.722 122.604 467.028C122.189 467.33 121.865 467.77 121.632 468.349C121.399 468.929 121.283 469.631 121.283 470.455C121.283 471.29 121.396 472 121.624 472.585C121.857 473.17 122.183 473.616 122.604 473.923C123.024 474.23 123.516 474.384 124.078 474.384C124.493 474.384 124.865 474.298 125.195 474.128C125.53 473.957 125.805 473.71 126.021 473.386C126.243 473.057 126.388 472.662 126.456 472.202H129.882C129.825 473.202 129.553 474.082 129.064 474.844C128.581 475.599 127.913 476.19 127.061 476.616C126.209 477.043 125.2 477.256 124.036 477.256ZM138.173 477.256C136.826 477.256 135.667 476.983 134.695 476.438C133.729 475.886 132.985 475.108 132.462 474.102C131.94 473.091 131.678 471.895 131.678 470.514C131.678 469.168 131.94 467.986 132.462 466.969C132.985 465.952 133.721 465.159 134.67 464.591C135.624 464.023 136.744 463.739 138.028 463.739C138.891 463.739 139.695 463.878 140.44 464.156C141.19 464.429 141.843 464.841 142.4 465.392C142.962 465.943 143.4 466.636 143.712 467.472C144.025 468.301 144.181 469.273 144.181 470.386V471.384H133.127V469.134H140.763C140.763 468.611 140.65 468.148 140.423 467.744C140.195 467.341 139.88 467.026 139.477 466.798C139.079 466.565 138.616 466.449 138.087 466.449C137.536 466.449 137.048 466.577 136.621 466.832C136.201 467.082 135.871 467.42 135.633 467.847C135.394 468.267 135.272 468.736 135.266 469.253V471.392C135.266 472.04 135.386 472.599 135.624 473.071C135.869 473.543 136.212 473.906 136.656 474.162C137.099 474.418 137.624 474.545 138.232 474.545C138.636 474.545 139.005 474.489 139.34 474.375C139.675 474.261 139.962 474.091 140.201 473.864C140.44 473.636 140.621 473.358 140.746 473.028L144.104 473.25C143.934 474.057 143.585 474.761 143.056 475.364C142.533 475.96 141.857 476.426 141.028 476.761C140.204 477.091 139.252 477.256 138.173 477.256Z" fill="white"/>
<path d="M43.4489 522.909V504.909H47.0284V507.108H47.1903C47.3494 506.756 47.5795 506.398 47.8807 506.034C48.1875 505.665 48.5852 505.358 49.0739 505.114C49.5682 504.864 50.1818 504.739 50.9148 504.739C51.8693 504.739 52.75 504.989 53.5568 505.489C54.3636 505.983 55.0085 506.73 55.4915 507.73C55.9744 508.724 56.2159 509.972 56.2159 511.472C56.2159 512.932 55.9801 514.165 55.5085 515.17C55.0426 516.17 54.4063 516.929 53.5994 517.446C52.7983 517.957 51.9006 518.213 50.9062 518.213C50.2017 518.213 49.6023 518.097 49.108 517.864C48.6193 517.631 48.2188 517.338 47.9062 516.986C47.5938 516.628 47.3551 516.267 47.1903 515.903H47.0795V522.909H43.4489ZM47.0028 511.455C47.0028 512.233 47.1108 512.912 47.3267 513.491C47.5426 514.071 47.8551 514.523 48.2642 514.847C48.6733 515.165 49.1705 515.324 49.7557 515.324C50.3466 515.324 50.8466 515.162 51.2557 514.838C51.6648 514.509 51.9744 514.054 52.1847 513.474C52.4006 512.889 52.5085 512.216 52.5085 511.455C52.5085 510.699 52.4034 510.034 52.1932 509.46C51.983 508.886 51.6733 508.437 51.2642 508.114C50.8551 507.79 50.3523 507.628 49.7557 507.628C49.1648 507.628 48.6648 507.784 48.2557 508.097C47.8523 508.409 47.5426 508.852 47.3267 509.426C47.1108 510 47.0028 510.676 47.0028 511.455ZM62.3693 518.247C61.5341 518.247 60.7898 518.102 60.1364 517.812C59.483 517.517 58.9659 517.082 58.5852 516.509C58.2102 515.929 58.0227 515.207 58.0227 514.344C58.0227 513.616 58.1563 513.006 58.4233 512.511C58.6903 512.017 59.054 511.619 59.5142 511.318C59.9744 511.017 60.4972 510.79 61.0824 510.636C61.6733 510.483 62.2926 510.375 62.9403 510.312C63.7017 510.233 64.3153 510.159 64.7812 510.091C65.2472 510.017 65.5852 509.909 65.7955 509.767C66.0057 509.625 66.1108 509.415 66.1108 509.136V509.085C66.1108 508.545 65.9403 508.128 65.5994 507.832C65.2642 507.537 64.7869 507.389 64.1676 507.389C63.5142 507.389 62.9943 507.534 62.608 507.824C62.2216 508.108 61.9659 508.466 61.8409 508.898L58.483 508.625C58.6534 507.83 58.9886 507.142 59.4886 506.562C59.9886 505.977 60.6335 505.528 61.4233 505.216C62.2188 504.898 63.1392 504.739 64.1847 504.739C64.9119 504.739 65.608 504.824 66.2727 504.994C66.9432 505.165 67.5369 505.429 68.054 505.787C68.5767 506.145 68.9886 506.605 69.2898 507.168C69.5909 507.724 69.7415 508.392 69.7415 509.17V518H66.2983V516.185H66.196C65.9858 516.594 65.7045 516.955 65.3523 517.267C65 517.574 64.5767 517.815 64.0824 517.991C63.5881 518.162 63.017 518.247 62.3693 518.247ZM63.4091 515.741C63.9432 515.741 64.4148 515.636 64.8239 515.426C65.233 515.21 65.554 514.92 65.7869 514.557C66.0199 514.193 66.1364 513.781 66.1364 513.321V511.932C66.0227 512.006 65.8665 512.074 65.6676 512.136C65.4744 512.193 65.2557 512.247 65.0114 512.298C64.767 512.344 64.5227 512.386 64.2784 512.426C64.0341 512.46 63.8125 512.491 63.6136 512.52C63.1875 512.582 62.8153 512.682 62.4972 512.818C62.179 512.955 61.9318 513.139 61.7557 513.372C61.5795 513.599 61.4915 513.884 61.4915 514.224C61.4915 514.719 61.6705 515.097 62.0284 515.358C62.392 515.614 62.8523 515.741 63.4091 515.741ZM83.4503 508.642L80.1264 508.847C80.0696 508.562 79.9474 508.307 79.7599 508.08C79.5724 507.847 79.3253 507.662 79.0185 507.526C78.7173 507.384 78.3565 507.312 77.9361 507.312C77.3736 507.312 76.8991 507.432 76.5128 507.67C76.1264 507.903 75.9332 508.216 75.9332 508.608C75.9332 508.92 76.0582 509.185 76.3082 509.401C76.5582 509.616 76.9872 509.79 77.5952 509.92L79.9645 510.398C81.2372 510.659 82.1861 511.08 82.8111 511.659C83.4361 512.239 83.7486 513 83.7486 513.943C83.7486 514.801 83.4957 515.554 82.9901 516.202C82.4901 516.849 81.8026 517.355 80.9276 517.719C80.0582 518.077 79.0554 518.256 77.919 518.256C76.1861 518.256 74.8054 517.895 73.777 517.173C72.7543 516.446 72.1548 515.457 71.9787 514.207L75.5497 514.02C75.6577 514.548 75.919 514.952 76.3338 515.23C76.7486 515.503 77.2798 515.639 77.9276 515.639C78.5639 515.639 79.0753 515.517 79.4616 515.273C79.8537 515.023 80.0526 514.702 80.0582 514.31C80.0526 513.98 79.9134 513.71 79.6406 513.5C79.3679 513.284 78.9474 513.119 78.3793 513.006L76.1122 512.554C74.8338 512.298 73.8821 511.855 73.2571 511.224C72.6378 510.594 72.3281 509.79 72.3281 508.812C72.3281 507.972 72.5554 507.247 73.0099 506.639C73.4702 506.031 74.1151 505.562 74.9446 505.233C75.7798 504.903 76.7571 504.739 77.8764 504.739C79.5298 504.739 80.831 505.088 81.7798 505.787C82.7344 506.486 83.2912 507.437 83.4503 508.642ZM96.4134 518.213C95.419 518.213 94.5185 517.957 93.7116 517.446C92.9105 516.929 92.2741 516.17 91.8026 515.17C91.3366 514.165 91.1037 512.932 91.1037 511.472C91.1037 509.972 91.3452 508.724 91.8281 507.73C92.3111 506.73 92.9531 505.983 93.7543 505.489C94.5611 504.989 95.4446 504.739 96.4048 504.739C97.1378 504.739 97.7486 504.864 98.2372 505.114C98.7315 505.358 99.1293 505.665 99.4304 506.034C99.7372 506.398 99.9702 506.756 100.129 507.108H100.24V500.545H103.862V518H100.283V515.903H100.129C99.9588 516.267 99.7173 516.628 99.4048 516.986C99.098 517.338 98.6974 517.631 98.2031 517.864C97.7145 518.097 97.1179 518.213 96.4134 518.213ZM97.5639 515.324C98.1491 515.324 98.6435 515.165 99.0469 514.847C99.456 514.523 99.7685 514.071 99.9844 513.491C100.206 512.912 100.317 512.233 100.317 511.455C100.317 510.676 100.209 510 99.9929 509.426C99.777 508.852 99.4645 508.409 99.0554 508.097C98.6463 507.784 98.1491 507.628 97.5639 507.628C96.9673 507.628 96.4645 507.79 96.0554 508.114C95.6463 508.437 95.3366 508.886 95.1264 509.46C94.9162 510.034 94.8111 510.699 94.8111 511.455C94.8111 512.216 94.9162 512.889 95.1264 513.474C95.3423 514.054 95.652 514.509 96.0554 514.838C96.4645 515.162 96.9673 515.324 97.5639 515.324ZM112.813 518.256C111.467 518.256 110.308 517.983 109.336 517.438C108.37 516.886 107.626 516.108 107.103 515.102C106.58 514.091 106.319 512.895 106.319 511.514C106.319 510.168 106.58 508.986 107.103 507.969C107.626 506.952 108.362 506.159 109.31 505.591C110.265 505.023 111.384 504.739 112.668 504.739C113.532 504.739 114.336 504.878 115.08 505.156C115.83 505.429 116.484 505.841 117.04 506.392C117.603 506.943 118.04 507.636 118.353 508.472C118.665 509.301 118.822 510.273 118.822 511.386V512.384H107.768V510.134H115.404C115.404 509.611 115.29 509.148 115.063 508.744C114.836 508.341 114.521 508.026 114.117 507.798C113.719 507.565 113.256 507.449 112.728 507.449C112.177 507.449 111.688 507.577 111.262 507.832C110.842 508.082 110.512 508.42 110.273 508.847C110.035 509.267 109.913 509.736 109.907 510.253V512.392C109.907 513.04 110.026 513.599 110.265 514.071C110.509 514.543 110.853 514.906 111.296 515.162C111.739 515.418 112.265 515.545 112.873 515.545C113.276 515.545 113.646 515.489 113.981 515.375C114.316 515.261 114.603 515.091 114.842 514.864C115.08 514.636 115.262 514.358 115.387 514.028L118.745 514.25C118.575 515.057 118.225 515.761 117.697 516.364C117.174 516.96 116.498 517.426 115.668 517.761C114.844 518.091 113.893 518.256 112.813 518.256ZM126.814 518V500.545H130.445V507.108H130.555C130.714 506.756 130.945 506.398 131.246 506.034C131.553 505.665 131.95 505.358 132.439 505.114C132.933 504.864 133.547 504.739 134.28 504.739C135.234 504.739 136.115 504.989 136.922 505.489C137.729 505.983 138.374 506.73 138.857 507.73C139.339 508.724 139.581 509.972 139.581 511.472C139.581 512.932 139.345 514.165 138.874 515.17C138.408 516.17 137.771 516.929 136.964 517.446C136.163 517.957 135.266 518.213 134.271 518.213C133.567 518.213 132.967 518.097 132.473 517.864C131.984 517.631 131.584 517.338 131.271 516.986C130.959 516.628 130.72 516.267 130.555 515.903H130.393V518H126.814ZM130.368 511.455C130.368 512.233 130.476 512.912 130.692 513.491C130.908 514.071 131.22 514.523 131.629 514.847C132.038 515.165 132.536 515.324 133.121 515.324C133.712 515.324 134.212 515.162 134.621 514.838C135.03 514.509 135.339 514.054 135.55 513.474C135.766 512.889 135.874 512.216 135.874 511.455C135.874 510.699 135.768 510.034 135.558 509.46C135.348 508.886 135.038 508.437 134.629 508.114C134.22 507.79 133.717 507.628 133.121 507.628C132.53 507.628 132.03 507.784 131.621 508.097C131.217 508.409 130.908 508.852 130.692 509.426C130.476 510 130.368 510.676 130.368 511.455ZM147.969 518.256C146.623 518.256 145.464 517.983 144.492 517.438C143.526 516.886 142.782 516.108 142.259 515.102C141.737 514.091 141.475 512.895 141.475 511.514C141.475 510.168 141.737 508.986 142.259 507.969C142.782 506.952 143.518 506.159 144.467 505.591C145.421 505.023 146.54 504.739 147.825 504.739C148.688 504.739 149.492 504.878 150.237 505.156C150.987 505.429 151.64 505.841 152.197 506.392C152.759 506.943 153.197 507.636 153.509 508.472C153.822 509.301 153.978 510.273 153.978 511.386V512.384H142.924V510.134H150.56C150.56 509.611 150.447 509.148 150.219 508.744C149.992 508.341 149.677 508.026 149.273 507.798C148.876 507.565 148.413 507.449 147.884 507.449C147.333 507.449 146.844 507.577 146.418 507.832C145.998 508.082 145.668 508.42 145.43 508.847C145.191 509.267 145.069 509.736 145.063 510.253V512.392C145.063 513.04 145.183 513.599 145.421 514.071C145.665 514.543 146.009 514.906 146.452 515.162C146.896 515.418 147.421 515.545 148.029 515.545C148.433 515.545 148.802 515.489 149.137 515.375C149.472 515.261 149.759 515.091 149.998 514.864C150.237 514.636 150.418 514.358 150.543 514.028L153.901 514.25C153.731 515.057 153.381 515.761 152.853 516.364C152.33 516.96 151.654 517.426 150.825 517.761C150.001 518.091 149.049 518.256 147.969 518.256ZM146.435 503.222L148.242 499.344H151.6L149.001 503.222H146.435ZM159.978 510.432V518H156.347V504.909H159.808V507.219H159.961C160.251 506.457 160.737 505.855 161.418 505.412C162.1 504.963 162.927 504.739 163.898 504.739C164.808 504.739 165.6 504.938 166.276 505.335C166.952 505.733 167.478 506.301 167.853 507.04C168.228 507.773 168.415 508.648 168.415 509.665V518H164.785V510.312C164.79 509.511 164.586 508.886 164.171 508.438C163.756 507.983 163.185 507.756 162.458 507.756C161.969 507.756 161.538 507.861 161.163 508.071C160.793 508.281 160.504 508.588 160.293 508.991C160.089 509.389 159.984 509.869 159.978 510.432ZM177.243 518.256C175.896 518.256 174.737 517.983 173.766 517.438C172.8 516.886 172.055 516.108 171.533 515.102C171.01 514.091 170.749 512.895 170.749 511.514C170.749 510.168 171.01 508.986 171.533 507.969C172.055 506.952 172.791 506.159 173.74 505.591C174.695 505.023 175.814 504.739 177.098 504.739C177.962 504.739 178.766 504.878 179.51 505.156C180.26 505.429 180.913 505.841 181.47 506.392C182.033 506.943 182.47 507.636 182.783 508.472C183.095 509.301 183.251 510.273 183.251 511.386V512.384H172.197V510.134H179.834C179.834 509.611 179.72 509.148 179.493 508.744C179.266 508.341 178.95 508.026 178.547 507.798C178.149 507.565 177.686 507.449 177.158 507.449C176.607 507.449 176.118 507.577 175.692 507.832C175.271 508.082 174.942 508.42 174.703 508.847C174.464 509.267 174.342 509.736 174.337 510.253V512.392C174.337 513.04 174.456 513.599 174.695 514.071C174.939 514.543 175.283 514.906 175.726 515.162C176.169 515.418 176.695 515.545 177.303 515.545C177.706 515.545 178.075 515.489 178.411 515.375C178.746 515.261 179.033 515.091 179.271 514.864C179.51 514.636 179.692 514.358 179.817 514.028L183.175 514.25C183.004 515.057 182.655 515.761 182.126 516.364C181.604 516.96 180.928 517.426 180.098 517.761C179.274 518.091 178.322 518.256 177.243 518.256ZM175.709 503.222L177.516 499.344H180.874L178.274 503.222H175.709ZM192.661 504.909V507.636H184.581V504.909H192.661ZM186.43 518V503.963C186.43 503.014 186.615 502.227 186.984 501.602C187.359 500.977 187.871 500.509 188.518 500.196C189.166 499.884 189.902 499.727 190.726 499.727C191.283 499.727 191.791 499.77 192.251 499.855C192.717 499.94 193.064 500.017 193.291 500.085L192.643 502.812C192.501 502.767 192.325 502.724 192.115 502.685C191.911 502.645 191.7 502.625 191.484 502.625C190.95 502.625 190.578 502.75 190.368 503C190.158 503.244 190.053 503.588 190.053 504.031V518H186.43ZM194.879 518V504.909H198.509V518H194.879ZM196.702 503.222C196.163 503.222 195.7 503.043 195.313 502.685C194.933 502.321 194.742 501.886 194.742 501.381C194.742 500.881 194.933 500.452 195.313 500.094C195.7 499.73 196.163 499.548 196.702 499.548C197.242 499.548 197.702 499.73 198.083 500.094C198.469 500.452 198.663 500.881 198.663 501.381C198.663 501.886 198.469 502.321 198.083 502.685C197.702 503.043 197.242 503.222 196.702 503.222ZM207.332 518.256C205.991 518.256 204.838 517.972 203.872 517.403C202.912 516.83 202.173 516.034 201.656 515.017C201.145 514 200.889 512.83 200.889 511.506C200.889 510.165 201.148 508.989 201.665 507.977C202.188 506.96 202.929 506.168 203.889 505.599C204.849 505.026 205.991 504.739 207.315 504.739C208.457 504.739 209.457 504.946 210.315 505.361C211.173 505.776 211.852 506.358 212.352 507.108C212.852 507.858 213.128 508.739 213.179 509.75H209.753C209.656 509.097 209.401 508.571 208.986 508.173C208.577 507.77 208.04 507.568 207.375 507.568C206.812 507.568 206.321 507.722 205.901 508.028C205.486 508.33 205.162 508.77 204.929 509.349C204.696 509.929 204.58 510.631 204.58 511.455C204.58 512.29 204.693 513 204.92 513.585C205.153 514.17 205.48 514.616 205.901 514.923C206.321 515.23 206.812 515.384 207.375 515.384C207.79 515.384 208.162 515.298 208.491 515.128C208.827 514.957 209.102 514.71 209.318 514.386C209.54 514.057 209.685 513.662 209.753 513.202H213.179C213.122 514.202 212.849 515.082 212.361 515.844C211.878 516.599 211.21 517.19 210.358 517.616C209.506 518.043 208.497 518.256 207.332 518.256ZM221.469 518.256C220.123 518.256 218.964 517.983 217.992 517.438C217.026 516.886 216.282 516.108 215.759 515.102C215.237 514.091 214.975 512.895 214.975 511.514C214.975 510.168 215.237 508.986 215.759 507.969C216.282 506.952 217.018 506.159 217.967 505.591C218.921 505.023 220.04 504.739 221.325 504.739C222.188 504.739 222.992 504.878 223.737 505.156C224.487 505.429 225.14 505.841 225.697 506.392C226.259 506.943 226.697 507.636 227.009 508.472C227.322 509.301 227.478 510.273 227.478 511.386V512.384H216.424V510.134H224.06C224.06 509.611 223.947 509.148 223.719 508.744C223.492 508.341 223.177 508.026 222.773 507.798C222.376 507.565 221.913 507.449 221.384 507.449C220.833 507.449 220.344 507.577 219.918 507.832C219.498 508.082 219.168 508.42 218.93 508.847C218.691 509.267 218.569 509.736 218.563 510.253V512.392C218.563 513.04 218.683 513.599 218.921 514.071C219.165 514.543 219.509 514.906 219.952 515.162C220.396 515.418 220.921 515.545 221.529 515.545C221.933 515.545 222.302 515.489 222.637 515.375C222.972 515.261 223.259 515.091 223.498 514.864C223.737 514.636 223.918 514.358 224.043 514.028L227.401 514.25C227.231 515.057 226.881 515.761 226.353 516.364C225.83 516.96 225.154 517.426 224.325 517.761C223.501 518.091 222.549 518.256 221.469 518.256Z" fill="white"/>
<rect y="454" width="29" height="29" fill="url(#paint2_linear_33_66)"/>
<rect y="495" width="29" height="29" fill="url(#paint3_linear_33_66)"/>
<defs>
<linearGradient id="paint0_linear_33_66" x1="91.5823" y1="408.455" x2="455.43" y2="408.455" gradientUnits="userSpaceOnUse">
<stop stop-color="#1BDD97"/>
<stop offset="1" stop-color="#36FAEE"/>
</linearGradient>
<linearGradient id="paint1_linear_33_66" x1="235.687" y1="4.90574e-08" x2="231.025" y2="193.893" gradientUnits="userSpaceOnUse">
<stop stop-color="#FF465E"/>
<stop offset="1" stop-color="#FF4344"/>
</linearGradient>
<linearGradient id="paint2_linear_33_66" x1="1.16466" y1="483" x2="28.3594" y2="483" gradientUnits="userSpaceOnUse">
<stop stop-color="#1BDD97"/>
<stop offset="1" stop-color="#36FAEE"/>
</linearGradient>
<linearGradient id="paint3_linear_33_66" x1="14.5" y1="495" x2="14.2771" y2="523.998" gradientUnits="userSpaceOnUse">
<stop stop-color="#FF465E"/>
<stop offset="1" stop-color="#FF4344"/>
</linearGradient>
</defs>
</svg>
