<svg width="483" height="307" viewBox="0 0 483 307" fill="none" xmlns="http://www.w3.org/2000/svg">
<path d="M45.7201 30.2872H481" stroke="#1C293D" stroke-width="1.87891" stroke-linecap="round"/>
<path d="M45.7201 123.359H481" stroke="#1C293D" stroke-width="1.87891" stroke-linecap="round"/>
<path d="M45.7201 76.8229H481" stroke="#1C293D" stroke-width="1.87891" stroke-linecap="round"/>
<path d="M45.7201 169.894H481" stroke="#1C293D" stroke-width="1.87891" stroke-linecap="round"/>
<path d="M45.7201 216.971H481" stroke="#1C293D" stroke-width="1.87891" stroke-linecap="round"/>
<path d="M39.457 266.753H474.737" stroke="#1C293D" stroke-width="1.87891" stroke-linecap="round"/>
<path d="M355.74 207.726H449.685V267.851H355.74V207.726Z" fill="url(#paint0_linear_14_95)"/>
<path d="M92.6927 93.113H186.638V267.851H92.6927V93.113Z" fill="url(#paint1_linear_14_95)"/>
<path d="M224.216 251.567H318.161V267.851H224.216V251.567Z" fill="url(#paint2_linear_14_95)"/>
<path d="M118.356 72.9057H126.02V74.3612L121.548 85.1812H119.847L124.284 74.4489H118.356V72.9057ZM126.755 85.1812V83.8484L131.087 79.4293C132.244 78.2718 132.823 77.2781 132.823 76.4481C132.823 75.7583 132.612 75.2205 132.191 74.8347C131.771 74.4489 131.256 74.256 130.648 74.256C129.491 74.256 128.649 74.8055 128.123 75.9044L126.755 75.0977C127.141 74.3028 127.673 73.7007 128.351 73.2915C129.041 72.8823 129.801 72.6777 130.631 72.6777C131.659 72.6777 132.554 73.0168 133.314 73.6948C134.074 74.3729 134.454 75.2848 134.454 76.4305C134.454 77.6698 133.723 79.0201 132.262 80.4814L129.123 83.6029H134.682V85.1812H126.755ZM138.809 83.375L137.669 87.6363H136.354L137.055 83.375H138.809ZM144.542 77.6931C145.699 77.6931 146.675 78.038 147.47 78.7278C148.277 79.4059 148.681 80.347 148.681 81.5512C148.681 82.7436 148.271 83.6848 147.453 84.3745C146.635 85.0643 145.641 85.4092 144.472 85.4092C143.536 85.4092 142.701 85.1871 141.964 84.7428C141.228 84.2869 140.713 83.6322 140.421 82.7787L141.806 81.9896C141.97 82.5858 142.286 83.0418 142.753 83.3574C143.221 83.6614 143.794 83.8134 144.472 83.8134C145.243 83.8134 145.869 83.6146 146.348 83.2171C146.827 82.8196 147.067 82.2643 147.067 81.5512C147.067 80.838 146.827 80.2827 146.348 79.8852C145.869 79.476 145.255 79.2714 144.507 79.2714H141.035L141.491 72.9057H148.207V74.4314H142.964L142.753 77.6931H144.542ZM152.722 78.114C151.927 78.114 151.266 77.851 150.74 77.3249C150.214 76.7988 149.951 76.1558 149.951 75.3959C149.951 74.6476 150.214 74.0105 150.74 73.4844C151.278 72.9466 151.938 72.6777 152.722 72.6777C153.517 72.6777 154.177 72.9408 154.703 73.4669C155.229 73.993 155.492 74.636 155.492 75.3959C155.492 76.1558 155.229 76.7988 154.703 77.3249C154.189 77.851 153.528 78.114 152.722 78.114ZM151.704 76.4305C151.973 76.6994 152.312 76.8339 152.722 76.8339C153.131 76.8339 153.464 76.6936 153.721 76.413C153.99 76.1324 154.124 75.7934 154.124 75.3959C154.124 74.9984 153.99 74.6652 153.721 74.3963C153.464 74.1157 153.131 73.9754 152.722 73.9754C152.312 73.9754 151.973 74.1157 151.704 74.3963C151.447 74.6652 151.319 74.9984 151.319 75.3959C151.319 75.8051 151.447 76.1499 151.704 76.4305ZM150.775 83.4451L158.929 74.3261L159.789 74.7996L151.617 83.9361L150.775 83.4451ZM159.999 84.6025C159.473 85.1286 158.813 85.3917 158.018 85.3917C157.223 85.3917 156.562 85.1286 156.036 84.6025C155.51 84.0764 155.247 83.4334 155.247 82.6735C155.247 81.9136 155.51 81.2706 156.036 80.7445C156.562 80.2184 157.223 79.9553 158.018 79.9553C158.813 79.9553 159.473 80.2184 159.999 80.7445C160.525 81.2706 160.788 81.9136 160.788 82.6735C160.788 83.4334 160.525 84.0764 159.999 84.6025ZM157 83.6906C157.269 83.9595 157.608 84.094 158.018 84.094C158.427 84.094 158.76 83.9595 159.017 83.6906C159.286 83.41 159.42 83.071 159.42 82.6735C159.42 82.276 159.286 81.9428 159.017 81.6739C158.76 81.3933 158.427 81.253 158.018 81.253C157.608 81.253 157.269 81.3933 157 81.6739C156.743 81.9428 156.615 82.276 156.615 82.6735C156.615 83.071 156.743 83.41 157 83.6906Z" fill="white"/>
<path d="M264.969 233.725C266.197 233.725 267.208 234.111 268.003 234.882C268.798 235.642 269.195 236.63 269.195 237.846C269.195 239.062 268.798 240.056 268.003 240.827C267.208 241.599 266.197 241.985 264.969 241.985C263.73 241.985 262.713 241.599 261.918 240.827C261.134 240.056 260.743 239.062 260.743 237.846C260.743 236.899 260.988 236.081 261.479 235.391L265.425 229.481H267.284L264.39 233.76C264.648 233.737 264.84 233.725 264.969 233.725ZM263.075 239.722C263.566 240.19 264.197 240.424 264.969 240.424C265.741 240.424 266.366 240.19 266.845 239.722C267.336 239.243 267.582 238.618 267.582 237.846C267.582 237.074 267.336 236.455 266.845 235.987C266.366 235.52 265.741 235.286 264.969 235.286C264.186 235.286 263.554 235.52 263.075 235.987C262.596 236.455 262.356 237.074 262.356 237.846C262.356 238.618 262.596 239.243 263.075 239.722ZM272.892 234.69C272.097 234.69 271.437 234.426 270.911 233.9C270.384 233.374 270.121 232.731 270.121 231.971C270.121 231.223 270.384 230.586 270.911 230.06C271.448 229.522 272.109 229.253 272.892 229.253C273.687 229.253 274.348 229.516 274.874 230.042C275.4 230.568 275.663 231.211 275.663 231.971C275.663 232.731 275.4 233.374 274.874 233.9C274.359 234.426 273.699 234.69 272.892 234.69ZM271.875 233.006C272.144 233.275 272.483 233.409 272.892 233.409C273.301 233.409 273.635 233.269 273.892 232.988C274.161 232.708 274.295 232.369 274.295 231.971C274.295 231.574 274.161 231.241 273.892 230.972C273.635 230.691 273.301 230.551 272.892 230.551C272.483 230.551 272.144 230.691 271.875 230.972C271.618 231.241 271.489 231.574 271.489 231.971C271.489 232.381 271.618 232.725 271.875 233.006ZM270.946 240.021L279.1 230.902L279.959 231.375L271.787 240.512L270.946 240.021ZM280.17 241.178C279.644 241.704 278.983 241.967 278.188 241.967C277.393 241.967 276.733 241.704 276.207 241.178C275.681 240.652 275.417 240.009 275.417 239.249C275.417 238.489 275.681 237.846 276.207 237.32C276.733 236.794 277.393 236.531 278.188 236.531C278.983 236.531 279.644 236.794 280.17 237.32C280.696 237.846 280.959 238.489 280.959 239.249C280.959 240.009 280.696 240.652 280.17 241.178ZM277.171 240.266C277.44 240.535 277.779 240.669 278.188 240.669C278.597 240.669 278.931 240.535 279.188 240.266C279.457 239.986 279.591 239.646 279.591 239.249C279.591 238.852 279.457 238.518 279.188 238.249C278.931 237.969 278.597 237.829 278.188 237.829C277.779 237.829 277.44 237.969 277.171 238.249C276.914 238.518 276.785 238.852 276.785 239.249C276.785 239.646 276.914 239.986 277.171 240.266Z" fill="white"/>
<path d="M382.263 201.673V200.341L386.595 195.921C387.752 194.764 388.331 193.77 388.331 192.94C388.331 192.25 388.12 191.713 387.699 191.327C387.279 190.941 386.764 190.748 386.156 190.748C384.999 190.748 384.157 191.298 383.631 192.397L382.263 191.59C382.649 190.795 383.181 190.193 383.859 189.784C384.549 189.374 385.309 189.17 386.139 189.17C387.168 189.17 388.062 189.509 388.822 190.187C389.582 190.865 389.962 191.777 389.962 192.923C389.962 194.162 389.231 195.512 387.77 196.974L384.631 200.095H390.19V201.673H382.263ZM394.266 189.398H395.669V201.673H394.056V191.152L391.443 191.923L391.039 190.52L394.266 189.398ZM400.482 199.867L399.342 204.129H398.027L398.728 199.867H400.482ZM406.215 194.185C407.373 194.185 408.349 194.53 409.144 195.22C409.95 195.898 410.354 196.839 410.354 198.043C410.354 199.236 409.945 200.177 409.126 200.867C408.308 201.556 407.314 201.901 406.145 201.901C405.21 201.901 404.374 201.679 403.637 201.235C402.901 200.779 402.386 200.124 402.094 199.271L403.479 198.482C403.643 199.078 403.959 199.534 404.426 199.85C404.894 200.154 405.467 200.306 406.145 200.306C406.917 200.306 407.542 200.107 408.021 199.709C408.501 199.312 408.74 198.757 408.74 198.043C408.74 197.33 408.501 196.775 408.021 196.377C407.542 195.968 406.928 195.764 406.18 195.764H402.708L403.164 189.398H409.88V190.924H404.637L404.426 194.185H406.215ZM414.395 194.606C413.6 194.606 412.939 194.343 412.413 193.817C411.887 193.291 411.624 192.648 411.624 191.888C411.624 191.14 411.887 190.503 412.413 189.977C412.951 189.439 413.611 189.17 414.395 189.17C415.19 189.17 415.85 189.433 416.376 189.959C416.902 190.485 417.166 191.128 417.166 191.888C417.166 192.648 416.902 193.291 416.376 193.817C415.862 194.343 415.201 194.606 414.395 194.606ZM413.378 192.923C413.647 193.192 413.986 193.326 414.395 193.326C414.804 193.326 415.137 193.186 415.394 192.905C415.663 192.625 415.798 192.286 415.798 191.888C415.798 191.491 415.663 191.157 415.394 190.888C415.137 190.608 414.804 190.468 414.395 190.468C413.986 190.468 413.647 190.608 413.378 190.888C413.12 191.157 412.992 191.491 412.992 191.888C412.992 192.297 413.12 192.642 413.378 192.923ZM412.448 199.937L420.603 190.818L421.462 191.292L413.29 200.428L412.448 199.937ZM421.672 201.095C421.146 201.621 420.486 201.884 419.691 201.884C418.896 201.884 418.235 201.621 417.709 201.095C417.183 200.569 416.92 199.926 416.92 199.166C416.92 198.406 417.183 197.763 417.709 197.237C418.235 196.711 418.896 196.448 419.691 196.448C420.486 196.448 421.146 196.711 421.672 197.237C422.199 197.763 422.462 198.406 422.462 199.166C422.462 199.926 422.199 200.569 421.672 201.095ZM418.674 200.183C418.943 200.452 419.282 200.586 419.691 200.586C420.1 200.586 420.433 200.452 420.69 200.183C420.959 199.902 421.094 199.563 421.094 199.166C421.094 198.768 420.959 198.435 420.69 198.166C420.433 197.886 420.1 197.745 419.691 197.745C419.282 197.745 418.943 197.886 418.674 198.166C418.416 198.435 418.288 198.768 418.288 199.166C418.288 199.563 418.416 199.902 418.674 200.183Z" fill="white"/>
<path d="M19.966 222.772L19.966 221.439L24.2975 217.02C25.4549 215.863 26.0336 214.869 26.0336 214.039C26.0336 213.349 25.8232 212.811 25.4023 212.426C24.9814 212.04 24.467 211.847 23.8591 211.847C22.7017 211.847 21.8599 212.396 21.3338 213.495L19.966 212.689C20.3518 211.894 20.8837 211.292 21.5618 210.882C22.2516 210.473 23.0115 210.269 23.8415 210.269C24.8703 210.269 25.7647 210.608 26.5246 211.286C27.2845 211.964 27.6645 212.876 27.6645 214.021C27.6645 215.261 26.9338 216.611 25.4724 218.072L22.3334 221.194H27.8925V222.772H19.966ZM37.4249 221.264C36.5948 222.421 35.4316 223 33.9351 223C32.4387 223 31.2754 222.421 30.4454 221.264C29.6153 220.107 29.2003 218.563 29.2003 216.634C29.2003 214.705 29.6153 213.162 30.4454 212.005C31.2754 210.847 32.4387 210.269 33.9351 210.269C35.4316 210.269 36.5948 210.847 37.4249 212.005C38.2549 213.162 38.67 214.705 38.67 216.634C38.67 218.563 38.2549 220.107 37.4249 221.264ZM31.6379 220.159C32.1756 220.989 32.9414 221.404 33.9351 221.404C34.9289 221.404 35.6946 220.989 36.2324 220.159C36.7819 219.329 37.0566 218.154 37.0566 216.634C37.0566 215.115 36.7819 213.94 36.2324 213.11C35.6946 212.268 34.9289 211.847 33.9351 211.847C32.9414 211.847 32.1756 212.262 31.6379 213.092C31.1001 213.922 30.8312 215.103 30.8312 216.634C30.8312 218.154 31.1001 219.329 31.6379 220.159Z" fill="white"/>
<path d="M34.9196 268.432C34.0896 269.59 32.9263 270.168 31.4299 270.168C29.9334 270.168 28.7702 269.59 27.9401 268.432C27.1101 267.275 26.695 265.732 26.695 263.803C26.695 261.874 27.1101 260.33 27.9401 259.173C28.7702 258.016 29.9334 257.437 31.4299 257.437C32.9263 257.437 34.0896 258.016 34.9196 259.173C35.7497 260.33 36.1647 261.874 36.1647 263.803C36.1647 265.732 35.7497 267.275 34.9196 268.432ZM29.1326 267.327C29.6704 268.157 30.4362 268.572 31.4299 268.572C32.4236 268.572 33.1894 268.157 33.7272 267.327C34.2766 266.497 34.5514 265.322 34.5514 263.803C34.5514 262.283 34.2766 261.108 33.7272 260.278C33.1894 259.436 32.4236 259.015 31.4299 259.015C30.4362 259.015 29.6704 259.43 29.1326 260.26C28.5948 261.09 28.3259 262.271 28.3259 263.803C28.3259 265.322 28.5948 266.497 29.1326 267.327Z" fill="white"/>
<path d="M23.6923 121.128C24.9199 121.128 25.9311 121.514 26.7261 122.285C27.5211 123.045 27.9186 124.033 27.9186 125.249C27.9186 126.465 27.5211 127.459 26.7261 128.23C25.9311 129.002 24.9199 129.388 23.6923 129.388C22.4531 129.388 21.4359 129.002 20.641 128.23C19.8577 127.459 19.466 126.465 19.466 125.249C19.466 124.302 19.7115 123.484 20.2025 122.794L24.1482 116.884H26.0071L23.1136 121.163C23.3708 121.14 23.5637 121.128 23.6923 121.128ZM21.7984 127.125C22.2894 127.593 22.9207 127.827 23.6923 127.827C24.4639 127.827 25.0894 127.593 25.5687 127.125C26.0597 126.646 26.3052 126.021 26.3052 125.249C26.3052 124.477 26.0597 123.858 25.5687 123.39C25.0894 122.922 24.4639 122.689 23.6923 122.689C22.909 122.689 22.2777 122.922 21.7984 123.39C21.319 123.858 21.0794 124.477 21.0794 125.249C21.0794 126.021 21.319 126.646 21.7984 127.125ZM37.4249 127.651C36.5948 128.809 35.4315 129.388 33.9351 129.388C32.4387 129.388 31.2754 128.809 30.4453 127.651C29.6153 126.494 29.2003 124.951 29.2003 123.022C29.2003 121.093 29.6153 119.55 30.4453 118.392C31.2754 117.235 32.4387 116.656 33.9351 116.656C35.4315 116.656 36.5948 117.235 37.4249 118.392C38.2549 119.55 38.6699 121.093 38.6699 123.022C38.6699 124.951 38.2549 126.494 37.4249 127.651ZM31.6378 126.547C32.1756 127.377 32.9414 127.792 33.9351 127.792C34.9288 127.792 35.6946 127.377 36.2324 126.547C36.7818 125.717 37.0566 124.542 37.0566 123.022C37.0566 121.502 36.7818 120.327 36.2324 119.497C35.6946 118.655 34.9288 118.234 33.9351 118.234C32.9414 118.234 32.1756 118.649 31.6378 119.479C31.1 120.31 30.8311 121.49 30.8311 123.022C30.8311 124.542 31.1 125.717 31.6378 126.547Z" fill="white"/>
<path d="M25.8387 76.2757C26.435 76.5797 26.9026 76.9889 27.2417 77.5033C27.5807 78.0177 27.7502 78.6022 27.7502 79.2569C27.7502 80.3792 27.3586 81.2619 26.5753 81.9049C25.792 82.5362 24.7807 82.8519 23.5415 82.8519C22.3139 82.8519 21.3085 82.5362 20.5252 81.9049C19.7419 81.2619 19.3502 80.3792 19.3502 79.2569C19.3502 78.6022 19.5198 78.0177 19.8588 77.5033C20.1978 76.9889 20.6655 76.5797 21.2617 76.2757C20.2563 75.6444 19.7536 74.75 19.7536 73.5926C19.7536 72.482 20.1219 71.6285 20.8584 71.0323C21.6066 70.4244 22.501 70.1204 23.5415 70.1204C24.5936 70.1204 25.488 70.4244 26.2245 71.0323C26.9728 71.6285 27.3469 72.482 27.3469 73.5926C27.3469 74.75 26.8442 75.6444 25.8387 76.2757ZM23.5415 71.6812C22.9218 71.6812 22.4016 71.8448 21.9807 72.1722C21.5715 72.4995 21.3669 72.9847 21.3669 73.6277C21.3669 74.2473 21.5774 74.7325 21.9983 75.0832C22.4191 75.4223 22.9335 75.5918 23.5415 75.5918C24.1494 75.5918 24.6638 75.4223 25.0847 75.0832C25.5055 74.7325 25.716 74.2473 25.716 73.6277C25.716 72.9847 25.5114 72.4995 25.1022 72.1722C24.693 71.8448 24.1728 71.6812 23.5415 71.6812ZM23.5415 81.2911C24.3248 81.2911 24.9502 81.1099 25.4179 80.7475C25.8972 80.3734 26.1369 79.8414 26.1369 79.1517C26.1369 78.4736 25.8972 77.9534 25.4179 77.5909C24.9502 77.2168 24.3248 77.0298 23.5415 77.0298C22.7699 77.0298 22.1444 77.2168 21.6651 77.5909C21.1974 77.9534 20.9636 78.4736 20.9636 79.1517C20.9636 79.8414 21.1974 80.3734 21.6651 80.7475C22.1444 81.1099 22.7699 81.2911 23.5415 81.2911ZM37.4249 81.1158C36.5948 82.2732 35.4315 82.8519 33.9351 82.8519C32.4387 82.8519 31.2754 82.2732 30.4453 81.1158C29.6153 79.9584 29.2003 78.4151 29.2003 76.4861C29.2003 74.5571 29.6153 73.0139 30.4453 71.8565C31.2754 70.6991 32.4387 70.1204 33.9351 70.1204C35.4315 70.1204 36.5948 70.6991 37.4249 71.8565C38.2549 73.0139 38.6699 74.5571 38.6699 76.4861C38.6699 78.4151 38.2549 79.9584 37.4249 81.1158ZM31.6378 80.011C32.1756 80.841 32.9414 81.2561 33.9351 81.2561C34.9288 81.2561 35.6946 80.841 36.2324 80.011C36.7818 79.1809 37.0566 78.006 37.0566 76.4861C37.0566 74.9663 36.7818 73.7914 36.2324 72.9613C35.6946 72.1196 34.9288 71.6987 33.9351 71.6987C32.9414 71.6987 32.1756 72.1137 31.6378 72.9438C31.1 73.7738 30.8311 74.9546 30.8311 76.4861C30.8311 78.006 31.1 79.1809 31.6378 80.011Z" fill="white"/>
<path d="M14.5866 23.8127H15.9895L15.9895 36.0883H14.3762L14.3762 25.5664L11.7633 26.338L11.3599 24.9351L14.5866 23.8127ZM26.3789 34.5801C25.5489 35.7375 24.3856 36.3162 22.8892 36.3162C21.3927 36.3162 20.2295 35.7375 19.3994 34.5801C18.5694 33.4227 18.1543 31.8795 18.1543 29.9505C18.1543 28.0215 18.5694 26.4783 19.3994 25.3209C20.2295 24.1635 21.3927 23.5848 22.8892 23.5848C24.3856 23.5848 25.5489 24.1635 26.3789 25.3209C27.209 26.4783 27.624 28.0215 27.624 29.9505C27.624 31.8795 27.209 33.4227 26.3789 34.5801ZM20.5919 33.4753C21.1297 34.3054 21.8955 34.7204 22.8892 34.7204C23.8829 34.7204 24.6487 34.3054 25.1865 33.4753C25.7359 32.6453 26.0107 31.4703 26.0107 29.9505C26.0107 28.4307 25.7359 27.2557 25.1865 26.4257C24.6487 25.5839 23.8829 25.163 22.8892 25.163C21.8955 25.163 21.1297 25.5781 20.5919 26.4081C20.0541 27.2382 19.7852 28.419 19.7852 29.9505C19.7852 31.4703 20.0541 32.6453 20.5919 33.4753ZM37.4249 34.5801C36.5948 35.7375 35.4315 36.3162 33.9351 36.3162C32.4387 36.3162 31.2754 35.7375 30.4453 34.5801C29.6153 33.4227 29.2003 31.8795 29.2003 29.9505C29.2003 28.0215 29.6153 26.4783 30.4453 25.3209C31.2754 24.1635 32.4387 23.5848 33.9351 23.5848C35.4315 23.5848 36.5948 24.1635 37.4249 25.3209C38.2549 26.4783 38.6699 28.0215 38.6699 29.9505C38.6699 31.8795 38.2549 33.4227 37.4249 34.5801ZM31.6378 33.4753C32.1756 34.3054 32.9414 34.7204 33.9351 34.7204C34.9288 34.7204 35.6946 34.3054 36.2324 33.4753C36.7818 32.6453 37.0566 31.4703 37.0566 29.9505C37.0566 28.4307 36.7818 27.2557 36.2324 26.4257C35.6946 25.5839 34.9288 25.163 33.9351 25.163C32.9414 25.163 32.1756 25.5781 31.6378 26.4081C31.1 27.2382 30.8311 28.419 30.8311 29.9505C30.8311 31.4703 31.1 32.6453 31.6378 33.4753Z" fill="white"/>
<path d="M28.0414 171.837V173.363H26.5508V175.695H24.9199V173.363H18.6594V171.837L23.0611 163.42H24.8147L20.4131 171.837H24.9199V168.365H26.5508V171.837H28.0414ZM37.4248 174.187C36.5948 175.345 35.4315 175.923 33.9351 175.923C32.4386 175.923 31.2754 175.345 30.4453 174.187C29.6152 173.03 29.2002 171.487 29.2002 169.558C29.2002 167.629 29.6152 166.085 30.4453 164.928C31.2754 163.771 32.4386 163.192 33.9351 163.192C35.4315 163.192 36.5948 163.771 37.4248 164.928C38.2549 166.085 38.6699 167.629 38.6699 169.558C38.6699 171.487 38.2549 173.03 37.4248 174.187ZM31.6378 173.082C32.1756 173.912 32.9413 174.327 33.9351 174.327C34.9288 174.327 35.6945 173.912 36.2323 173.082C36.7818 172.252 37.0565 171.077 37.0565 169.558C37.0565 168.038 36.7818 166.863 36.2323 166.033C35.6945 165.191 34.9288 164.77 33.9351 164.77C32.9413 164.77 32.1756 165.185 31.6378 166.015C31.1 166.845 30.8311 168.026 30.8311 169.558C30.8311 171.077 31.1 172.252 31.6378 173.082Z" fill="white"/>
<path d="M117.934 295.665C117.363 295.665 116.859 295.545 116.423 295.304C115.987 295.064 115.668 294.714 115.465 294.256L116.356 293.737C116.589 294.338 117.115 294.639 117.934 294.639C118.437 294.639 118.832 294.519 119.118 294.278C119.403 294.038 119.546 293.681 119.546 293.207V287.627H120.583V293.207C120.583 293.997 120.331 294.605 119.828 295.034C119.332 295.455 118.7 295.665 117.934 295.665ZM123.532 287.616L122.8 290.355H121.954L122.405 287.616H123.532ZM124.703 293.151C124.801 293.655 125.03 294.045 125.391 294.323C125.759 294.602 126.21 294.741 126.744 294.741C127.488 294.741 128.029 294.466 128.367 293.918L129.201 294.391C128.653 295.24 127.826 295.665 126.721 295.665C125.827 295.665 125.098 295.387 124.534 294.831C123.978 294.267 123.7 293.557 123.7 292.7C123.7 291.851 123.974 291.144 124.523 290.581C125.071 290.017 125.782 289.735 126.653 289.735C127.48 289.735 128.153 290.028 128.671 290.614C129.198 291.193 129.461 291.892 129.461 292.711C129.461 292.854 129.449 293.001 129.427 293.151H124.703ZM126.653 290.66C126.127 290.66 125.691 290.81 125.346 291.111C125 291.404 124.786 291.798 124.703 292.294H128.469C128.386 291.761 128.175 291.355 127.837 291.077C127.499 290.799 127.104 290.66 126.653 290.66ZM133.395 289.735C134.056 289.735 134.586 289.946 134.985 290.366C135.383 290.78 135.582 291.344 135.582 292.057V295.518H134.601V292.114C134.601 291.655 134.477 291.302 134.229 291.054C133.981 290.799 133.639 290.671 133.203 290.671C132.715 290.671 132.32 290.825 132.02 291.133C131.719 291.434 131.569 291.9 131.569 292.531V295.518H130.588V289.882H131.569V290.693C131.967 290.055 132.576 289.735 133.395 289.735ZM144.437 289.882H145.418V295.518H144.437V294.549C143.948 295.293 143.238 295.665 142.306 295.665C141.517 295.665 140.844 295.379 140.288 294.808C139.732 294.23 139.454 293.527 139.454 292.7C139.454 291.873 139.732 291.174 140.288 290.603C140.844 290.025 141.517 289.735 142.306 289.735C143.238 289.735 143.948 290.107 144.437 290.851V289.882ZM142.43 294.718C143.001 294.718 143.479 294.526 143.862 294.143C144.245 293.752 144.437 293.271 144.437 292.7C144.437 292.129 144.245 291.652 143.862 291.268C143.479 290.878 143.001 290.682 142.43 290.682C141.867 290.682 141.393 290.878 141.01 291.268C140.626 291.652 140.435 292.129 140.435 292.7C140.435 293.271 140.626 293.752 141.01 294.143C141.393 294.526 141.867 294.718 142.43 294.718ZM147.4 288.856C147.212 288.856 147.054 288.792 146.926 288.664C146.798 288.536 146.735 288.382 146.735 288.202C146.735 288.022 146.798 287.868 146.926 287.74C147.054 287.604 147.212 287.537 147.4 287.537C147.58 287.537 147.734 287.604 147.862 287.74C147.99 287.868 148.054 288.022 148.054 288.202C148.054 288.382 147.99 288.536 147.862 288.664C147.734 288.792 147.58 288.856 147.4 288.856ZM146.904 295.518V289.882H147.884V295.518H146.904Z" fill="white"/>
<path d="M204.547 288.665C203.976 288.665 203.472 288.545 203.036 288.304C202.6 288.064 202.281 287.714 202.078 287.256L202.969 286.737C203.202 287.338 203.728 287.639 204.547 287.639C205.051 287.639 205.445 287.519 205.731 287.278C206.016 287.038 206.159 286.681 206.159 286.207V280.627H207.196V286.207C207.196 286.997 206.944 287.605 206.441 288.034C205.945 288.455 205.314 288.665 204.547 288.665ZM209.313 286.151C209.41 286.655 209.64 287.045 210 287.323C210.369 287.602 210.82 287.741 211.353 287.741C212.097 287.741 212.638 287.466 212.977 286.918L213.811 287.391C213.262 288.24 212.435 288.665 211.331 288.665C210.436 288.665 209.707 288.387 209.144 287.831C208.587 287.267 208.309 286.557 208.309 285.7C208.309 284.851 208.584 284.144 209.132 283.581C209.681 283.017 210.391 282.735 211.263 282.735C212.09 282.735 212.762 283.028 213.281 283.614C213.807 284.193 214.07 284.892 214.07 285.711C214.07 285.854 214.059 286.001 214.036 286.151H209.313ZM211.263 283.66C210.737 283.66 210.301 283.81 209.955 284.111C209.61 284.404 209.395 284.798 209.313 285.294H213.078C212.995 284.761 212.785 284.355 212.447 284.077C212.108 283.799 211.714 283.66 211.263 283.66ZM221.962 282.882H223.021L220.767 288.518H219.617L217.362 282.882H218.422L220.192 287.47L221.962 282.882ZM228.298 282.882H229.279V288.518H228.298V287.549C227.809 288.293 227.099 288.665 226.167 288.665C225.378 288.665 224.705 288.379 224.149 287.808C223.593 287.23 223.315 286.527 223.315 285.7C223.315 284.873 223.593 284.174 224.149 283.603C224.705 283.025 225.378 282.735 226.167 282.735C227.099 282.735 227.809 283.107 228.298 283.851V282.882ZM226.291 287.718C226.862 287.718 227.339 287.526 227.723 287.143C228.106 286.752 228.298 286.271 228.298 285.7C228.298 285.129 228.106 284.652 227.723 284.268C227.339 283.878 226.862 283.682 226.291 283.682C225.727 283.682 225.254 283.878 224.871 284.268C224.487 284.652 224.296 285.129 224.296 285.7C224.296 286.271 224.487 286.752 224.871 287.143C225.254 287.526 225.727 287.718 226.291 287.718ZM231.261 281.856C231.073 281.856 230.915 281.792 230.787 281.664C230.659 281.536 230.595 281.382 230.595 281.202C230.595 281.022 230.659 280.868 230.787 280.74C230.915 280.604 231.073 280.537 231.261 280.537C231.441 280.537 231.595 280.604 231.723 280.74C231.851 280.868 231.914 281.022 231.914 281.202C231.914 281.382 231.851 281.536 231.723 281.664C231.595 281.792 231.441 281.856 231.261 281.856ZM230.764 288.518V282.882H231.745V288.518H230.764ZM234.076 284.404C234.076 284.622 234.185 284.798 234.403 284.933C234.621 285.061 234.884 285.166 235.192 285.249C235.5 285.324 235.808 285.414 236.117 285.52C236.425 285.617 236.688 285.79 236.906 286.038C237.124 286.279 237.233 286.591 237.233 286.974C237.233 287.485 237.033 287.895 236.635 288.203C236.244 288.511 235.741 288.665 235.124 288.665C234.576 288.665 234.106 288.545 233.715 288.304C233.325 288.064 233.046 287.744 232.881 287.346L233.727 286.861C233.817 287.132 233.986 287.346 234.234 287.504C234.482 287.662 234.779 287.741 235.124 287.741C235.448 287.741 235.714 287.68 235.925 287.56C236.135 287.432 236.241 287.237 236.241 286.974C236.241 286.756 236.132 286.583 235.914 286.455C235.696 286.32 235.433 286.215 235.124 286.14C234.816 286.057 234.508 285.963 234.2 285.858C233.892 285.753 233.629 285.58 233.411 285.339C233.193 285.099 233.084 284.791 233.084 284.415C233.084 283.926 233.272 283.524 233.648 283.209C234.031 282.893 234.508 282.735 235.079 282.735C235.538 282.735 235.944 282.84 236.297 283.051C236.658 283.254 236.928 283.539 237.109 283.908L236.286 284.37C236.083 283.889 235.681 283.648 235.079 283.648C234.801 283.648 234.565 283.716 234.369 283.851C234.174 283.979 234.076 284.163 234.076 284.404ZM241.9 286.151C241.998 286.655 242.227 287.045 242.588 287.323C242.956 287.602 243.407 287.741 243.94 287.741C244.684 287.741 245.226 287.466 245.564 286.918L246.398 287.391C245.849 288.24 245.023 288.665 243.918 288.665C243.024 288.665 242.294 288.387 241.731 287.831C241.175 287.267 240.897 286.557 240.897 285.7C240.897 284.851 241.171 284.144 241.72 283.581C242.268 283.017 242.978 282.735 243.85 282.735C244.677 282.735 245.35 283.028 245.868 283.614C246.394 284.193 246.657 284.892 246.657 285.711C246.657 285.854 246.646 286.001 246.623 286.151H241.9ZM243.85 283.66C243.324 283.66 242.888 283.81 242.543 284.111C242.197 284.404 241.983 284.798 241.9 285.294H245.665C245.583 284.761 245.372 284.355 245.034 284.077C244.696 283.799 244.301 283.66 243.85 283.66ZM250.592 282.735C251.253 282.735 251.783 282.946 252.181 283.366C252.58 283.78 252.779 284.344 252.779 285.057V288.518H251.798V285.114C251.798 284.655 251.674 284.302 251.426 284.054C251.178 283.799 250.836 283.671 250.4 283.671C249.912 283.671 249.517 283.825 249.216 284.133C248.916 284.434 248.766 284.9 248.766 285.531V288.518H247.785V282.882H248.766V283.693C249.164 283.055 249.773 282.735 250.592 282.735ZM259.864 281.427C258.872 281.345 258.376 281.773 258.376 282.713V282.882H259.864V283.829H258.376V288.518H257.395V283.829H256.493V282.882H257.395V282.713C257.395 281.954 257.605 281.379 258.026 280.988C258.455 280.597 259.067 280.428 259.864 280.48V281.427ZM264.969 282.882H265.95V288.518H264.969V287.549C264.481 288.293 263.771 288.665 262.839 288.665C262.05 288.665 261.377 288.379 260.821 287.808C260.265 287.23 259.987 286.527 259.987 285.7C259.987 284.873 260.265 284.174 260.821 283.603C261.377 283.025 262.05 282.735 262.839 282.735C263.771 282.735 264.481 283.107 264.969 283.851V282.882ZM262.963 287.718C263.534 287.718 264.011 287.526 264.394 287.143C264.778 286.752 264.969 286.271 264.969 285.7C264.969 285.129 264.778 284.652 264.394 284.268C264.011 283.878 263.534 283.682 262.963 283.682C262.399 283.682 261.926 283.878 261.542 284.268C261.159 284.652 260.967 285.129 260.967 285.7C260.967 286.271 261.159 286.752 261.542 287.143C261.926 287.526 262.399 287.718 262.963 287.718ZM267.932 281.856C267.744 281.856 267.587 281.792 267.459 281.664C267.331 281.536 267.267 281.382 267.267 281.202C267.267 281.022 267.331 280.868 267.459 280.74C267.587 280.604 267.744 280.537 267.932 280.537C268.113 280.537 268.267 280.604 268.394 280.74C268.522 280.868 268.586 281.022 268.586 281.202C268.586 281.382 268.522 281.536 268.394 281.664C268.267 281.792 268.113 281.856 267.932 281.856ZM267.436 288.518V282.882H268.417V288.518H267.436ZM270.894 283.829C271.217 283.13 271.803 282.78 272.653 282.78V283.806C272.172 283.784 271.758 283.911 271.413 284.189C271.067 284.468 270.894 284.915 270.894 285.531V288.518H269.913V282.882H270.894V283.829ZM273.992 286.151C274.089 286.655 274.319 287.045 274.679 287.323C275.048 287.602 275.499 287.741 276.032 287.741C276.776 287.741 277.317 287.466 277.656 286.918L278.49 287.391C277.941 288.24 277.115 288.665 276.01 288.665C275.115 288.665 274.386 288.387 273.823 287.831C273.267 287.267 272.988 286.557 272.988 285.7C272.988 284.851 273.263 284.144 273.811 283.581C274.36 283.017 275.07 282.735 275.942 282.735C276.769 282.735 277.441 283.028 277.96 283.614C278.486 284.193 278.749 284.892 278.749 285.711C278.749 285.854 278.738 286.001 278.715 286.151H273.992ZM275.942 283.66C275.416 283.66 274.98 283.81 274.634 284.111C274.289 284.404 274.074 284.798 273.992 285.294H277.757C277.674 284.761 277.464 284.355 277.126 284.077C276.788 283.799 276.393 283.66 275.942 283.66ZM286.584 282.882H287.565V288.518H286.584V287.707C286.186 288.346 285.577 288.665 284.758 288.665C284.097 288.665 283.567 288.458 283.168 288.045C282.77 287.624 282.571 287.057 282.571 286.343V282.882H283.552V286.286C283.552 286.745 283.676 287.102 283.924 287.357C284.172 287.605 284.514 287.729 284.95 287.729C285.438 287.729 285.833 287.579 286.133 287.278C286.434 286.97 286.584 286.5 286.584 285.869V282.882ZM291.865 282.735C292.527 282.735 293.057 282.946 293.455 283.366C293.853 283.78 294.052 284.344 294.052 285.057V288.518H293.072V285.114C293.072 284.655 292.948 284.302 292.7 284.054C292.452 283.799 292.11 283.671 291.674 283.671C291.185 283.671 290.791 283.825 290.49 284.133C290.189 284.434 290.039 284.9 290.039 285.531V288.518H289.058V282.882H290.039V283.693C290.437 283.055 291.046 282.735 291.865 282.735ZM302.907 280.627H303.888V288.518H302.907V287.549C302.419 288.293 301.708 288.665 300.777 288.665C299.987 288.665 299.315 288.379 298.759 287.808C298.202 287.23 297.924 286.527 297.924 285.7C297.924 284.873 298.202 284.174 298.759 283.603C299.315 283.025 299.987 282.735 300.777 282.735C301.708 282.735 302.419 283.107 302.907 283.851V280.627ZM300.901 287.718C301.472 287.718 301.949 287.526 302.332 287.143C302.716 286.752 302.907 286.271 302.907 285.7C302.907 285.129 302.716 284.652 302.332 284.268C301.949 283.878 301.472 283.682 300.901 283.682C300.337 283.682 299.863 283.878 299.48 284.268C299.097 284.652 298.905 285.129 298.905 285.7C298.905 286.271 299.097 286.752 299.48 287.143C299.863 287.526 300.337 287.718 300.901 287.718ZM310.041 282.882H311.022V288.518H310.041V287.549C309.553 288.293 308.842 288.665 307.91 288.665C307.121 288.665 306.449 288.379 305.893 287.808C305.336 287.23 305.058 286.527 305.058 285.7C305.058 284.873 305.336 284.174 305.893 283.603C306.449 283.025 307.121 282.735 307.91 282.735C308.842 282.735 309.553 283.107 310.041 283.851V282.882ZM308.034 287.718C308.606 287.718 309.083 287.526 309.466 287.143C309.85 286.752 310.041 286.271 310.041 285.7C310.041 285.129 309.85 284.652 309.466 284.268C309.083 283.878 308.606 283.682 308.034 283.682C307.471 283.682 306.997 283.878 306.614 284.268C306.231 284.652 306.039 285.129 306.039 285.7C306.039 286.271 306.231 286.752 306.614 287.143C306.997 287.526 307.471 287.718 308.034 287.718ZM315.315 282.735C315.976 282.735 316.506 282.946 316.905 283.366C317.303 283.78 317.502 284.344 317.502 285.057V288.518H316.521V285.114C316.521 284.655 316.397 284.302 316.149 284.054C315.901 283.799 315.559 283.671 315.123 283.671C314.635 283.671 314.24 283.825 313.94 284.133C313.639 284.434 313.489 284.9 313.489 285.531V288.518H312.508V282.882H313.489V283.693C313.887 283.055 314.496 282.735 315.315 282.735ZM319.717 284.404C319.717 284.622 319.826 284.798 320.044 284.933C320.262 285.061 320.525 285.166 320.833 285.249C321.141 285.324 321.449 285.414 321.757 285.52C322.065 285.617 322.328 285.79 322.546 286.038C322.764 286.279 322.873 286.591 322.873 286.974C322.873 287.485 322.674 287.895 322.276 288.203C321.885 288.511 321.381 288.665 320.765 288.665C320.217 288.665 319.747 288.545 319.356 288.304C318.965 288.064 318.687 287.744 318.522 287.346L319.367 286.861C319.457 287.132 319.627 287.346 319.875 287.504C320.123 287.662 320.419 287.741 320.765 287.741C321.088 287.741 321.355 287.68 321.566 287.56C321.776 287.432 321.881 287.237 321.881 286.974C321.881 286.756 321.772 286.583 321.554 286.455C321.336 286.32 321.073 286.215 320.765 286.14C320.457 286.057 320.149 285.963 319.841 285.858C319.533 285.753 319.27 285.58 319.052 285.339C318.834 285.099 318.725 284.791 318.725 284.415C318.725 283.926 318.913 283.524 319.288 283.209C319.672 282.893 320.149 282.735 320.72 282.735C321.179 282.735 321.584 282.84 321.938 283.051C322.298 283.254 322.569 283.539 322.749 283.908L321.926 284.37C321.723 283.889 321.321 283.648 320.72 283.648C320.442 283.648 320.205 283.716 320.01 283.851C319.814 283.979 319.717 284.163 319.717 284.404ZM326.853 288.518V280.289H327.834V288.518H326.853ZM330.018 286.151C330.115 286.655 330.345 287.045 330.705 287.323C331.074 287.602 331.525 287.741 332.058 287.741C332.802 287.741 333.343 287.466 333.682 286.918L334.516 287.391C333.967 288.24 333.14 288.665 332.036 288.665C331.141 288.665 330.412 288.387 329.849 287.831C329.292 287.267 329.014 286.557 329.014 285.7C329.014 284.851 329.289 284.144 329.837 283.581C330.386 283.017 331.096 282.735 331.968 282.735C332.795 282.735 333.467 283.028 333.986 283.614C334.512 284.193 334.775 284.892 334.775 285.711C334.775 285.854 334.764 286.001 334.741 286.151H330.018ZM331.968 283.66C331.442 283.66 331.006 283.81 330.66 284.111C330.315 284.404 330.1 284.798 330.018 285.294H333.783C333.7 284.761 333.49 284.355 333.152 284.077C332.814 283.799 332.419 283.66 331.968 283.66ZM336.528 284.404C336.528 284.622 336.637 284.798 336.855 284.933C337.073 285.061 337.336 285.166 337.644 285.249C337.952 285.324 338.26 285.414 338.568 285.52C338.876 285.617 339.139 285.79 339.357 286.038C339.575 286.279 339.684 286.591 339.684 286.974C339.684 287.485 339.485 287.895 339.087 288.203C338.696 288.511 338.193 288.665 337.576 288.665C337.028 288.665 336.558 288.545 336.167 288.304C335.776 288.064 335.498 287.744 335.333 287.346L336.178 286.861C336.269 287.132 336.438 287.346 336.686 287.504C336.934 287.662 337.231 287.741 337.576 287.741C337.899 287.741 338.166 287.68 338.377 287.56C338.587 287.432 338.692 287.237 338.692 286.974C338.692 286.756 338.583 286.583 338.365 286.455C338.147 286.32 337.884 286.215 337.576 286.14C337.268 286.057 336.96 285.963 336.652 285.858C336.344 285.753 336.081 285.58 335.863 285.339C335.645 285.099 335.536 284.791 335.536 284.415C335.536 283.926 335.724 283.524 336.099 283.209C336.483 282.893 336.96 282.735 337.531 282.735C337.99 282.735 338.395 282.84 338.749 283.051C339.109 283.254 339.38 283.539 339.56 283.908L338.737 284.37C338.534 283.889 338.132 283.648 337.531 283.648C337.253 283.648 337.016 283.716 336.821 283.851C336.626 283.979 336.528 284.163 336.528 284.404ZM227.838 294.627H228.74V302.518H227.703V295.754L226.023 296.25L225.764 295.349L227.838 294.627ZM230.03 302.518V301.662L232.814 298.821C233.559 298.077 233.931 297.438 233.931 296.904C233.931 296.461 233.795 296.115 233.525 295.867C233.254 295.619 232.923 295.495 232.533 295.495C231.789 295.495 231.247 295.848 230.909 296.555L230.03 296.036C230.278 295.525 230.62 295.138 231.056 294.875C231.499 294.612 231.988 294.48 232.521 294.48C233.183 294.48 233.758 294.698 234.246 295.134C234.735 295.57 234.979 296.156 234.979 296.893C234.979 297.69 234.509 298.558 233.57 299.497L231.552 301.504H235.126V302.518H230.03ZM242.243 296.735C243.032 296.735 243.705 297.025 244.261 297.603C244.817 298.174 245.095 298.873 245.095 299.7C245.095 300.527 244.817 301.23 244.261 301.808C243.705 302.379 243.032 302.665 242.243 302.665C241.311 302.665 240.601 302.293 240.112 301.549V304.773H239.131V296.882H240.112V297.851C240.601 297.107 241.311 296.735 242.243 296.735ZM242.119 301.718C242.683 301.718 243.156 301.526 243.539 301.143C243.923 300.752 244.114 300.271 244.114 299.7C244.114 299.129 243.923 298.652 243.539 298.268C243.156 297.878 242.683 297.682 242.119 297.682C241.548 297.682 241.071 297.878 240.687 298.268C240.304 298.652 240.112 299.129 240.112 299.7C240.112 300.271 240.304 300.752 240.687 301.143C241.071 301.526 241.548 301.718 242.119 301.718ZM247.246 297.829C247.569 297.13 248.156 296.78 249.005 296.78V297.806C248.524 297.784 248.111 297.911 247.765 298.189C247.419 298.468 247.246 298.915 247.246 299.531V302.518H246.265V296.882H247.246V297.829ZM254.414 301.808C253.835 302.379 253.132 302.665 252.306 302.665C251.479 302.665 250.776 302.379 250.197 301.808C249.626 301.237 249.341 300.534 249.341 299.7C249.341 298.866 249.626 298.163 250.197 297.592C250.776 297.021 251.479 296.735 252.306 296.735C253.132 296.735 253.835 297.021 254.414 297.592C254.992 298.163 255.282 298.866 255.282 299.7C255.282 300.534 254.992 301.237 254.414 301.808ZM252.306 301.707C252.869 301.707 253.343 301.515 253.726 301.132C254.109 300.749 254.301 300.271 254.301 299.7C254.301 299.129 254.109 298.652 253.726 298.268C253.343 297.885 252.869 297.693 252.306 297.693C251.749 297.693 251.28 297.885 250.896 298.268C250.513 298.652 250.321 299.129 250.321 299.7C250.321 300.271 250.513 300.749 250.896 301.132C251.28 301.515 251.749 301.707 252.306 301.707ZM259.087 302.665C258.238 302.665 257.532 302.383 256.968 301.819C256.404 301.248 256.122 300.542 256.122 299.7C256.122 298.858 256.404 298.156 256.968 297.592C257.532 297.021 258.238 296.735 259.087 296.735C259.643 296.735 260.143 296.87 260.587 297.141C261.03 297.404 261.361 297.761 261.579 298.212L260.756 298.685C260.613 298.385 260.391 298.144 260.091 297.964C259.797 297.784 259.463 297.693 259.087 297.693C258.524 297.693 258.05 297.885 257.667 298.268C257.291 298.652 257.103 299.129 257.103 299.7C257.103 300.264 257.291 300.737 257.667 301.121C258.05 301.504 258.524 301.695 259.087 301.695C259.463 301.695 259.801 301.609 260.102 301.436C260.402 301.256 260.632 301.015 260.79 300.715L261.624 301.199C261.383 301.643 261.038 302 260.587 302.27C260.136 302.533 259.636 302.665 259.087 302.665ZM265.399 296.735C266.061 296.735 266.59 296.946 266.989 297.366C267.387 297.78 267.586 298.344 267.586 299.057V302.518H266.605V299.114C266.605 298.655 266.481 298.302 266.233 298.054C265.985 297.799 265.643 297.671 265.208 297.671C264.719 297.671 264.324 297.825 264.024 298.133C263.723 298.434 263.573 298.9 263.573 299.531V302.518H262.592V294.627H263.573V297.693C263.971 297.055 264.58 296.735 265.399 296.735ZM273.623 296.882H274.603V302.518H273.623V301.549C273.134 302.293 272.424 302.665 271.492 302.665C270.703 302.665 270.03 302.379 269.474 301.808C268.918 301.23 268.64 300.527 268.64 299.7C268.64 298.873 268.918 298.174 269.474 297.603C270.03 297.025 270.703 296.735 271.492 296.735C272.424 296.735 273.134 297.107 273.623 297.851V296.882ZM271.616 301.718C272.187 301.718 272.664 301.526 273.048 301.143C273.431 300.752 273.623 300.271 273.623 299.7C273.623 299.129 273.431 298.652 273.048 298.268C272.664 297.878 272.187 297.682 271.616 297.682C271.052 297.682 270.579 297.878 270.196 298.268C269.812 298.652 269.621 299.129 269.621 299.7C269.621 300.271 269.812 300.752 270.196 301.143C270.579 301.526 271.052 301.718 271.616 301.718ZM276.585 295.856C276.398 295.856 276.24 295.792 276.112 295.664C275.984 295.536 275.92 295.382 275.92 295.202C275.92 295.022 275.984 294.868 276.112 294.74C276.24 294.604 276.398 294.537 276.585 294.537C276.766 294.537 276.92 294.604 277.048 294.74C277.175 294.868 277.239 295.022 277.239 295.202C277.239 295.382 277.175 295.536 277.048 295.664C276.92 295.792 276.766 295.856 276.585 295.856ZM276.089 302.518V296.882H277.07V302.518H276.089ZM281.374 296.735C282.035 296.735 282.565 296.946 282.963 297.366C283.361 297.78 283.561 298.344 283.561 299.057V302.518H282.58V299.114C282.58 298.655 282.456 298.302 282.208 298.054C281.96 297.799 281.618 297.671 281.182 297.671C280.693 297.671 280.299 297.825 279.998 298.133C279.698 298.434 279.547 298.9 279.547 299.531V302.518H278.567V296.882H279.547V297.693C279.946 297.055 280.554 296.735 281.374 296.735ZM285.775 298.404C285.775 298.622 285.884 298.798 286.102 298.933C286.32 299.061 286.583 299.166 286.891 299.249C287.2 299.324 287.508 299.414 287.816 299.52C288.124 299.617 288.387 299.79 288.605 300.038C288.823 300.279 288.932 300.591 288.932 300.974C288.932 301.485 288.733 301.895 288.334 302.203C287.944 302.511 287.44 302.665 286.824 302.665C286.275 302.665 285.805 302.545 285.415 302.304C285.024 302.064 284.746 301.744 284.58 301.346L285.426 300.861C285.516 301.132 285.685 301.346 285.933 301.504C286.181 301.662 286.478 301.741 286.824 301.741C287.147 301.741 287.414 301.68 287.624 301.56C287.835 301.432 287.94 301.237 287.94 300.974C287.94 300.756 287.831 300.583 287.613 300.455C287.395 300.32 287.132 300.215 286.824 300.14C286.516 300.057 286.207 299.963 285.899 299.858C285.591 299.753 285.328 299.58 285.11 299.339C284.892 299.099 284.783 298.791 284.783 298.415C284.783 297.926 284.971 297.524 285.347 297.209C285.73 296.893 286.207 296.735 286.779 296.735C287.237 296.735 287.643 296.84 287.996 297.051C288.357 297.254 288.628 297.539 288.808 297.908L287.985 298.37C287.782 297.889 287.38 297.648 286.779 297.648C286.501 297.648 286.264 297.716 286.068 297.851C285.873 297.979 285.775 298.163 285.775 298.404ZM298.999 296.735C299.63 296.735 300.142 296.942 300.532 297.355C300.923 297.761 301.119 298.313 301.119 299.012V302.518H300.138V299.046C300.138 298.61 300.025 298.272 299.8 298.032C299.574 297.791 299.273 297.671 298.898 297.671C298.477 297.671 298.139 297.814 297.883 298.099C297.635 298.377 297.511 298.806 297.511 299.384V302.518H296.53V299.046C296.53 298.61 296.421 298.272 296.203 298.032C295.993 297.791 295.704 297.671 295.335 297.671C294.922 297.671 294.576 297.814 294.298 298.099C294.028 298.385 293.892 298.813 293.892 299.384V302.518H292.912V296.882H293.892V297.637C294.276 297.036 294.836 296.735 295.572 296.735C296.331 296.735 296.884 297.055 297.229 297.693C297.62 297.055 298.21 296.735 298.999 296.735ZM307.236 301.808C306.657 302.379 305.955 302.665 305.128 302.665C304.301 302.665 303.598 302.379 303.02 301.808C302.448 301.237 302.163 300.534 302.163 299.7C302.163 298.866 302.448 298.163 303.02 297.592C303.598 297.021 304.301 296.735 305.128 296.735C305.955 296.735 306.657 297.021 307.236 297.592C307.815 298.163 308.104 298.866 308.104 299.7C308.104 300.534 307.815 301.237 307.236 301.808ZM305.128 301.707C305.691 301.707 306.165 301.515 306.548 301.132C306.932 300.749 307.123 300.271 307.123 299.7C307.123 299.129 306.932 298.652 306.548 298.268C306.165 297.885 305.691 297.693 305.128 297.693C304.572 297.693 304.102 297.885 303.719 298.268C303.335 298.652 303.144 299.129 303.144 299.7C303.144 300.271 303.335 300.749 303.719 301.132C304.102 301.515 304.572 301.707 305.128 301.707ZM309.756 295.856C309.568 295.856 309.411 295.792 309.283 295.664C309.155 295.536 309.091 295.382 309.091 295.202C309.091 295.022 309.155 294.868 309.283 294.74C309.411 294.604 309.568 294.537 309.756 294.537C309.937 294.537 310.091 294.604 310.218 294.74C310.346 294.868 310.41 295.022 310.41 295.202C310.41 295.382 310.346 295.536 310.218 295.664C310.091 295.792 309.937 295.856 309.756 295.856ZM309.26 302.518V296.882H310.241V302.518H309.26ZM312.572 298.404C312.572 298.622 312.681 298.798 312.899 298.933C313.117 299.061 313.38 299.166 313.688 299.249C313.996 299.324 314.304 299.414 314.612 299.52C314.92 299.617 315.183 299.79 315.401 300.038C315.619 300.279 315.728 300.591 315.728 300.974C315.728 301.485 315.529 301.895 315.131 302.203C314.74 302.511 314.236 302.665 313.62 302.665C313.072 302.665 312.602 302.545 312.211 302.304C311.82 302.064 311.542 301.744 311.377 301.346L312.222 300.861C312.312 301.132 312.482 301.346 312.73 301.504C312.978 301.662 313.274 301.741 313.62 301.741C313.943 301.741 314.21 301.68 314.421 301.56C314.631 301.432 314.736 301.237 314.736 300.974C314.736 300.756 314.627 300.583 314.409 300.455C314.191 300.32 313.928 300.215 313.62 300.14C313.312 300.057 313.004 299.963 312.696 299.858C312.388 299.753 312.125 299.58 311.907 299.339C311.689 299.099 311.58 298.791 311.58 298.415C311.58 297.926 311.768 297.524 312.143 297.209C312.527 296.893 313.004 296.735 313.575 296.735C314.034 296.735 314.439 296.84 314.793 297.051C315.153 297.254 315.424 297.539 315.604 297.908L314.781 298.37C314.578 297.889 314.176 297.648 313.575 297.648C313.297 297.648 313.06 297.716 312.865 297.851C312.669 297.979 312.572 298.163 312.572 298.404Z" fill="white"/>
<path d="M373.885 295.665C373.313 295.665 372.81 295.545 372.374 295.304C371.938 295.064 371.619 294.714 371.416 294.256L372.306 293.737C372.539 294.338 373.065 294.639 373.885 294.639C374.388 294.639 374.783 294.519 375.068 294.278C375.354 294.038 375.497 293.681 375.497 293.207V287.627H376.534V293.207C376.534 293.997 376.282 294.605 375.779 295.034C375.283 295.455 374.651 295.665 373.885 295.665ZM378.65 293.151C378.748 293.655 378.977 294.045 379.338 294.323C379.706 294.602 380.157 294.741 380.691 294.741C381.435 294.741 381.976 294.466 382.314 293.918L383.148 294.391C382.6 295.24 381.773 295.665 380.668 295.665C379.774 295.665 379.045 295.387 378.481 294.831C377.925 294.267 377.647 293.557 377.647 292.7C377.647 291.851 377.921 291.144 378.47 290.581C379.019 290.017 379.729 289.735 380.601 289.735C381.427 289.735 382.1 290.028 382.619 290.614C383.145 291.193 383.408 291.892 383.408 292.711C383.408 292.854 383.396 293.001 383.374 293.151H378.65ZM380.601 290.66C380.075 290.66 379.639 290.81 379.293 291.111C378.947 291.404 378.733 291.798 378.65 292.294H382.416C382.333 291.761 382.123 291.355 381.784 291.077C381.446 290.799 381.052 290.66 380.601 290.66ZM390.161 289.735C390.822 289.735 391.352 289.946 391.75 290.366C392.148 290.78 392.348 291.344 392.348 292.057V295.518H391.367V292.114C391.367 291.655 391.243 291.302 390.995 291.054C390.747 290.799 390.405 290.671 389.969 290.671C389.48 290.671 389.086 290.825 388.785 291.133C388.485 291.434 388.334 291.9 388.334 292.531V295.518H387.354V289.882H388.334V290.693C388.733 290.055 389.341 289.735 390.161 289.735ZM394.61 287.616L393.877 290.355H393.032L393.483 287.616H394.61ZM395.781 293.151C395.878 293.655 396.108 294.045 396.468 294.323C396.837 294.602 397.288 294.741 397.821 294.741C398.565 294.741 399.106 294.466 399.445 293.918L400.279 294.391C399.73 295.24 398.903 295.665 397.799 295.665C396.904 295.665 396.175 295.387 395.612 294.831C395.055 294.267 394.777 293.557 394.777 292.7C394.777 291.851 395.052 291.144 395.6 290.581C396.149 290.017 396.859 289.735 397.731 289.735C398.558 289.735 399.23 290.028 399.749 290.614C400.275 291.193 400.538 291.892 400.538 292.711C400.538 292.854 400.527 293.001 400.504 293.151H395.781ZM397.731 290.66C397.205 290.66 396.769 290.81 396.423 291.111C396.078 291.404 395.863 291.798 395.781 292.294H399.546C399.463 291.761 399.253 291.355 398.915 291.077C398.576 290.799 398.182 290.66 397.731 290.66ZM404.473 289.735C405.134 289.735 405.664 289.946 406.062 290.366C406.46 290.78 406.66 291.344 406.66 292.057V295.518H405.679V292.114C405.679 291.655 405.555 291.302 405.307 291.054C405.059 290.799 404.717 290.671 404.281 290.671C403.792 290.671 403.398 290.825 403.097 291.133C402.797 291.434 402.646 291.9 402.646 292.531V295.518H401.665V289.882H402.646V290.693C403.045 290.055 403.653 289.735 404.473 289.735ZM415.514 289.882H416.495V295.518H415.514V294.549C415.026 295.293 414.316 295.665 413.384 295.665C412.595 295.665 411.922 295.379 411.366 294.808C410.81 294.23 410.532 293.527 410.532 292.7C410.532 291.873 410.81 291.174 411.366 290.603C411.922 290.025 412.595 289.735 413.384 289.735C414.316 289.735 415.026 290.107 415.514 290.851V289.882ZM413.508 294.718C414.079 294.718 414.556 294.526 414.939 294.143C415.323 293.752 415.514 293.271 415.514 292.7C415.514 292.129 415.323 291.652 414.939 291.268C414.556 290.878 414.079 290.682 413.508 290.682C412.944 290.682 412.471 290.878 412.087 291.268C411.704 291.652 411.512 292.129 411.512 292.7C411.512 293.271 411.704 293.752 412.087 294.143C412.471 294.526 412.944 294.718 413.508 294.718ZM418.477 288.856C418.289 288.856 418.131 288.792 418.004 288.664C417.876 288.536 417.812 288.382 417.812 288.202C417.812 288.022 417.876 287.868 418.004 287.74C418.131 287.604 418.289 287.537 418.477 287.537C418.658 287.537 418.812 287.604 418.939 287.74C419.067 287.868 419.131 288.022 419.131 288.202C419.131 288.382 419.067 288.536 418.939 288.664C418.812 288.792 418.658 288.856 418.477 288.856ZM417.981 295.518V289.882H418.962V295.518H417.981ZM426.388 289.735C427.177 289.735 427.85 290.025 428.406 290.603C428.962 291.174 429.24 291.873 429.24 292.7C429.24 293.527 428.962 294.23 428.406 294.808C427.85 295.379 427.177 295.665 426.388 295.665C425.456 295.665 424.746 295.293 424.257 294.549V297.773H423.277V289.882H424.257V290.851C424.746 290.107 425.456 289.735 426.388 289.735ZM426.264 294.718C426.828 294.718 427.301 294.526 427.685 294.143C428.068 293.752 428.259 293.271 428.259 292.7C428.259 292.129 428.068 291.652 427.685 291.268C427.301 290.878 426.828 290.682 426.264 290.682C425.693 290.682 425.216 290.878 424.832 291.268C424.449 291.652 424.257 292.129 424.257 292.7C424.257 293.271 424.449 293.752 424.832 294.143C425.216 294.526 425.693 294.718 426.264 294.718ZM435.078 289.882H436.059V295.518H435.078V294.549C434.589 295.293 433.879 295.665 432.947 295.665C432.158 295.665 431.485 295.379 430.929 294.808C430.373 294.23 430.095 293.527 430.095 292.7C430.095 291.873 430.373 291.174 430.929 290.603C431.485 290.025 432.158 289.735 432.947 289.735C433.879 289.735 434.589 290.107 435.078 290.851V289.882ZM433.071 294.718C433.642 294.718 434.12 294.526 434.503 294.143C434.886 293.752 435.078 293.271 435.078 292.7C435.078 292.129 434.886 291.652 434.503 291.268C434.12 290.878 433.642 290.682 433.071 290.682C432.507 290.682 432.034 290.878 431.651 291.268C431.267 291.652 431.076 292.129 431.076 292.7C431.076 293.271 431.267 293.752 431.651 294.143C432.034 294.526 432.507 294.718 433.071 294.718ZM438.379 291.404C438.379 291.622 438.488 291.798 438.706 291.933C438.924 292.061 439.187 292.166 439.495 292.249C439.803 292.324 440.111 292.414 440.42 292.52C440.728 292.617 440.991 292.79 441.209 293.038C441.427 293.279 441.536 293.591 441.536 293.974C441.536 294.485 441.336 294.895 440.938 295.203C440.547 295.511 440.044 295.665 439.427 295.665C438.879 295.665 438.409 295.545 438.018 295.304C437.627 295.064 437.349 294.744 437.184 294.346L438.03 293.861C438.12 294.132 438.289 294.346 438.537 294.504C438.785 294.662 439.082 294.741 439.427 294.741C439.751 294.741 440.017 294.68 440.228 294.56C440.438 294.432 440.544 294.237 440.544 293.974C440.544 293.756 440.435 293.583 440.217 293.455C439.999 293.32 439.736 293.215 439.427 293.14C439.119 293.057 438.811 292.963 438.503 292.858C438.195 292.753 437.932 292.58 437.714 292.339C437.496 292.099 437.387 291.791 437.387 291.415C437.387 290.926 437.575 290.524 437.951 290.209C438.334 289.893 438.811 289.735 439.382 289.735C439.841 289.735 440.247 289.84 440.6 290.051C440.961 290.254 441.231 290.539 441.412 290.908L440.589 291.37C440.386 290.889 439.984 290.648 439.382 290.648C439.104 290.648 438.868 290.716 438.672 290.851C438.477 290.979 438.379 291.163 438.379 291.404Z" fill="white"/>
<path d="M350.737 3.823C349.593 3.72767 349.021 4.22167 349.021 5.305V5.5H350.737V6.592H349.021V12H347.89V6.592H346.85V5.5H347.89V5.305C347.89 4.42967 348.133 3.76667 348.618 3.316C349.112 2.86533 349.818 2.67033 350.737 2.731V3.823ZM356.625 5.5H357.756V12H356.625V10.882C356.061 11.74 355.242 12.169 354.168 12.169C353.258 12.169 352.482 11.8397 351.841 11.181C351.199 10.5137 350.879 9.70333 350.879 8.75C350.879 7.79667 351.199 6.99067 351.841 6.332C352.482 5.66467 353.258 5.331 354.168 5.331C355.242 5.331 356.061 5.76 356.625 6.618V5.5ZM354.311 11.077C354.969 11.077 355.52 10.856 355.962 10.414C356.404 9.96333 356.625 9.40867 356.625 8.75C356.625 8.09133 356.404 7.541 355.962 7.099C355.52 6.64833 354.969 6.423 354.311 6.423C353.661 6.423 353.115 6.64833 352.673 7.099C352.231 7.541 352.01 8.09133 352.01 8.75C352.01 9.40867 352.231 9.96333 352.673 10.414C353.115 10.856 353.661 11.077 354.311 11.077ZM360.041 4.317C359.825 4.317 359.643 4.24333 359.495 4.096C359.348 3.94867 359.274 3.771 359.274 3.563C359.274 3.355 359.348 3.17733 359.495 3.03C359.643 2.874 359.825 2.796 360.041 2.796C360.249 2.796 360.427 2.874 360.574 3.03C360.722 3.17733 360.795 3.355 360.795 3.563C360.795 3.771 360.722 3.94867 360.574 4.096C360.427 4.24333 360.249 4.317 360.041 4.317ZM359.469 12V5.5H360.6V12H359.469ZM365.862 6.592H364.133V10.115C364.133 10.4357 364.193 10.6653 364.315 10.804C364.445 10.934 364.64 11.0033 364.9 11.012C365.16 11.012 365.48 11.0033 365.862 10.986V12C364.874 12.13 364.15 12.052 363.691 11.766C363.231 11.4713 363.002 10.921 363.002 10.115V6.592H361.715V5.5H363.002V4.018L364.133 3.68V5.5H365.862V6.592ZM374.077 5.331C374.987 5.331 375.763 5.66467 376.404 6.332C377.045 6.99067 377.366 7.79667 377.366 8.75C377.366 9.70333 377.045 10.5137 376.404 11.181C375.763 11.8397 374.987 12.169 374.077 12.169C373.002 12.169 372.183 11.74 371.62 10.882V14.6H370.489V5.5H371.62V6.618C372.183 5.76 373.002 5.331 374.077 5.331ZM373.934 11.077C374.584 11.077 375.13 10.856 375.572 10.414C376.014 9.96333 376.235 9.40867 376.235 8.75C376.235 8.09133 376.014 7.541 375.572 7.099C375.13 6.64833 374.584 6.423 373.934 6.423C373.275 6.423 372.725 6.64833 372.283 7.099C371.841 7.541 371.62 8.09133 371.62 8.75C371.62 9.40867 371.841 9.96333 372.283 10.414C372.725 10.856 373.275 11.077 373.934 11.077ZM384.097 5.5H385.228V12H384.097V10.882C383.534 11.74 382.715 12.169 381.64 12.169C380.73 12.169 379.955 11.8397 379.313 11.181C378.672 10.5137 378.351 9.70333 378.351 8.75C378.351 7.79667 378.672 6.99067 379.313 6.332C379.955 5.66467 380.73 5.331 381.64 5.331C382.715 5.331 383.534 5.76 384.097 6.618V5.5ZM381.783 11.077C382.442 11.077 382.992 10.856 383.434 10.414C383.876 9.96333 384.097 9.40867 384.097 8.75C384.097 8.09133 383.876 7.541 383.434 7.099C382.992 6.64833 382.442 6.423 381.783 6.423C381.133 6.423 380.587 6.64833 380.145 7.099C379.703 7.541 379.482 8.09133 379.482 8.75C379.482 9.40867 379.703 9.96333 380.145 10.414C380.587 10.856 381.133 11.077 381.783 11.077ZM388.073 6.592C388.446 5.786 389.122 5.383 390.101 5.383V6.566C389.546 6.54 389.07 6.68733 388.671 7.008C388.272 7.32867 388.073 7.84433 388.073 8.555V12H386.942V5.5H388.073V6.592ZM395.433 7.255C395.433 7.50633 395.558 7.71 395.81 7.866C396.061 8.01333 396.364 8.13467 396.72 8.23C397.075 8.31667 397.43 8.42067 397.786 8.542C398.141 8.65467 398.444 8.854 398.696 9.14C398.947 9.41733 399.073 9.777 399.073 10.219C399.073 10.8083 398.843 11.2807 398.384 11.636C397.933 11.9913 397.352 12.169 396.642 12.169C396.009 12.169 395.467 12.0303 395.017 11.753C394.566 11.4757 394.245 11.1073 394.055 10.648L395.03 10.089C395.134 10.401 395.329 10.648 395.615 10.83C395.901 11.012 396.243 11.103 396.642 11.103C397.014 11.103 397.322 11.0337 397.565 10.895C397.807 10.7477 397.929 10.5223 397.929 10.219C397.929 9.96767 397.803 9.76833 397.552 9.621C397.3 9.465 396.997 9.34367 396.642 9.257C396.286 9.16167 395.931 9.05333 395.576 8.932C395.22 8.81067 394.917 8.61133 394.666 8.334C394.414 8.05667 394.289 7.70133 394.289 7.268C394.289 6.70467 394.505 6.241 394.939 5.877C395.381 5.513 395.931 5.331 396.59 5.331C397.118 5.331 397.586 5.45233 397.994 5.695C398.41 5.929 398.722 6.25833 398.93 6.683L397.981 7.216C397.747 6.66133 397.283 6.384 396.59 6.384C396.269 6.384 395.996 6.462 395.771 6.618C395.545 6.76533 395.433 6.97767 395.433 7.255ZM405.616 5.5H406.747V12H405.616V10.882C405.053 11.74 404.234 12.169 403.159 12.169C402.249 12.169 401.473 11.8397 400.832 11.181C400.191 10.5137 399.87 9.70333 399.87 8.75C399.87 7.79667 400.191 6.99067 400.832 6.332C401.473 5.66467 402.249 5.331 403.159 5.331C404.234 5.331 405.053 5.76 405.616 6.618V5.5ZM403.302 11.077C403.961 11.077 404.511 10.856 404.953 10.414C405.395 9.96333 405.616 9.40867 405.616 8.75C405.616 8.09133 405.395 7.541 404.953 7.099C404.511 6.64833 403.961 6.423 403.302 6.423C402.652 6.423 402.106 6.64833 401.664 7.099C401.222 7.541 401.001 8.09133 401.001 8.75C401.001 9.40867 401.222 9.96333 401.664 10.414C402.106 10.856 402.652 11.077 403.302 11.077ZM415.481 5.331C416.209 5.331 416.798 5.56933 417.249 6.046C417.699 6.514 417.925 7.151 417.925 7.957V12H416.794V7.996C416.794 7.49333 416.664 7.10333 416.404 6.826C416.144 6.54867 415.797 6.41 415.364 6.41C414.878 6.41 414.488 6.57467 414.194 6.904C413.908 7.22467 413.765 7.71867 413.765 8.386V12H412.634V7.996C412.634 7.49333 412.508 7.10333 412.257 6.826C412.014 6.54867 411.68 6.41 411.256 6.41C410.779 6.41 410.38 6.57467 410.06 6.904C409.748 7.23333 409.592 7.72733 409.592 8.386V12H408.461V5.5H409.592V6.371C410.034 5.67767 410.679 5.331 411.529 5.331C412.404 5.331 413.041 5.69933 413.44 6.436C413.89 5.69933 414.571 5.331 415.481 5.331ZM423.978 5.5H425.109V12H423.978V11.064C423.518 11.8007 422.816 12.169 421.872 12.169C421.109 12.169 420.498 11.9307 420.039 11.454C419.579 10.9687 419.35 10.3143 419.35 9.491V5.5H420.481V9.426C420.481 9.95467 420.624 10.3663 420.91 10.661C421.196 10.947 421.59 11.09 422.093 11.09C422.656 11.09 423.111 10.9167 423.458 10.57C423.804 10.2147 423.978 9.673 423.978 8.945V5.5ZM427.624 9.27C427.736 9.85067 428.001 10.3013 428.417 10.622C428.841 10.9427 429.361 11.103 429.977 11.103C430.835 11.103 431.459 10.7867 431.849 10.154L432.811 10.7C432.178 11.6793 431.225 12.169 429.951 12.169C428.919 12.169 428.079 11.8483 427.429 11.207C426.787 10.557 426.467 9.738 426.467 8.75C426.467 7.77067 426.783 6.956 427.416 6.306C428.048 5.656 428.867 5.331 429.873 5.331C430.826 5.331 431.602 5.669 432.2 6.345C432.806 7.01233 433.11 7.81833 433.11 8.763C433.11 8.92767 433.097 9.09667 433.071 9.27H427.624ZM429.873 6.397C429.266 6.397 428.763 6.57033 428.365 6.917C427.966 7.255 427.719 7.71 427.624 8.282H431.966C431.87 7.66667 431.628 7.19867 431.238 6.878C430.848 6.55733 430.393 6.397 429.873 6.397ZM434.41 12V2.51H435.541V12H434.41ZM445.898 5.5H447.029V12H445.898V10.882C445.335 11.74 444.516 12.169 443.441 12.169C442.531 12.169 441.756 11.8397 441.114 11.181C440.473 10.5137 440.152 9.70333 440.152 8.75C440.152 7.79667 440.473 6.99067 441.114 6.332C441.756 5.66467 442.531 5.331 443.441 5.331C444.516 5.331 445.335 5.76 445.898 6.618V5.5ZM443.584 11.077C444.243 11.077 444.793 10.856 445.235 10.414C445.677 9.96333 445.898 9.40867 445.898 8.75C445.898 8.09133 445.677 7.541 445.235 7.099C444.793 6.64833 444.243 6.423 443.584 6.423C442.934 6.423 442.388 6.64833 441.946 7.099C441.504 7.541 441.283 8.09133 441.283 8.75C441.283 9.40867 441.504 9.96333 441.946 10.414C442.388 10.856 442.934 11.077 443.584 11.077ZM452.331 5.331C453.241 5.331 454.016 5.66467 454.658 6.332C455.299 6.99067 455.62 7.79667 455.62 8.75C455.62 9.70333 455.299 10.5137 454.658 11.181C454.016 11.8397 453.241 12.169 452.331 12.169C451.256 12.169 450.437 11.74 449.874 10.882V12H448.743V2.9H449.874V6.618C450.437 5.76 451.256 5.331 452.331 5.331ZM452.188 11.077C452.838 11.077 453.384 10.856 453.826 10.414C454.268 9.96333 454.489 9.40867 454.489 8.75C454.489 8.09133 454.268 7.541 453.826 7.099C453.384 6.64833 452.838 6.423 452.188 6.423C451.529 6.423 450.979 6.64833 450.537 7.099C450.095 7.541 449.874 8.09133 449.874 8.75C449.874 9.40867 450.095 9.96333 450.537 10.414C450.979 10.856 451.529 11.077 452.188 11.077ZM462.351 5.5H463.482V12H462.351V10.882C461.788 11.74 460.969 12.169 459.894 12.169C458.984 12.169 458.209 11.8397 457.567 11.181C456.926 10.5137 456.605 9.70333 456.605 8.75C456.605 7.79667 456.926 6.99067 457.567 6.332C458.209 5.66467 458.984 5.331 459.894 5.331C460.969 5.331 461.788 5.76 462.351 6.618V5.5ZM460.037 11.077C460.696 11.077 461.246 10.856 461.688 10.414C462.13 9.96333 462.351 9.40867 462.351 8.75C462.351 8.09133 462.13 7.541 461.688 7.099C461.246 6.64833 460.696 6.423 460.037 6.423C459.387 6.423 458.841 6.64833 458.399 7.099C457.957 7.541 457.736 8.09133 457.736 8.75C457.736 9.40867 457.957 9.96333 458.399 10.414C458.841 10.856 459.387 11.077 460.037 11.077ZM470.578 2.9H471.709V12H470.578V10.882C470.015 11.74 469.196 12.169 468.121 12.169C467.211 12.169 466.435 11.8397 465.794 11.181C465.153 10.5137 464.832 9.70333 464.832 8.75C464.832 7.79667 465.153 6.99067 465.794 6.332C466.435 5.66467 467.211 5.331 468.121 5.331C469.196 5.331 470.015 5.76 470.578 6.618V2.9ZM468.264 11.077C468.923 11.077 469.473 10.856 469.915 10.414C470.357 9.96333 470.578 9.40867 470.578 8.75C470.578 8.09133 470.357 7.541 469.915 7.099C469.473 6.64833 468.923 6.423 468.264 6.423C467.614 6.423 467.068 6.64833 466.626 7.099C466.184 7.541 465.963 8.09133 465.963 8.75C465.963 9.40867 466.184 9.96333 466.626 10.414C467.068 10.856 467.614 11.077 468.264 11.077ZM473.994 4.317C473.778 4.317 473.596 4.24333 473.448 4.096C473.301 3.94867 473.227 3.771 473.227 3.563C473.227 3.355 473.301 3.17733 473.448 3.03C473.596 2.874 473.778 2.796 473.994 2.796C474.202 2.796 474.38 2.874 474.527 3.03C474.675 3.17733 474.748 3.355 474.748 3.563C474.748 3.771 474.675 3.94867 474.527 4.096C474.38 4.24333 474.202 4.317 473.994 4.317ZM473.422 12V5.5H474.553V12H473.422ZM477.072 9.27C477.185 9.85067 477.449 10.3013 477.865 10.622C478.29 10.9427 478.81 11.103 479.425 11.103C480.283 11.103 480.907 10.7867 481.297 10.154L482.259 10.7C481.626 11.6793 480.673 12.169 479.399 12.169C478.368 12.169 477.527 11.8483 476.877 11.207C476.236 10.557 475.915 9.738 475.915 8.75C475.915 7.77067 476.231 6.956 476.864 6.306C477.497 5.656 478.316 5.331 479.321 5.331C480.274 5.331 481.05 5.669 481.648 6.345C482.255 7.01233 482.558 7.81833 482.558 8.763C482.558 8.92767 482.545 9.09667 482.519 9.27H477.072ZM479.321 6.397C478.714 6.397 478.212 6.57033 477.813 6.917C477.414 7.255 477.167 7.71 477.072 8.282H481.414C481.319 7.66667 481.076 7.19867 480.686 6.878C480.296 6.55733 479.841 6.397 479.321 6.397Z" fill="white"/>
<defs>
<linearGradient id="paint0_linear_14_95" x1="402.712" y1="207.726" x2="402.417" y2="267.85" gradientUnits="userSpaceOnUse">
<stop stop-color="#FF465E"/>
<stop offset="1" stop-color="#FF4344"/>
</linearGradient>
<linearGradient id="paint1_linear_14_95" x1="139.665" y1="267.851" x2="137.363" y2="102.607" gradientUnits="userSpaceOnUse">
<stop stop-color="#685CFF"/>
<stop offset="1" stop-color="#2BA8FF"/>
</linearGradient>
<linearGradient id="paint2_linear_14_95" x1="281.523" y1="244.443" x2="283.251" y2="291.195" gradientUnits="userSpaceOnUse">
<stop stop-color="#FFD17B"/>
<stop offset="1" stop-color="#FF865C"/>
</linearGradient>
</defs>
</svg>
