<svg width="482" height="286" viewBox="0 0 482 286" fill="none" xmlns="http://www.w3.org/2000/svg">
<path d="M45.7201 9.28717H481" stroke="#1C293D" stroke-width="1.87891" stroke-linecap="round"/>
<path d="M45.7201 102.359H481" stroke="#1C293D" stroke-width="1.87891" stroke-linecap="round"/>
<path d="M45.7201 55.8229H481" stroke="#1C293D" stroke-width="1.87891" stroke-linecap="round"/>
<path d="M45.7201 148.894H481" stroke="#1C293D" stroke-width="1.87891" stroke-linecap="round"/>
<path d="M45.7201 195.971H481" stroke="#1C293D" stroke-width="1.87891" stroke-linecap="round"/>
<path d="M39.457 245.753H474.737" stroke="#1C293D" stroke-width="1.87891" stroke-linecap="round"/>
<path d="M355.74 186.726H449.685V246.851H355.74V186.726Z" fill="url(#paint0_linear_14_95)"/>
<path d="M92.6927 72.113H186.638V246.851H92.6927V72.113Z" fill="url(#paint1_linear_14_95)"/>
<path d="M224.216 230.567H318.161V246.851H224.216V230.567Z" fill="url(#paint2_linear_14_95)"/>
<path d="M118.356 51.9057H126.02V53.3612L121.548 64.1812H119.847L124.284 53.4489H118.356V51.9057ZM126.755 64.1812V62.8484L131.087 58.4293C132.244 57.2718 132.823 56.2781 132.823 55.4481C132.823 54.7583 132.612 54.2205 132.191 53.8347C131.771 53.4489 131.256 53.256 130.648 53.256C129.491 53.256 128.649 53.8055 128.123 54.9044L126.755 54.0977C127.141 53.3028 127.673 52.7007 128.351 52.2915C129.041 51.8823 129.801 51.6777 130.631 51.6777C131.659 51.6777 132.554 52.0168 133.314 52.6948C134.074 53.3729 134.454 54.2848 134.454 55.4305C134.454 56.6698 133.723 58.0201 132.262 59.4814L129.123 62.6029H134.682V64.1812H126.755ZM138.809 62.375L137.669 66.6363H136.354L137.055 62.375H138.809ZM144.542 56.6931C145.699 56.6931 146.675 57.038 147.47 57.7278C148.277 58.4059 148.681 59.347 148.681 60.5512C148.681 61.7436 148.271 62.6848 147.453 63.3745C146.635 64.0643 145.641 64.4092 144.472 64.4092C143.536 64.4092 142.701 64.1871 141.964 63.7428C141.228 63.2869 140.713 62.6322 140.421 61.7787L141.806 60.9896C141.97 61.5858 142.286 62.0418 142.753 62.3574C143.221 62.6614 143.794 62.8134 144.472 62.8134C145.243 62.8134 145.869 62.6146 146.348 62.2171C146.827 61.8196 147.067 61.2643 147.067 60.5512C147.067 59.838 146.827 59.2827 146.348 58.8852C145.869 58.476 145.255 58.2714 144.507 58.2714H141.035L141.491 51.9057H148.207V53.4314H142.964L142.753 56.6931H144.542ZM152.722 57.114C151.927 57.114 151.266 56.851 150.74 56.3249C150.214 55.7988 149.951 55.1558 149.951 54.3959C149.951 53.6476 150.214 53.0105 150.74 52.4844C151.278 51.9466 151.938 51.6777 152.722 51.6777C153.517 51.6777 154.177 51.9408 154.703 52.4669C155.229 52.993 155.492 53.636 155.492 54.3959C155.492 55.1558 155.229 55.7988 154.703 56.3249C154.189 56.851 153.528 57.114 152.722 57.114ZM151.704 55.4305C151.973 55.6994 152.312 55.8339 152.722 55.8339C153.131 55.8339 153.464 55.6936 153.721 55.413C153.99 55.1324 154.124 54.7934 154.124 54.3959C154.124 53.9984 153.99 53.6652 153.721 53.3963C153.464 53.1157 153.131 52.9754 152.722 52.9754C152.312 52.9754 151.973 53.1157 151.704 53.3963C151.447 53.6652 151.319 53.9984 151.319 54.3959C151.319 54.8051 151.447 55.1499 151.704 55.4305ZM150.775 62.4451L158.929 53.3261L159.789 53.7996L151.617 62.9361L150.775 62.4451ZM159.999 63.6025C159.473 64.1286 158.813 64.3917 158.018 64.3917C157.223 64.3917 156.562 64.1286 156.036 63.6025C155.51 63.0764 155.247 62.4334 155.247 61.6735C155.247 60.9136 155.51 60.2706 156.036 59.7445C156.562 59.2184 157.223 58.9553 158.018 58.9553C158.813 58.9553 159.473 59.2184 159.999 59.7445C160.525 60.2706 160.788 60.9136 160.788 61.6735C160.788 62.4334 160.525 63.0764 159.999 63.6025ZM157 62.6906C157.269 62.9595 157.608 63.094 158.018 63.094C158.427 63.094 158.76 62.9595 159.017 62.6906C159.286 62.41 159.42 62.071 159.42 61.6735C159.42 61.276 159.286 60.9428 159.017 60.6739C158.76 60.3933 158.427 60.253 158.018 60.253C157.608 60.253 157.269 60.3933 157 60.6739C156.743 60.9428 156.615 61.276 156.615 61.6735C156.615 62.071 156.743 62.41 157 62.6906Z" fill="white"/>
<path d="M264.969 212.725C266.197 212.725 267.208 213.111 268.003 213.882C268.798 214.642 269.195 215.63 269.195 216.846C269.195 218.062 268.798 219.056 268.003 219.827C267.208 220.599 266.197 220.985 264.969 220.985C263.73 220.985 262.713 220.599 261.918 219.827C261.134 219.056 260.743 218.062 260.743 216.846C260.743 215.899 260.988 215.081 261.479 214.391L265.425 208.481H267.284L264.39 212.76C264.648 212.737 264.84 212.725 264.969 212.725ZM263.075 218.722C263.566 219.19 264.197 219.424 264.969 219.424C265.741 219.424 266.366 219.19 266.845 218.722C267.336 218.243 267.582 217.618 267.582 216.846C267.582 216.074 267.336 215.455 266.845 214.987C266.366 214.52 265.741 214.286 264.969 214.286C264.186 214.286 263.554 214.52 263.075 214.987C262.596 215.455 262.356 216.074 262.356 216.846C262.356 217.618 262.596 218.243 263.075 218.722ZM272.892 213.69C272.097 213.69 271.437 213.426 270.911 212.9C270.384 212.374 270.121 211.731 270.121 210.971C270.121 210.223 270.384 209.586 270.911 209.06C271.448 208.522 272.109 208.253 272.892 208.253C273.687 208.253 274.348 208.516 274.874 209.042C275.4 209.568 275.663 210.211 275.663 210.971C275.663 211.731 275.4 212.374 274.874 212.9C274.359 213.426 273.699 213.69 272.892 213.69ZM271.875 212.006C272.144 212.275 272.483 212.409 272.892 212.409C273.301 212.409 273.635 212.269 273.892 211.988C274.161 211.708 274.295 211.369 274.295 210.971C274.295 210.574 274.161 210.241 273.892 209.972C273.635 209.691 273.301 209.551 272.892 209.551C272.483 209.551 272.144 209.691 271.875 209.972C271.618 210.241 271.489 210.574 271.489 210.971C271.489 211.381 271.618 211.725 271.875 212.006ZM270.946 219.021L279.1 209.902L279.959 210.375L271.787 219.512L270.946 219.021ZM280.17 220.178C279.644 220.704 278.983 220.967 278.188 220.967C277.393 220.967 276.733 220.704 276.207 220.178C275.681 219.652 275.417 219.009 275.417 218.249C275.417 217.489 275.681 216.846 276.207 216.32C276.733 215.794 277.393 215.531 278.188 215.531C278.983 215.531 279.644 215.794 280.17 216.32C280.696 216.846 280.959 217.489 280.959 218.249C280.959 219.009 280.696 219.652 280.17 220.178ZM277.171 219.266C277.44 219.535 277.779 219.669 278.188 219.669C278.597 219.669 278.931 219.535 279.188 219.266C279.457 218.986 279.591 218.646 279.591 218.249C279.591 217.852 279.457 217.518 279.188 217.249C278.931 216.969 278.597 216.829 278.188 216.829C277.779 216.829 277.44 216.969 277.171 217.249C276.914 217.518 276.785 217.852 276.785 218.249C276.785 218.646 276.914 218.986 277.171 219.266Z" fill="white"/>
<path d="M382.263 180.673V179.341L386.595 174.921C387.752 173.764 388.331 172.77 388.331 171.94C388.331 171.25 388.12 170.713 387.699 170.327C387.279 169.941 386.764 169.748 386.156 169.748C384.999 169.748 384.157 170.298 383.631 171.397L382.263 170.59C382.649 169.795 383.181 169.193 383.859 168.784C384.549 168.374 385.309 168.17 386.139 168.17C387.168 168.17 388.062 168.509 388.822 169.187C389.582 169.865 389.962 170.777 389.962 171.923C389.962 173.162 389.231 174.512 387.77 175.974L384.631 179.095H390.19V180.673H382.263ZM394.266 168.398H395.669V180.673H394.056V170.152L391.443 170.923L391.039 169.52L394.266 168.398ZM400.482 178.867L399.342 183.129H398.027L398.728 178.867H400.482ZM406.215 173.185C407.373 173.185 408.349 173.53 409.144 174.22C409.95 174.898 410.354 175.839 410.354 177.043C410.354 178.236 409.945 179.177 409.126 179.867C408.308 180.556 407.314 180.901 406.145 180.901C405.21 180.901 404.374 180.679 403.637 180.235C402.901 179.779 402.386 179.124 402.094 178.271L403.479 177.482C403.643 178.078 403.959 178.534 404.426 178.85C404.894 179.154 405.467 179.306 406.145 179.306C406.917 179.306 407.542 179.107 408.021 178.709C408.501 178.312 408.74 177.757 408.74 177.043C408.74 176.33 408.501 175.775 408.021 175.377C407.542 174.968 406.928 174.764 406.18 174.764H402.708L403.164 168.398H409.88V169.924H404.637L404.426 173.185H406.215ZM414.395 173.606C413.6 173.606 412.939 173.343 412.413 172.817C411.887 172.291 411.624 171.648 411.624 170.888C411.624 170.14 411.887 169.503 412.413 168.977C412.951 168.439 413.611 168.17 414.395 168.17C415.19 168.17 415.85 168.433 416.376 168.959C416.902 169.485 417.166 170.128 417.166 170.888C417.166 171.648 416.902 172.291 416.376 172.817C415.862 173.343 415.201 173.606 414.395 173.606ZM413.378 171.923C413.647 172.192 413.986 172.326 414.395 172.326C414.804 172.326 415.137 172.186 415.394 171.905C415.663 171.625 415.798 171.286 415.798 170.888C415.798 170.491 415.663 170.157 415.394 169.888C415.137 169.608 414.804 169.468 414.395 169.468C413.986 169.468 413.647 169.608 413.378 169.888C413.12 170.157 412.992 170.491 412.992 170.888C412.992 171.297 413.12 171.642 413.378 171.923ZM412.448 178.937L420.603 169.818L421.462 170.292L413.29 179.428L412.448 178.937ZM421.672 180.095C421.146 180.621 420.486 180.884 419.691 180.884C418.896 180.884 418.235 180.621 417.709 180.095C417.183 179.569 416.92 178.926 416.92 178.166C416.92 177.406 417.183 176.763 417.709 176.237C418.235 175.711 418.896 175.448 419.691 175.448C420.486 175.448 421.146 175.711 421.672 176.237C422.199 176.763 422.462 177.406 422.462 178.166C422.462 178.926 422.199 179.569 421.672 180.095ZM418.674 179.183C418.943 179.452 419.282 179.586 419.691 179.586C420.1 179.586 420.433 179.452 420.69 179.183C420.959 178.902 421.094 178.563 421.094 178.166C421.094 177.768 420.959 177.435 420.69 177.166C420.433 176.886 420.1 176.745 419.691 176.745C419.282 176.745 418.943 176.886 418.674 177.166C418.416 177.435 418.288 177.768 418.288 178.166C418.288 178.563 418.416 178.902 418.674 179.183Z" fill="white"/>
<path d="M19.966 201.772L19.966 200.439L24.2975 196.02C25.4549 194.863 26.0336 193.869 26.0336 193.039C26.0336 192.349 25.8232 191.811 25.4023 191.426C24.9814 191.04 24.467 190.847 23.8591 190.847C22.7017 190.847 21.8599 191.396 21.3338 192.495L19.966 191.689C20.3518 190.894 20.8837 190.292 21.5618 189.882C22.2516 189.473 23.0115 189.269 23.8415 189.269C24.8703 189.269 25.7647 189.608 26.5246 190.286C27.2845 190.964 27.6645 191.876 27.6645 193.021C27.6645 194.261 26.9338 195.611 25.4724 197.072L22.3334 200.194H27.8925V201.772H19.966ZM37.4249 200.264C36.5948 201.421 35.4316 202 33.9351 202C32.4387 202 31.2754 201.421 30.4454 200.264C29.6153 199.107 29.2003 197.563 29.2003 195.634C29.2003 193.705 29.6153 192.162 30.4454 191.005C31.2754 189.847 32.4387 189.269 33.9351 189.269C35.4316 189.269 36.5948 189.847 37.4249 191.005C38.2549 192.162 38.67 193.705 38.67 195.634C38.67 197.563 38.2549 199.107 37.4249 200.264ZM31.6379 199.159C32.1756 199.989 32.9414 200.404 33.9351 200.404C34.9289 200.404 35.6946 199.989 36.2324 199.159C36.7819 198.329 37.0566 197.154 37.0566 195.634C37.0566 194.115 36.7819 192.94 36.2324 192.11C35.6946 191.268 34.9289 190.847 33.9351 190.847C32.9414 190.847 32.1756 191.262 31.6379 192.092C31.1001 192.922 30.8312 194.103 30.8312 195.634C30.8312 197.154 31.1001 198.329 31.6379 199.159Z" fill="white"/>
<path d="M34.9196 247.432C34.0896 248.59 32.9263 249.168 31.4299 249.168C29.9334 249.168 28.7702 248.59 27.9401 247.432C27.1101 246.275 26.695 244.732 26.695 242.803C26.695 240.874 27.1101 239.33 27.9401 238.173C28.7702 237.016 29.9334 236.437 31.4299 236.437C32.9263 236.437 34.0896 237.016 34.9196 238.173C35.7497 239.33 36.1647 240.874 36.1647 242.803C36.1647 244.732 35.7497 246.275 34.9196 247.432ZM29.1326 246.327C29.6704 247.157 30.4362 247.572 31.4299 247.572C32.4236 247.572 33.1894 247.157 33.7272 246.327C34.2766 245.497 34.5514 244.322 34.5514 242.803C34.5514 241.283 34.2766 240.108 33.7272 239.278C33.1894 238.436 32.4236 238.015 31.4299 238.015C30.4362 238.015 29.6704 238.43 29.1326 239.26C28.5948 240.09 28.3259 241.271 28.3259 242.803C28.3259 244.322 28.5948 245.497 29.1326 246.327Z" fill="white"/>
<path d="M23.6923 100.128C24.9199 100.128 25.9311 100.514 26.7261 101.285C27.5211 102.045 27.9186 103.033 27.9186 104.249C27.9186 105.465 27.5211 106.459 26.7261 107.23C25.9311 108.002 24.9199 108.388 23.6923 108.388C22.4531 108.388 21.4359 108.002 20.641 107.23C19.8577 106.459 19.466 105.465 19.466 104.249C19.466 103.302 19.7115 102.484 20.2025 101.794L24.1482 95.8841H26.0071L23.1136 100.163C23.3708 100.14 23.5637 100.128 23.6923 100.128ZM21.7984 106.125C22.2894 106.593 22.9207 106.827 23.6923 106.827C24.4639 106.827 25.0894 106.593 25.5687 106.125C26.0597 105.646 26.3052 105.021 26.3052 104.249C26.3052 103.477 26.0597 102.858 25.5687 102.39C25.0894 101.922 24.4639 101.689 23.6923 101.689C22.909 101.689 22.2777 101.922 21.7984 102.39C21.319 102.858 21.0794 103.477 21.0794 104.249C21.0794 105.021 21.319 105.646 21.7984 106.125ZM37.4249 106.651C36.5948 107.809 35.4315 108.388 33.9351 108.388C32.4387 108.388 31.2754 107.809 30.4453 106.651C29.6153 105.494 29.2003 103.951 29.2003 102.022C29.2003 100.093 29.6153 98.5496 30.4453 97.3922C31.2754 96.2348 32.4387 95.6561 33.9351 95.6561C35.4315 95.6561 36.5948 96.2348 37.4249 97.3922C38.2549 98.5496 38.6699 100.093 38.6699 102.022C38.6699 103.951 38.2549 105.494 37.4249 106.651ZM31.6378 105.547C32.1756 106.377 32.9414 106.792 33.9351 106.792C34.9288 106.792 35.6946 106.377 36.2324 105.547C36.7818 104.717 37.0566 103.542 37.0566 102.022C37.0566 100.502 36.7818 99.3271 36.2324 98.497C35.6946 97.6553 34.9288 97.2344 33.9351 97.2344C32.9414 97.2344 32.1756 97.6494 31.6378 98.4795C31.1 99.3095 30.8311 100.49 30.8311 102.022C30.8311 103.542 31.1 104.717 31.6378 105.547Z" fill="white"/>
<path d="M25.8387 55.2757C26.435 55.5797 26.9026 55.9889 27.2417 56.5033C27.5807 57.0177 27.7502 57.6022 27.7502 58.2569C27.7502 59.3792 27.3586 60.2619 26.5753 60.9049C25.792 61.5362 24.7807 61.8519 23.5415 61.8519C22.3139 61.8519 21.3085 61.5362 20.5252 60.9049C19.7419 60.2619 19.3502 59.3792 19.3502 58.2569C19.3502 57.6022 19.5198 57.0177 19.8588 56.5033C20.1978 55.9889 20.6655 55.5797 21.2617 55.2757C20.2563 54.6444 19.7536 53.75 19.7536 52.5926C19.7536 51.482 20.1219 50.6285 20.8584 50.0323C21.6066 49.4244 22.501 49.1204 23.5415 49.1204C24.5936 49.1204 25.488 49.4244 26.2245 50.0323C26.9728 50.6285 27.3469 51.482 27.3469 52.5926C27.3469 53.75 26.8442 54.6444 25.8387 55.2757ZM23.5415 50.6812C22.9218 50.6812 22.4016 50.8448 21.9807 51.1722C21.5715 51.4995 21.3669 51.9847 21.3669 52.6277C21.3669 53.2473 21.5774 53.7325 21.9983 54.0832C22.4191 54.4223 22.9335 54.5918 23.5415 54.5918C24.1494 54.5918 24.6638 54.4223 25.0847 54.0832C25.5055 53.7325 25.716 53.2473 25.716 52.6277C25.716 51.9847 25.5114 51.4995 25.1022 51.1722C24.693 50.8448 24.1728 50.6812 23.5415 50.6812ZM23.5415 60.2911C24.3248 60.2911 24.9502 60.1099 25.4179 59.7475C25.8972 59.3734 26.1369 58.8414 26.1369 58.1517C26.1369 57.4736 25.8972 56.9534 25.4179 56.5909C24.9502 56.2168 24.3248 56.0298 23.5415 56.0298C22.7699 56.0298 22.1444 56.2168 21.6651 56.5909C21.1974 56.9534 20.9636 57.4736 20.9636 58.1517C20.9636 58.8414 21.1974 59.3734 21.6651 59.7475C22.1444 60.1099 22.7699 60.2911 23.5415 60.2911ZM37.4249 60.1158C36.5948 61.2732 35.4315 61.8519 33.9351 61.8519C32.4387 61.8519 31.2754 61.2732 30.4453 60.1158C29.6153 58.9584 29.2003 57.4151 29.2003 55.4861C29.2003 53.5571 29.6153 52.0139 30.4453 50.8565C31.2754 49.6991 32.4387 49.1204 33.9351 49.1204C35.4315 49.1204 36.5948 49.6991 37.4249 50.8565C38.2549 52.0139 38.6699 53.5571 38.6699 55.4861C38.6699 57.4151 38.2549 58.9584 37.4249 60.1158ZM31.6378 59.011C32.1756 59.841 32.9414 60.2561 33.9351 60.2561C34.9288 60.2561 35.6946 59.841 36.2324 59.011C36.7818 58.1809 37.0566 57.006 37.0566 55.4861C37.0566 53.9663 36.7818 52.7914 36.2324 51.9613C35.6946 51.1196 34.9288 50.6987 33.9351 50.6987C32.9414 50.6987 32.1756 51.1137 31.6378 51.9438C31.1 52.7738 30.8311 53.9546 30.8311 55.4861C30.8311 57.006 31.1 58.1809 31.6378 59.011Z" fill="white"/>
<path d="M14.5866 2.81273H15.9895L15.9895 15.0883H14.3762L14.3762 4.56638L11.7633 5.33798L11.3599 3.93507L14.5866 2.81273ZM26.3789 13.5801C25.5489 14.7375 24.3856 15.3162 22.8892 15.3162C21.3927 15.3162 20.2295 14.7375 19.3994 13.5801C18.5694 12.4227 18.1543 10.8795 18.1543 8.95049C18.1543 7.02148 18.5694 5.47828 19.3994 4.32087C20.2295 3.16346 21.3927 2.58476 22.8892 2.58476C24.3856 2.58476 25.5489 3.16346 26.3789 4.32087C27.209 5.47828 27.624 7.02148 27.624 8.95049C27.624 10.8795 27.209 12.4227 26.3789 13.5801ZM20.5919 12.4753C21.1297 13.3054 21.8955 13.7204 22.8892 13.7204C23.8829 13.7204 24.6487 13.3054 25.1865 12.4753C25.7359 11.6453 26.0107 10.4703 26.0107 8.95049C26.0107 7.43067 25.7359 6.25573 25.1865 5.42567C24.6487 4.58392 23.8829 4.16304 22.8892 4.16304C21.8955 4.16304 21.1297 4.57807 20.5919 5.40813C20.0541 6.23819 19.7852 7.41898 19.7852 8.95049C19.7852 10.4703 20.0541 11.6453 20.5919 12.4753ZM37.4249 13.5801C36.5948 14.7375 35.4315 15.3162 33.9351 15.3162C32.4387 15.3162 31.2754 14.7375 30.4453 13.5801C29.6153 12.4227 29.2003 10.8795 29.2003 8.95049C29.2003 7.02148 29.6153 5.47828 30.4453 4.32087C31.2754 3.16346 32.4387 2.58476 33.9351 2.58476C35.4315 2.58476 36.5948 3.16346 37.4249 4.32087C38.2549 5.47828 38.6699 7.02148 38.6699 8.95049C38.6699 10.8795 38.2549 12.4227 37.4249 13.5801ZM31.6378 12.4753C32.1756 13.3054 32.9414 13.7204 33.9351 13.7204C34.9288 13.7204 35.6946 13.3054 36.2324 12.4753C36.7818 11.6453 37.0566 10.4703 37.0566 8.95049C37.0566 7.43067 36.7818 6.25573 36.2324 5.42567C35.6946 4.58392 34.9288 4.16304 33.9351 4.16304C32.9414 4.16304 32.1756 4.57807 31.6378 5.40813C31.1 6.23819 30.8311 7.41898 30.8311 8.95049C30.8311 10.4703 31.1 11.6453 31.6378 12.4753Z" fill="white"/>
<path d="M28.0414 150.837V152.363H26.5508V154.695H24.9199V152.363H18.6594V150.837L23.0611 142.42H24.8147L20.4131 150.837H24.9199V147.365H26.5508V150.837H28.0414ZM37.4248 153.187C36.5948 154.345 35.4315 154.923 33.9351 154.923C32.4386 154.923 31.2754 154.345 30.4453 153.187C29.6152 152.03 29.2002 150.487 29.2002 148.558C29.2002 146.629 29.6152 145.085 30.4453 143.928C31.2754 142.771 32.4386 142.192 33.9351 142.192C35.4315 142.192 36.5948 142.771 37.4248 143.928C38.2549 145.085 38.6699 146.629 38.6699 148.558C38.6699 150.487 38.2549 152.03 37.4248 153.187ZM31.6378 152.082C32.1756 152.912 32.9413 153.327 33.9351 153.327C34.9288 153.327 35.6945 152.912 36.2323 152.082C36.7818 151.252 37.0565 150.077 37.0565 148.558C37.0565 147.038 36.7818 145.863 36.2323 145.033C35.6945 144.191 34.9288 143.77 33.9351 143.77C32.9413 143.77 32.1756 144.185 31.6378 145.015C31.1 145.845 30.8311 147.026 30.8311 148.558C30.8311 150.077 31.1 151.252 31.6378 152.082Z" fill="white"/>
<path d="M117.934 274.665C117.363 274.665 116.859 274.545 116.423 274.304C115.987 274.064 115.668 273.714 115.465 273.256L116.356 272.737C116.589 273.338 117.115 273.639 117.934 273.639C118.437 273.639 118.832 273.519 119.118 273.278C119.403 273.038 119.546 272.681 119.546 272.207V266.627H120.583V272.207C120.583 272.997 120.331 273.605 119.828 274.034C119.332 274.455 118.7 274.665 117.934 274.665ZM123.532 266.616L122.8 269.355H121.954L122.405 266.616H123.532ZM124.703 272.151C124.801 272.655 125.03 273.045 125.391 273.323C125.759 273.602 126.21 273.741 126.744 273.741C127.488 273.741 128.029 273.466 128.367 272.918L129.201 273.391C128.653 274.24 127.826 274.665 126.721 274.665C125.827 274.665 125.098 274.387 124.534 273.831C123.978 273.267 123.7 272.557 123.7 271.7C123.7 270.851 123.974 270.144 124.523 269.581C125.071 269.017 125.782 268.735 126.653 268.735C127.48 268.735 128.153 269.028 128.671 269.614C129.198 270.193 129.461 270.892 129.461 271.711C129.461 271.854 129.449 272.001 129.427 272.151H124.703ZM126.653 269.66C126.127 269.66 125.691 269.81 125.346 270.111C125 270.404 124.786 270.798 124.703 271.294H128.469C128.386 270.761 128.175 270.355 127.837 270.077C127.499 269.799 127.104 269.66 126.653 269.66ZM133.395 268.735C134.056 268.735 134.586 268.946 134.985 269.366C135.383 269.78 135.582 270.344 135.582 271.057V274.518H134.601V271.114C134.601 270.655 134.477 270.302 134.229 270.054C133.981 269.799 133.639 269.671 133.203 269.671C132.715 269.671 132.32 269.825 132.02 270.133C131.719 270.434 131.569 270.9 131.569 271.531V274.518H130.588V268.882H131.569V269.693C131.967 269.055 132.576 268.735 133.395 268.735ZM144.437 268.882H145.418V274.518H144.437V273.549C143.948 274.293 143.238 274.665 142.306 274.665C141.517 274.665 140.844 274.379 140.288 273.808C139.732 273.23 139.454 272.527 139.454 271.7C139.454 270.873 139.732 270.174 140.288 269.603C140.844 269.025 141.517 268.735 142.306 268.735C143.238 268.735 143.948 269.107 144.437 269.851V268.882ZM142.43 273.718C143.001 273.718 143.479 273.526 143.862 273.143C144.245 272.752 144.437 272.271 144.437 271.7C144.437 271.129 144.245 270.652 143.862 270.268C143.479 269.878 143.001 269.682 142.43 269.682C141.867 269.682 141.393 269.878 141.01 270.268C140.626 270.652 140.435 271.129 140.435 271.7C140.435 272.271 140.626 272.752 141.01 273.143C141.393 273.526 141.867 273.718 142.43 273.718ZM147.4 267.856C147.212 267.856 147.054 267.792 146.926 267.664C146.798 267.536 146.735 267.382 146.735 267.202C146.735 267.022 146.798 266.868 146.926 266.74C147.054 266.604 147.212 266.537 147.4 266.537C147.58 266.537 147.734 266.604 147.862 266.74C147.99 266.868 148.054 267.022 148.054 267.202C148.054 267.382 147.99 267.536 147.862 267.664C147.734 267.792 147.58 267.856 147.4 267.856ZM146.904 274.518V268.882H147.884V274.518H146.904Z" fill="white"/>
<path d="M204.547 267.665C203.976 267.665 203.472 267.545 203.036 267.304C202.6 267.064 202.281 266.714 202.078 266.256L202.969 265.737C203.202 266.338 203.728 266.639 204.547 266.639C205.051 266.639 205.445 266.519 205.731 266.278C206.016 266.038 206.159 265.681 206.159 265.207V259.627H207.196V265.207C207.196 265.997 206.944 266.605 206.441 267.034C205.945 267.455 205.314 267.665 204.547 267.665ZM209.313 265.151C209.41 265.655 209.64 266.045 210 266.323C210.369 266.602 210.82 266.741 211.353 266.741C212.097 266.741 212.638 266.466 212.977 265.918L213.811 266.391C213.262 267.24 212.435 267.665 211.331 267.665C210.436 267.665 209.707 267.387 209.144 266.831C208.587 266.267 208.309 265.557 208.309 264.7C208.309 263.851 208.584 263.144 209.132 262.581C209.681 262.017 210.391 261.735 211.263 261.735C212.09 261.735 212.762 262.028 213.281 262.614C213.807 263.193 214.07 263.892 214.07 264.711C214.07 264.854 214.059 265.001 214.036 265.151H209.313ZM211.263 262.66C210.737 262.66 210.301 262.81 209.955 263.111C209.61 263.404 209.395 263.798 209.313 264.294H213.078C212.995 263.761 212.785 263.355 212.447 263.077C212.108 262.799 211.714 262.66 211.263 262.66ZM221.962 261.882H223.021L220.767 267.518H219.617L217.362 261.882H218.422L220.192 266.47L221.962 261.882ZM228.298 261.882H229.279V267.518H228.298V266.549C227.809 267.293 227.099 267.665 226.167 267.665C225.378 267.665 224.705 267.379 224.149 266.808C223.593 266.23 223.315 265.527 223.315 264.7C223.315 263.873 223.593 263.174 224.149 262.603C224.705 262.025 225.378 261.735 226.167 261.735C227.099 261.735 227.809 262.107 228.298 262.851V261.882ZM226.291 266.718C226.862 266.718 227.339 266.526 227.723 266.143C228.106 265.752 228.298 265.271 228.298 264.7C228.298 264.129 228.106 263.652 227.723 263.268C227.339 262.878 226.862 262.682 226.291 262.682C225.727 262.682 225.254 262.878 224.871 263.268C224.487 263.652 224.296 264.129 224.296 264.7C224.296 265.271 224.487 265.752 224.871 266.143C225.254 266.526 225.727 266.718 226.291 266.718ZM231.261 260.856C231.073 260.856 230.915 260.792 230.787 260.664C230.659 260.536 230.595 260.382 230.595 260.202C230.595 260.022 230.659 259.868 230.787 259.74C230.915 259.604 231.073 259.537 231.261 259.537C231.441 259.537 231.595 259.604 231.723 259.74C231.851 259.868 231.914 260.022 231.914 260.202C231.914 260.382 231.851 260.536 231.723 260.664C231.595 260.792 231.441 260.856 231.261 260.856ZM230.764 267.518V261.882H231.745V267.518H230.764ZM234.076 263.404C234.076 263.622 234.185 263.798 234.403 263.933C234.621 264.061 234.884 264.166 235.192 264.249C235.5 264.324 235.808 264.414 236.117 264.52C236.425 264.617 236.688 264.79 236.906 265.038C237.124 265.279 237.233 265.591 237.233 265.974C237.233 266.485 237.033 266.895 236.635 267.203C236.244 267.511 235.741 267.665 235.124 267.665C234.576 267.665 234.106 267.545 233.715 267.304C233.325 267.064 233.046 266.744 232.881 266.346L233.727 265.861C233.817 266.132 233.986 266.346 234.234 266.504C234.482 266.662 234.779 266.741 235.124 266.741C235.448 266.741 235.714 266.68 235.925 266.56C236.135 266.432 236.241 266.237 236.241 265.974C236.241 265.756 236.132 265.583 235.914 265.455C235.696 265.32 235.433 265.215 235.124 265.14C234.816 265.057 234.508 264.963 234.2 264.858C233.892 264.753 233.629 264.58 233.411 264.339C233.193 264.099 233.084 263.791 233.084 263.415C233.084 262.926 233.272 262.524 233.648 262.209C234.031 261.893 234.508 261.735 235.079 261.735C235.538 261.735 235.944 261.84 236.297 262.051C236.658 262.254 236.928 262.539 237.109 262.908L236.286 263.37C236.083 262.889 235.681 262.648 235.079 262.648C234.801 262.648 234.565 262.716 234.369 262.851C234.174 262.979 234.076 263.163 234.076 263.404ZM241.9 265.151C241.998 265.655 242.227 266.045 242.588 266.323C242.956 266.602 243.407 266.741 243.94 266.741C244.684 266.741 245.226 266.466 245.564 265.918L246.398 266.391C245.849 267.24 245.023 267.665 243.918 267.665C243.024 267.665 242.294 267.387 241.731 266.831C241.175 266.267 240.897 265.557 240.897 264.7C240.897 263.851 241.171 263.144 241.72 262.581C242.268 262.017 242.978 261.735 243.85 261.735C244.677 261.735 245.35 262.028 245.868 262.614C246.394 263.193 246.657 263.892 246.657 264.711C246.657 264.854 246.646 265.001 246.623 265.151H241.9ZM243.85 262.66C243.324 262.66 242.888 262.81 242.543 263.111C242.197 263.404 241.983 263.798 241.9 264.294H245.665C245.583 263.761 245.372 263.355 245.034 263.077C244.696 262.799 244.301 262.66 243.85 262.66ZM250.592 261.735C251.253 261.735 251.783 261.946 252.181 262.366C252.58 262.78 252.779 263.344 252.779 264.057V267.518H251.798V264.114C251.798 263.655 251.674 263.302 251.426 263.054C251.178 262.799 250.836 262.671 250.4 262.671C249.912 262.671 249.517 262.825 249.216 263.133C248.916 263.434 248.766 263.9 248.766 264.531V267.518H247.785V261.882H248.766V262.693C249.164 262.055 249.773 261.735 250.592 261.735ZM259.864 260.427C258.872 260.345 258.376 260.773 258.376 261.713V261.882H259.864V262.829H258.376V267.518H257.395V262.829H256.493V261.882H257.395V261.713C257.395 260.954 257.605 260.379 258.026 259.988C258.455 259.597 259.067 259.428 259.864 259.48V260.427ZM264.969 261.882H265.95V267.518H264.969V266.549C264.481 267.293 263.771 267.665 262.839 267.665C262.05 267.665 261.377 267.379 260.821 266.808C260.265 266.23 259.987 265.527 259.987 264.7C259.987 263.873 260.265 263.174 260.821 262.603C261.377 262.025 262.05 261.735 262.839 261.735C263.771 261.735 264.481 262.107 264.969 262.851V261.882ZM262.963 266.718C263.534 266.718 264.011 266.526 264.394 266.143C264.778 265.752 264.969 265.271 264.969 264.7C264.969 264.129 264.778 263.652 264.394 263.268C264.011 262.878 263.534 262.682 262.963 262.682C262.399 262.682 261.926 262.878 261.542 263.268C261.159 263.652 260.967 264.129 260.967 264.7C260.967 265.271 261.159 265.752 261.542 266.143C261.926 266.526 262.399 266.718 262.963 266.718ZM267.932 260.856C267.744 260.856 267.587 260.792 267.459 260.664C267.331 260.536 267.267 260.382 267.267 260.202C267.267 260.022 267.331 259.868 267.459 259.74C267.587 259.604 267.744 259.537 267.932 259.537C268.113 259.537 268.267 259.604 268.394 259.74C268.522 259.868 268.586 260.022 268.586 260.202C268.586 260.382 268.522 260.536 268.394 260.664C268.267 260.792 268.113 260.856 267.932 260.856ZM267.436 267.518V261.882H268.417V267.518H267.436ZM270.894 262.829C271.217 262.13 271.803 261.78 272.653 261.78V262.806C272.172 262.784 271.758 262.911 271.413 263.189C271.067 263.468 270.894 263.915 270.894 264.531V267.518H269.913V261.882H270.894V262.829ZM273.992 265.151C274.089 265.655 274.319 266.045 274.679 266.323C275.048 266.602 275.499 266.741 276.032 266.741C276.776 266.741 277.317 266.466 277.656 265.918L278.49 266.391C277.941 267.24 277.115 267.665 276.01 267.665C275.115 267.665 274.386 267.387 273.823 266.831C273.267 266.267 272.988 265.557 272.988 264.7C272.988 263.851 273.263 263.144 273.811 262.581C274.36 262.017 275.07 261.735 275.942 261.735C276.769 261.735 277.441 262.028 277.96 262.614C278.486 263.193 278.749 263.892 278.749 264.711C278.749 264.854 278.738 265.001 278.715 265.151H273.992ZM275.942 262.66C275.416 262.66 274.98 262.81 274.634 263.111C274.289 263.404 274.074 263.798 273.992 264.294H277.757C277.674 263.761 277.464 263.355 277.126 263.077C276.788 262.799 276.393 262.66 275.942 262.66ZM286.584 261.882H287.565V267.518H286.584V266.707C286.186 267.346 285.577 267.665 284.758 267.665C284.097 267.665 283.567 267.458 283.168 267.045C282.77 266.624 282.571 266.057 282.571 265.343V261.882H283.552V265.286C283.552 265.745 283.676 266.102 283.924 266.357C284.172 266.605 284.514 266.729 284.95 266.729C285.438 266.729 285.833 266.579 286.133 266.278C286.434 265.97 286.584 265.5 286.584 264.869V261.882ZM291.865 261.735C292.527 261.735 293.057 261.946 293.455 262.366C293.853 262.78 294.052 263.344 294.052 264.057V267.518H293.072V264.114C293.072 263.655 292.948 263.302 292.7 263.054C292.452 262.799 292.11 262.671 291.674 262.671C291.185 262.671 290.791 262.825 290.49 263.133C290.189 263.434 290.039 263.9 290.039 264.531V267.518H289.058V261.882H290.039V262.693C290.437 262.055 291.046 261.735 291.865 261.735ZM302.907 259.627H303.888V267.518H302.907V266.549C302.419 267.293 301.708 267.665 300.777 267.665C299.987 267.665 299.315 267.379 298.759 266.808C298.202 266.23 297.924 265.527 297.924 264.7C297.924 263.873 298.202 263.174 298.759 262.603C299.315 262.025 299.987 261.735 300.777 261.735C301.708 261.735 302.419 262.107 302.907 262.851V259.627ZM300.901 266.718C301.472 266.718 301.949 266.526 302.332 266.143C302.716 265.752 302.907 265.271 302.907 264.7C302.907 264.129 302.716 263.652 302.332 263.268C301.949 262.878 301.472 262.682 300.901 262.682C300.337 262.682 299.863 262.878 299.48 263.268C299.097 263.652 298.905 264.129 298.905 264.7C298.905 265.271 299.097 265.752 299.48 266.143C299.863 266.526 300.337 266.718 300.901 266.718ZM310.041 261.882H311.022V267.518H310.041V266.549C309.553 267.293 308.842 267.665 307.91 267.665C307.121 267.665 306.449 267.379 305.893 266.808C305.336 266.23 305.058 265.527 305.058 264.7C305.058 263.873 305.336 263.174 305.893 262.603C306.449 262.025 307.121 261.735 307.91 261.735C308.842 261.735 309.553 262.107 310.041 262.851V261.882ZM308.034 266.718C308.606 266.718 309.083 266.526 309.466 266.143C309.85 265.752 310.041 265.271 310.041 264.7C310.041 264.129 309.85 263.652 309.466 263.268C309.083 262.878 308.606 262.682 308.034 262.682C307.471 262.682 306.997 262.878 306.614 263.268C306.231 263.652 306.039 264.129 306.039 264.7C306.039 265.271 306.231 265.752 306.614 266.143C306.997 266.526 307.471 266.718 308.034 266.718ZM315.315 261.735C315.976 261.735 316.506 261.946 316.905 262.366C317.303 262.78 317.502 263.344 317.502 264.057V267.518H316.521V264.114C316.521 263.655 316.397 263.302 316.149 263.054C315.901 262.799 315.559 262.671 315.123 262.671C314.635 262.671 314.24 262.825 313.94 263.133C313.639 263.434 313.489 263.9 313.489 264.531V267.518H312.508V261.882H313.489V262.693C313.887 262.055 314.496 261.735 315.315 261.735ZM319.717 263.404C319.717 263.622 319.826 263.798 320.044 263.933C320.262 264.061 320.525 264.166 320.833 264.249C321.141 264.324 321.449 264.414 321.757 264.52C322.065 264.617 322.328 264.79 322.546 265.038C322.764 265.279 322.873 265.591 322.873 265.974C322.873 266.485 322.674 266.895 322.276 267.203C321.885 267.511 321.381 267.665 320.765 267.665C320.217 267.665 319.747 267.545 319.356 267.304C318.965 267.064 318.687 266.744 318.522 266.346L319.367 265.861C319.457 266.132 319.627 266.346 319.875 266.504C320.123 266.662 320.419 266.741 320.765 266.741C321.088 266.741 321.355 266.68 321.566 266.56C321.776 266.432 321.881 266.237 321.881 265.974C321.881 265.756 321.772 265.583 321.554 265.455C321.336 265.32 321.073 265.215 320.765 265.14C320.457 265.057 320.149 264.963 319.841 264.858C319.533 264.753 319.27 264.58 319.052 264.339C318.834 264.099 318.725 263.791 318.725 263.415C318.725 262.926 318.913 262.524 319.288 262.209C319.672 261.893 320.149 261.735 320.72 261.735C321.179 261.735 321.584 261.84 321.938 262.051C322.298 262.254 322.569 262.539 322.749 262.908L321.926 263.37C321.723 262.889 321.321 262.648 320.72 262.648C320.442 262.648 320.205 262.716 320.01 262.851C319.814 262.979 319.717 263.163 319.717 263.404ZM326.853 267.518V259.289H327.834V267.518H326.853ZM330.018 265.151C330.115 265.655 330.345 266.045 330.705 266.323C331.074 266.602 331.525 266.741 332.058 266.741C332.802 266.741 333.343 266.466 333.682 265.918L334.516 266.391C333.967 267.24 333.14 267.665 332.036 267.665C331.141 267.665 330.412 267.387 329.849 266.831C329.292 266.267 329.014 265.557 329.014 264.7C329.014 263.851 329.289 263.144 329.837 262.581C330.386 262.017 331.096 261.735 331.968 261.735C332.795 261.735 333.467 262.028 333.986 262.614C334.512 263.193 334.775 263.892 334.775 264.711C334.775 264.854 334.764 265.001 334.741 265.151H330.018ZM331.968 262.66C331.442 262.66 331.006 262.81 330.66 263.111C330.315 263.404 330.1 263.798 330.018 264.294H333.783C333.7 263.761 333.49 263.355 333.152 263.077C332.814 262.799 332.419 262.66 331.968 262.66ZM336.528 263.404C336.528 263.622 336.637 263.798 336.855 263.933C337.073 264.061 337.336 264.166 337.644 264.249C337.952 264.324 338.26 264.414 338.568 264.52C338.876 264.617 339.139 264.79 339.357 265.038C339.575 265.279 339.684 265.591 339.684 265.974C339.684 266.485 339.485 266.895 339.087 267.203C338.696 267.511 338.193 267.665 337.576 267.665C337.028 267.665 336.558 267.545 336.167 267.304C335.776 267.064 335.498 266.744 335.333 266.346L336.178 265.861C336.269 266.132 336.438 266.346 336.686 266.504C336.934 266.662 337.231 266.741 337.576 266.741C337.899 266.741 338.166 266.68 338.377 266.56C338.587 266.432 338.692 266.237 338.692 265.974C338.692 265.756 338.583 265.583 338.365 265.455C338.147 265.32 337.884 265.215 337.576 265.14C337.268 265.057 336.96 264.963 336.652 264.858C336.344 264.753 336.081 264.58 335.863 264.339C335.645 264.099 335.536 263.791 335.536 263.415C335.536 262.926 335.724 262.524 336.099 262.209C336.483 261.893 336.96 261.735 337.531 261.735C337.99 261.735 338.395 261.84 338.749 262.051C339.109 262.254 339.38 262.539 339.56 262.908L338.737 263.37C338.534 262.889 338.132 262.648 337.531 262.648C337.253 262.648 337.016 262.716 336.821 262.851C336.626 262.979 336.528 263.163 336.528 263.404ZM227.838 273.627H228.74V281.518H227.703V274.754L226.023 275.25L225.764 274.349L227.838 273.627ZM230.03 281.518V280.662L232.814 277.821C233.559 277.077 233.931 276.438 233.931 275.904C233.931 275.461 233.795 275.115 233.525 274.867C233.254 274.619 232.923 274.495 232.533 274.495C231.789 274.495 231.247 274.848 230.909 275.555L230.03 275.036C230.278 274.525 230.62 274.138 231.056 273.875C231.499 273.612 231.988 273.48 232.521 273.48C233.183 273.48 233.758 273.698 234.246 274.134C234.735 274.57 234.979 275.156 234.979 275.893C234.979 276.69 234.509 277.558 233.57 278.497L231.552 280.504H235.126V281.518H230.03ZM242.243 275.735C243.032 275.735 243.705 276.025 244.261 276.603C244.817 277.174 245.095 277.873 245.095 278.7C245.095 279.527 244.817 280.23 244.261 280.808C243.705 281.379 243.032 281.665 242.243 281.665C241.311 281.665 240.601 281.293 240.112 280.549V283.773H239.131V275.882H240.112V276.851C240.601 276.107 241.311 275.735 242.243 275.735ZM242.119 280.718C242.683 280.718 243.156 280.526 243.539 280.143C243.923 279.752 244.114 279.271 244.114 278.7C244.114 278.129 243.923 277.652 243.539 277.268C243.156 276.878 242.683 276.682 242.119 276.682C241.548 276.682 241.071 276.878 240.687 277.268C240.304 277.652 240.112 278.129 240.112 278.7C240.112 279.271 240.304 279.752 240.687 280.143C241.071 280.526 241.548 280.718 242.119 280.718ZM247.246 276.829C247.569 276.13 248.156 275.78 249.005 275.78V276.806C248.524 276.784 248.111 276.911 247.765 277.189C247.419 277.468 247.246 277.915 247.246 278.531V281.518H246.265V275.882H247.246V276.829ZM254.414 280.808C253.835 281.379 253.132 281.665 252.306 281.665C251.479 281.665 250.776 281.379 250.197 280.808C249.626 280.237 249.341 279.534 249.341 278.7C249.341 277.866 249.626 277.163 250.197 276.592C250.776 276.021 251.479 275.735 252.306 275.735C253.132 275.735 253.835 276.021 254.414 276.592C254.992 277.163 255.282 277.866 255.282 278.7C255.282 279.534 254.992 280.237 254.414 280.808ZM252.306 280.707C252.869 280.707 253.343 280.515 253.726 280.132C254.109 279.749 254.301 279.271 254.301 278.7C254.301 278.129 254.109 277.652 253.726 277.268C253.343 276.885 252.869 276.693 252.306 276.693C251.749 276.693 251.28 276.885 250.896 277.268C250.513 277.652 250.321 278.129 250.321 278.7C250.321 279.271 250.513 279.749 250.896 280.132C251.28 280.515 251.749 280.707 252.306 280.707ZM259.087 281.665C258.238 281.665 257.532 281.383 256.968 280.819C256.404 280.248 256.122 279.542 256.122 278.7C256.122 277.858 256.404 277.156 256.968 276.592C257.532 276.021 258.238 275.735 259.087 275.735C259.643 275.735 260.143 275.87 260.587 276.141C261.03 276.404 261.361 276.761 261.579 277.212L260.756 277.685C260.613 277.385 260.391 277.144 260.091 276.964C259.797 276.784 259.463 276.693 259.087 276.693C258.524 276.693 258.05 276.885 257.667 277.268C257.291 277.652 257.103 278.129 257.103 278.7C257.103 279.264 257.291 279.737 257.667 280.121C258.05 280.504 258.524 280.695 259.087 280.695C259.463 280.695 259.801 280.609 260.102 280.436C260.402 280.256 260.632 280.015 260.79 279.715L261.624 280.199C261.383 280.643 261.038 281 260.587 281.27C260.136 281.533 259.636 281.665 259.087 281.665ZM265.399 275.735C266.061 275.735 266.59 275.946 266.989 276.366C267.387 276.78 267.586 277.344 267.586 278.057V281.518H266.605V278.114C266.605 277.655 266.481 277.302 266.233 277.054C265.985 276.799 265.643 276.671 265.208 276.671C264.719 276.671 264.324 276.825 264.024 277.133C263.723 277.434 263.573 277.9 263.573 278.531V281.518H262.592V273.627H263.573V276.693C263.971 276.055 264.58 275.735 265.399 275.735ZM273.623 275.882H274.603V281.518H273.623V280.549C273.134 281.293 272.424 281.665 271.492 281.665C270.703 281.665 270.03 281.379 269.474 280.808C268.918 280.23 268.64 279.527 268.64 278.7C268.64 277.873 268.918 277.174 269.474 276.603C270.03 276.025 270.703 275.735 271.492 275.735C272.424 275.735 273.134 276.107 273.623 276.851V275.882ZM271.616 280.718C272.187 280.718 272.664 280.526 273.048 280.143C273.431 279.752 273.623 279.271 273.623 278.7C273.623 278.129 273.431 277.652 273.048 277.268C272.664 276.878 272.187 276.682 271.616 276.682C271.052 276.682 270.579 276.878 270.196 277.268C269.812 277.652 269.621 278.129 269.621 278.7C269.621 279.271 269.812 279.752 270.196 280.143C270.579 280.526 271.052 280.718 271.616 280.718ZM276.585 274.856C276.398 274.856 276.24 274.792 276.112 274.664C275.984 274.536 275.92 274.382 275.92 274.202C275.92 274.022 275.984 273.868 276.112 273.74C276.24 273.604 276.398 273.537 276.585 273.537C276.766 273.537 276.92 273.604 277.048 273.74C277.175 273.868 277.239 274.022 277.239 274.202C277.239 274.382 277.175 274.536 277.048 274.664C276.92 274.792 276.766 274.856 276.585 274.856ZM276.089 281.518V275.882H277.07V281.518H276.089ZM281.374 275.735C282.035 275.735 282.565 275.946 282.963 276.366C283.361 276.78 283.561 277.344 283.561 278.057V281.518H282.58V278.114C282.58 277.655 282.456 277.302 282.208 277.054C281.96 276.799 281.618 276.671 281.182 276.671C280.693 276.671 280.299 276.825 279.998 277.133C279.698 277.434 279.547 277.9 279.547 278.531V281.518H278.567V275.882H279.547V276.693C279.946 276.055 280.554 275.735 281.374 275.735ZM285.775 277.404C285.775 277.622 285.884 277.798 286.102 277.933C286.32 278.061 286.583 278.166 286.891 278.249C287.2 278.324 287.508 278.414 287.816 278.52C288.124 278.617 288.387 278.79 288.605 279.038C288.823 279.279 288.932 279.591 288.932 279.974C288.932 280.485 288.733 280.895 288.334 281.203C287.944 281.511 287.44 281.665 286.824 281.665C286.275 281.665 285.805 281.545 285.415 281.304C285.024 281.064 284.746 280.744 284.58 280.346L285.426 279.861C285.516 280.132 285.685 280.346 285.933 280.504C286.181 280.662 286.478 280.741 286.824 280.741C287.147 280.741 287.414 280.68 287.624 280.56C287.835 280.432 287.94 280.237 287.94 279.974C287.94 279.756 287.831 279.583 287.613 279.455C287.395 279.32 287.132 279.215 286.824 279.14C286.516 279.057 286.207 278.963 285.899 278.858C285.591 278.753 285.328 278.58 285.11 278.339C284.892 278.099 284.783 277.791 284.783 277.415C284.783 276.926 284.971 276.524 285.347 276.209C285.73 275.893 286.207 275.735 286.779 275.735C287.237 275.735 287.643 275.84 287.996 276.051C288.357 276.254 288.628 276.539 288.808 276.908L287.985 277.37C287.782 276.889 287.38 276.648 286.779 276.648C286.501 276.648 286.264 276.716 286.068 276.851C285.873 276.979 285.775 277.163 285.775 277.404ZM298.999 275.735C299.63 275.735 300.142 275.942 300.532 276.355C300.923 276.761 301.119 277.313 301.119 278.012V281.518H300.138V278.046C300.138 277.61 300.025 277.272 299.8 277.032C299.574 276.791 299.273 276.671 298.898 276.671C298.477 276.671 298.139 276.814 297.883 277.099C297.635 277.377 297.511 277.806 297.511 278.384V281.518H296.53V278.046C296.53 277.61 296.421 277.272 296.203 277.032C295.993 276.791 295.704 276.671 295.335 276.671C294.922 276.671 294.576 276.814 294.298 277.099C294.028 277.385 293.892 277.813 293.892 278.384V281.518H292.912V275.882H293.892V276.637C294.276 276.036 294.836 275.735 295.572 275.735C296.331 275.735 296.884 276.055 297.229 276.693C297.62 276.055 298.21 275.735 298.999 275.735ZM307.236 280.808C306.657 281.379 305.955 281.665 305.128 281.665C304.301 281.665 303.598 281.379 303.02 280.808C302.448 280.237 302.163 279.534 302.163 278.7C302.163 277.866 302.448 277.163 303.02 276.592C303.598 276.021 304.301 275.735 305.128 275.735C305.955 275.735 306.657 276.021 307.236 276.592C307.815 277.163 308.104 277.866 308.104 278.7C308.104 279.534 307.815 280.237 307.236 280.808ZM305.128 280.707C305.691 280.707 306.165 280.515 306.548 280.132C306.932 279.749 307.123 279.271 307.123 278.7C307.123 278.129 306.932 277.652 306.548 277.268C306.165 276.885 305.691 276.693 305.128 276.693C304.572 276.693 304.102 276.885 303.719 277.268C303.335 277.652 303.144 278.129 303.144 278.7C303.144 279.271 303.335 279.749 303.719 280.132C304.102 280.515 304.572 280.707 305.128 280.707ZM309.756 274.856C309.568 274.856 309.411 274.792 309.283 274.664C309.155 274.536 309.091 274.382 309.091 274.202C309.091 274.022 309.155 273.868 309.283 273.74C309.411 273.604 309.568 273.537 309.756 273.537C309.937 273.537 310.091 273.604 310.218 273.74C310.346 273.868 310.41 274.022 310.41 274.202C310.41 274.382 310.346 274.536 310.218 274.664C310.091 274.792 309.937 274.856 309.756 274.856ZM309.26 281.518V275.882H310.241V281.518H309.26ZM312.572 277.404C312.572 277.622 312.681 277.798 312.899 277.933C313.117 278.061 313.38 278.166 313.688 278.249C313.996 278.324 314.304 278.414 314.612 278.52C314.92 278.617 315.183 278.79 315.401 279.038C315.619 279.279 315.728 279.591 315.728 279.974C315.728 280.485 315.529 280.895 315.131 281.203C314.74 281.511 314.236 281.665 313.62 281.665C313.072 281.665 312.602 281.545 312.211 281.304C311.82 281.064 311.542 280.744 311.377 280.346L312.222 279.861C312.312 280.132 312.482 280.346 312.73 280.504C312.978 280.662 313.274 280.741 313.62 280.741C313.943 280.741 314.21 280.68 314.421 280.56C314.631 280.432 314.736 280.237 314.736 279.974C314.736 279.756 314.627 279.583 314.409 279.455C314.191 279.32 313.928 279.215 313.62 279.14C313.312 279.057 313.004 278.963 312.696 278.858C312.388 278.753 312.125 278.58 311.907 278.339C311.689 278.099 311.58 277.791 311.58 277.415C311.58 276.926 311.768 276.524 312.143 276.209C312.527 275.893 313.004 275.735 313.575 275.735C314.034 275.735 314.439 275.84 314.793 276.051C315.153 276.254 315.424 276.539 315.604 276.908L314.781 277.37C314.578 276.889 314.176 276.648 313.575 276.648C313.297 276.648 313.06 276.716 312.865 276.851C312.669 276.979 312.572 277.163 312.572 277.404Z" fill="white"/>
<path d="M373.885 274.665C373.313 274.665 372.81 274.545 372.374 274.304C371.938 274.064 371.619 273.714 371.416 273.256L372.306 272.737C372.539 273.338 373.065 273.639 373.885 273.639C374.388 273.639 374.783 273.519 375.068 273.278C375.354 273.038 375.497 272.681 375.497 272.207V266.627H376.534V272.207C376.534 272.997 376.282 273.605 375.779 274.034C375.283 274.455 374.651 274.665 373.885 274.665ZM378.65 272.151C378.748 272.655 378.977 273.045 379.338 273.323C379.706 273.602 380.157 273.741 380.691 273.741C381.435 273.741 381.976 273.466 382.314 272.918L383.148 273.391C382.6 274.24 381.773 274.665 380.668 274.665C379.774 274.665 379.045 274.387 378.481 273.831C377.925 273.267 377.647 272.557 377.647 271.7C377.647 270.851 377.921 270.144 378.47 269.581C379.019 269.017 379.729 268.735 380.601 268.735C381.427 268.735 382.1 269.028 382.619 269.614C383.145 270.193 383.408 270.892 383.408 271.711C383.408 271.854 383.396 272.001 383.374 272.151H378.65ZM380.601 269.66C380.075 269.66 379.639 269.81 379.293 270.111C378.947 270.404 378.733 270.798 378.65 271.294H382.416C382.333 270.761 382.123 270.355 381.784 270.077C381.446 269.799 381.052 269.66 380.601 269.66ZM390.161 268.735C390.822 268.735 391.352 268.946 391.75 269.366C392.148 269.78 392.348 270.344 392.348 271.057V274.518H391.367V271.114C391.367 270.655 391.243 270.302 390.995 270.054C390.747 269.799 390.405 269.671 389.969 269.671C389.48 269.671 389.086 269.825 388.785 270.133C388.485 270.434 388.334 270.9 388.334 271.531V274.518H387.354V268.882H388.334V269.693C388.733 269.055 389.341 268.735 390.161 268.735ZM394.61 266.616L393.877 269.355H393.032L393.483 266.616H394.61ZM395.781 272.151C395.878 272.655 396.108 273.045 396.468 273.323C396.837 273.602 397.288 273.741 397.821 273.741C398.565 273.741 399.106 273.466 399.445 272.918L400.279 273.391C399.73 274.24 398.903 274.665 397.799 274.665C396.904 274.665 396.175 274.387 395.612 273.831C395.055 273.267 394.777 272.557 394.777 271.7C394.777 270.851 395.052 270.144 395.6 269.581C396.149 269.017 396.859 268.735 397.731 268.735C398.558 268.735 399.23 269.028 399.749 269.614C400.275 270.193 400.538 270.892 400.538 271.711C400.538 271.854 400.527 272.001 400.504 272.151H395.781ZM397.731 269.66C397.205 269.66 396.769 269.81 396.423 270.111C396.078 270.404 395.863 270.798 395.781 271.294H399.546C399.463 270.761 399.253 270.355 398.915 270.077C398.576 269.799 398.182 269.66 397.731 269.66ZM404.473 268.735C405.134 268.735 405.664 268.946 406.062 269.366C406.46 269.78 406.66 270.344 406.66 271.057V274.518H405.679V271.114C405.679 270.655 405.555 270.302 405.307 270.054C405.059 269.799 404.717 269.671 404.281 269.671C403.792 269.671 403.398 269.825 403.097 270.133C402.797 270.434 402.646 270.9 402.646 271.531V274.518H401.665V268.882H402.646V269.693C403.045 269.055 403.653 268.735 404.473 268.735ZM415.514 268.882H416.495V274.518H415.514V273.549C415.026 274.293 414.316 274.665 413.384 274.665C412.595 274.665 411.922 274.379 411.366 273.808C410.81 273.23 410.532 272.527 410.532 271.7C410.532 270.873 410.81 270.174 411.366 269.603C411.922 269.025 412.595 268.735 413.384 268.735C414.316 268.735 415.026 269.107 415.514 269.851V268.882ZM413.508 273.718C414.079 273.718 414.556 273.526 414.939 273.143C415.323 272.752 415.514 272.271 415.514 271.7C415.514 271.129 415.323 270.652 414.939 270.268C414.556 269.878 414.079 269.682 413.508 269.682C412.944 269.682 412.471 269.878 412.087 270.268C411.704 270.652 411.512 271.129 411.512 271.7C411.512 272.271 411.704 272.752 412.087 273.143C412.471 273.526 412.944 273.718 413.508 273.718ZM418.477 267.856C418.289 267.856 418.131 267.792 418.004 267.664C417.876 267.536 417.812 267.382 417.812 267.202C417.812 267.022 417.876 266.868 418.004 266.74C418.131 266.604 418.289 266.537 418.477 266.537C418.658 266.537 418.812 266.604 418.939 266.74C419.067 266.868 419.131 267.022 419.131 267.202C419.131 267.382 419.067 267.536 418.939 267.664C418.812 267.792 418.658 267.856 418.477 267.856ZM417.981 274.518V268.882H418.962V274.518H417.981ZM426.388 268.735C427.177 268.735 427.85 269.025 428.406 269.603C428.962 270.174 429.24 270.873 429.24 271.7C429.24 272.527 428.962 273.23 428.406 273.808C427.85 274.379 427.177 274.665 426.388 274.665C425.456 274.665 424.746 274.293 424.257 273.549V276.773H423.277V268.882H424.257V269.851C424.746 269.107 425.456 268.735 426.388 268.735ZM426.264 273.718C426.828 273.718 427.301 273.526 427.685 273.143C428.068 272.752 428.259 272.271 428.259 271.7C428.259 271.129 428.068 270.652 427.685 270.268C427.301 269.878 426.828 269.682 426.264 269.682C425.693 269.682 425.216 269.878 424.832 270.268C424.449 270.652 424.257 271.129 424.257 271.7C424.257 272.271 424.449 272.752 424.832 273.143C425.216 273.526 425.693 273.718 426.264 273.718ZM435.078 268.882H436.059V274.518H435.078V273.549C434.589 274.293 433.879 274.665 432.947 274.665C432.158 274.665 431.485 274.379 430.929 273.808C430.373 273.23 430.095 272.527 430.095 271.7C430.095 270.873 430.373 270.174 430.929 269.603C431.485 269.025 432.158 268.735 432.947 268.735C433.879 268.735 434.589 269.107 435.078 269.851V268.882ZM433.071 273.718C433.642 273.718 434.12 273.526 434.503 273.143C434.886 272.752 435.078 272.271 435.078 271.7C435.078 271.129 434.886 270.652 434.503 270.268C434.12 269.878 433.642 269.682 433.071 269.682C432.507 269.682 432.034 269.878 431.651 270.268C431.267 270.652 431.076 271.129 431.076 271.7C431.076 272.271 431.267 272.752 431.651 273.143C432.034 273.526 432.507 273.718 433.071 273.718ZM438.379 270.404C438.379 270.622 438.488 270.798 438.706 270.933C438.924 271.061 439.187 271.166 439.495 271.249C439.803 271.324 440.111 271.414 440.42 271.52C440.728 271.617 440.991 271.79 441.209 272.038C441.427 272.279 441.536 272.591 441.536 272.974C441.536 273.485 441.336 273.895 440.938 274.203C440.547 274.511 440.044 274.665 439.427 274.665C438.879 274.665 438.409 274.545 438.018 274.304C437.627 274.064 437.349 273.744 437.184 273.346L438.03 272.861C438.12 273.132 438.289 273.346 438.537 273.504C438.785 273.662 439.082 273.741 439.427 273.741C439.751 273.741 440.017 273.68 440.228 273.56C440.438 273.432 440.544 273.237 440.544 272.974C440.544 272.756 440.435 272.583 440.217 272.455C439.999 272.32 439.736 272.215 439.427 272.14C439.119 272.057 438.811 271.963 438.503 271.858C438.195 271.753 437.932 271.58 437.714 271.339C437.496 271.099 437.387 270.791 437.387 270.415C437.387 269.926 437.575 269.524 437.951 269.209C438.334 268.893 438.811 268.735 439.382 268.735C439.841 268.735 440.247 268.84 440.6 269.051C440.961 269.254 441.231 269.539 441.412 269.908L440.589 270.37C440.386 269.889 439.984 269.648 439.382 269.648C439.104 269.648 438.868 269.716 438.672 269.851C438.477 269.979 438.379 270.163 438.379 270.404Z" fill="white"/>
<defs>
<linearGradient id="paint0_linear_14_95" x1="402.712" y1="186.726" x2="402.417" y2="246.85" gradientUnits="userSpaceOnUse">
<stop stop-color="#FF465E"/>
<stop offset="1" stop-color="#FF4344"/>
</linearGradient>
<linearGradient id="paint1_linear_14_95" x1="139.665" y1="246.851" x2="137.363" y2="81.6075" gradientUnits="userSpaceOnUse">
<stop stop-color="#685CFF"/>
<stop offset="1" stop-color="#2BA8FF"/>
</linearGradient>
<linearGradient id="paint2_linear_14_95" x1="281.523" y1="223.443" x2="283.251" y2="270.195" gradientUnits="userSpaceOnUse">
<stop stop-color="#FFD17B"/>
<stop offset="1" stop-color="#FF865C"/>
</linearGradient>
</defs>
</svg>
