<svg width="150" height="450" viewBox="0 0 150 450" fill="none" xmlns="http://www.w3.org/2000/svg">
<path d="M0 75C0 33.5787 33.5786 0 75 0V0C116.421 0 150 33.5786 150 75V450H0V75Z" fill="url(#paint0_linear_48_20)"/>
<path d="M58.848 53.436C60.3413 53.716 61.564 54.36 62.516 55.368C63.468 56.376 63.944 57.6547 63.944 59.204C63.944 61.108 63.2907 62.6107 61.984 63.712C60.6773 64.8133 59.0907 65.364 57.224 65.364C55.7307 65.364 54.4053 65.028 53.248 64.356C52.0907 63.6653 51.2693 62.676 50.784 61.388L52.968 60.1C53.5467 61.9107 54.9653 62.816 57.224 62.816C58.4373 62.816 59.4267 62.4987 60.192 61.864C60.9573 61.2293 61.34 60.3427 61.34 59.204C61.34 58.0653 60.9573 57.1787 60.192 56.544C59.4267 55.8907 58.4373 55.564 57.224 55.564H56.552L55.516 53.968L60.052 47.836H51.344V45.4H63.104V47.696L58.848 53.436ZM65.4884 45.4H77.7244V47.724L70.5844 65H67.8684L74.9524 47.864H65.4884V45.4ZM84.6749 53.716C83.4056 53.716 82.3509 53.296 81.5109 52.456C80.6709 51.616 80.2509 50.5893 80.2509 49.376C80.2509 48.1813 80.6709 47.164 81.5109 46.324C82.3696 45.4653 83.4243 45.036 84.6749 45.036C85.9443 45.036 86.9989 45.456 87.8389 46.296C88.6789 47.136 89.0989 48.1627 89.0989 49.376C89.0989 50.5893 88.6789 51.616 87.8389 52.456C87.0176 53.296 85.9629 53.716 84.6749 53.716ZM83.0509 51.028C83.4803 51.4573 84.0216 51.672 84.6749 51.672C85.3283 51.672 85.8603 51.448 86.2709 51C86.7003 50.552 86.9149 50.0107 86.9149 49.376C86.9149 48.7413 86.7003 48.2093 86.2709 47.78C85.8603 47.332 85.3283 47.108 84.6749 47.108C84.0216 47.108 83.4803 47.332 83.0509 47.78C82.6403 48.2093 82.4349 48.7413 82.4349 49.376C82.4349 50.0293 82.6403 50.58 83.0509 51.028ZM81.5669 62.228L94.5869 47.668L95.9589 48.424L82.9109 63.012L81.5669 62.228ZM96.2949 64.076C95.4549 64.916 94.4003 65.336 93.1309 65.336C91.8616 65.336 90.8069 64.916 89.9669 64.076C89.1269 63.236 88.7069 62.2093 88.7069 60.996C88.7069 59.7827 89.1269 58.756 89.9669 57.916C90.8069 57.076 91.8616 56.656 93.1309 56.656C94.4003 56.656 95.4549 57.076 96.2949 57.916C97.1349 58.756 97.5549 59.7827 97.5549 60.996C97.5549 62.2093 97.1349 63.236 96.2949 64.076ZM91.5069 62.62C91.9363 63.0493 92.4776 63.264 93.1309 63.264C93.7843 63.264 94.3163 63.0493 94.7269 62.62C95.1563 62.172 95.3709 61.6307 95.3709 60.996C95.3709 60.3613 95.1563 59.8293 94.7269 59.4C94.3163 58.952 93.7843 58.728 93.1309 58.728C92.4776 58.728 91.9363 58.952 91.5069 59.4C91.0963 59.8293 90.8909 60.3613 90.8909 60.996C90.8909 61.6307 91.0963 62.172 91.5069 62.62Z" fill="white"/>
<defs>
<linearGradient id="paint0_linear_48_20" x1="175.161" y1="318.356" x2="-36.9076" y2="317.879" gradientUnits="userSpaceOnUse">
<stop stop-color="#9E0808"/>
<stop offset="1" stop-color="#8E00E6"/>
</linearGradient>
</defs>
</svg>
