<svg width="150" height="227" viewBox="0 0 150 227" fill="none" xmlns="http://www.w3.org/2000/svg">
<path d="M0 75C0 33.5786 33.5786 0 75 0V0C116.421 0 150 33.5786 150 75V227H0V75Z" fill="url(#paint0_linear_48_19)"/>
<path d="M57.544 44.4H59.784V64H57.208V47.2L53.036 48.432L52.392 46.192L57.544 44.4ZM73.4045 53.864C74.3565 54.3493 75.1031 55.0027 75.6445 55.824C76.1858 56.6453 76.4565 57.5787 76.4565 58.624C76.4565 60.416 75.8311 61.8253 74.5805 62.852C73.3298 63.86 71.7151 64.364 69.7365 64.364C67.7765 64.364 66.1711 63.86 64.9205 62.852C63.6698 61.8253 63.0445 60.416 63.0445 58.624C63.0445 57.5787 63.3151 56.6453 63.8565 55.824C64.3978 55.0027 65.1445 54.3493 66.0965 53.864C64.4911 52.856 63.6885 51.428 63.6885 49.58C63.6885 47.8067 64.2765 46.444 65.4525 45.492C66.6471 44.5213 68.0751 44.036 69.7365 44.036C71.4165 44.036 72.8445 44.5213 74.0205 45.492C75.2151 46.444 75.8125 47.8067 75.8125 49.58C75.8125 51.428 75.0098 52.856 73.4045 53.864ZM69.7365 46.528C68.7471 46.528 67.9165 46.7893 67.2445 47.312C66.5911 47.8347 66.2645 48.6093 66.2645 49.636C66.2645 50.6253 66.6005 51.4 67.2725 51.96C67.9445 52.5013 68.7658 52.772 69.7365 52.772C70.7071 52.772 71.5285 52.5013 72.2005 51.96C72.8725 51.4 73.2085 50.6253 73.2085 49.636C73.2085 48.6093 72.8818 47.8347 72.2285 47.312C71.5751 46.7893 70.7445 46.528 69.7365 46.528ZM69.7365 61.872C70.9871 61.872 71.9858 61.5827 72.7325 61.004C73.4978 60.4067 73.8805 59.5573 73.8805 58.456C73.8805 57.3733 73.4978 56.5427 72.7325 55.964C71.9858 55.3667 70.9871 55.068 69.7365 55.068C68.5045 55.068 67.5058 55.3667 66.7405 55.964C65.9938 56.5427 65.6205 57.3733 65.6205 58.456C65.6205 59.5573 65.9938 60.4067 66.7405 61.004C67.5058 61.5827 68.5045 61.872 69.7365 61.872ZM82.9288 52.716C81.6595 52.716 80.6048 52.296 79.7648 51.456C78.9248 50.616 78.5048 49.5893 78.5048 48.376C78.5048 47.1813 78.9248 46.164 79.7648 45.324C80.6235 44.4653 81.6782 44.036 82.9288 44.036C84.1982 44.036 85.2528 44.456 86.0928 45.296C86.9328 46.136 87.3528 47.1627 87.3528 48.376C87.3528 49.5893 86.9328 50.616 86.0928 51.456C85.2715 52.296 84.2168 52.716 82.9288 52.716ZM81.3048 50.028C81.7342 50.4573 82.2755 50.672 82.9288 50.672C83.5822 50.672 84.1142 50.448 84.5248 50C84.9542 49.552 85.1688 49.0107 85.1688 48.376C85.1688 47.7413 84.9542 47.2093 84.5248 46.78C84.1142 46.332 83.5822 46.108 82.9288 46.108C82.2755 46.108 81.7342 46.332 81.3048 46.78C80.8942 47.2093 80.6888 47.7413 80.6888 48.376C80.6888 49.0293 80.8942 49.58 81.3048 50.028ZM79.8208 61.228L92.8408 46.668L94.2128 47.424L81.1648 62.012L79.8208 61.228ZM94.5488 63.076C93.7088 63.916 92.6542 64.336 91.3848 64.336C90.1155 64.336 89.0608 63.916 88.2208 63.076C87.3808 62.236 86.9608 61.2093 86.9608 59.996C86.9608 58.7827 87.3808 57.756 88.2208 56.916C89.0608 56.076 90.1155 55.656 91.3848 55.656C92.6542 55.656 93.7088 56.076 94.5488 56.916C95.3888 57.756 95.8088 58.7827 95.8088 59.996C95.8088 61.2093 95.3888 62.236 94.5488 63.076ZM89.7608 61.62C90.1902 62.0493 90.7315 62.264 91.3848 62.264C92.0382 62.264 92.5702 62.0493 92.9808 61.62C93.4102 61.172 93.6248 60.6307 93.6248 59.996C93.6248 59.3613 93.4102 58.8293 92.9808 58.4C92.5702 57.952 92.0382 57.728 91.3848 57.728C90.7315 57.728 90.1902 57.952 89.7608 58.4C89.3502 58.8293 89.1448 59.3613 89.1448 59.996C89.1448 60.6307 89.3502 61.172 89.7608 61.62Z" fill="white"/>
<defs>
<linearGradient id="paint0_linear_48_19" x1="150" y1="155.5" x2="-8.24794" y2="156.071" gradientUnits="userSpaceOnUse">
<stop stop-color="#E7119E"/>
<stop offset="1" stop-color="#1B7EDA"/>
</linearGradient>
</defs>
</svg>
