<svg width="150" height="523" viewBox="0 0 150 523" fill="none" xmlns="http://www.w3.org/2000/svg">
<path d="M0 75C0 33.5787 33.5786 0 75 0V0C116.421 0 150 33.5786 150 75V523H0V75Z" fill="url(#paint0_linear_48_18)"/>
<path d="M64.652 62.84V65.276H62.272V69H59.668V65.276H49.672V62.84L56.7 49.4H59.5L52.472 62.84H59.668V57.296H62.272V62.84H64.652ZM81.1676 62.84V65.276H78.7876V69H76.1836V65.276H66.1876V62.84L73.2156 49.4H76.0156L68.9876 62.84H76.1836V57.296H78.7876V62.84H81.1676ZM86.3273 57.716C85.0579 57.716 84.0033 57.296 83.1633 56.456C82.3233 55.616 81.9033 54.5893 81.9033 53.376C81.9033 52.1813 82.3233 51.164 83.1633 50.324C84.0219 49.4653 85.0766 49.036 86.3273 49.036C87.5966 49.036 88.6513 49.456 89.4913 50.296C90.3313 51.136 90.7513 52.1627 90.7513 53.376C90.7513 54.5893 90.3313 55.616 89.4913 56.456C88.6699 57.296 87.6153 57.716 86.3273 57.716ZM84.7033 55.028C85.1326 55.4573 85.6739 55.672 86.3273 55.672C86.9806 55.672 87.5126 55.448 87.9233 55C88.3526 54.552 88.5673 54.0107 88.5673 53.376C88.5673 52.7413 88.3526 52.2093 87.9233 51.78C87.5126 51.332 86.9806 51.108 86.3273 51.108C85.6739 51.108 85.1326 51.332 84.7033 51.78C84.2926 52.2093 84.0873 52.7413 84.0873 53.376C84.0873 54.0293 84.2926 54.58 84.7033 55.028ZM83.2193 66.228L96.2393 51.668L97.6113 52.424L84.5633 67.012L83.2193 66.228ZM97.9473 68.076C97.1073 68.916 96.0526 69.336 94.7833 69.336C93.5139 69.336 92.4593 68.916 91.6193 68.076C90.7793 67.236 90.3593 66.2093 90.3593 64.996C90.3593 63.7827 90.7793 62.756 91.6193 61.916C92.4593 61.076 93.5139 60.656 94.7833 60.656C96.0526 60.656 97.1073 61.076 97.9473 61.916C98.7873 62.756 99.2073 63.7827 99.2073 64.996C99.2073 66.2093 98.7873 67.236 97.9473 68.076ZM93.1593 66.62C93.5886 67.0493 94.1299 67.264 94.7833 67.264C95.4366 67.264 95.9686 67.0493 96.3793 66.62C96.8086 66.172 97.0233 65.6307 97.0233 64.996C97.0233 64.3613 96.8086 63.8293 96.3793 63.4C95.9686 62.952 95.4366 62.728 94.7833 62.728C94.1299 62.728 93.5886 62.952 93.1593 63.4C92.7486 63.8293 92.5433 64.3613 92.5433 64.996C92.5433 65.6307 92.7486 66.172 93.1593 66.62Z" fill="white"/>
<defs>
<linearGradient id="paint0_linear_48_18" x1="175.161" y1="370" x2="-36.9079" y2="369.59" gradientUnits="userSpaceOnUse">
<stop stop-color="#2A46DA"/>
<stop offset="1" stop-color="#1BDD97"/>
</linearGradient>
</defs>
</svg>
