<svg width="946" height="703" viewBox="0 0 946 703" fill="none" xmlns="http://www.w3.org/2000/svg">
<path d="M218 637.319L218 1.99999" stroke="url(#paint0_linear_15_36)" stroke-width="3" stroke-linecap="round"/>
<path d="M356 637.319L356 1.99999" stroke="url(#paint1_linear_15_36)" stroke-width="3" stroke-linecap="round"/>
<path d="M919 637.319V1.99999" stroke="url(#paint2_linear_15_36)" stroke-width="3" stroke-linecap="round"/>
<path d="M776 637.319V1.99999" stroke="url(#paint3_linear_15_36)" stroke-width="3" stroke-linecap="round"/>
<path d="M636 637.319V1.99999" stroke="url(#paint4_linear_15_36)" stroke-width="3" stroke-linecap="round"/>
<path d="M492 637.319L492 1.99999" stroke="url(#paint5_linear_15_36)" stroke-width="3" stroke-linecap="round"/>
<path d="M311.5 53C324.479 53 335 63.5213 335 76.5V76.5C335 89.4787 324.479 100 311.5 100L217 100V53L311.5 53Z" fill="url(#paint6_linear_15_36)"/>
<path d="M403 105C415.703 105 426 115.297 426 128V128C426 140.703 415.703 151 403 151L217 151V105L403 105Z" fill="url(#paint7_linear_15_36)"/>
<path d="M403 156C415.703 156 426 166.297 426 179V179C426 191.703 415.703 202 403 202L217 202V156L403 156Z" fill="url(#paint8_linear_15_36)"/>
<path d="M465 259C477.703 259 488 269.297 488 282V282C488 294.703 477.703 305 465 305L218 305V259L465 259Z" fill="url(#paint9_linear_15_36)"/>
<path d="M672 310C684.703 310 695 320.297 695 333V333C695 345.703 684.703 356 672 356L217 356V310L672 310Z" fill="url(#paint10_linear_15_36)"/>
<path d="M544 413C556.703 413 567 423.297 567 436V436C567 448.703 556.703 459 544 459L217 459V413L544 413Z" fill="url(#paint11_linear_15_36)"/>
<path d="M879 515C891.703 515 902 525.297 902 538V538C902 550.703 891.703 561 879 561L217 561V515L879 515Z" fill="url(#paint12_linear_15_36)"/>
<path d="M733 464C745.703 464 756 474.297 756 487V487C756 499.703 745.703 510 733 510L217 510V464L733 464Z" fill="url(#paint13_linear_15_36)"/>
<path d="M403 361C415.703 361 426 371.297 426 384V384C426 396.703 415.703 407 403 407L217 407V361L403 361Z" fill="url(#paint14_linear_15_36)"/>
<path d="M519 207C531.703 207 542 217.297 542 230V230C542 242.703 531.703 253 519 253L217 253V207L519 207Z" fill="url(#paint15_linear_15_36)"/>
<path d="M366 2C378.703 2 389 12.2975 389 25V25C389 37.7025 378.703 48 366 48L218 48V2L366 2Z" fill="url(#paint16_linear_15_36)"/>
<path d="M357.897 666.539L359.408 668.45L357.631 670.033L359.94 672.954L357.996 674.686L355.686 671.765L348.222 678.413L346.711 676.502L343.624 661.284L345.715 659.422L348.802 674.64L354.176 669.854L350.737 665.505L352.682 663.773L356.12 668.122L357.897 666.539ZM371.412 659.518C371.569 661.849 370.755 663.809 368.971 665.398C367.186 666.987 365.226 667.498 363.091 666.93C360.955 666.361 358.932 664.869 357.022 662.453C355.112 660.037 354.078 657.663 353.922 655.332C353.766 653.001 354.58 651.041 356.364 649.451C358.148 647.862 360.108 647.352 362.244 647.92C364.38 648.488 366.403 649.981 368.313 652.397C370.223 654.813 371.256 657.187 371.412 659.518ZM363.418 664.279C364.882 664.748 366.206 664.455 367.39 663.399C368.575 662.344 369.077 661.011 368.897 659.4C368.73 657.777 367.894 656.014 366.389 654.11C364.884 652.206 363.393 651.026 361.916 650.57C360.441 650.087 359.112 650.373 357.927 651.428C356.742 652.484 356.24 653.817 356.421 655.427C356.601 657.038 357.45 658.803 358.966 660.721C360.471 662.625 361.955 663.811 363.418 664.279Z" fill="white"/>
<path d="M611.799 669.316L613.472 667.826L625.627 683.202L623.703 684.915L613.284 671.736L610.933 675.477L609.063 674.148L611.799 669.316ZM626.703 666.784C627.992 666.011 629.304 665.703 630.64 665.86C631.976 666.018 633.125 666.705 634.085 667.92C635.266 669.414 635.71 671.027 635.417 672.76C635.125 674.493 634.281 675.98 632.887 677.222C631.772 678.215 630.574 678.833 629.293 679.075C628.001 679.303 626.774 679.073 625.613 678.386L626.445 675.923C628 676.958 629.621 676.725 631.307 675.223C632.213 674.416 632.755 673.509 632.933 672.502C633.111 671.495 632.847 670.545 632.141 669.652C631.435 668.759 630.599 668.318 629.634 668.329C628.657 668.325 627.716 668.727 626.81 669.534L626.308 669.981L624.545 669.418L624.129 661.591L617.626 667.382L616.116 665.471L624.897 657.65L626.321 659.451L626.703 666.784ZM647.711 660.314C647.867 662.645 647.053 664.605 645.269 666.194C643.485 667.783 641.525 668.294 639.389 667.726C637.253 667.157 635.23 665.665 633.32 663.249C631.41 660.833 630.377 658.459 630.22 656.128C630.064 653.797 630.878 651.837 632.662 650.247C634.447 648.658 636.407 648.148 638.542 648.716C640.678 649.284 642.701 650.777 644.611 653.193C646.521 655.609 647.554 657.983 647.711 660.314ZM639.717 665.075C641.18 665.544 642.504 665.251 643.689 664.195C644.874 663.14 645.376 661.807 645.195 660.196C645.028 658.573 644.192 656.81 642.688 654.906C641.183 653.002 639.692 651.822 638.215 651.366C636.74 650.883 635.41 651.169 634.225 652.224C633.04 653.28 632.538 654.613 632.719 656.223C632.9 657.834 633.748 659.599 635.265 661.517C636.77 663.421 638.254 664.607 639.717 665.075Z" fill="white"/>
<path d="M752.009 668.289L753.682 666.8L765.837 682.175L763.914 683.889L753.495 670.709L751.144 674.451L749.273 673.122L752.009 668.289ZM755.699 665.004L764.836 656.865L766.277 658.689L771.659 676.99L769.631 678.796L764.294 660.642L757.227 666.936L755.699 665.004ZM786.165 660.851C786.322 663.183 785.508 665.143 783.723 666.732C781.939 668.321 779.979 668.831 777.843 668.263C775.708 667.695 773.685 666.203 771.775 663.787C769.864 661.37 768.831 658.997 768.675 656.666C768.519 654.334 769.332 652.374 771.117 650.785C772.901 649.196 774.861 648.685 776.997 649.254C779.133 649.822 781.155 651.314 783.066 653.73C784.976 656.147 786.009 658.52 786.165 660.851ZM778.171 665.613C779.634 666.082 780.958 665.788 782.143 664.733C783.328 663.678 783.83 662.345 783.649 660.734C783.483 659.111 782.647 657.347 781.142 655.444C779.637 653.54 778.146 652.36 776.669 651.904C775.194 651.421 773.864 651.707 772.68 652.762C771.495 653.817 770.993 655.15 771.173 656.761C771.354 658.372 772.203 660.136 773.719 662.055C775.224 663.958 776.708 665.144 778.171 665.613Z" fill="white"/>
<path d="M897.257 694.962L895.937 693.292L896.726 683.157C896.96 680.479 896.666 678.619 895.844 677.58C895.161 676.716 894.377 676.266 893.494 676.229C892.61 676.193 891.805 676.498 891.081 677.143C889.701 678.372 889.241 679.954 889.702 681.89L887.272 682.332C886.945 680.926 886.983 679.607 887.386 678.375C887.804 677.13 888.507 676.066 889.497 675.185C890.723 674.092 892.126 673.567 893.703 673.61C895.281 673.652 896.637 674.391 897.771 675.826C898.998 677.378 899.464 679.845 899.169 683.228L898.517 690.471L905.145 684.568L906.708 686.544L897.257 694.962ZM916.58 674.533C916.737 676.864 915.923 678.824 914.138 680.413C912.354 682.002 910.394 682.513 908.258 681.944C906.123 681.376 904.1 679.884 902.19 677.468C900.279 675.052 899.246 672.678 899.09 670.347C898.934 668.015 899.747 666.055 901.532 664.466C903.316 662.877 905.276 662.367 907.412 662.935C909.548 663.503 911.57 664.995 913.481 667.412C915.391 669.828 916.424 672.201 916.58 674.533ZM908.586 679.294C910.049 679.763 911.373 679.469 912.558 678.414C913.743 677.359 914.245 676.026 914.064 674.415C913.898 672.792 913.062 671.028 911.557 669.125C910.052 667.221 908.561 666.041 907.084 665.585C905.609 665.102 904.279 665.388 903.095 666.443C901.91 667.498 901.408 668.831 901.588 670.442C901.769 672.053 902.618 673.818 904.134 675.736C905.639 677.639 907.123 678.826 908.586 679.294ZM929.751 662.802C929.907 665.134 929.093 667.094 927.309 668.683C925.524 670.272 923.564 670.783 921.429 670.214C919.293 669.646 917.27 668.154 915.36 665.738C913.45 663.321 912.417 660.948 912.26 658.617C912.104 656.285 912.918 654.325 914.702 652.736C916.486 651.147 918.446 650.637 920.582 651.205C922.718 651.773 924.741 653.265 926.651 655.681C928.561 658.098 929.594 660.471 929.751 662.802ZM921.757 667.564C923.22 668.033 924.544 667.739 925.729 666.684C926.913 665.629 927.416 664.296 927.235 662.685C927.068 661.062 926.232 659.298 924.727 657.395C923.222 655.491 921.731 654.311 920.254 653.855C918.78 653.372 917.45 653.658 916.265 654.713C915.08 655.768 914.578 657.101 914.759 658.712C914.939 660.323 915.788 662.087 917.304 664.006C918.809 665.909 920.293 667.096 921.757 667.564Z" fill="white"/>
<path d="M484.749 668.944C485.761 668.692 486.724 668.708 487.638 668.992C488.551 669.276 489.332 669.829 489.98 670.649C491.092 672.054 491.499 673.576 491.201 675.213C490.893 676.836 489.999 678.305 488.522 679.621C487.058 680.924 485.547 681.597 483.988 681.638C482.417 681.664 481.076 680.975 479.965 679.569C479.317 678.749 478.94 677.837 478.835 676.832C478.73 675.828 478.882 674.819 479.292 673.805C477.468 674.082 475.983 673.495 474.837 672.046C473.737 670.655 473.331 669.195 473.619 667.666C473.909 666.11 474.675 664.779 475.915 663.674C477.17 662.557 478.537 661.988 480.017 661.967C481.5 661.919 482.791 662.591 483.891 663.982C485.037 665.432 485.323 667.086 484.749 668.944ZM477.461 665.629C476.722 666.287 476.264 667.044 476.086 667.901C475.922 668.746 476.159 669.571 476.795 670.376C477.409 671.152 478.14 671.537 478.989 671.529C479.827 671.507 480.608 671.173 481.333 670.527C482.058 669.882 482.503 669.123 482.669 668.251C482.824 667.365 482.594 666.534 481.981 665.758C481.344 664.953 480.62 664.562 479.808 664.587C478.996 664.611 478.213 664.959 477.461 665.629ZM486.976 677.666C487.91 676.834 488.477 675.943 488.675 674.992C488.876 674.015 488.636 673.094 487.953 672.23C487.281 671.381 486.48 670.984 485.55 671.039C484.622 671.067 483.691 671.497 482.757 672.328C481.837 673.148 481.276 674.046 481.075 675.024C480.877 675.974 481.113 676.874 481.784 677.724C482.467 678.588 483.273 679.006 484.201 678.978C485.131 678.923 486.056 678.485 486.976 677.666ZM503.356 662.703C503.513 665.034 502.699 666.994 500.915 668.584C499.13 670.173 497.17 670.683 495.034 670.115C492.899 669.547 490.876 668.054 488.966 665.638C487.056 663.222 486.022 660.848 485.866 658.517C485.71 656.186 486.524 654.226 488.308 652.637C490.092 651.048 492.052 650.537 494.188 651.105C496.324 651.674 498.347 653.166 500.257 655.582C502.167 657.998 503.2 660.372 503.356 662.703ZM495.362 667.465C496.825 667.933 498.149 667.64 499.334 666.585C500.519 665.529 501.021 664.196 500.841 662.586C500.674 660.962 499.838 659.199 498.333 657.295C496.828 655.392 495.337 654.212 493.86 653.756C492.385 653.272 491.056 653.558 489.871 654.614C488.686 655.669 488.184 657.002 488.364 658.613C488.545 660.223 489.394 661.988 490.91 663.906C492.415 665.81 493.899 666.996 495.362 667.465Z" fill="white"/>
<path d="M115.852 34.3954L114.712 31.2554H108.412L107.272 34.3954H105.292L110.512 20.3954H112.612L117.832 34.3954H115.852ZM109.052 29.5154H114.072L111.552 22.6154L109.052 29.5154ZM127.37 24.3954H129.09V33.9754C129.09 35.4554 128.59 36.6021 127.59 37.4154C126.59 38.2421 125.39 38.6554 123.99 38.6554C122.87 38.6554 121.903 38.4421 121.09 38.0154C120.276 37.6021 119.663 37.0021 119.25 36.2154L120.77 35.3554C121.316 36.4754 122.403 37.0354 124.03 37.0354C125.07 37.0354 125.883 36.7621 126.47 36.2154C127.07 35.6688 127.37 34.9221 127.37 33.9754V32.5554C126.49 33.8888 125.236 34.5554 123.61 34.5554C122.183 34.5554 120.976 34.0488 119.99 33.0354C119.003 32.0221 118.51 30.7888 118.51 29.3354C118.51 27.8821 119.003 26.6554 119.99 25.6554C120.976 24.6421 122.183 24.1354 123.61 24.1354C125.25 24.1354 126.503 24.7954 127.37 26.1154V24.3954ZM121.27 31.8754C121.95 32.5554 122.796 32.8954 123.81 32.8954C124.823 32.8954 125.67 32.5554 126.35 31.8754C127.03 31.1954 127.37 30.3488 127.37 29.3354C127.37 28.3354 127.03 27.4954 126.35 26.8154C125.67 26.1354 124.823 25.7954 123.81 25.7954C122.796 25.7954 121.95 26.1354 121.27 26.8154C120.59 27.4954 120.25 28.3354 120.25 29.3354C120.25 30.3488 120.59 31.1954 121.27 31.8754ZM133.466 26.0754C134.039 24.8354 135.079 24.2154 136.586 24.2154V26.0354C135.732 25.9954 134.999 26.2221 134.386 26.7154C133.772 27.2088 133.466 28.0021 133.466 29.0954V34.3954H131.726V24.3954H133.466V26.0754ZM139.168 22.5754C138.835 22.5754 138.555 22.4621 138.328 22.2354C138.102 22.0088 137.988 21.7354 137.988 21.4154C137.988 21.0954 138.102 20.8221 138.328 20.5954C138.555 20.3554 138.835 20.2354 139.168 20.2354C139.488 20.2354 139.762 20.3554 139.988 20.5954C140.215 20.8221 140.328 21.0954 140.328 21.4154C140.328 21.7354 140.215 22.0088 139.988 22.2354C139.762 22.4621 139.488 22.5754 139.168 22.5754ZM138.288 34.3954V24.3954H140.028V34.3954H138.288ZM147.383 34.6554C145.876 34.6554 144.623 34.1554 143.623 33.1554C142.623 32.1421 142.123 30.8888 142.123 29.3954C142.123 27.9021 142.623 26.6554 143.623 25.6554C144.623 24.6421 145.876 24.1354 147.383 24.1354C148.369 24.1354 149.256 24.3754 150.043 24.8554C150.829 25.3221 151.416 25.9554 151.803 26.7554L150.343 27.5954C150.089 27.0621 149.696 26.6354 149.163 26.3154C148.643 25.9954 148.049 25.8354 147.383 25.8354C146.383 25.8354 145.543 26.1754 144.863 26.8554C144.196 27.5354 143.863 28.3821 143.863 29.3954C143.863 30.3954 144.196 31.2354 144.863 31.9154C145.543 32.5954 146.383 32.9354 147.383 32.9354C148.049 32.9354 148.649 32.7821 149.183 32.4754C149.716 32.1554 150.123 31.7288 150.403 31.1954L151.883 32.0554C151.456 32.8421 150.843 33.4754 150.043 33.9554C149.243 34.4221 148.356 34.6554 147.383 34.6554ZM160.52 24.3954H162.26V34.3954H160.52V32.9554C159.814 34.0888 158.734 34.6554 157.28 34.6554C156.107 34.6554 155.167 34.2888 154.46 33.5554C153.754 32.8088 153.4 31.8021 153.4 30.5354V24.3954H155.14V30.4354C155.14 31.2488 155.36 31.8821 155.8 32.3354C156.24 32.7754 156.847 32.9954 157.62 32.9954C158.487 32.9954 159.187 32.7288 159.72 32.1954C160.254 31.6488 160.52 30.8154 160.52 29.6954V24.3954ZM164.909 34.3954V19.7954H166.649V34.3954H164.909ZM174.744 26.0754H172.084V31.4954C172.084 31.9888 172.177 32.3421 172.364 32.5554C172.564 32.7554 172.864 32.8621 173.264 32.8754C173.664 32.8754 174.157 32.8621 174.744 32.8354V34.3954C173.224 34.5954 172.111 34.4754 171.404 34.0354C170.697 33.5821 170.344 32.7354 170.344 31.4954V26.0754H168.364V24.3954H170.344V22.1154L172.084 21.5954V24.3954H174.744V26.0754ZM183.762 24.3954H185.502V34.3954H183.762V32.9554C183.056 34.0888 181.976 34.6554 180.522 34.6554C179.349 34.6554 178.409 34.2888 177.702 33.5554C176.996 32.8088 176.642 31.8021 176.642 30.5354V24.3954H178.382V30.4354C178.382 31.2488 178.602 31.8821 179.042 32.3354C179.482 32.7754 180.089 32.9954 180.862 32.9954C181.729 32.9954 182.429 32.7288 182.962 32.1954C183.496 31.6488 183.762 30.8154 183.762 29.6954V24.3954ZM189.892 26.0754C190.465 24.8354 191.505 24.2154 193.012 24.2154V26.0354C192.158 25.9954 191.425 26.2221 190.812 26.7154C190.198 27.2088 189.892 28.0021 189.892 29.0954V34.3954H188.152V24.3954H189.892V26.0754ZM195.387 30.1954C195.56 31.0888 195.967 31.7821 196.607 32.2754C197.26 32.7688 198.06 33.0154 199.007 33.0154C200.327 33.0154 201.287 32.5288 201.887 31.5554L203.367 32.3954C202.394 33.9021 200.927 34.6554 198.967 34.6554C197.38 34.6554 196.087 34.1621 195.087 33.1754C194.1 32.1754 193.607 30.9154 193.607 29.3954C193.607 27.8888 194.094 26.6354 195.067 25.6354C196.04 24.6354 197.3 24.1354 198.847 24.1354C200.314 24.1354 201.507 24.6554 202.427 25.6954C203.36 26.7221 203.827 27.9621 203.827 29.4154C203.827 29.6688 203.807 29.9288 203.767 30.1954H195.387ZM198.847 25.7754C197.914 25.7754 197.14 26.0421 196.527 26.5754C195.914 27.0954 195.534 27.7954 195.387 28.6754H202.067C201.92 27.7288 201.547 27.0088 200.947 26.5154C200.347 26.0221 199.647 25.7754 198.847 25.7754Z" fill="white"/>
<path d="M166.89 80.5818L165.75 77.4418H159.45L158.31 80.5818H156.33L161.55 66.5818H163.65L168.87 80.5818H166.89ZM160.09 75.7018H165.11L162.59 68.8018L160.09 75.7018ZM177.144 70.5818H178.884V80.5818H177.144V79.1418C176.438 80.2752 175.358 80.8418 173.904 80.8418C172.731 80.8418 171.791 80.4752 171.084 79.7418C170.378 78.9952 170.024 77.9885 170.024 76.7218V70.5818H171.764V76.6218C171.764 77.4352 171.984 78.0685 172.424 78.5218C172.864 78.9618 173.471 79.1818 174.244 79.1818C175.111 79.1818 175.811 78.9152 176.344 78.3818C176.878 77.8352 177.144 77.0018 177.144 75.8818V70.5818ZM186.973 72.2618H184.313V77.6818C184.313 78.1752 184.407 78.5285 184.593 78.7418C184.793 78.9418 185.093 79.0485 185.493 79.0618C185.893 79.0618 186.387 79.0485 186.973 79.0218V80.5818C185.453 80.7818 184.34 80.6618 183.633 80.2218C182.927 79.7685 182.573 78.9218 182.573 77.6818V72.2618H180.593V70.5818H182.573V68.3018L184.313 67.7818V70.5818H186.973V72.2618ZM190.832 72.2618C191.405 71.0218 192.445 70.4018 193.952 70.4018V72.2218C193.099 72.1818 192.365 72.4085 191.752 72.9018C191.139 73.3952 190.832 74.1885 190.832 75.2818V80.5818H189.092V70.5818H190.832V72.2618ZM196.328 76.3818C196.501 77.2752 196.908 77.9685 197.548 78.4618C198.201 78.9552 199.001 79.2018 199.948 79.2018C201.268 79.2018 202.228 78.7152 202.828 77.7418L204.308 78.5818C203.334 80.0885 201.868 80.8418 199.908 80.8418C198.321 80.8418 197.028 80.3485 196.028 79.3618C195.041 78.3618 194.548 77.1018 194.548 75.5818C194.548 74.0752 195.034 72.8218 196.008 71.8218C196.981 70.8218 198.241 70.3218 199.788 70.3218C201.254 70.3218 202.448 70.8418 203.368 71.8818C204.301 72.9085 204.768 74.1485 204.768 75.6018C204.768 75.8552 204.748 76.1152 204.708 76.3818H196.328ZM199.788 71.9618C198.854 71.9618 198.081 72.2285 197.468 72.7618C196.854 73.2818 196.474 73.9818 196.328 74.8618H203.008C202.861 73.9152 202.488 73.1952 201.888 72.7018C201.288 72.2085 200.588 71.9618 199.788 71.9618Z" fill="white"/>
<path d="M130.553 124.64C131.193 124.947 131.7 125.387 132.073 125.96C132.46 126.533 132.653 127.193 132.653 127.94C132.653 129.06 132.26 130 131.473 130.76C130.687 131.52 129.727 131.9 128.593 131.9H122.553V117.9H128.153C129.247 117.9 130.173 118.267 130.933 119C131.693 119.733 132.073 120.64 132.073 121.72C132.073 122.96 131.567 123.933 130.553 124.64ZM128.153 119.64H124.413V123.92H128.153C128.74 123.92 129.233 123.713 129.633 123.3C130.033 122.887 130.233 122.38 130.233 121.78C130.233 121.193 130.027 120.693 129.613 120.28C129.213 119.853 128.727 119.64 128.153 119.64ZM128.593 130.16C129.22 130.16 129.747 129.94 130.173 129.5C130.6 129.06 130.813 128.52 130.813 127.88C130.813 127.253 130.593 126.72 130.153 126.28C129.727 125.84 129.207 125.62 128.593 125.62H124.413V130.16H128.593ZM143.017 121.9H144.757V131.9H143.017V130.18C142.15 131.5 140.89 132.16 139.237 132.16C137.837 132.16 136.643 131.653 135.657 130.64C134.67 129.613 134.177 128.367 134.177 126.9C134.177 125.433 134.67 124.193 135.657 123.18C136.643 122.153 137.837 121.64 139.237 121.64C140.89 121.64 142.15 122.3 143.017 123.62V121.9ZM139.457 130.48C140.47 130.48 141.317 130.14 141.997 129.46C142.677 128.767 143.017 127.913 143.017 126.9C143.017 125.887 142.677 125.04 141.997 124.36C141.317 123.667 140.47 123.32 139.457 123.32C138.457 123.32 137.617 123.667 136.937 124.36C136.257 125.04 135.917 125.887 135.917 126.9C135.917 127.913 136.257 128.767 136.937 129.46C137.617 130.14 138.457 130.48 139.457 130.48ZM152.833 123.58H150.173V129C150.173 129.493 150.266 129.847 150.453 130.06C150.653 130.26 150.953 130.367 151.353 130.38C151.753 130.38 152.246 130.367 152.833 130.34V131.9C151.313 132.1 150.2 131.98 149.493 131.54C148.786 131.087 148.433 130.24 148.433 129V123.58H146.453V121.9H148.433V119.62L150.173 119.1V121.9H152.833V123.58ZM155.773 120.08C155.44 120.08 155.16 119.967 154.933 119.74C154.706 119.513 154.593 119.24 154.593 118.92C154.593 118.6 154.706 118.327 154.933 118.1C155.16 117.86 155.44 117.74 155.773 117.74C156.093 117.74 156.366 117.86 156.593 118.1C156.82 118.327 156.933 118.6 156.933 118.92C156.933 119.24 156.82 119.513 156.593 119.74C156.366 119.967 156.093 120.08 155.773 120.08ZM154.893 131.9V121.9H156.633V131.9H154.893ZM170.087 121.64C171.207 121.64 172.114 122.007 172.807 122.74C173.501 123.46 173.847 124.44 173.847 125.68V131.9H172.107V125.74C172.107 124.967 171.907 124.367 171.507 123.94C171.107 123.513 170.574 123.3 169.907 123.3C169.161 123.3 168.561 123.553 168.107 124.06C167.667 124.553 167.447 125.313 167.447 126.34V131.9H165.707V125.74C165.707 124.967 165.514 124.367 165.127 123.94C164.754 123.513 164.241 123.3 163.587 123.3C162.854 123.3 162.241 123.553 161.747 124.06C161.267 124.567 161.027 125.327 161.027 126.34V131.9H159.287V121.9H161.027V123.24C161.707 122.173 162.701 121.64 164.007 121.64C165.354 121.64 166.334 122.207 166.947 123.34C167.641 122.207 168.687 121.64 170.087 121.64ZM177.48 127.7C177.653 128.593 178.06 129.287 178.7 129.78C179.353 130.273 180.153 130.52 181.1 130.52C182.42 130.52 183.38 130.033 183.98 129.06L185.46 129.9C184.487 131.407 183.02 132.16 181.06 132.16C179.473 132.16 178.18 131.667 177.18 130.68C176.193 129.68 175.7 128.42 175.7 126.9C175.7 125.393 176.187 124.14 177.16 123.14C178.133 122.14 179.393 121.64 180.94 121.64C182.407 121.64 183.6 122.16 184.52 123.2C185.453 124.227 185.92 125.467 185.92 126.92C185.92 127.173 185.9 127.433 185.86 127.7H177.48ZM180.94 123.28C180.007 123.28 179.233 123.547 178.62 124.08C178.007 124.6 177.627 125.3 177.48 126.18H184.16C184.013 125.233 183.64 124.513 183.04 124.02C182.44 123.527 181.74 123.28 180.94 123.28ZM192.9 121.64C194.074 121.64 195.014 122.013 195.72 122.76C196.427 123.493 196.78 124.493 196.78 125.76V131.9H195.04V125.86C195.04 125.047 194.82 124.42 194.38 123.98C193.94 123.527 193.334 123.3 192.56 123.3C191.694 123.3 190.994 123.573 190.46 124.12C189.927 124.653 189.66 125.48 189.66 126.6V131.9H187.92V121.9H189.66V123.34C190.367 122.207 191.447 121.64 192.9 121.64ZM204.649 123.58H201.989V129C201.989 129.493 202.083 129.847 202.269 130.06C202.469 130.26 202.769 130.367 203.169 130.38C203.569 130.38 204.063 130.367 204.649 130.34V131.9C203.129 132.1 202.016 131.98 201.309 131.54C200.603 131.087 200.249 130.24 200.249 129V123.58H198.269V121.9H200.249V119.62L201.989 119.1V121.9H204.649V123.58Z" fill="white"/>
<path d="M113.75 183.478C111.63 183.478 109.877 182.778 108.49 181.378C107.117 179.978 106.43 178.258 106.43 176.218C106.43 174.178 107.117 172.458 108.49 171.058C109.877 169.658 111.63 168.958 113.75 168.958C115.03 168.958 116.203 169.265 117.27 169.878C118.35 170.492 119.19 171.318 119.79 172.358L118.17 173.298C117.77 172.525 117.17 171.912 116.37 171.458C115.583 170.992 114.71 170.758 113.75 170.758C112.137 170.758 110.817 171.278 109.79 172.318C108.777 173.358 108.27 174.658 108.27 176.218C108.27 177.765 108.777 179.058 109.79 180.098C110.817 181.138 112.137 181.658 113.75 181.658C114.71 181.658 115.583 181.432 116.37 180.978C117.17 180.512 117.77 179.898 118.17 179.138L119.79 180.058C119.203 181.098 118.37 181.932 117.29 182.558C116.21 183.172 115.03 183.478 113.75 183.478ZM130.117 181.958C129.091 182.972 127.844 183.478 126.377 183.478C124.911 183.478 123.664 182.972 122.637 181.958C121.624 180.945 121.117 179.698 121.117 178.218C121.117 176.738 121.624 175.492 122.637 174.478C123.664 173.465 124.911 172.958 126.377 172.958C127.844 172.958 129.091 173.465 130.117 174.478C131.144 175.492 131.657 176.738 131.657 178.218C131.657 179.698 131.144 180.945 130.117 181.958ZM126.377 181.778C127.377 181.778 128.217 181.438 128.897 180.758C129.577 180.078 129.917 179.232 129.917 178.218C129.917 177.205 129.577 176.358 128.897 175.678C128.217 174.998 127.377 174.658 126.377 174.658C125.391 174.658 124.557 174.998 123.877 175.678C123.197 176.358 122.857 177.205 122.857 178.218C122.857 179.232 123.197 180.078 123.877 180.758C124.557 181.438 125.391 181.778 126.377 181.778ZM144.509 172.958C145.629 172.958 146.535 173.325 147.229 174.058C147.922 174.778 148.269 175.758 148.269 176.998V183.218H146.529V177.058C146.529 176.285 146.329 175.685 145.929 175.258C145.529 174.832 144.995 174.618 144.329 174.618C143.582 174.618 142.982 174.872 142.529 175.378C142.089 175.872 141.869 176.632 141.869 177.658V183.218H140.129V177.058C140.129 176.285 139.935 175.685 139.549 175.258C139.175 174.832 138.662 174.618 138.009 174.618C137.275 174.618 136.662 174.872 136.169 175.378C135.689 175.885 135.449 176.645 135.449 177.658V183.218H133.709V173.218H135.449V174.558C136.129 173.492 137.122 172.958 138.429 172.958C139.775 172.958 140.755 173.525 141.369 174.658C142.062 173.525 143.109 172.958 144.509 172.958ZM161.481 172.958C162.601 172.958 163.508 173.325 164.201 174.058C164.895 174.778 165.241 175.758 165.241 176.998V183.218H163.501V177.058C163.501 176.285 163.301 175.685 162.901 175.258C162.501 174.832 161.968 174.618 161.301 174.618C160.555 174.618 159.955 174.872 159.501 175.378C159.061 175.872 158.841 176.632 158.841 177.658V183.218H157.101V177.058C157.101 176.285 156.908 175.685 156.521 175.258C156.148 174.832 155.635 174.618 154.981 174.618C154.248 174.618 153.635 174.872 153.141 175.378C152.661 175.885 152.421 176.645 152.421 177.658V183.218H150.681V173.218H152.421V174.558C153.101 173.492 154.095 172.958 155.401 172.958C156.748 172.958 157.728 173.525 158.341 174.658C159.035 173.525 160.081 172.958 161.481 172.958ZM168.874 179.018C169.047 179.912 169.454 180.605 170.094 181.098C170.747 181.592 171.547 181.838 172.494 181.838C173.814 181.838 174.774 181.352 175.374 180.378L176.854 181.218C175.881 182.725 174.414 183.478 172.454 183.478C170.867 183.478 169.574 182.985 168.574 181.998C167.587 180.998 167.094 179.738 167.094 178.218C167.094 176.712 167.581 175.458 168.554 174.458C169.527 173.458 170.787 172.958 172.334 172.958C173.801 172.958 174.994 173.478 175.914 174.518C176.847 175.545 177.314 176.785 177.314 178.238C177.314 178.492 177.294 178.752 177.254 179.018H168.874ZM172.334 174.598C171.401 174.598 170.627 174.865 170.014 175.398C169.401 175.918 169.021 176.618 168.874 177.498H175.554C175.407 176.552 175.034 175.832 174.434 175.338C173.834 174.845 173.134 174.598 172.334 174.598ZM181.054 174.898C181.627 173.658 182.667 173.038 184.174 173.038V174.858C183.321 174.818 182.587 175.045 181.974 175.538C181.361 176.032 181.054 176.825 181.054 177.918V183.218H179.314V173.218H181.054V174.898ZM190.03 183.478C188.523 183.478 187.27 182.978 186.27 181.978C185.27 180.965 184.77 179.712 184.77 178.218C184.77 176.725 185.27 175.478 186.27 174.478C187.27 173.465 188.523 172.958 190.03 172.958C191.016 172.958 191.903 173.198 192.69 173.678C193.476 174.145 194.063 174.778 194.45 175.578L192.99 176.418C192.736 175.885 192.343 175.458 191.81 175.138C191.29 174.818 190.696 174.658 190.03 174.658C189.03 174.658 188.19 174.998 187.51 175.678C186.843 176.358 186.51 177.205 186.51 178.218C186.51 179.218 186.843 180.058 187.51 180.738C188.19 181.418 189.03 181.758 190.03 181.758C190.696 181.758 191.296 181.605 191.83 181.298C192.363 180.978 192.77 180.552 193.05 180.018L194.53 180.878C194.103 181.665 193.49 182.298 192.69 182.778C191.89 183.245 191.003 183.478 190.03 183.478ZM197.331 179.018C197.504 179.912 197.911 180.605 198.551 181.098C199.204 181.592 200.004 181.838 200.951 181.838C202.271 181.838 203.231 181.352 203.831 180.378L205.311 181.218C204.338 182.725 202.871 183.478 200.911 183.478C199.324 183.478 198.031 182.985 197.031 181.998C196.044 180.998 195.551 179.738 195.551 178.218C195.551 176.712 196.038 175.458 197.011 174.458C197.984 173.458 199.244 172.958 200.791 172.958C202.258 172.958 203.451 173.478 204.371 174.518C205.304 175.545 205.771 176.785 205.771 178.238C205.771 178.492 205.751 178.752 205.711 179.018H197.331ZM200.791 174.598C199.858 174.598 199.084 174.865 198.471 175.398C197.858 175.918 197.478 176.618 197.331 177.498H204.011C203.864 176.552 203.491 175.832 202.891 175.338C202.291 174.845 201.591 174.598 200.791 174.598Z" fill="white"/>
<path d="M121.5 221H123.36L123.36 235H121.5V221ZM131.163 224.74C132.337 224.74 133.277 225.113 133.983 225.86C134.69 226.593 135.043 227.593 135.043 228.86V235H133.303V228.96C133.303 228.147 133.083 227.52 132.643 227.08C132.203 226.627 131.597 226.4 130.823 226.4C129.957 226.4 129.257 226.673 128.723 227.22C128.19 227.753 127.923 228.58 127.923 229.7V235H126.183V225H127.923V226.44C128.63 225.307 129.71 224.74 131.163 224.74ZM145.752 221H147.492V235H145.752V233.28C144.886 234.6 143.626 235.26 141.972 235.26C140.572 235.26 139.379 234.753 138.392 233.74C137.406 232.713 136.912 231.467 136.912 230C136.912 228.533 137.406 227.293 138.392 226.28C139.379 225.253 140.572 224.74 141.972 224.74C143.626 224.74 144.886 225.4 145.752 226.72V221ZM142.192 233.58C143.206 233.58 144.052 233.24 144.732 232.56C145.412 231.867 145.752 231.013 145.752 230C145.752 228.987 145.412 228.14 144.732 227.46C144.052 226.767 143.206 226.42 142.192 226.42C141.192 226.42 140.352 226.767 139.672 227.46C138.992 228.14 138.652 228.987 138.652 230C138.652 231.013 138.992 231.867 139.672 232.56C140.352 233.24 141.192 233.58 142.192 233.58ZM157.029 225H158.769V235H157.029V233.56C156.322 234.693 155.242 235.26 153.789 235.26C152.615 235.26 151.675 234.893 150.969 234.16C150.262 233.413 149.909 232.407 149.909 231.14V225H151.649V231.04C151.649 231.853 151.869 232.487 152.309 232.94C152.749 233.38 153.355 233.6 154.129 233.6C154.995 233.6 155.695 233.333 156.229 232.8C156.762 232.253 157.029 231.42 157.029 230.3V225ZM162.898 227.7C162.898 228.087 163.091 228.4 163.478 228.64C163.865 228.867 164.331 229.053 164.878 229.2C165.425 229.333 165.971 229.493 166.518 229.68C167.065 229.853 167.531 230.16 167.918 230.6C168.305 231.027 168.498 231.58 168.498 232.26C168.498 233.167 168.145 233.893 167.438 234.44C166.745 234.987 165.851 235.26 164.758 235.26C163.785 235.26 162.951 235.047 162.258 234.62C161.565 234.193 161.071 233.627 160.778 232.92L162.278 232.06C162.438 232.54 162.738 232.92 163.178 233.2C163.618 233.48 164.145 233.62 164.758 233.62C165.331 233.62 165.805 233.513 166.178 233.3C166.551 233.073 166.738 232.727 166.738 232.26C166.738 231.873 166.545 231.567 166.158 231.34C165.771 231.1 165.305 230.913 164.758 230.78C164.211 230.633 163.665 230.467 163.118 230.28C162.571 230.093 162.105 229.787 161.718 229.36C161.331 228.933 161.138 228.387 161.138 227.72C161.138 226.853 161.471 226.14 162.138 225.58C162.818 225.02 163.665 224.74 164.678 224.74C165.491 224.74 166.211 224.927 166.838 225.3C167.478 225.66 167.958 226.167 168.278 226.82L166.818 227.64C166.458 226.787 165.745 226.36 164.678 226.36C164.185 226.36 163.765 226.48 163.418 226.72C163.071 226.947 162.898 227.273 162.898 227.7ZM175.608 226.68H172.948V232.1C172.948 232.593 173.041 232.947 173.228 233.16C173.428 233.36 173.728 233.467 174.128 233.48C174.528 233.48 175.021 233.467 175.608 233.44V235C174.088 235.2 172.974 235.08 172.268 234.64C171.561 234.187 171.208 233.34 171.208 232.1V226.68H169.228V225H171.208V222.72L172.948 222.2V225H175.608V226.68ZM179.466 226.68C180.04 225.44 181.08 224.82 182.586 224.82V226.64C181.733 226.6 181 226.827 180.386 227.32C179.773 227.813 179.466 228.607 179.466 229.7V235H177.726V225H179.466V226.68ZM185.169 223.18C184.835 223.18 184.555 223.067 184.329 222.84C184.102 222.613 183.989 222.34 183.989 222.02C183.989 221.7 184.102 221.427 184.329 221.2C184.555 220.96 184.835 220.84 185.169 220.84C185.489 220.84 185.762 220.96 185.989 221.2C186.215 221.427 186.329 221.7 186.329 222.02C186.329 222.34 186.215 222.613 185.989 222.84C185.762 223.067 185.489 223.18 185.169 223.18ZM184.289 235V225H186.029V235H184.289ZM189.903 230.8C190.077 231.693 190.483 232.387 191.123 232.88C191.777 233.373 192.577 233.62 193.523 233.62C194.843 233.62 195.803 233.133 196.403 232.16L197.883 233C196.91 234.507 195.443 235.26 193.483 235.26C191.897 235.26 190.603 234.767 189.603 233.78C188.617 232.78 188.123 231.52 188.123 230C188.123 228.493 188.61 227.24 189.583 226.24C190.557 225.24 191.817 224.74 193.363 224.74C194.83 224.74 196.023 225.26 196.943 226.3C197.877 227.327 198.343 228.567 198.343 230.02C198.343 230.273 198.323 230.533 198.283 230.8H189.903ZM193.363 226.38C192.43 226.38 191.657 226.647 191.043 227.18C190.43 227.7 190.05 228.4 189.903 229.28H196.583C196.437 228.333 196.063 227.613 195.463 227.12C194.863 226.627 194.163 226.38 193.363 226.38Z" fill="white"/>
<path d="M115.653 284.24H121.693V286H113.793V272H115.653V284.24ZM131.428 284.74C130.401 285.753 129.155 286.26 127.688 286.26C126.221 286.26 124.975 285.753 123.948 284.74C122.935 283.727 122.428 282.48 122.428 281C122.428 279.52 122.935 278.273 123.948 277.26C124.975 276.247 126.221 275.74 127.688 275.74C129.155 275.74 130.401 276.247 131.428 277.26C132.455 278.273 132.968 279.52 132.968 281C132.968 282.48 132.455 283.727 131.428 284.74ZM127.688 284.56C128.688 284.56 129.528 284.22 130.208 283.54C130.888 282.86 131.228 282.013 131.228 281C131.228 279.987 130.888 279.14 130.208 278.46C129.528 277.78 128.688 277.44 127.688 277.44C126.701 277.44 125.868 277.78 125.188 278.46C124.508 279.14 124.168 279.987 124.168 281C124.168 282.013 124.508 282.86 125.188 283.54C125.868 284.22 126.701 284.56 127.688 284.56ZM143.319 276H145.039V285.58C145.039 287.06 144.539 288.207 143.539 289.02C142.539 289.847 141.339 290.26 139.939 290.26C138.819 290.26 137.853 290.047 137.039 289.62C136.226 289.207 135.613 288.607 135.199 287.82L136.719 286.96C137.266 288.08 138.353 288.64 139.979 288.64C141.019 288.64 141.833 288.367 142.419 287.82C143.019 287.273 143.319 286.527 143.319 285.58V284.16C142.439 285.493 141.186 286.16 139.559 286.16C138.133 286.16 136.926 285.653 135.939 284.64C134.953 283.627 134.459 282.393 134.459 280.94C134.459 279.487 134.953 278.26 135.939 277.26C136.926 276.247 138.133 275.74 139.559 275.74C141.199 275.74 142.453 276.4 143.319 277.72V276ZM137.219 283.48C137.899 284.16 138.746 284.5 139.759 284.5C140.773 284.5 141.619 284.16 142.299 283.48C142.979 282.8 143.319 281.953 143.319 280.94C143.319 279.94 142.979 279.1 142.299 278.42C141.619 277.74 140.773 277.4 139.759 277.4C138.746 277.4 137.899 277.74 137.219 278.42C136.539 279.1 136.199 279.94 136.199 280.94C136.199 281.953 136.539 282.8 137.219 283.48ZM148.555 274.18C148.222 274.18 147.942 274.067 147.715 273.84C147.489 273.613 147.375 273.34 147.375 273.02C147.375 272.7 147.489 272.427 147.715 272.2C147.942 271.96 148.222 271.84 148.555 271.84C148.875 271.84 149.149 271.96 149.375 272.2C149.602 272.427 149.715 272.7 149.715 273.02C149.715 273.34 149.602 273.613 149.375 273.84C149.149 274.067 148.875 274.18 148.555 274.18ZM147.675 286V276H149.415V286H147.675ZM153.55 278.7C153.55 279.087 153.744 279.4 154.13 279.64C154.517 279.867 154.984 280.053 155.53 280.2C156.077 280.333 156.624 280.493 157.17 280.68C157.717 280.853 158.184 281.16 158.57 281.6C158.957 282.027 159.15 282.58 159.15 283.26C159.15 284.167 158.797 284.893 158.09 285.44C157.397 285.987 156.504 286.26 155.41 286.26C154.437 286.26 153.604 286.047 152.91 285.62C152.217 285.193 151.724 284.627 151.43 283.92L152.93 283.06C153.09 283.54 153.39 283.92 153.83 284.2C154.27 284.48 154.797 284.62 155.41 284.62C155.984 284.62 156.457 284.513 156.83 284.3C157.204 284.073 157.39 283.727 157.39 283.26C157.39 282.873 157.197 282.567 156.81 282.34C156.424 282.1 155.957 281.913 155.41 281.78C154.864 281.633 154.317 281.467 153.77 281.28C153.224 281.093 152.757 280.787 152.37 280.36C151.984 279.933 151.79 279.387 151.79 278.72C151.79 277.853 152.124 277.14 152.79 276.58C153.47 276.02 154.317 275.74 155.33 275.74C156.144 275.74 156.864 275.927 157.49 276.3C158.13 276.66 158.61 277.167 158.93 277.82L157.47 278.64C157.11 277.787 156.397 277.36 155.33 277.36C154.837 277.36 154.417 277.48 154.07 277.72C153.724 277.947 153.55 278.273 153.55 278.7ZM166.26 277.68H163.6V283.1C163.6 283.593 163.693 283.947 163.88 284.16C164.08 284.36 164.38 284.467 164.78 284.48C165.18 284.48 165.673 284.467 166.26 284.44V286C164.74 286.2 163.627 286.08 162.92 285.64C162.213 285.187 161.86 284.34 161.86 283.1V277.68H159.88V276H161.86V273.72L163.6 273.2V276H166.26V277.68ZM169.2 274.18C168.867 274.18 168.587 274.067 168.36 273.84C168.133 273.613 168.02 273.34 168.02 273.02C168.02 272.7 168.133 272.427 168.36 272.2C168.587 271.96 168.867 271.84 169.2 271.84C169.52 271.84 169.793 271.96 170.02 272.2C170.247 272.427 170.36 272.7 170.36 273.02C170.36 273.34 170.247 273.613 170.02 273.84C169.793 274.067 169.52 274.18 169.2 274.18ZM168.32 286V276H170.06V286H168.32ZM180.995 276H182.735V290H180.995V284.28C180.128 285.6 178.868 286.26 177.215 286.26C175.815 286.26 174.621 285.753 173.635 284.74C172.648 283.713 172.155 282.467 172.155 281C172.155 279.533 172.648 278.293 173.635 277.28C174.621 276.253 175.815 275.74 177.215 275.74C178.868 275.74 180.128 276.4 180.995 277.72V276ZM177.435 284.58C178.448 284.58 179.295 284.24 179.975 283.56C180.655 282.867 180.995 282.013 180.995 281C180.995 279.987 180.655 279.14 179.975 278.46C179.295 277.767 178.448 277.42 177.435 277.42C176.435 277.42 175.595 277.767 174.915 278.46C174.235 279.14 173.895 279.987 173.895 281C173.895 282.013 174.235 282.867 174.915 283.56C175.595 284.24 176.435 284.58 177.435 284.58ZM192.271 276H194.011V286H192.271V284.56C191.564 285.693 190.484 286.26 189.031 286.26C187.857 286.26 186.917 285.893 186.211 285.16C185.504 284.413 185.151 283.407 185.151 282.14V276H186.891V282.04C186.891 282.853 187.111 283.487 187.551 283.94C187.991 284.38 188.597 284.6 189.371 284.6C190.237 284.6 190.937 284.333 191.471 283.8C192.004 283.253 192.271 282.42 192.271 281.3V276ZM197.88 281.8C198.053 282.693 198.46 283.387 199.1 283.88C199.753 284.373 200.553 284.62 201.5 284.62C202.82 284.62 203.78 284.133 204.38 283.16L205.86 284C204.887 285.507 203.42 286.26 201.46 286.26C199.873 286.26 198.58 285.767 197.58 284.78C196.593 283.78 196.1 282.52 196.1 281C196.1 279.493 196.587 278.24 197.56 277.24C198.533 276.24 199.793 275.74 201.34 275.74C202.807 275.74 204 276.26 204.92 277.3C205.853 278.327 206.32 279.567 206.32 281.02C206.32 281.273 206.3 281.533 206.26 281.8H197.88ZM201.34 277.38C200.407 277.38 199.633 277.647 199.02 278.18C198.407 278.7 198.027 279.4 197.88 280.28H204.56C204.413 279.333 204.04 278.613 203.44 278.12C202.84 277.627 202.14 277.38 201.34 277.38Z" fill="white"/>
<path d="M98.218 337L95.078 331.64H91.778V337H89.918V323H95.518C96.718 323 97.7447 323.427 98.598 324.28C99.4513 325.12 99.878 326.14 99.878 327.34C99.878 328.247 99.6047 329.073 99.058 329.82C98.5247 330.567 97.8313 331.093 96.978 331.4L100.278 337H98.218ZM91.778 324.74V329.96H95.518C96.2113 329.96 96.798 329.707 97.278 329.2C97.7713 328.68 98.018 328.06 98.018 327.34C98.018 326.62 97.7713 326.007 97.278 325.5C96.798 324.993 96.2113 324.74 95.518 324.74H91.778ZM102.677 332.8C102.85 333.693 103.257 334.387 103.897 334.88C104.55 335.373 105.35 335.62 106.297 335.62C107.617 335.62 108.577 335.133 109.177 334.16L110.657 335C109.683 336.507 108.217 337.26 106.257 337.26C104.67 337.26 103.377 336.767 102.377 335.78C101.39 334.78 100.897 333.52 100.897 332C100.897 330.493 101.383 329.24 102.357 328.24C103.33 327.24 104.59 326.74 106.137 326.74C107.603 326.74 108.797 327.26 109.717 328.3C110.65 329.327 111.117 330.567 111.117 332.02C111.117 332.273 111.097 332.533 111.057 332.8H102.677ZM106.137 328.38C105.203 328.38 104.43 328.647 103.817 329.18C103.203 329.7 102.823 330.4 102.677 331.28H109.357C109.21 330.333 108.837 329.613 108.237 329.12C107.637 328.627 106.937 328.38 106.137 328.38ZM114.226 329.7C114.226 330.087 114.42 330.4 114.806 330.64C115.193 330.867 115.66 331.053 116.206 331.2C116.753 331.333 117.3 331.493 117.846 331.68C118.393 331.853 118.86 332.16 119.246 332.6C119.633 333.027 119.826 333.58 119.826 334.26C119.826 335.167 119.473 335.893 118.766 336.44C118.073 336.987 117.18 337.26 116.086 337.26C115.113 337.26 114.28 337.047 113.586 336.62C112.893 336.193 112.4 335.627 112.106 334.92L113.606 334.06C113.766 334.54 114.066 334.92 114.506 335.2C114.946 335.48 115.473 335.62 116.086 335.62C116.66 335.62 117.133 335.513 117.506 335.3C117.88 335.073 118.066 334.727 118.066 334.26C118.066 333.873 117.873 333.567 117.486 333.34C117.1 333.1 116.633 332.913 116.086 332.78C115.54 332.633 114.993 332.467 114.446 332.28C113.9 332.093 113.433 331.787 113.046 331.36C112.66 330.933 112.466 330.387 112.466 329.72C112.466 328.853 112.8 328.14 113.466 327.58C114.146 327.02 114.993 326.74 116.006 326.74C116.82 326.74 117.54 326.927 118.166 327.3C118.806 327.66 119.286 328.167 119.606 328.82L118.146 329.64C117.786 328.787 117.073 328.36 116.006 328.36C115.513 328.36 115.093 328.48 114.746 328.72C114.4 328.947 114.226 329.273 114.226 329.7ZM126.936 328.68H124.276V334.1C124.276 334.593 124.369 334.947 124.556 335.16C124.756 335.36 125.056 335.467 125.456 335.48C125.856 335.48 126.349 335.467 126.936 335.44V337C125.416 337.2 124.302 337.08 123.596 336.64C122.889 336.187 122.536 335.34 122.536 334.1V328.68H120.556V327H122.536V324.72L124.276 324.2V327H126.936V328.68ZM136.768 327H138.508V337H136.768V335.28C135.901 336.6 134.641 337.26 132.988 337.26C131.588 337.26 130.395 336.753 129.408 335.74C128.421 334.713 127.928 333.467 127.928 332C127.928 330.533 128.421 329.293 129.408 328.28C130.395 327.253 131.588 326.74 132.988 326.74C134.641 326.74 135.901 327.4 136.768 328.72V327ZM133.208 335.58C134.221 335.58 135.068 335.24 135.748 334.56C136.428 333.867 136.768 333.013 136.768 332C136.768 330.987 136.428 330.14 135.748 329.46C135.068 328.767 134.221 328.42 133.208 328.42C132.208 328.42 131.368 328.767 130.688 329.46C130.008 330.14 129.668 330.987 129.668 332C129.668 333.013 130.008 333.867 130.688 334.56C131.368 335.24 132.208 335.58 133.208 335.58ZM148.044 327H149.784V337H148.044V335.56C147.338 336.693 146.258 337.26 144.804 337.26C143.631 337.26 142.691 336.893 141.984 336.16C141.278 335.413 140.924 334.407 140.924 333.14V327H142.664V333.04C142.664 333.853 142.884 334.487 143.324 334.94C143.764 335.38 144.371 335.6 145.144 335.6C146.011 335.6 146.711 335.333 147.244 334.8C147.778 334.253 148.044 333.42 148.044 332.3V327ZM154.173 328.68C154.747 327.44 155.787 326.82 157.293 326.82V328.64C156.44 328.6 155.707 328.827 155.093 329.32C154.48 329.813 154.173 330.607 154.173 331.7V337H152.433V327H154.173V328.68ZM166.729 327H168.469V337H166.729V335.28C165.862 336.6 164.602 337.26 162.949 337.26C161.549 337.26 160.356 336.753 159.369 335.74C158.382 334.713 157.889 333.467 157.889 332C157.889 330.533 158.382 329.293 159.369 328.28C160.356 327.253 161.549 326.74 162.949 326.74C164.602 326.74 165.862 327.4 166.729 328.72V327ZM163.169 335.58C164.182 335.58 165.029 335.24 165.709 334.56C166.389 333.867 166.729 333.013 166.729 332C166.729 330.987 166.389 330.14 165.709 329.46C165.029 328.767 164.182 328.42 163.169 328.42C162.169 328.42 161.329 328.767 160.649 329.46C159.969 330.14 159.629 330.987 159.629 332C159.629 333.013 159.969 333.867 160.649 334.56C161.329 335.24 162.169 335.58 163.169 335.58ZM176.545 328.68H173.885V334.1C173.885 334.593 173.979 334.947 174.165 335.16C174.365 335.36 174.665 335.467 175.065 335.48C175.465 335.48 175.959 335.467 176.545 335.44V337C175.025 337.2 173.912 337.08 173.205 336.64C172.499 336.187 172.145 335.34 172.145 334.1V328.68H170.165V327H172.145V324.72L173.885 324.2V327H176.545V328.68ZM179.485 325.18C179.152 325.18 178.872 325.067 178.645 324.84C178.419 324.613 178.305 324.34 178.305 324.02C178.305 323.7 178.419 323.427 178.645 323.2C178.872 322.96 179.152 322.84 179.485 322.84C179.805 322.84 180.079 322.96 180.305 323.2C180.532 323.427 180.645 323.7 180.645 324.02C180.645 324.34 180.532 324.613 180.305 324.84C180.079 325.067 179.805 325.18 179.485 325.18ZM178.605 337V327H180.345V337H178.605ZM191.44 335.74C190.413 336.753 189.166 337.26 187.7 337.26C186.233 337.26 184.986 336.753 183.96 335.74C182.946 334.727 182.44 333.48 182.44 332C182.44 330.52 182.946 329.273 183.96 328.26C184.986 327.247 186.233 326.74 187.7 326.74C189.166 326.74 190.413 327.247 191.44 328.26C192.466 329.273 192.98 330.52 192.98 332C192.98 333.48 192.466 334.727 191.44 335.74ZM187.7 335.56C188.7 335.56 189.54 335.22 190.22 334.54C190.9 333.86 191.24 333.013 191.24 332C191.24 330.987 190.9 330.14 190.22 329.46C189.54 328.78 188.7 328.44 187.7 328.44C186.713 328.44 185.88 328.78 185.2 329.46C184.52 330.14 184.18 330.987 184.18 332C184.18 333.013 184.52 333.86 185.2 334.54C185.88 335.22 186.713 335.56 187.7 335.56ZM200.011 326.74C201.184 326.74 202.124 327.113 202.831 327.86C203.538 328.593 203.891 329.593 203.891 330.86V337H202.151V330.96C202.151 330.147 201.931 329.52 201.491 329.08C201.051 328.627 200.444 328.4 199.671 328.4C198.804 328.4 198.104 328.673 197.571 329.22C197.038 329.753 196.771 330.58 196.771 331.7V337H195.031V327H196.771V328.44C197.478 327.307 198.558 326.74 200.011 326.74Z" fill="white"/>
<path d="M128.467 388.751C127.161 388.751 126.041 388.444 125.107 387.831C124.187 387.218 123.541 386.378 123.167 385.311L124.767 384.391C125.314 386.084 126.561 386.931 128.507 386.931C129.467 386.931 130.201 386.738 130.707 386.351C131.214 385.951 131.467 385.424 131.467 384.771C131.467 384.104 131.214 383.604 130.707 383.271C130.201 382.938 129.354 382.584 128.167 382.211C127.581 382.024 127.134 381.878 126.827 381.771C126.521 381.651 126.134 381.478 125.667 381.251C125.214 381.011 124.874 380.771 124.647 380.531C124.421 380.278 124.214 379.951 124.027 379.551C123.854 379.151 123.767 378.698 123.767 378.191C123.767 376.978 124.194 376.018 125.047 375.311C125.901 374.591 126.941 374.231 128.167 374.231C129.274 374.231 130.234 374.511 131.047 375.071C131.874 375.631 132.494 376.371 132.907 377.291L131.347 378.191C130.747 376.751 129.687 376.031 128.167 376.031C127.407 376.031 126.794 376.218 126.327 376.591C125.861 376.964 125.627 377.471 125.627 378.111C125.627 378.724 125.847 379.191 126.287 379.511C126.727 379.831 127.487 380.164 128.567 380.511C128.954 380.631 129.227 380.718 129.387 380.771C129.547 380.824 129.794 380.918 130.127 381.051C130.474 381.184 130.727 381.291 130.887 381.371C131.047 381.451 131.261 381.564 131.527 381.711C131.807 381.858 132.014 381.998 132.147 382.131C132.281 382.264 132.434 382.431 132.607 382.631C132.794 382.818 132.927 383.011 133.007 383.211C133.087 383.411 133.154 383.644 133.207 383.911C133.274 384.164 133.307 384.438 133.307 384.731C133.307 385.958 132.861 386.938 131.967 387.671C131.074 388.391 129.907 388.751 128.467 388.751ZM136.784 384.291C136.957 385.184 137.364 385.878 138.004 386.371C138.657 386.864 139.457 387.111 140.404 387.111C141.724 387.111 142.684 386.624 143.284 385.651L144.764 386.491C143.791 387.998 142.324 388.751 140.364 388.751C138.777 388.751 137.484 388.258 136.484 387.271C135.497 386.271 135.004 385.011 135.004 383.491C135.004 381.984 135.491 380.731 136.464 379.731C137.437 378.731 138.697 378.231 140.244 378.231C141.711 378.231 142.904 378.751 143.824 379.791C144.757 380.818 145.224 382.058 145.224 383.511C145.224 383.764 145.204 384.024 145.164 384.291H136.784ZM140.244 379.871C139.311 379.871 138.537 380.138 137.924 380.671C137.311 381.191 136.931 381.891 136.784 382.771H143.464C143.317 381.824 142.944 381.104 142.344 380.611C141.744 380.118 141.044 379.871 140.244 379.871ZM148.964 380.171C149.538 378.931 150.578 378.311 152.084 378.311V380.131C151.231 380.091 150.498 380.318 149.884 380.811C149.271 381.304 148.964 382.098 148.964 383.191V388.491H147.224V378.491H148.964V380.171ZM160.787 378.491H162.667L158.667 388.491H156.627L152.627 378.491H154.507L157.647 386.631L160.787 378.491ZM165.018 376.671C164.685 376.671 164.405 376.558 164.178 376.331C163.952 376.104 163.838 375.831 163.838 375.511C163.838 375.191 163.952 374.918 164.178 374.691C164.405 374.451 164.685 374.331 165.018 374.331C165.338 374.331 165.612 374.451 165.838 374.691C166.065 374.918 166.178 375.191 166.178 375.511C166.178 375.831 166.065 376.104 165.838 376.331C165.612 376.558 165.338 376.671 165.018 376.671ZM164.138 388.491V378.491H165.878V388.491H164.138ZM173.233 388.751C171.726 388.751 170.473 388.251 169.473 387.251C168.473 386.238 167.973 384.984 167.973 383.491C167.973 381.998 168.473 380.751 169.473 379.751C170.473 378.738 171.726 378.231 173.233 378.231C174.22 378.231 175.106 378.471 175.893 378.951C176.68 379.418 177.266 380.051 177.653 380.851L176.193 381.691C175.94 381.158 175.546 380.731 175.013 380.411C174.493 380.091 173.9 379.931 173.233 379.931C172.233 379.931 171.393 380.271 170.713 380.951C170.046 381.631 169.713 382.478 169.713 383.491C169.713 384.491 170.046 385.331 170.713 386.011C171.393 386.691 172.233 387.031 173.233 387.031C173.9 387.031 174.5 386.878 175.033 386.571C175.566 386.251 175.973 385.824 176.253 385.291L177.733 386.151C177.306 386.938 176.693 387.571 175.893 388.051C175.093 388.518 174.206 388.751 173.233 388.751ZM180.534 384.291C180.707 385.184 181.114 385.878 181.754 386.371C182.407 386.864 183.207 387.111 184.154 387.111C185.474 387.111 186.434 386.624 187.034 385.651L188.514 386.491C187.541 387.998 186.074 388.751 184.114 388.751C182.527 388.751 181.234 388.258 180.234 387.271C179.247 386.271 178.754 385.011 178.754 383.491C178.754 381.984 179.241 380.731 180.214 379.731C181.187 378.731 182.447 378.231 183.994 378.231C185.461 378.231 186.654 378.751 187.574 379.791C188.507 380.818 188.974 382.058 188.974 383.511C188.974 383.764 188.954 384.024 188.914 384.291H180.534ZM183.994 379.871C183.061 379.871 182.287 380.138 181.674 380.671C181.061 381.191 180.681 381.891 180.534 382.771H187.214C187.067 381.824 186.694 381.104 186.094 380.611C185.494 380.118 184.794 379.871 183.994 379.871ZM201.234 374.491C202.528 374.491 203.601 374.924 204.454 375.791C205.321 376.644 205.754 377.711 205.754 378.991C205.754 380.258 205.321 381.324 204.454 382.191C203.601 383.058 202.528 383.491 201.234 383.491H198.014V388.491H196.154V374.491H201.234ZM201.234 381.751C202.008 381.751 202.648 381.491 203.154 380.971C203.661 380.438 203.914 379.778 203.914 378.991C203.914 378.191 203.661 377.531 203.154 377.011C202.648 376.491 202.008 376.231 201.234 376.231H198.014V381.751H201.234Z" fill="white"/>
<path d="M67.791 440.26C65.671 440.26 63.9176 439.56 62.531 438.16C61.1576 436.76 60.471 435.04 60.471 433C60.471 430.96 61.1576 429.24 62.531 427.84C63.9176 426.44 65.671 425.74 67.791 425.74C69.071 425.74 70.2443 426.047 71.311 426.66C72.391 427.273 73.231 428.1 73.831 429.14L72.211 430.08C71.811 429.307 71.211 428.693 70.411 428.24C69.6243 427.773 68.751 427.54 67.791 427.54C66.1776 427.54 64.8576 428.06 63.831 429.1C62.8176 430.14 62.311 431.44 62.311 433C62.311 434.547 62.8176 435.84 63.831 436.88C64.8576 437.92 66.1776 438.44 67.791 438.44C68.751 438.44 69.6243 438.213 70.411 437.76C71.211 437.293 71.811 436.68 72.211 435.92L73.831 436.84C73.2443 437.88 72.411 438.713 71.331 439.34C70.251 439.953 69.071 440.26 67.791 440.26ZM84.1585 438.74C83.1318 439.753 81.8851 440.26 80.4185 440.26C78.9518 440.26 77.7051 439.753 76.6785 438.74C75.6651 437.727 75.1585 436.48 75.1585 435C75.1585 433.52 75.6651 432.273 76.6785 431.26C77.7051 430.247 78.9518 429.74 80.4185 429.74C81.8851 429.74 83.1318 430.247 84.1585 431.26C85.1851 432.273 85.6985 433.52 85.6985 435C85.6985 436.48 85.1851 437.727 84.1585 438.74ZM80.4185 438.56C81.4185 438.56 82.2585 438.22 82.9385 437.54C83.6185 436.86 83.9585 436.013 83.9585 435C83.9585 433.987 83.6185 433.14 82.9385 432.46C82.2585 431.78 81.4185 431.44 80.4185 431.44C79.4318 431.44 78.5985 431.78 77.9185 432.46C77.2385 433.14 76.8985 433.987 76.8985 435C76.8985 436.013 77.2385 436.86 77.9185 437.54C78.5985 438.22 79.4318 438.56 80.4185 438.56ZM98.5497 429.74C99.6697 429.74 100.576 430.107 101.27 430.84C101.963 431.56 102.31 432.54 102.31 433.78V440H100.57V433.84C100.57 433.067 100.37 432.467 99.9697 432.04C99.5697 431.613 99.0364 431.4 98.3697 431.4C97.623 431.4 97.023 431.653 96.5697 432.16C96.1297 432.653 95.9097 433.413 95.9097 434.44V440H94.1697V433.84C94.1697 433.067 93.9764 432.467 93.5897 432.04C93.2164 431.613 92.703 431.4 92.0497 431.4C91.3164 431.4 90.703 431.653 90.2097 432.16C89.7297 432.667 89.4897 433.427 89.4897 434.44V440H87.7497V430H89.4897V431.34C90.1697 430.273 91.163 429.74 92.4697 429.74C93.8164 429.74 94.7964 430.307 95.4097 431.44C96.103 430.307 97.1497 429.74 98.5497 429.74ZM115.522 429.74C116.642 429.74 117.549 430.107 118.242 430.84C118.936 431.56 119.282 432.54 119.282 433.78V440H117.542V433.84C117.542 433.067 117.342 432.467 116.942 432.04C116.542 431.613 116.009 431.4 115.342 431.4C114.596 431.4 113.996 431.653 113.542 432.16C113.102 432.653 112.882 433.413 112.882 434.44V440H111.142V433.84C111.142 433.067 110.949 432.467 110.562 432.04C110.189 431.613 109.676 431.4 109.022 431.4C108.289 431.4 107.676 431.653 107.182 432.16C106.702 432.667 106.462 433.427 106.462 434.44V440H104.722V430H106.462V431.34C107.142 430.273 108.136 429.74 109.442 429.74C110.789 429.74 111.769 430.307 112.382 431.44C113.076 430.307 114.122 429.74 115.522 429.74ZM128.595 430H130.335V440H128.595V438.56C127.888 439.693 126.808 440.26 125.355 440.26C124.182 440.26 123.242 439.893 122.535 439.16C121.828 438.413 121.475 437.407 121.475 436.14V430H123.215V436.04C123.215 436.853 123.435 437.487 123.875 437.94C124.315 438.38 124.922 438.6 125.695 438.6C126.562 438.6 127.262 438.333 127.795 437.8C128.328 437.253 128.595 436.42 128.595 435.3V430ZM137.964 429.74C139.137 429.74 140.077 430.113 140.784 430.86C141.491 431.593 141.844 432.593 141.844 433.86V440H140.104V433.96C140.104 433.147 139.884 432.52 139.444 432.08C139.004 431.627 138.397 431.4 137.624 431.4C136.757 431.4 136.057 431.673 135.524 432.22C134.991 432.753 134.724 433.58 134.724 434.7V440H132.984V430H134.724V431.44C135.431 430.307 136.511 429.74 137.964 429.74ZM145.153 428.18C144.82 428.18 144.54 428.067 144.313 427.84C144.086 427.613 143.973 427.34 143.973 427.02C143.973 426.7 144.086 426.427 144.313 426.2C144.54 425.96 144.82 425.84 145.153 425.84C145.473 425.84 145.746 425.96 145.973 426.2C146.2 426.427 146.313 426.7 146.313 427.02C146.313 427.34 146.2 427.613 145.973 427.84C145.746 428.067 145.473 428.18 145.153 428.18ZM144.273 440V430H146.013V440H144.273ZM153.368 440.26C151.861 440.26 150.608 439.76 149.608 438.76C148.608 437.747 148.108 436.493 148.108 435C148.108 433.507 148.608 432.26 149.608 431.26C150.608 430.247 151.861 429.74 153.368 429.74C154.354 429.74 155.241 429.98 156.028 430.46C156.814 430.927 157.401 431.56 157.788 432.36L156.328 433.2C156.074 432.667 155.681 432.24 155.148 431.92C154.628 431.6 154.034 431.44 153.368 431.44C152.368 431.44 151.528 431.78 150.848 432.46C150.181 433.14 149.848 433.987 149.848 435C149.848 436 150.181 436.84 150.848 437.52C151.528 438.2 152.368 438.54 153.368 438.54C154.034 438.54 154.634 438.387 155.168 438.08C155.701 437.76 156.108 437.333 156.388 436.8L157.868 437.66C157.441 438.447 156.828 439.08 156.028 439.56C155.228 440.027 154.341 440.26 153.368 440.26ZM167.729 430H169.469V440H167.729V438.28C166.862 439.6 165.602 440.26 163.949 440.26C162.549 440.26 161.356 439.753 160.369 438.74C159.382 437.713 158.889 436.467 158.889 435C158.889 433.533 159.382 432.293 160.369 431.28C161.356 430.253 162.549 429.74 163.949 429.74C165.602 429.74 166.862 430.4 167.729 431.72V430ZM164.169 438.58C165.182 438.58 166.029 438.24 166.709 437.56C167.389 436.867 167.729 436.013 167.729 435C167.729 433.987 167.389 433.14 166.709 432.46C166.029 431.767 165.182 431.42 164.169 431.42C163.169 431.42 162.329 431.767 161.649 432.46C160.969 433.14 160.629 433.987 160.629 435C160.629 436.013 160.969 436.867 161.649 437.56C162.329 438.24 163.169 438.58 164.169 438.58ZM177.545 431.68H174.885V437.1C174.885 437.593 174.978 437.947 175.165 438.16C175.365 438.36 175.665 438.467 176.065 438.48C176.465 438.48 176.958 438.467 177.545 438.44V440C176.025 440.2 174.912 440.08 174.205 439.64C173.498 439.187 173.145 438.34 173.145 437.1V431.68H171.165V430H173.145V427.72L174.885 427.2V430H177.545V431.68ZM180.485 428.18C180.152 428.18 179.872 428.067 179.645 427.84C179.418 427.613 179.305 427.34 179.305 427.02C179.305 426.7 179.418 426.427 179.645 426.2C179.872 425.96 180.152 425.84 180.485 425.84C180.805 425.84 181.078 425.96 181.305 426.2C181.532 426.427 181.645 426.7 181.645 427.02C181.645 427.34 181.532 427.613 181.305 427.84C181.078 428.067 180.805 428.18 180.485 428.18ZM179.605 440V430H181.345V440H179.605ZM192.44 438.74C191.413 439.753 190.166 440.26 188.7 440.26C187.233 440.26 185.986 439.753 184.96 438.74C183.946 437.727 183.44 436.48 183.44 435C183.44 433.52 183.946 432.273 184.96 431.26C185.986 430.247 187.233 429.74 188.7 429.74C190.166 429.74 191.413 430.247 192.44 431.26C193.466 432.273 193.98 433.52 193.98 435C193.98 436.48 193.466 437.727 192.44 438.74ZM188.7 438.56C189.7 438.56 190.54 438.22 191.22 437.54C191.9 436.86 192.24 436.013 192.24 435C192.24 433.987 191.9 433.14 191.22 432.46C190.54 431.78 189.7 431.44 188.7 431.44C187.713 431.44 186.88 431.78 186.2 432.46C185.52 433.14 185.18 433.987 185.18 435C185.18 436.013 185.52 436.86 186.2 437.54C186.88 438.22 187.713 438.56 188.7 438.56ZM201.011 429.74C202.184 429.74 203.124 430.113 203.831 430.86C204.538 431.593 204.891 432.593 204.891 433.86V440H203.151V433.96C203.151 433.147 202.931 432.52 202.491 432.08C202.051 431.627 201.444 431.4 200.671 431.4C199.804 431.4 199.104 431.673 198.571 432.22C198.038 432.753 197.771 433.58 197.771 434.7V440H196.031V430H197.771V431.44C198.478 430.307 199.558 429.74 201.011 429.74Z" fill="white"/>
<path d="M143.629 478.887H137.429V483.427H143.369V485.187H137.429V491.127H135.569V477.127H143.629V478.887ZM146.581 479.307C146.248 479.307 145.968 479.194 145.741 478.967C145.514 478.741 145.401 478.467 145.401 478.147C145.401 477.827 145.514 477.554 145.741 477.327C145.968 477.087 146.248 476.967 146.581 476.967C146.901 476.967 147.174 477.087 147.401 477.327C147.628 477.554 147.741 477.827 147.741 478.147C147.741 478.467 147.628 478.741 147.401 478.967C147.174 479.194 146.901 479.307 146.581 479.307ZM145.701 491.127V481.127H147.441V491.127H145.701ZM155.076 480.867C156.249 480.867 157.189 481.241 157.896 481.987C158.602 482.721 158.956 483.721 158.956 484.987V491.127H157.216V485.087C157.216 484.274 156.996 483.647 156.556 483.207C156.116 482.754 155.509 482.527 154.736 482.527C153.869 482.527 153.169 482.801 152.636 483.347C152.102 483.881 151.836 484.707 151.836 485.827V491.127H150.096V481.127H151.836V482.567C152.542 481.434 153.622 480.867 155.076 480.867ZM169.665 481.127H171.405V491.127H169.665V489.407C168.798 490.727 167.538 491.387 165.885 491.387C164.485 491.387 163.291 490.881 162.305 489.867C161.318 488.841 160.825 487.594 160.825 486.127C160.825 484.661 161.318 483.421 162.305 482.407C163.291 481.381 164.485 480.867 165.885 480.867C167.538 480.867 168.798 481.527 169.665 482.847V481.127ZM166.105 489.707C167.118 489.707 167.965 489.367 168.645 488.687C169.325 487.994 169.665 487.141 169.665 486.127C169.665 485.114 169.325 484.267 168.645 483.587C167.965 482.894 167.118 482.547 166.105 482.547C165.105 482.547 164.265 482.894 163.585 483.587C162.905 484.267 162.565 485.114 162.565 486.127C162.565 487.141 162.905 487.994 163.585 488.687C164.265 489.367 165.105 489.707 166.105 489.707ZM179.021 480.867C180.194 480.867 181.134 481.241 181.841 481.987C182.548 482.721 182.901 483.721 182.901 484.987V491.127H181.161V485.087C181.161 484.274 180.941 483.647 180.501 483.207C180.061 482.754 179.454 482.527 178.681 482.527C177.814 482.527 177.114 482.801 176.581 483.347C176.048 483.881 175.781 484.707 175.781 485.827V491.127H174.041V481.127H175.781V482.567C176.488 481.434 177.568 480.867 179.021 480.867ZM190.03 491.387C188.523 491.387 187.27 490.887 186.27 489.887C185.27 488.874 184.77 487.621 184.77 486.127C184.77 484.634 185.27 483.387 186.27 482.387C187.27 481.374 188.523 480.867 190.03 480.867C191.017 480.867 191.903 481.107 192.69 481.587C193.477 482.054 194.063 482.687 194.45 483.487L192.99 484.327C192.737 483.794 192.343 483.367 191.81 483.047C191.29 482.727 190.697 482.567 190.03 482.567C189.03 482.567 188.19 482.907 187.51 483.587C186.843 484.267 186.51 485.114 186.51 486.127C186.51 487.127 186.843 487.967 187.51 488.647C188.19 489.327 189.03 489.667 190.03 489.667C190.697 489.667 191.297 489.514 191.83 489.207C192.363 488.887 192.77 488.461 193.05 487.927L194.53 488.787C194.103 489.574 193.49 490.207 192.69 490.687C191.89 491.154 191.003 491.387 190.03 491.387ZM197.331 486.927C197.504 487.821 197.911 488.514 198.551 489.007C199.204 489.501 200.004 489.747 200.951 489.747C202.271 489.747 203.231 489.261 203.831 488.287L205.311 489.127C204.338 490.634 202.871 491.387 200.911 491.387C199.324 491.387 198.031 490.894 197.031 489.907C196.044 488.907 195.551 487.647 195.551 486.127C195.551 484.621 196.038 483.367 197.011 482.367C197.984 481.367 199.244 480.867 200.791 480.867C202.258 480.867 203.451 481.387 204.371 482.427C205.304 483.454 205.771 484.694 205.771 486.147C205.771 486.401 205.751 486.661 205.711 486.927H197.331ZM200.791 482.507C199.858 482.507 199.084 482.774 198.471 483.307C197.858 483.827 197.478 484.527 197.331 485.407H204.011C203.864 484.461 203.491 483.741 202.891 483.247C202.291 482.754 201.591 482.507 200.791 482.507Z" fill="white"/>
<path d="M121.339 528V529.76H117.199L117.199 542H115.359L115.359 529.76H111.239V528H121.339ZM122.403 537.8C122.577 538.693 122.983 539.387 123.623 539.88C124.277 540.373 125.077 540.62 126.023 540.62C127.343 540.62 128.303 540.133 128.903 539.16L130.383 540C129.41 541.507 127.943 542.26 125.983 542.26C124.397 542.26 123.103 541.767 122.103 540.78C121.117 539.78 120.623 538.52 120.623 537C120.623 535.493 121.11 534.24 122.083 533.24C123.057 532.24 124.317 531.74 125.863 531.74C127.33 531.74 128.523 532.26 129.443 533.3C130.377 534.327 130.843 535.567 130.843 537.02C130.843 537.273 130.823 537.533 130.783 537.8H122.403ZM125.863 533.38C124.93 533.38 124.157 533.647 123.543 534.18C122.93 534.7 122.55 535.4 122.403 536.28H129.083C128.937 535.333 128.563 534.613 127.963 534.12C127.363 533.627 126.663 533.38 125.863 533.38ZM137.524 542.26C136.017 542.26 134.764 541.76 133.764 540.76C132.764 539.747 132.264 538.493 132.264 537C132.264 535.507 132.764 534.26 133.764 533.26C134.764 532.247 136.017 531.74 137.524 531.74C138.511 531.74 139.397 531.98 140.184 532.46C140.971 532.927 141.557 533.56 141.944 534.36L140.484 535.2C140.231 534.667 139.837 534.24 139.304 533.92C138.784 533.6 138.191 533.44 137.524 533.44C136.524 533.44 135.684 533.78 135.004 534.46C134.337 535.14 134.004 535.987 134.004 537C134.004 538 134.337 538.84 135.004 539.52C135.684 540.2 136.524 540.54 137.524 540.54C138.191 540.54 138.791 540.387 139.324 540.08C139.857 539.76 140.264 539.333 140.544 538.8L142.024 539.66C141.597 540.447 140.984 541.08 140.184 541.56C139.384 542.027 138.497 542.26 137.524 542.26ZM148.722 531.74C149.895 531.74 150.835 532.113 151.542 532.86C152.249 533.593 152.602 534.593 152.602 535.86V542H150.862V535.96C150.862 535.147 150.642 534.52 150.202 534.08C149.762 533.627 149.155 533.4 148.382 533.4C147.515 533.4 146.815 533.673 146.282 534.22C145.749 534.753 145.482 535.58 145.482 536.7V542H143.742V528H145.482V533.44C146.189 532.307 147.269 531.74 148.722 531.74ZM160.011 531.74C161.184 531.74 162.124 532.113 162.831 532.86C163.538 533.593 163.891 534.593 163.891 535.86V542H162.151V535.96C162.151 535.147 161.931 534.52 161.491 534.08C161.051 533.627 160.444 533.4 159.671 533.4C158.804 533.4 158.104 533.673 157.571 534.22C157.038 534.753 156.771 535.58 156.771 536.7V542H155.031V532H156.771V533.44C157.478 532.307 158.558 531.74 160.011 531.74ZM167.2 530.18C166.867 530.18 166.587 530.067 166.36 529.84C166.133 529.613 166.02 529.34 166.02 529.02C166.02 528.7 166.133 528.427 166.36 528.2C166.587 527.96 166.867 527.84 167.2 527.84C167.52 527.84 167.793 527.96 168.02 528.2C168.247 528.427 168.36 528.7 168.36 529.02C168.36 529.34 168.247 529.613 168.02 529.84C167.793 530.067 167.52 530.18 167.2 530.18ZM166.32 542V532H168.06V542H166.32ZM178.995 532H180.735V546H178.995V540.28C178.128 541.6 176.868 542.26 175.215 542.26C173.815 542.26 172.621 541.753 171.635 540.74C170.648 539.713 170.155 538.467 170.155 537C170.155 535.533 170.648 534.293 171.635 533.28C172.621 532.253 173.815 531.74 175.215 531.74C176.868 531.74 178.128 532.4 178.995 533.72V532ZM175.435 540.58C176.448 540.58 177.295 540.24 177.975 539.56C178.655 538.867 178.995 538.013 178.995 537C178.995 535.987 178.655 535.14 177.975 534.46C177.295 533.767 176.448 533.42 175.435 533.42C174.435 533.42 173.595 533.767 172.915 534.46C172.235 535.14 171.895 535.987 171.895 537C171.895 538.013 172.235 538.867 172.915 539.56C173.595 540.24 174.435 540.58 175.435 540.58ZM190.271 532H192.011V542H190.271V540.56C189.564 541.693 188.484 542.26 187.031 542.26C185.857 542.26 184.917 541.893 184.211 541.16C183.504 540.413 183.151 539.407 183.151 538.14V532H184.891V538.04C184.891 538.853 185.111 539.487 185.551 539.94C185.991 540.38 186.597 540.6 187.371 540.6C188.237 540.6 188.937 540.333 189.471 539.8C190.004 539.253 190.271 538.42 190.271 537.3V532ZM195.88 537.8C196.053 538.693 196.46 539.387 197.1 539.88C197.753 540.373 198.553 540.62 199.5 540.62C200.82 540.62 201.78 540.133 202.38 539.16L203.86 540C202.887 541.507 201.42 542.26 199.46 542.26C197.873 542.26 196.58 541.767 195.58 540.78C194.593 539.78 194.1 538.52 194.1 537C194.1 535.493 194.587 534.24 195.56 533.24C196.533 532.24 197.793 531.74 199.34 531.74C200.807 531.74 202 532.26 202.92 533.3C203.853 534.327 204.32 535.567 204.32 537.02C204.32 537.273 204.3 537.533 204.26 537.8H195.88ZM199.34 533.38C198.407 533.38 197.633 533.647 197.02 534.18C196.407 534.7 196.027 535.4 195.88 536.28H202.56C202.413 535.333 202.04 534.613 201.44 534.12C200.84 533.627 200.14 533.38 199.34 533.38Z" fill="white"/>
<defs>
<linearGradient id="paint0_linear_15_36" x1="218" y1="319.66" x2="219" y2="319.66" gradientUnits="userSpaceOnUse">
<stop stop-color="#1C293D"/>
<stop offset="1" stop-color="#1C293D" stop-opacity="0"/>
</linearGradient>
<linearGradient id="paint1_linear_15_36" x1="356" y1="319.66" x2="357" y2="319.66" gradientUnits="userSpaceOnUse">
<stop stop-color="#1C293D"/>
<stop offset="1" stop-color="#1C293D" stop-opacity="0"/>
</linearGradient>
<linearGradient id="paint2_linear_15_36" x1="919" y1="319.66" x2="920" y2="319.66" gradientUnits="userSpaceOnUse">
<stop stop-color="#1C293D"/>
<stop offset="1" stop-color="#1C293D" stop-opacity="0"/>
</linearGradient>
<linearGradient id="paint3_linear_15_36" x1="776" y1="319.66" x2="777" y2="319.66" gradientUnits="userSpaceOnUse">
<stop stop-color="#1C293D"/>
<stop offset="1" stop-color="#1C293D" stop-opacity="0"/>
</linearGradient>
<linearGradient id="paint4_linear_15_36" x1="636" y1="319.66" x2="637" y2="319.66" gradientUnits="userSpaceOnUse">
<stop stop-color="#1C293D"/>
<stop offset="1" stop-color="#1C293D" stop-opacity="0"/>
</linearGradient>
<linearGradient id="paint5_linear_15_36" x1="492" y1="319.66" x2="493" y2="319.66" gradientUnits="userSpaceOnUse">
<stop stop-color="#1C293D"/>
<stop offset="1" stop-color="#1C293D" stop-opacity="0"/>
</linearGradient>
<linearGradient id="paint6_linear_15_36" x1="335" y1="76.5" x2="217" y2="76.5" gradientUnits="userSpaceOnUse">
<stop stop-color="#E7119E"/>
<stop offset="1" stop-color="#2779D7"/>
</linearGradient>
<linearGradient id="paint7_linear_15_36" x1="426" y1="128" x2="217" y2="128" gradientUnits="userSpaceOnUse">
<stop stop-color="#E7119E"/>
<stop offset="1" stop-color="#2779D7"/>
</linearGradient>
<linearGradient id="paint8_linear_15_36" x1="426" y1="179" x2="217" y2="179" gradientUnits="userSpaceOnUse">
<stop stop-color="#E7119E"/>
<stop offset="1" stop-color="#2779D7"/>
</linearGradient>
<linearGradient id="paint9_linear_15_36" x1="488" y1="282" x2="218" y2="282" gradientUnits="userSpaceOnUse">
<stop stop-color="#E7119E"/>
<stop offset="1" stop-color="#2779D7"/>
</linearGradient>
<linearGradient id="paint10_linear_15_36" x1="695" y1="333" x2="217" y2="333" gradientUnits="userSpaceOnUse">
<stop stop-color="#E7119E"/>
<stop offset="1" stop-color="#2779D7"/>
</linearGradient>
<linearGradient id="paint11_linear_15_36" x1="567" y1="436" x2="217" y2="436" gradientUnits="userSpaceOnUse">
<stop stop-color="#E7119E"/>
<stop offset="1" stop-color="#2779D7"/>
</linearGradient>
<linearGradient id="paint12_linear_15_36" x1="902" y1="538" x2="217" y2="538" gradientUnits="userSpaceOnUse">
<stop stop-color="#E7119E"/>
<stop offset="1" stop-color="#2779D7"/>
</linearGradient>
<linearGradient id="paint13_linear_15_36" x1="756" y1="487" x2="217" y2="487" gradientUnits="userSpaceOnUse">
<stop stop-color="#E7119E"/>
<stop offset="1" stop-color="#2779D7"/>
</linearGradient>
<linearGradient id="paint14_linear_15_36" x1="426" y1="384" x2="217" y2="384" gradientUnits="userSpaceOnUse">
<stop stop-color="#E7119E"/>
<stop offset="1" stop-color="#2779D7"/>
</linearGradient>
<linearGradient id="paint15_linear_15_36" x1="542" y1="230" x2="217" y2="230" gradientUnits="userSpaceOnUse">
<stop stop-color="#E7119E"/>
<stop offset="1" stop-color="#2779D7"/>
</linearGradient>
<linearGradient id="paint16_linear_15_36" x1="389" y1="25" x2="218" y2="25" gradientUnits="userSpaceOnUse">
<stop stop-color="#E7119E"/>
<stop offset="1" stop-color="#2779D7"/>
</linearGradient>
</defs>
</svg>
