<svg width="883" height="703" viewBox="0 0 883 703" fill="none" xmlns="http://www.w3.org/2000/svg">
<path d="M155 637.319L155 1.99999" stroke="#1C293D" stroke-width="3" stroke-linecap="round"/>
<path d="M293 637.319L293 1.99999" stroke="#1C293D" stroke-width="3" stroke-linecap="round"/>
<path d="M856 637.319V1.99999" stroke="#1C293D" stroke-width="3" stroke-linecap="round"/>
<path d="M713 637.319V1.99999" stroke="#1C293D" stroke-width="3" stroke-linecap="round"/>
<path d="M573 637.319V1.99999" stroke="#1C293D" stroke-width="3" stroke-linecap="round"/>
<path d="M429 637.319L429 1.99999" stroke="#1C293D" stroke-width="3" stroke-linecap="round"/>
<path d="M428.907 53.3182C441.661 53.3182 452 63.6574 452 76.4114C452 89.1654 441.661 99.5046 428.907 99.5046L154 99.5046V53.3182L428.907 53.3182Z" fill="url(#paint0_linear_15_2)"/>
<path d="M428.907 53.3182C441.661 53.3182 452 63.6574 452 76.4114C452 89.1654 441.661 99.5046 428.907 99.5046L154 99.5046V53.3182L428.907 53.3182Z" fill="url(#paint1_linear_15_2)"/>
<path d="M585.907 104.636C598.661 104.636 609 114.976 609 127.73C609 140.484 598.661 150.823 585.907 150.823L154 150.823V104.636L585.907 104.636Z" fill="url(#paint2_linear_15_2)"/>
<path d="M585.907 104.636C598.661 104.636 609 114.976 609 127.73C609 140.484 598.661 150.823 585.907 150.823L154 150.823V104.636L585.907 104.636Z" fill="url(#paint3_linear_15_2)"/>
<path d="M388.907 155.955C401.661 155.955 412 166.294 412 179.048C412 191.802 401.661 202.141 388.907 202.141L154 202.141V155.955L388.907 155.955Z" fill="url(#paint4_linear_15_2)"/>
<path d="M388.907 155.955C401.661 155.955 412 166.294 412 179.048C412 191.802 401.661 202.141 388.907 202.141L154 202.141V155.955L388.907 155.955Z" fill="url(#paint5_linear_15_2)"/>
<path d="M772.907 258.591C785.661 258.591 796 268.93 796 281.684C796 294.438 785.661 304.777 772.907 304.777L155 304.777V258.591L772.907 258.591Z" fill="url(#paint6_linear_15_2)"/>
<path d="M772.907 258.591C785.661 258.591 796 268.93 796 281.684C796 294.438 785.661 304.777 772.907 304.777L155 304.777V258.591L772.907 258.591Z" fill="url(#paint7_linear_15_2)"/>
<path d="M513.907 309.909C526.661 309.909 537 320.248 537 333.002C537 345.756 526.661 356.096 513.907 356.096L154 356.096V309.909L513.907 309.909Z" fill="url(#paint8_linear_15_2)"/>
<path d="M513.907 309.909C526.661 309.909 537 320.248 537 333.002C537 345.756 526.661 356.096 513.907 356.096L154 356.096V309.909L513.907 309.909Z" fill="url(#paint9_linear_15_2)"/>
<path d="M623.907 412.546C636.661 412.546 647 422.885 647 435.639C647 448.393 636.661 458.732 623.907 458.732L154 458.732V412.546L623.907 412.546Z" fill="url(#paint10_linear_15_2)"/>
<path d="M623.907 412.546C636.661 412.546 647 422.885 647 435.639C647 448.393 636.661 458.732 623.907 458.732L154 458.732V412.546L623.907 412.546Z" fill="url(#paint11_linear_15_2)"/>
<path d="M457.907 515.182C470.661 515.182 481 525.521 481 538.275C481 551.029 470.661 561.368 457.907 561.368L154 561.368V515.182L457.907 515.182Z" fill="url(#paint12_linear_15_2)"/>
<path d="M457.907 515.182C470.661 515.182 481 525.521 481 538.275C481 551.029 470.661 561.368 457.907 561.368L154 561.368V515.182L457.907 515.182Z" fill="url(#paint13_linear_15_2)"/>
<path d="M397.907 463.864C410.661 463.864 421 474.203 421 486.957C421 499.711 410.661 510.05 397.907 510.05L154 510.05V463.864L397.907 463.864Z" fill="url(#paint14_linear_15_2)"/>
<path d="M397.907 463.864C410.661 463.864 421 474.203 421 486.957C421 499.711 410.661 510.05 397.907 510.05L154 510.05V463.864L397.907 463.864Z" fill="url(#paint15_linear_15_2)"/>
<path d="M438.907 361.227C451.661 361.227 462 371.566 462 384.32C462 397.075 451.661 407.414 438.907 407.414L154 407.414V361.227L438.907 361.227Z" fill="url(#paint16_linear_15_2)"/>
<path d="M438.907 361.227C451.661 361.227 462 371.566 462 384.32C462 397.075 451.661 407.414 438.907 407.414L154 407.414V361.227L438.907 361.227Z" fill="url(#paint17_linear_15_2)"/>
<path d="M486.907 207.273C499.661 207.273 510 217.612 510 230.366C510 243.12 499.661 253.459 486.907 253.459L154 253.459V207.273L486.907 207.273Z" fill="url(#paint18_linear_15_2)"/>
<path d="M486.907 207.273C499.661 207.273 510 217.612 510 230.366C510 243.12 499.661 253.459 486.907 253.459L154 253.459V207.273L486.907 207.273Z" fill="url(#paint19_linear_15_2)"/>
<path d="M552.907 2C565.661 2 576 12.3392 576 25.0932C576 37.8472 565.661 48.1864 552.907 48.1864L155 48.1864V2L552.907 2Z" fill="url(#paint20_linear_15_2)"/>
<path d="M287.782 681.111L286.462 679.442L287.251 669.307C287.485 666.628 287.191 664.768 286.369 663.729C285.686 662.865 284.903 662.415 284.019 662.378C283.135 662.342 282.331 662.647 281.606 663.292C280.226 664.521 279.766 666.104 280.227 668.039L277.798 668.481C277.47 667.075 277.508 665.756 277.912 664.524C278.329 663.279 279.032 662.216 280.022 661.334C281.249 660.242 282.651 659.716 284.228 659.759C285.806 659.801 287.162 660.54 288.296 661.975C289.524 663.527 289.989 665.994 289.694 669.377L289.042 676.62L295.67 670.717L297.233 672.694L287.782 681.111ZM307.106 660.682C307.262 663.013 306.448 664.973 304.664 666.562C302.879 668.151 300.919 668.662 298.784 668.093C296.648 667.525 294.625 666.033 292.715 663.617C290.805 661.201 289.772 658.827 289.615 656.496C289.459 654.165 290.273 652.204 292.057 650.615C293.841 649.026 295.801 648.516 297.937 649.084C300.073 649.652 302.096 651.144 304.006 653.561C305.916 655.977 306.949 658.35 307.106 660.682ZM299.112 665.443C300.575 665.912 301.899 665.619 303.084 664.563C304.268 663.508 304.771 662.175 304.59 660.564C304.423 658.941 303.587 657.178 302.082 655.274C300.577 653.37 299.086 652.19 297.609 651.734C296.135 651.251 294.805 651.537 293.62 652.592C292.435 653.647 291.933 654.981 292.114 656.591C292.294 658.202 293.143 659.967 294.659 661.885C296.164 663.789 297.648 664.975 299.112 665.443Z" fill="white"/>
<path d="M548.799 669.316L550.472 667.826L562.627 683.202L560.703 684.915L550.284 671.736L547.933 675.477L546.063 674.148L548.799 669.316ZM565.02 681.07L563.7 679.401L564.489 669.266C564.723 666.587 564.429 664.728 563.607 663.688C562.924 662.824 562.14 662.374 561.257 662.338C560.373 662.302 559.568 662.606 558.844 663.252C557.464 664.481 557.004 666.063 557.465 667.998L555.035 668.44C554.708 667.035 554.746 665.716 555.149 664.483C555.567 663.238 556.27 662.175 557.26 661.294C558.487 660.201 559.889 659.676 561.466 659.718C563.044 659.761 564.4 660.499 565.534 661.934C566.761 663.487 567.227 665.954 566.932 669.336L566.28 676.579L572.908 670.676L574.471 672.653L565.02 681.07ZM584.343 660.641C584.5 662.972 583.686 664.932 581.901 666.522C580.117 668.111 578.157 668.621 576.021 668.053C573.886 667.485 571.863 665.992 569.953 663.576C568.043 661.16 567.009 658.786 566.853 656.455C566.697 654.124 567.511 652.164 569.295 650.575C571.079 648.986 573.039 648.475 575.175 649.043C577.311 649.612 579.334 651.104 581.244 653.52C583.154 655.936 584.187 658.31 584.343 660.641ZM576.349 665.403C577.812 665.871 579.136 665.578 580.321 664.523C581.506 663.467 582.008 662.134 581.827 660.524C581.661 658.9 580.825 657.137 579.32 655.233C577.815 653.33 576.324 652.15 574.847 651.694C573.372 651.21 572.042 651.496 570.858 652.552C569.673 653.607 569.171 654.94 569.351 656.551C569.532 658.162 570.381 659.926 571.897 661.844C573.402 663.748 574.886 664.934 576.349 665.403Z" fill="white"/>
<path d="M689.009 668.289L690.682 666.8L702.837 682.175L700.914 683.889L690.495 670.709L688.144 674.451L686.273 673.122L689.009 668.289ZM702.149 665.645C703.613 664.341 705.201 663.751 706.913 663.873C708.613 663.98 710.065 664.796 711.269 666.319C712.473 667.842 712.983 669.508 712.799 671.319C712.615 673.13 711.792 674.687 710.328 675.991C708.85 677.307 707.256 677.903 705.544 677.781C703.846 677.646 702.395 676.818 701.191 675.295C700.253 674.109 699.735 672.823 699.638 671.437L698.491 659.845L700.707 657.871L701.494 666.303C701.777 666.001 701.996 665.781 702.149 665.645ZM705.83 675.168C706.878 675.233 707.862 674.855 708.782 674.036C709.702 673.216 710.217 672.259 710.325 671.164C710.436 670.043 710.109 668.998 709.345 668.032C708.581 667.065 707.675 666.55 706.626 666.486C705.592 666.409 704.615 666.78 703.695 667.6C702.761 668.432 702.239 669.395 702.131 670.49C702.023 671.584 702.35 672.615 703.114 673.581C703.878 674.548 704.783 675.077 705.83 675.168ZM724.983 659.233C725.139 661.564 724.325 663.524 722.541 665.113C720.756 666.702 718.796 667.213 716.661 666.645C714.525 666.076 712.502 664.584 710.592 662.168C708.682 659.752 707.649 657.378 707.492 655.047C707.336 652.716 708.15 650.756 709.934 649.167C711.718 647.577 713.678 647.067 715.814 647.635C717.95 648.203 719.973 649.696 721.883 652.112C723.793 654.528 724.826 656.902 724.983 659.233ZM716.989 663.994C718.452 664.463 719.776 664.17 720.961 663.114C722.145 662.059 722.647 660.726 722.467 659.115C722.3 657.492 721.464 655.729 719.959 653.825C718.454 651.921 716.963 650.742 715.486 650.285C714.012 649.802 712.682 650.088 711.497 651.143C710.312 652.199 709.81 653.532 709.991 655.142C710.171 656.753 711.02 658.518 712.536 660.436C714.041 662.34 715.525 663.526 716.989 663.994Z" fill="white"/>
<path d="M834.257 694.962L832.937 693.292L833.726 683.157C833.96 680.479 833.666 678.619 832.844 677.58C832.161 676.716 831.377 676.266 830.494 676.229C829.61 676.193 828.805 676.498 828.081 677.143C826.701 678.372 826.241 679.954 826.702 681.89L824.272 682.332C823.945 680.926 823.983 679.607 824.386 678.375C824.804 677.13 825.507 676.066 826.497 675.185C827.723 674.092 829.126 673.567 830.703 673.61C832.281 673.652 833.637 674.391 834.771 675.826C835.998 677.378 836.464 679.845 836.169 683.228L835.517 690.471L842.145 684.568L843.708 686.544L834.257 694.962ZM853.58 674.533C853.737 676.864 852.923 678.824 851.138 680.413C849.354 682.002 847.394 682.513 845.258 681.944C843.123 681.376 841.1 679.884 839.19 677.468C837.279 675.052 836.246 672.678 836.09 670.347C835.934 668.015 836.747 666.055 838.532 664.466C840.316 662.877 842.276 662.367 844.412 662.935C846.548 663.503 848.57 664.995 850.481 667.412C852.391 669.828 853.424 672.201 853.58 674.533ZM845.586 679.294C847.049 679.763 848.373 679.469 849.558 678.414C850.743 677.359 851.245 676.026 851.064 674.415C850.898 672.792 850.062 671.028 848.557 669.125C847.052 667.221 845.561 666.041 844.084 665.585C842.609 665.102 841.279 665.388 840.095 666.443C838.91 667.498 838.408 668.831 838.588 670.442C838.769 672.053 839.618 673.818 841.134 675.736C842.639 677.639 844.123 678.826 845.586 679.294ZM866.751 662.802C866.907 665.134 866.093 667.094 864.309 668.683C862.524 670.272 860.564 670.783 858.429 670.214C856.293 669.646 854.27 668.154 852.36 665.738C850.45 663.321 849.417 660.948 849.26 658.617C849.104 656.285 849.918 654.325 851.702 652.736C853.486 651.147 855.446 650.637 857.582 651.205C859.718 651.773 861.741 653.265 863.651 655.681C865.561 658.098 866.594 660.471 866.751 662.802ZM858.757 667.564C860.22 668.033 861.544 667.739 862.729 666.684C863.913 665.629 864.416 664.296 864.235 662.685C864.068 661.062 863.232 659.298 861.727 657.395C860.222 655.491 858.731 654.311 857.254 653.855C855.78 653.372 854.45 653.658 853.265 654.713C852.08 655.768 851.578 657.101 851.759 658.712C851.939 660.323 852.788 662.087 854.304 664.006C855.809 665.909 857.293 667.096 858.757 667.564Z" fill="white"/>
<path d="M421.749 668.944C422.761 668.692 423.724 668.708 424.638 668.992C425.551 669.276 426.332 669.829 426.98 670.649C428.092 672.054 428.499 673.576 428.201 675.213C427.893 676.836 426.999 678.305 425.522 679.621C424.058 680.924 422.547 681.597 420.988 681.638C419.417 681.664 418.076 680.975 416.965 679.569C416.317 678.749 415.94 677.837 415.835 676.832C415.73 675.828 415.882 674.819 416.292 673.805C414.468 674.082 412.983 673.495 411.837 672.046C410.737 670.655 410.331 669.195 410.619 667.666C410.909 666.11 411.675 664.779 412.915 663.674C414.17 662.557 415.537 661.988 417.017 661.967C418.5 661.919 419.791 662.591 420.891 663.982C422.037 665.432 422.323 667.086 421.749 668.944ZM414.461 665.629C413.722 666.287 413.264 667.044 413.086 667.901C412.922 668.746 413.159 669.571 413.795 670.376C414.409 671.152 415.14 671.537 415.989 671.529C416.827 671.507 417.608 671.173 418.333 670.527C419.058 669.882 419.503 669.123 419.669 668.251C419.824 667.365 419.594 666.534 418.981 665.758C418.344 664.953 417.62 664.562 416.808 664.587C415.996 664.611 415.213 664.959 414.461 665.629ZM423.976 677.666C424.91 676.834 425.477 675.943 425.675 674.992C425.876 674.015 425.636 673.094 424.953 672.23C424.281 671.381 423.48 670.984 422.55 671.039C421.622 671.067 420.691 671.497 419.757 672.328C418.837 673.148 418.276 674.046 418.075 675.024C417.877 675.974 418.113 676.874 418.784 677.724C419.467 678.588 420.273 679.006 421.201 678.978C422.131 678.923 423.056 678.485 423.976 677.666ZM440.356 662.703C440.513 665.034 439.699 666.994 437.915 668.584C436.13 670.173 434.17 670.683 432.034 670.115C429.899 669.547 427.876 668.054 425.966 665.638C424.056 663.222 423.022 660.848 422.866 658.517C422.71 656.186 423.524 654.226 425.308 652.637C427.092 651.048 429.052 650.537 431.188 651.105C433.324 651.674 435.347 653.166 437.257 655.582C439.167 657.998 440.2 660.372 440.356 662.703ZM432.362 667.465C433.825 667.933 435.149 667.64 436.334 666.585C437.519 665.529 438.021 664.196 437.841 662.586C437.674 660.962 436.838 659.199 435.333 657.295C433.828 655.392 432.337 654.212 430.86 653.756C429.385 653.272 428.056 653.558 426.871 654.614C425.686 655.669 425.184 657.002 425.364 658.613C425.545 660.223 426.394 661.988 427.91 663.906C429.415 665.81 430.899 666.996 432.362 667.465Z" fill="white"/>
<path d="M52.8523 34.3955L51.7123 31.2555H45.4123L44.2723 34.3955H42.2923L47.5123 20.3955H49.6123L54.8323 34.3955H52.8523ZM46.0523 29.5155H51.0723L48.5523 22.6155L46.0523 29.5155ZM64.3695 24.3955H66.0895V33.9755C66.0895 35.4555 65.5895 36.6022 64.5895 37.4155C63.5895 38.2422 62.3895 38.6555 60.9895 38.6555C59.8695 38.6555 58.9028 38.4422 58.0895 38.0155C57.2762 37.6022 56.6628 37.0022 56.2495 36.2155L57.7695 35.3555C58.3162 36.4755 59.4028 37.0355 61.0295 37.0355C62.0695 37.0355 62.8828 36.7622 63.4695 36.2155C64.0695 35.6688 64.3695 34.9222 64.3695 33.9755V32.5555C63.4895 33.8888 62.2362 34.5555 60.6095 34.5555C59.1828 34.5555 57.9762 34.0488 56.9895 33.0355C56.0028 32.0222 55.5095 30.7888 55.5095 29.3355C55.5095 27.8822 56.0028 26.6555 56.9895 25.6555C57.9762 24.6422 59.1828 24.1355 60.6095 24.1355C62.2495 24.1355 63.5028 24.7955 64.3695 26.1155V24.3955ZM58.2695 31.8755C58.9495 32.5555 59.7962 32.8955 60.8095 32.8955C61.8228 32.8955 62.6695 32.5555 63.3495 31.8755C64.0295 31.1955 64.3695 30.3488 64.3695 29.3355C64.3695 28.3355 64.0295 27.4955 63.3495 26.8155C62.6695 26.1355 61.8228 25.7955 60.8095 25.7955C59.7962 25.7955 58.9495 26.1355 58.2695 26.8155C57.5895 27.4955 57.2495 28.3355 57.2495 29.3355C57.2495 30.3488 57.5895 31.1955 58.2695 31.8755ZM70.4658 26.0755C71.0391 24.8355 72.0791 24.2155 73.5858 24.2155V26.0355C72.7324 25.9955 71.9991 26.2222 71.3858 26.7155C70.7724 27.2088 70.4658 28.0022 70.4658 29.0955V34.3955H68.7258V24.3955H70.4658V26.0755ZM76.1683 22.5755C75.8349 22.5755 75.5549 22.4622 75.3283 22.2355C75.1016 22.0088 74.9883 21.7355 74.9883 21.4155C74.9883 21.0955 75.1016 20.8222 75.3283 20.5955C75.5549 20.3555 75.8349 20.2355 76.1683 20.2355C76.4883 20.2355 76.7616 20.3555 76.9883 20.5955C77.2149 20.8222 77.3283 21.0955 77.3283 21.4155C77.3283 21.7355 77.2149 22.0088 76.9883 22.2355C76.7616 22.4622 76.4883 22.5755 76.1683 22.5755ZM75.2883 34.3955V24.3955H77.0283V34.3955H75.2883ZM84.3828 34.6555C82.8761 34.6555 81.6228 34.1555 80.6228 33.1555C79.6228 32.1422 79.1228 30.8888 79.1228 29.3955C79.1228 27.9022 79.6228 26.6555 80.6228 25.6555C81.6228 24.6422 82.8761 24.1355 84.3828 24.1355C85.3695 24.1355 86.2561 24.3755 87.0428 24.8555C87.8295 25.3222 88.4161 25.9555 88.8028 26.7555L87.3428 27.5955C87.0895 27.0622 86.6961 26.6355 86.1628 26.3155C85.6428 25.9955 85.0495 25.8355 84.3828 25.8355C83.3828 25.8355 82.5428 26.1755 81.8628 26.8555C81.1961 27.5355 80.8628 28.3822 80.8628 29.3955C80.8628 30.3955 81.1961 31.2355 81.8628 31.9155C82.5428 32.5955 83.3828 32.9355 84.3828 32.9355C85.0495 32.9355 85.6495 32.7822 86.1828 32.4755C86.7161 32.1555 87.1228 31.7288 87.4028 31.1955L88.8828 32.0555C88.4561 32.8422 87.8428 33.4755 87.0428 33.9555C86.2428 34.4222 85.3561 34.6555 84.3828 34.6555ZM97.5203 24.3955H99.2603V34.3955H97.5203V32.9555C96.8136 34.0888 95.7336 34.6555 94.2803 34.6555C93.107 34.6555 92.167 34.2888 91.4603 33.5555C90.7536 32.8088 90.4003 31.8022 90.4003 30.5355V24.3955H92.1403V30.4355C92.1403 31.2488 92.3603 31.8822 92.8003 32.3355C93.2403 32.7755 93.847 32.9955 94.6203 32.9955C95.487 32.9955 96.187 32.7288 96.7203 32.1955C97.2536 31.6488 97.5203 30.8155 97.5203 29.6955V24.3955ZM101.909 34.3955V19.7955H103.649V34.3955H101.909ZM111.744 26.0755H109.084V31.4955C109.084 31.9888 109.177 32.3422 109.364 32.5555C109.564 32.7555 109.864 32.8622 110.264 32.8755C110.664 32.8755 111.157 32.8622 111.744 32.8355V34.3955C110.224 34.5955 109.111 34.4755 108.404 34.0355C107.697 33.5822 107.344 32.7355 107.344 31.4955V26.0755H105.364V24.3955H107.344V22.1155L109.084 21.5955V24.3955H111.744V26.0755ZM120.762 24.3955H122.502V34.3955H120.762V32.9555C120.056 34.0888 118.976 34.6555 117.522 34.6555C116.349 34.6555 115.409 34.2888 114.702 33.5555C113.996 32.8088 113.642 31.8022 113.642 30.5355V24.3955H115.382V30.4355C115.382 31.2488 115.602 31.8822 116.042 32.3355C116.482 32.7755 117.089 32.9955 117.862 32.9955C118.729 32.9955 119.429 32.7288 119.962 32.1955C120.496 31.6488 120.762 30.8155 120.762 29.6955V24.3955ZM126.892 26.0755C127.465 24.8355 128.505 24.2155 130.012 24.2155V26.0355C129.158 25.9955 128.425 26.2222 127.812 26.7155C127.198 27.2088 126.892 28.0022 126.892 29.0955V34.3955H125.152V24.3955H126.892V26.0755ZM132.387 30.1955C132.56 31.0888 132.967 31.7822 133.607 32.2755C134.26 32.7688 135.06 33.0155 136.007 33.0155C137.327 33.0155 138.287 32.5288 138.887 31.5555L140.367 32.3955C139.394 33.9022 137.927 34.6555 135.967 34.6555C134.38 34.6555 133.087 34.1622 132.087 33.1755C131.1 32.1755 130.607 30.9155 130.607 29.3955C130.607 27.8888 131.094 26.6355 132.067 25.6355C133.04 24.6355 134.3 24.1355 135.847 24.1355C137.314 24.1355 138.507 24.6555 139.427 25.6955C140.36 26.7222 140.827 27.9622 140.827 29.4155C140.827 29.6688 140.807 29.9288 140.767 30.1955H132.387ZM135.847 25.7755C134.914 25.7755 134.14 26.0422 133.527 26.5755C132.914 27.0955 132.534 27.7955 132.387 28.6755H139.067C138.92 27.7288 138.547 27.0088 137.947 26.5155C137.347 26.0222 136.647 25.7755 135.847 25.7755Z" fill="white"/>
<path d="M66.6797 73.3218C67.3197 73.6285 67.8264 74.0685 68.1997 74.6418C68.5864 75.2151 68.7797 75.8751 68.7797 76.6218C68.7797 77.7418 68.3864 78.6818 67.5997 79.4418C66.813 80.2018 65.853 80.5818 64.7197 80.5818H58.6797V66.5818H64.2797C65.373 66.5818 66.2997 66.9485 67.0597 67.6818C67.8197 68.4151 68.1997 69.3218 68.1997 70.4018C68.1997 71.6418 67.693 72.6151 66.6797 73.3218ZM64.2797 68.3218H60.5397V72.6018H64.2797C64.8664 72.6018 65.3597 72.3951 65.7597 71.9818C66.1597 71.5685 66.3597 71.0618 66.3597 70.4618C66.3597 69.8751 66.153 69.3751 65.7397 68.9618C65.3397 68.5351 64.853 68.3218 64.2797 68.3218ZM64.7197 78.8418C65.3464 78.8418 65.873 78.6218 66.2997 78.1818C66.7264 77.7418 66.9397 77.2018 66.9397 76.5618C66.9397 75.9351 66.7197 75.4018 66.2797 74.9618C65.853 74.5218 65.333 74.3018 64.7197 74.3018H60.5397V78.8418H64.7197ZM79.143 70.5818H80.883V80.5818H79.143V78.8618C78.2763 80.1818 77.0163 80.8418 75.363 80.8418C73.963 80.8418 72.7696 80.3351 71.783 79.3218C70.7963 78.2951 70.303 77.0485 70.303 75.5818C70.303 74.1151 70.7963 72.8751 71.783 71.8618C72.7696 70.8351 73.963 70.3218 75.363 70.3218C77.0163 70.3218 78.2763 70.9818 79.143 72.3018V70.5818ZM75.583 79.1618C76.5963 79.1618 77.443 78.8218 78.123 78.1418C78.803 77.4485 79.143 76.5951 79.143 75.5818C79.143 74.5685 78.803 73.7218 78.123 73.0418C77.443 72.3485 76.5963 72.0018 75.583 72.0018C74.583 72.0018 73.743 72.3485 73.063 73.0418C72.383 73.7218 72.043 74.5685 72.043 75.5818C72.043 76.5951 72.383 77.4485 73.063 78.1418C73.743 78.8218 74.583 79.1618 75.583 79.1618ZM88.9592 72.2618H86.2992V77.6818C86.2992 78.1751 86.3925 78.5285 86.5792 78.7418C86.7792 78.9418 87.0792 79.0485 87.4792 79.0618C87.8792 79.0618 88.3725 79.0485 88.9592 79.0218V80.5818C87.4392 80.7818 86.3259 80.6618 85.6192 80.2218C84.9125 79.7685 84.5592 78.9218 84.5592 77.6818V72.2618H82.5792V70.5818H84.5592V68.3018L86.2992 67.7818V70.5818H88.9592V72.2618ZM91.8992 68.7618C91.5659 68.7618 91.2859 68.6485 91.0592 68.4218C90.8325 68.1951 90.7192 67.9218 90.7192 67.6018C90.7192 67.2818 90.8325 67.0085 91.0592 66.7818C91.2859 66.5418 91.5659 66.4218 91.8992 66.4218C92.2192 66.4218 92.4925 66.5418 92.7192 66.7818C92.9459 67.0085 93.0592 67.2818 93.0592 67.6018C93.0592 67.9218 92.9459 68.1951 92.7192 68.4218C92.4925 68.6485 92.2192 68.7618 91.8992 68.7618ZM91.0192 80.5818V70.5818H92.7592V80.5818H91.0192ZM106.214 70.3218C107.334 70.3218 108.24 70.6885 108.934 71.4218C109.627 72.1418 109.974 73.1218 109.974 74.3618V80.5818H108.234V74.4218C108.234 73.6485 108.034 73.0485 107.634 72.6218C107.234 72.1951 106.7 71.9818 106.034 71.9818C105.287 71.9818 104.687 72.2351 104.234 72.7418C103.794 73.2351 103.574 73.9951 103.574 75.0218V80.5818H101.834V74.4218C101.834 73.6485 101.64 73.0485 101.254 72.6218C100.88 72.1951 100.367 71.9818 99.7137 71.9818C98.9804 71.9818 98.3671 72.2351 97.8737 72.7418C97.3937 73.2485 97.1537 74.0085 97.1537 75.0218V80.5818H95.4137V70.5818H97.1537V71.9218C97.8337 70.8551 98.8271 70.3218 100.134 70.3218C101.48 70.3218 102.46 70.8885 103.074 72.0218C103.767 70.8885 104.814 70.3218 106.214 70.3218ZM113.606 76.3818C113.78 77.2751 114.186 77.9685 114.826 78.4618C115.48 78.9551 116.28 79.2018 117.226 79.2018C118.546 79.2018 119.506 78.7151 120.106 77.7418L121.586 78.5818C120.613 80.0885 119.146 80.8418 117.186 80.8418C115.6 80.8418 114.306 80.3485 113.306 79.3618C112.32 78.3618 111.826 77.1018 111.826 75.5818C111.826 74.0751 112.313 72.8218 113.286 71.8218C114.26 70.8218 115.52 70.3218 117.066 70.3218C118.533 70.3218 119.726 70.8418 120.646 71.8818C121.58 72.9085 122.046 74.1485 122.046 75.6018C122.046 75.8551 122.026 76.1151 121.986 76.3818H113.606ZM117.066 71.9618C116.133 71.9618 115.36 72.2285 114.746 72.7618C114.133 73.2818 113.753 73.9818 113.606 74.8618H120.286C120.14 73.9151 119.766 73.1951 119.166 72.7018C118.566 72.2085 117.866 71.9618 117.066 71.9618ZM129.027 70.3218C130.2 70.3218 131.14 70.6951 131.847 71.4418C132.553 72.1751 132.907 73.1751 132.907 74.4418V80.5818H131.167V74.5418C131.167 73.7285 130.947 73.1018 130.507 72.6618C130.067 72.2085 129.46 71.9818 128.687 71.9818C127.82 71.9818 127.12 72.2551 126.587 72.8018C126.053 73.3351 125.787 74.1618 125.787 75.2818V80.5818H124.047V70.5818H125.787V72.0218C126.493 70.8885 127.573 70.3218 129.027 70.3218ZM140.776 72.2618H138.116V77.6818C138.116 78.1751 138.209 78.5285 138.396 78.7418C138.596 78.9418 138.896 79.0485 139.296 79.0618C139.696 79.0618 140.189 79.0485 140.776 79.0218V80.5818C139.256 80.7818 138.142 80.6618 137.436 80.2218C136.729 79.7685 136.376 78.9218 136.376 77.6818V72.2618H134.396V70.5818H136.376V68.3018L138.116 67.7818V70.5818H140.776V72.2618Z" fill="white"/>
<path d="M51.1618 132.16C49.6552 132.16 48.4018 131.66 47.4018 130.66C46.4018 129.647 45.9018 128.393 45.9018 126.9C45.9018 125.407 46.4018 124.16 47.4018 123.16C48.4018 122.147 49.6552 121.64 51.1618 121.64C52.1485 121.64 53.0352 121.88 53.8218 122.36C54.6085 122.827 55.1952 123.46 55.5818 124.26L54.1218 125.1C53.8685 124.567 53.4752 124.14 52.9418 123.82C52.4218 123.5 51.8285 123.34 51.1618 123.34C50.1618 123.34 49.3218 123.68 48.6418 124.36C47.9752 125.04 47.6418 125.887 47.6418 126.9C47.6418 127.9 47.9752 128.74 48.6418 129.42C49.3218 130.1 50.1618 130.44 51.1618 130.44C51.8285 130.44 52.4285 130.287 52.9618 129.98C53.4952 129.66 53.9018 129.233 54.1818 128.7L55.6618 129.56C55.2352 130.347 54.6218 130.98 53.8218 131.46C53.0218 131.927 52.1352 132.16 51.1618 132.16ZM65.6831 130.64C64.6564 131.653 63.4098 132.16 61.9431 132.16C60.4764 132.16 59.2298 131.653 58.2031 130.64C57.1898 129.627 56.6831 128.38 56.6831 126.9C56.6831 125.42 57.1898 124.173 58.2031 123.16C59.2298 122.147 60.4764 121.64 61.9431 121.64C63.4098 121.64 64.6564 122.147 65.6831 123.16C66.7098 124.173 67.2231 125.42 67.2231 126.9C67.2231 128.38 66.7098 129.627 65.6831 130.64ZM61.9431 130.46C62.9431 130.46 63.7831 130.12 64.4631 129.44C65.1431 128.76 65.4831 127.913 65.4831 126.9C65.4831 125.887 65.1431 125.04 64.4631 124.36C63.7831 123.68 62.9431 123.34 61.9431 123.34C60.9564 123.34 60.1231 123.68 59.4431 124.36C58.7631 125.04 58.4231 125.887 58.4231 126.9C58.4231 127.913 58.7631 128.76 59.4431 129.44C60.1231 130.12 60.9564 130.46 61.9431 130.46ZM80.0743 121.64C81.1943 121.64 82.101 122.007 82.7943 122.74C83.4877 123.46 83.8343 124.44 83.8343 125.68V131.9H82.0943V125.74C82.0943 124.967 81.8943 124.367 81.4943 123.94C81.0943 123.513 80.561 123.3 79.8943 123.3C79.1477 123.3 78.5477 123.553 78.0943 124.06C77.6543 124.553 77.4343 125.313 77.4343 126.34V131.9H75.6943V125.74C75.6943 124.967 75.501 124.367 75.1143 123.94C74.741 123.513 74.2277 123.3 73.5743 123.3C72.841 123.3 72.2277 123.553 71.7343 124.06C71.2543 124.567 71.0143 125.327 71.0143 126.34V131.9H69.2743V121.9H71.0143V123.24C71.6943 122.173 72.6877 121.64 73.9943 121.64C75.341 121.64 76.321 122.207 76.9343 123.34C77.6277 122.207 78.6743 121.64 80.0743 121.64ZM97.047 121.64C98.167 121.64 99.0737 122.007 99.767 122.74C100.46 123.46 100.807 124.44 100.807 125.68V131.9H99.067V125.74C99.067 124.967 98.867 124.367 98.467 123.94C98.067 123.513 97.5337 123.3 96.867 123.3C96.1203 123.3 95.5203 123.553 95.067 124.06C94.627 124.553 94.407 125.313 94.407 126.34V131.9H92.667V125.74C92.667 124.967 92.4737 124.367 92.087 123.94C91.7137 123.513 91.2003 123.3 90.547 123.3C89.8137 123.3 89.2003 123.553 88.707 124.06C88.227 124.567 87.987 125.327 87.987 126.34V131.9H86.247V121.9H87.987V123.24C88.667 122.173 89.6603 121.64 90.967 121.64C92.3137 121.64 93.2937 122.207 93.907 123.34C94.6003 122.207 95.647 121.64 97.047 121.64ZM104.44 127.7C104.613 128.593 105.02 129.287 105.66 129.78C106.313 130.273 107.113 130.52 108.06 130.52C109.38 130.52 110.34 130.033 110.94 129.06L112.42 129.9C111.446 131.407 109.98 132.16 108.02 132.16C106.433 132.16 105.14 131.667 104.14 130.68C103.153 129.68 102.66 128.42 102.66 126.9C102.66 125.393 103.146 124.14 104.12 123.14C105.093 122.14 106.353 121.64 107.9 121.64C109.366 121.64 110.56 122.16 111.48 123.2C112.413 124.227 112.88 125.467 112.88 126.92C112.88 127.173 112.86 127.433 112.82 127.7H104.44ZM107.9 123.28C106.966 123.28 106.193 123.547 105.58 124.08C104.966 124.6 104.586 125.3 104.44 126.18H111.12C110.973 125.233 110.6 124.513 110 124.02C109.4 123.527 108.7 123.28 107.9 123.28ZM116.62 123.58C117.193 122.34 118.233 121.72 119.74 121.72V123.54C118.886 123.5 118.153 123.727 117.54 124.22C116.926 124.713 116.62 125.507 116.62 126.6V131.9H114.88V121.9H116.62V123.58ZM125.595 132.16C124.089 132.16 122.835 131.66 121.835 130.66C120.835 129.647 120.335 128.393 120.335 126.9C120.335 125.407 120.835 124.16 121.835 123.16C122.835 122.147 124.089 121.64 125.595 121.64C126.582 121.64 127.469 121.88 128.255 122.36C129.042 122.827 129.629 123.46 130.015 124.26L128.555 125.1C128.302 124.567 127.909 124.14 127.375 123.82C126.855 123.5 126.262 123.34 125.595 123.34C124.595 123.34 123.755 123.68 123.075 124.36C122.409 125.04 122.075 125.887 122.075 126.9C122.075 127.9 122.409 128.74 123.075 129.42C123.755 130.1 124.595 130.44 125.595 130.44C126.262 130.44 126.862 130.287 127.395 129.98C127.929 129.66 128.335 129.233 128.615 128.7L130.095 129.56C129.669 130.347 129.055 130.98 128.255 131.46C127.455 131.927 126.569 132.16 125.595 132.16ZM132.897 127.7C133.07 128.593 133.477 129.287 134.117 129.78C134.77 130.273 135.57 130.52 136.517 130.52C137.837 130.52 138.797 130.033 139.397 129.06L140.877 129.9C139.903 131.407 138.437 132.16 136.477 132.16C134.89 132.16 133.597 131.667 132.597 130.68C131.61 129.68 131.117 128.42 131.117 126.9C131.117 125.393 131.603 124.14 132.577 123.14C133.55 122.14 134.81 121.64 136.357 121.64C137.823 121.64 139.017 122.16 139.937 123.2C140.87 124.227 141.337 125.467 141.337 126.92C141.337 127.173 141.317 127.433 141.277 127.7H132.897ZM136.357 123.28C135.423 123.28 134.65 123.547 134.037 124.08C133.423 124.6 133.043 125.3 132.897 126.18H139.577C139.43 125.233 139.057 124.513 138.457 124.02C137.857 123.527 137.157 123.28 136.357 123.28Z" fill="white"/>
<path d="M6.02 183.478C4.51333 183.478 3.26 182.978 2.26 181.978C1.26 180.965 0.76 179.712 0.76 178.218C0.76 176.725 1.26 175.478 2.26 174.478C3.26 173.465 4.51333 172.958 6.02 172.958C7.00667 172.958 7.89333 173.198 8.68 173.678C9.46667 174.145 10.0533 174.778 10.44 175.578L8.98 176.418C8.72667 175.885 8.33333 175.458 7.8 175.138C7.28 174.818 6.68667 174.658 6.02 174.658C5.02 174.658 4.18 174.998 3.5 175.678C2.83333 176.358 2.5 177.205 2.5 178.218C2.5 179.218 2.83333 180.058 3.5 180.738C4.18 181.418 5.02 181.758 6.02 181.758C6.68667 181.758 7.28667 181.605 7.82 181.298C8.35333 180.978 8.76 180.552 9.04 180.018L10.52 180.878C10.0933 181.665 9.48 182.298 8.68 182.778C7.88 183.245 6.99333 183.478 6.02 183.478ZM20.5412 181.958C19.5146 182.972 18.2679 183.478 16.8012 183.478C15.3346 183.478 14.0879 182.972 13.0612 181.958C12.0479 180.945 11.5412 179.698 11.5412 178.218C11.5412 176.738 12.0479 175.492 13.0612 174.478C14.0879 173.465 15.3346 172.958 16.8012 172.958C18.2679 172.958 19.5146 173.465 20.5412 174.478C21.5679 175.492 22.0812 176.738 22.0812 178.218C22.0812 179.698 21.5679 180.945 20.5412 181.958ZM16.8012 181.778C17.8012 181.778 18.6412 181.438 19.3212 180.758C20.0012 180.078 20.3412 179.232 20.3412 178.218C20.3412 177.205 20.0012 176.358 19.3212 175.678C18.6412 174.998 17.8012 174.658 16.8012 174.658C15.8146 174.658 14.9812 174.998 14.3012 175.678C13.6212 176.358 13.2812 177.205 13.2812 178.218C13.2812 179.232 13.6212 180.078 14.3012 180.758C14.9812 181.438 15.8146 181.778 16.8012 181.778ZM34.9325 172.958C36.0525 172.958 36.9592 173.325 37.6525 174.058C38.3458 174.778 38.6925 175.758 38.6925 176.998V183.218H36.9525V177.058C36.9525 176.285 36.7525 175.685 36.3525 175.258C35.9525 174.832 35.4192 174.618 34.7525 174.618C34.0058 174.618 33.4058 174.872 32.9525 175.378C32.5125 175.872 32.2925 176.632 32.2925 177.658V183.218H30.5525V177.058C30.5525 176.285 30.3592 175.685 29.9725 175.258C29.5992 174.832 29.0858 174.618 28.4325 174.618C27.6992 174.618 27.0858 174.872 26.5925 175.378C26.1125 175.885 25.8725 176.645 25.8725 177.658V183.218H24.1325V173.218H25.8725V174.558C26.5525 173.492 27.5458 172.958 28.8525 172.958C30.1992 172.958 31.1792 173.525 31.7925 174.658C32.4858 173.525 33.5325 172.958 34.9325 172.958ZM51.9051 172.958C53.0251 172.958 53.9318 173.325 54.6251 174.058C55.3185 174.778 55.6651 175.758 55.6651 176.998V183.218H53.9251V177.058C53.9251 176.285 53.7251 175.685 53.3251 175.258C52.9251 174.832 52.3918 174.618 51.7251 174.618C50.9785 174.618 50.3785 174.872 49.9251 175.378C49.4851 175.872 49.2651 176.632 49.2651 177.658V183.218H47.5251V177.058C47.5251 176.285 47.3318 175.685 46.9451 175.258C46.5718 174.832 46.0585 174.618 45.4051 174.618C44.6718 174.618 44.0585 174.872 43.5651 175.378C43.0851 175.885 42.8451 176.645 42.8451 177.658V183.218H41.1051V173.218H42.8451V174.558C43.5251 173.492 44.5185 172.958 45.8251 172.958C47.1718 172.958 48.1518 173.525 48.7651 174.658C49.4585 173.525 50.5051 172.958 51.9051 172.958ZM64.9778 173.218H66.7178V183.218H64.9778V181.778C64.2711 182.912 63.1911 183.478 61.7378 183.478C60.5645 183.478 59.6245 183.112 58.9178 182.378C58.2111 181.632 57.8578 180.625 57.8578 179.358V173.218H59.5978V179.258C59.5978 180.072 59.8178 180.705 60.2578 181.158C60.6978 181.598 61.3045 181.818 62.0778 181.818C62.9445 181.818 63.6445 181.552 64.1778 181.018C64.7111 180.472 64.9778 179.638 64.9778 178.518V173.218ZM74.3469 172.958C75.5202 172.958 76.4602 173.332 77.1669 174.078C77.8735 174.812 78.2269 175.812 78.2269 177.078V183.218H76.4869V177.178C76.4869 176.365 76.2669 175.738 75.8269 175.298C75.3869 174.845 74.7802 174.618 74.0069 174.618C73.1402 174.618 72.4402 174.892 71.9069 175.438C71.3735 175.972 71.1069 176.798 71.1069 177.918V183.218H69.3669V173.218H71.1069V174.658C71.8135 173.525 72.8935 172.958 74.3469 172.958ZM81.5359 171.398C81.2026 171.398 80.9226 171.285 80.6959 171.058C80.4693 170.832 80.3559 170.558 80.3559 170.238C80.3559 169.918 80.4693 169.645 80.6959 169.418C80.9226 169.178 81.2026 169.058 81.5359 169.058C81.8559 169.058 82.1293 169.178 82.3559 169.418C82.5826 169.645 82.6959 169.918 82.6959 170.238C82.6959 170.558 82.5826 170.832 82.3559 171.058C82.1293 171.285 81.8559 171.398 81.5359 171.398ZM80.6559 183.218V173.218H82.3959V183.218H80.6559ZM89.7505 183.478C88.2438 183.478 86.9905 182.978 85.9905 181.978C84.9905 180.965 84.4905 179.712 84.4905 178.218C84.4905 176.725 84.9905 175.478 85.9905 174.478C86.9905 173.465 88.2438 172.958 89.7505 172.958C90.7371 172.958 91.6238 173.198 92.4105 173.678C93.1971 174.145 93.7838 174.778 94.1705 175.578L92.7105 176.418C92.4571 175.885 92.0638 175.458 91.5305 175.138C91.0105 174.818 90.4171 174.658 89.7505 174.658C88.7505 174.658 87.9105 174.998 87.2305 175.678C86.5638 176.358 86.2305 177.205 86.2305 178.218C86.2305 179.218 86.5638 180.058 87.2305 180.738C87.9105 181.418 88.7505 181.758 89.7505 181.758C90.4171 181.758 91.0171 181.605 91.5505 181.298C92.0838 180.978 92.4905 180.552 92.7705 180.018L94.2505 180.878C93.8238 181.665 93.2105 182.298 92.4105 182.778C91.6105 183.245 90.7238 183.478 89.7505 183.478ZM104.112 173.218H105.852V183.218H104.112V181.498C103.245 182.818 101.985 183.478 100.332 183.478C98.9317 183.478 97.7384 182.972 96.7517 181.958C95.765 180.932 95.2717 179.685 95.2717 178.218C95.2717 176.752 95.765 175.512 96.7517 174.498C97.7384 173.472 98.9317 172.958 100.332 172.958C101.985 172.958 103.245 173.618 104.112 174.938V173.218ZM100.552 181.798C101.565 181.798 102.412 181.458 103.092 180.778C103.772 180.085 104.112 179.232 104.112 178.218C104.112 177.205 103.772 176.358 103.092 175.678C102.412 174.985 101.565 174.638 100.552 174.638C99.5517 174.638 98.7117 174.985 98.0317 175.678C97.3517 176.358 97.0117 177.205 97.0117 178.218C97.0117 179.232 97.3517 180.085 98.0317 180.778C98.7117 181.458 99.5517 181.798 100.552 181.798ZM113.928 174.898H111.268V180.318C111.268 180.812 111.361 181.165 111.548 181.378C111.748 181.578 112.048 181.685 112.448 181.698C112.848 181.698 113.341 181.685 113.928 181.658V183.218C112.408 183.418 111.295 183.298 110.588 182.858C109.881 182.405 109.528 181.558 109.528 180.318V174.898H107.548V173.218H109.528V170.938L111.268 170.418V173.218H113.928V174.898ZM116.868 171.398C116.535 171.398 116.255 171.285 116.028 171.058C115.801 170.832 115.688 170.558 115.688 170.238C115.688 169.918 115.801 169.645 116.028 169.418C116.255 169.178 116.535 169.058 116.868 169.058C117.188 169.058 117.461 169.178 117.688 169.418C117.915 169.645 118.028 169.918 118.028 170.238C118.028 170.558 117.915 170.832 117.688 171.058C117.461 171.285 117.188 171.398 116.868 171.398ZM115.988 183.218V173.218H117.728V183.218H115.988ZM128.822 181.958C127.796 182.972 126.549 183.478 125.082 183.478C123.616 183.478 122.369 182.972 121.342 181.958C120.329 180.945 119.822 179.698 119.822 178.218C119.822 176.738 120.329 175.492 121.342 174.478C122.369 173.465 123.616 172.958 125.082 172.958C126.549 172.958 127.796 173.465 128.822 174.478C129.849 175.492 130.362 176.738 130.362 178.218C130.362 179.698 129.849 180.945 128.822 181.958ZM125.082 181.778C126.082 181.778 126.922 181.438 127.602 180.758C128.282 180.078 128.622 179.232 128.622 178.218C128.622 177.205 128.282 176.358 127.602 175.678C126.922 174.998 126.082 174.658 125.082 174.658C124.096 174.658 123.262 174.998 122.582 175.678C121.902 176.358 121.562 177.205 121.562 178.218C121.562 179.232 121.902 180.078 122.582 180.758C123.262 181.438 124.096 181.778 125.082 181.778ZM137.394 172.958C138.567 172.958 139.507 173.332 140.214 174.078C140.92 174.812 141.274 175.812 141.274 177.078V183.218H139.534V177.178C139.534 176.365 139.314 175.738 138.874 175.298C138.434 174.845 137.827 174.618 137.054 174.618C136.187 174.618 135.487 174.892 134.954 175.438C134.42 175.972 134.154 176.798 134.154 177.918V183.218H132.414V173.218H134.154V174.658C134.86 173.525 135.94 172.958 137.394 172.958Z" fill="white"/>
<path d="M83.4934 224.536V234.536H81.7534V226.216H78.0534V234.536H76.3134V226.216H74.7134V224.536H76.3134V224.236C76.3134 221.596 77.7734 220.276 80.6934 220.276C81.2401 220.276 81.9267 220.363 82.7534 220.536V222.116C81.9401 222.01 81.2534 221.956 80.6934 221.956C79.7867 221.956 79.1201 222.13 78.6934 222.476C78.2667 222.81 78.0534 223.396 78.0534 224.236V224.536H83.4934ZM91.1389 224.276C92.3122 224.276 93.2522 224.65 93.9589 225.396C94.6655 226.13 95.0189 227.13 95.0189 228.396V234.536H93.2789V228.496C93.2789 227.683 93.0589 227.056 92.6189 226.616C92.1789 226.163 91.5722 225.936 90.7989 225.936C89.9322 225.936 89.2322 226.21 88.6989 226.756C88.1655 227.29 87.8989 228.116 87.8989 229.236V234.536H86.1589V224.536H87.8989V225.976C88.6055 224.843 89.6855 224.276 91.1389 224.276ZM105.728 224.536H107.468V234.536H105.728V232.816C104.861 234.136 103.601 234.796 101.948 234.796C100.548 234.796 99.3546 234.29 98.3679 233.276C97.3813 232.25 96.8879 231.003 96.8879 229.536C96.8879 228.07 97.3813 226.83 98.3679 225.816C99.3546 224.79 100.548 224.276 101.948 224.276C103.601 224.276 104.861 224.936 105.728 226.256V224.536ZM102.168 233.116C103.181 233.116 104.028 232.776 104.708 232.096C105.388 231.403 105.728 230.55 105.728 229.536C105.728 228.523 105.388 227.676 104.708 226.996C104.028 226.303 103.181 225.956 102.168 225.956C101.168 225.956 100.328 226.303 99.6479 226.996C98.9679 227.676 98.6279 228.523 98.6279 229.536C98.6279 230.55 98.9679 231.403 99.6479 232.096C100.328 232.776 101.168 233.116 102.168 233.116ZM115.084 224.276C116.258 224.276 117.198 224.65 117.904 225.396C118.611 226.13 118.964 227.13 118.964 228.396V234.536H117.224V228.496C117.224 227.683 117.004 227.056 116.564 226.616C116.124 226.163 115.518 225.936 114.744 225.936C113.878 225.936 113.178 226.21 112.644 226.756C112.111 227.29 111.844 228.116 111.844 229.236V234.536H110.104V224.536H111.844V225.976C112.551 224.843 113.631 224.276 115.084 224.276ZM126.093 234.796C124.587 234.796 123.333 234.296 122.333 233.296C121.333 232.283 120.833 231.03 120.833 229.536C120.833 228.043 121.333 226.796 122.333 225.796C123.333 224.783 124.587 224.276 126.093 224.276C127.08 224.276 127.967 224.516 128.753 224.996C129.54 225.463 130.127 226.096 130.513 226.896L129.053 227.736C128.8 227.203 128.407 226.776 127.873 226.456C127.353 226.136 126.76 225.976 126.093 225.976C125.093 225.976 124.253 226.316 123.573 226.996C122.907 227.676 122.573 228.523 122.573 229.536C122.573 230.536 122.907 231.376 123.573 232.056C124.253 232.736 125.093 233.076 126.093 233.076C126.76 233.076 127.36 232.923 127.893 232.616C128.427 232.296 128.833 231.87 129.113 231.336L130.593 232.196C130.167 232.983 129.553 233.616 128.753 234.096C127.953 234.563 127.067 234.796 126.093 234.796ZM133.394 230.336C133.568 231.23 133.974 231.923 134.614 232.416C135.268 232.91 136.068 233.156 137.014 233.156C138.334 233.156 139.294 232.67 139.894 231.696L141.374 232.536C140.401 234.043 138.934 234.796 136.974 234.796C135.388 234.796 134.094 234.303 133.094 233.316C132.108 232.316 131.614 231.056 131.614 229.536C131.614 228.03 132.101 226.776 133.074 225.776C134.048 224.776 135.308 224.276 136.854 224.276C138.321 224.276 139.514 224.796 140.434 225.836C141.368 226.863 141.834 228.103 141.834 229.556C141.834 229.81 141.814 230.07 141.774 230.336H133.394ZM136.854 225.916C135.921 225.916 135.148 226.183 134.534 226.716C133.921 227.236 133.541 227.936 133.394 228.816H140.074C139.928 227.87 139.554 227.15 138.954 226.656C138.354 226.163 137.654 225.916 136.854 225.916Z" fill="white"/>
<path d="M65.7017 271.855H67.5617L67.5617 285.855H65.7017V271.855ZM75.3649 275.595C76.5383 275.595 77.4783 275.968 78.1849 276.715C78.8916 277.448 79.2449 278.448 79.2449 279.715V285.855H77.5049V279.815C77.5049 279.001 77.2849 278.375 76.8449 277.935C76.4049 277.481 75.7983 277.255 75.0249 277.255C74.1583 277.255 73.4583 277.528 72.9249 278.075C72.3916 278.608 72.1249 279.435 72.1249 280.555V285.855H70.3849V275.855H72.1249V277.295C72.8316 276.161 73.9116 275.595 75.3649 275.595ZM89.954 271.855H91.694V285.855H89.954V284.135C89.0873 285.455 87.8273 286.115 86.174 286.115C84.774 286.115 83.5807 285.608 82.594 284.595C81.6073 283.568 81.114 282.321 81.114 280.855C81.114 279.388 81.6073 278.148 82.594 277.135C83.5807 276.108 84.774 275.595 86.174 275.595C87.8273 275.595 89.0873 276.255 89.954 277.575V271.855ZM86.394 284.435C87.4073 284.435 88.254 284.095 88.934 283.415C89.614 282.721 89.954 281.868 89.954 280.855C89.954 279.841 89.614 278.995 88.934 278.315C88.254 277.621 87.4073 277.275 86.394 277.275C85.394 277.275 84.554 277.621 83.874 278.315C83.194 278.995 82.854 279.841 82.854 280.855C82.854 281.868 83.194 282.721 83.874 283.415C84.554 284.095 85.394 284.435 86.394 284.435ZM101.23 275.855H102.97V285.855H101.23V284.415C100.524 285.548 99.4436 286.115 97.9902 286.115C96.8169 286.115 95.8769 285.748 95.1702 285.015C94.4636 284.268 94.1102 283.261 94.1102 281.995V275.855H95.8502V281.895C95.8502 282.708 96.0702 283.341 96.5102 283.795C96.9502 284.235 97.5569 284.455 98.3302 284.455C99.1969 284.455 99.8969 284.188 100.43 283.655C100.964 283.108 101.23 282.275 101.23 281.155V275.855ZM107.1 278.555C107.1 278.941 107.293 279.255 107.68 279.495C108.066 279.721 108.533 279.908 109.08 280.055C109.626 280.188 110.173 280.348 110.72 280.535C111.266 280.708 111.733 281.015 112.12 281.455C112.506 281.881 112.7 282.435 112.7 283.115C112.7 284.021 112.346 284.748 111.64 285.295C110.946 285.841 110.053 286.115 108.96 286.115C107.986 286.115 107.153 285.901 106.46 285.475C105.766 285.048 105.273 284.481 104.98 283.775L106.48 282.915C106.64 283.395 106.94 283.775 107.38 284.055C107.82 284.335 108.346 284.475 108.96 284.475C109.533 284.475 110.006 284.368 110.38 284.155C110.753 283.928 110.94 283.581 110.94 283.115C110.94 282.728 110.746 282.421 110.36 282.195C109.973 281.955 109.506 281.768 108.96 281.635C108.413 281.488 107.866 281.321 107.32 281.135C106.773 280.948 106.306 280.641 105.92 280.215C105.533 279.788 105.34 279.241 105.34 278.575C105.34 277.708 105.673 276.995 106.34 276.435C107.02 275.875 107.866 275.595 108.88 275.595C109.693 275.595 110.413 275.781 111.04 276.155C111.68 276.515 112.16 277.021 112.48 277.675L111.02 278.495C110.66 277.641 109.946 277.215 108.88 277.215C108.386 277.215 107.966 277.335 107.62 277.575C107.273 277.801 107.1 278.128 107.1 278.555ZM119.809 277.535H117.149V282.955C117.149 283.448 117.243 283.801 117.429 284.015C117.629 284.215 117.929 284.321 118.329 284.335C118.729 284.335 119.223 284.321 119.809 284.295V285.855C118.289 286.055 117.176 285.935 116.469 285.495C115.763 285.041 115.409 284.195 115.409 282.955V277.535H113.429V275.855H115.409V273.575L117.149 273.055V275.855H119.809V277.535ZM123.668 277.535C124.241 276.295 125.281 275.675 126.788 275.675V277.495C125.935 277.455 125.201 277.681 124.588 278.175C123.975 278.668 123.668 279.461 123.668 280.555V285.855H121.928V275.855H123.668V277.535ZM129.37 274.035C129.037 274.035 128.757 273.921 128.53 273.695C128.304 273.468 128.19 273.195 128.19 272.875C128.19 272.555 128.304 272.281 128.53 272.055C128.757 271.815 129.037 271.695 129.37 271.695C129.69 271.695 129.964 271.815 130.19 272.055C130.417 272.281 130.53 272.555 130.53 272.875C130.53 273.195 130.417 273.468 130.19 273.695C129.964 273.921 129.69 274.035 129.37 274.035ZM128.49 285.855V275.855H130.23V285.855H128.49ZM134.105 281.655C134.278 282.548 134.685 283.241 135.325 283.735C135.978 284.228 136.778 284.475 137.725 284.475C139.045 284.475 140.005 283.988 140.605 283.015L142.085 283.855C141.112 285.361 139.645 286.115 137.685 286.115C136.098 286.115 134.805 285.621 133.805 284.635C132.818 283.635 132.325 282.375 132.325 280.855C132.325 279.348 132.812 278.095 133.785 277.095C134.758 276.095 136.018 275.595 137.565 275.595C139.032 275.595 140.225 276.115 141.145 277.155C142.078 278.181 142.545 279.421 142.545 280.875C142.545 281.128 142.525 281.388 142.485 281.655H134.105ZM137.565 277.235C136.632 277.235 135.858 277.501 135.245 278.035C134.632 278.555 134.252 279.255 134.105 280.135H140.785C140.638 279.188 140.265 278.468 139.665 277.975C139.065 277.481 138.365 277.235 137.565 277.235Z" fill="white"/>
<path d="M50.5084 335.413H56.5484V337.173H48.6484V323.173H50.5084V335.413ZM66.2834 335.913C65.2568 336.926 64.0101 337.433 62.5434 337.433C61.0768 337.433 59.8301 336.926 58.8034 335.913C57.7901 334.9 57.2834 333.653 57.2834 332.173C57.2834 330.693 57.7901 329.446 58.8034 328.433C59.8301 327.42 61.0768 326.913 62.5434 326.913C64.0101 326.913 65.2568 327.42 66.2834 328.433C67.3101 329.446 67.8234 330.693 67.8234 332.173C67.8234 333.653 67.3101 334.9 66.2834 335.913ZM62.5434 335.733C63.5434 335.733 64.3834 335.393 65.0634 334.713C65.7434 334.033 66.0834 333.186 66.0834 332.173C66.0834 331.16 65.7434 330.313 65.0634 329.633C64.3834 328.953 63.5434 328.613 62.5434 328.613C61.5568 328.613 60.7234 328.953 60.0434 329.633C59.3634 330.313 59.0234 331.16 59.0234 332.173C59.0234 333.186 59.3634 334.033 60.0434 334.713C60.7234 335.393 61.5568 335.733 62.5434 335.733ZM78.1747 327.173H79.8947V336.753C79.8947 338.233 79.3947 339.38 78.3947 340.193C77.3947 341.02 76.1947 341.433 74.7947 341.433C73.6747 341.433 72.708 341.22 71.8947 340.793C71.0814 340.38 70.468 339.78 70.0547 338.993L71.5747 338.133C72.1213 339.253 73.208 339.813 74.8347 339.813C75.8747 339.813 76.688 339.54 77.2747 338.993C77.8747 338.446 78.1747 337.7 78.1747 336.753V335.333C77.2947 336.666 76.0413 337.333 74.4147 337.333C72.988 337.333 71.7813 336.826 70.7947 335.813C69.808 334.8 69.3147 333.566 69.3147 332.113C69.3147 330.66 69.808 329.433 70.7947 328.433C71.7813 327.42 72.988 326.913 74.4147 326.913C76.0547 326.913 77.308 327.573 78.1747 328.893V327.173ZM72.0747 334.653C72.7547 335.333 73.6013 335.673 74.6147 335.673C75.628 335.673 76.4747 335.333 77.1547 334.653C77.8347 333.973 78.1747 333.126 78.1747 332.113C78.1747 331.113 77.8347 330.273 77.1547 329.593C76.4747 328.913 75.628 328.573 74.6147 328.573C73.6013 328.573 72.7547 328.913 72.0747 329.593C71.3947 330.273 71.0547 331.113 71.0547 332.113C71.0547 333.126 71.3947 333.973 72.0747 334.653ZM83.4109 325.353C83.0776 325.353 82.7976 325.24 82.5709 325.013C82.3443 324.786 82.2309 324.513 82.2309 324.193C82.2309 323.873 82.3443 323.6 82.5709 323.373C82.7976 323.133 83.0776 323.013 83.4109 323.013C83.7309 323.013 84.0043 323.133 84.2309 323.373C84.4576 323.6 84.5709 323.873 84.5709 324.193C84.5709 324.513 84.4576 324.786 84.2309 325.013C84.0043 325.24 83.7309 325.353 83.4109 325.353ZM82.5309 337.173V327.173H84.2709V337.173H82.5309ZM88.4059 329.873C88.4059 330.26 88.5993 330.573 88.9859 330.813C89.3726 331.04 89.8393 331.226 90.3859 331.373C90.9326 331.506 91.4793 331.666 92.0259 331.853C92.5726 332.026 93.0393 332.333 93.4259 332.773C93.8126 333.2 94.0059 333.753 94.0059 334.433C94.0059 335.34 93.6526 336.066 92.9459 336.613C92.2526 337.16 91.3593 337.433 90.2659 337.433C89.2926 337.433 88.4593 337.22 87.7659 336.793C87.0726 336.366 86.5793 335.8 86.2859 335.093L87.7859 334.233C87.9459 334.713 88.2459 335.093 88.6859 335.373C89.1259 335.653 89.6526 335.793 90.2659 335.793C90.8393 335.793 91.3126 335.686 91.6859 335.473C92.0593 335.246 92.2459 334.9 92.2459 334.433C92.2459 334.046 92.0526 333.74 91.6659 333.513C91.2793 333.273 90.8126 333.086 90.2659 332.953C89.7193 332.806 89.1726 332.64 88.6259 332.453C88.0793 332.266 87.6126 331.96 87.2259 331.533C86.8393 331.106 86.6459 330.56 86.6459 329.893C86.6459 329.026 86.9793 328.313 87.6459 327.753C88.3259 327.193 89.1726 326.913 90.1859 326.913C90.9993 326.913 91.7193 327.1 92.3459 327.473C92.9859 327.833 93.4659 328.34 93.7859 328.993L92.3259 329.813C91.9659 328.96 91.2526 328.533 90.1859 328.533C89.6926 328.533 89.2726 328.653 88.9259 328.893C88.5793 329.12 88.4059 329.446 88.4059 329.873ZM101.115 328.853H98.4555V334.273C98.4555 334.766 98.5488 335.12 98.7355 335.333C98.9355 335.533 99.2355 335.64 99.6355 335.653C100.035 335.653 100.529 335.64 101.115 335.613V337.173C99.5955 337.373 98.4821 337.253 97.7755 336.813C97.0688 336.36 96.7155 335.513 96.7155 334.273V328.853H94.7355V327.173H96.7155V324.893L98.4555 324.373V327.173H101.115V328.853ZM104.055 325.353C103.722 325.353 103.442 325.24 103.215 325.013C102.989 324.786 102.875 324.513 102.875 324.193C102.875 323.873 102.989 323.6 103.215 323.373C103.442 323.133 103.722 323.013 104.055 323.013C104.375 323.013 104.649 323.133 104.875 323.373C105.102 323.6 105.215 323.873 105.215 324.193C105.215 324.513 105.102 324.786 104.875 325.013C104.649 325.24 104.375 325.353 104.055 325.353ZM103.175 337.173V327.173H104.915V337.173H103.175ZM115.85 327.173H117.59V341.173H115.85V335.453C114.983 336.773 113.723 337.433 112.07 337.433C110.67 337.433 109.477 336.926 108.49 335.913C107.503 334.886 107.01 333.64 107.01 332.173C107.01 330.706 107.503 329.466 108.49 328.453C109.477 327.426 110.67 326.913 112.07 326.913C113.723 326.913 114.983 327.573 115.85 328.893V327.173ZM112.29 335.753C113.303 335.753 114.15 335.413 114.83 334.733C115.51 334.04 115.85 333.186 115.85 332.173C115.85 331.16 115.51 330.313 114.83 329.633C114.15 328.94 113.303 328.593 112.29 328.593C111.29 328.593 110.45 328.94 109.77 329.633C109.09 330.313 108.75 331.16 108.75 332.173C108.75 333.186 109.09 334.04 109.77 334.733C110.45 335.413 111.29 335.753 112.29 335.753ZM127.126 327.173H128.866V337.173H127.126V335.733C126.42 336.866 125.34 337.433 123.886 337.433C122.713 337.433 121.773 337.066 121.066 336.333C120.36 335.586 120.006 334.58 120.006 333.313V327.173H121.746V333.213C121.746 334.026 121.966 334.66 122.406 335.113C122.846 335.553 123.453 335.773 124.226 335.773C125.093 335.773 125.793 335.506 126.326 334.973C126.86 334.426 127.126 333.593 127.126 332.473V327.173ZM132.735 332.973C132.909 333.866 133.315 334.56 133.955 335.053C134.609 335.546 135.409 335.793 136.355 335.793C137.675 335.793 138.635 335.306 139.235 334.333L140.715 335.173C139.742 336.68 138.275 337.433 136.315 337.433C134.729 337.433 133.435 336.94 132.435 335.953C131.449 334.953 130.955 333.693 130.955 332.173C130.955 330.666 131.442 329.413 132.415 328.413C133.389 327.413 134.649 326.913 136.195 326.913C137.662 326.913 138.855 327.433 139.775 328.473C140.709 329.5 141.175 330.74 141.175 332.193C141.175 332.446 141.155 332.706 141.115 332.973H132.735ZM136.195 328.553C135.262 328.553 134.489 328.82 133.875 329.353C133.262 329.873 132.882 330.573 132.735 331.453H139.415C139.269 330.506 138.895 329.786 138.295 329.293C137.695 328.8 136.995 328.553 136.195 328.553Z" fill="white"/>
<path d="M35.882 388.491L32.742 383.131H29.442V388.491H27.582V374.491H33.182C34.382 374.491 35.4087 374.918 36.262 375.771C37.1154 376.611 37.542 377.631 37.542 378.831C37.542 379.738 37.2687 380.564 36.722 381.311C36.1887 382.058 35.4954 382.584 34.642 382.891L37.942 388.491H35.882ZM29.442 376.231V381.451H33.182C33.8754 381.451 34.462 381.198 34.942 380.691C35.4354 380.171 35.682 379.551 35.682 378.831C35.682 378.111 35.4354 377.498 34.942 376.991C34.462 376.484 33.8754 376.231 33.182 376.231H29.442ZM40.3408 384.291C40.5141 385.184 40.9208 385.878 41.5608 386.371C42.2141 386.864 43.0141 387.111 43.9608 387.111C45.2808 387.111 46.2408 386.624 46.8408 385.651L48.3208 386.491C47.3474 387.998 45.8808 388.751 43.9208 388.751C42.3341 388.751 41.0408 388.258 40.0408 387.271C39.0541 386.271 38.5608 385.011 38.5608 383.491C38.5608 381.984 39.0474 380.731 40.0208 379.731C40.9941 378.731 42.2541 378.231 43.8008 378.231C45.2674 378.231 46.4608 378.751 47.3808 379.791C48.3141 380.818 48.7808 382.058 48.7808 383.511C48.7808 383.764 48.7608 384.024 48.7208 384.291H40.3408ZM43.8008 379.871C42.8674 379.871 42.0941 380.138 41.4808 380.671C40.8674 381.191 40.4874 381.891 40.3408 382.771H47.0208C46.8741 381.824 46.5008 381.104 45.9008 380.611C45.3008 380.118 44.6008 379.871 43.8008 379.871ZM51.8903 381.191C51.8903 381.578 52.0836 381.891 52.4703 382.131C52.857 382.358 53.3236 382.544 53.8703 382.691C54.417 382.824 54.9636 382.984 55.5103 383.171C56.057 383.344 56.5236 383.651 56.9103 384.091C57.297 384.518 57.4903 385.071 57.4903 385.751C57.4903 386.658 57.137 387.384 56.4303 387.931C55.737 388.478 54.8436 388.751 53.7503 388.751C52.777 388.751 51.9436 388.538 51.2503 388.111C50.557 387.684 50.0636 387.118 49.7703 386.411L51.2703 385.551C51.4303 386.031 51.7303 386.411 52.1703 386.691C52.6103 386.971 53.137 387.111 53.7503 387.111C54.3236 387.111 54.797 387.004 55.1703 386.791C55.5436 386.564 55.7303 386.218 55.7303 385.751C55.7303 385.364 55.537 385.058 55.1503 384.831C54.7636 384.591 54.297 384.404 53.7503 384.271C53.2036 384.124 52.657 383.958 52.1103 383.771C51.5636 383.584 51.097 383.278 50.7103 382.851C50.3236 382.424 50.1303 381.878 50.1303 381.211C50.1303 380.344 50.4636 379.631 51.1303 379.071C51.8103 378.511 52.657 378.231 53.6703 378.231C54.4836 378.231 55.2036 378.418 55.8303 378.791C56.4703 379.151 56.9503 379.658 57.2703 380.311L55.8103 381.131C55.4503 380.278 54.737 379.851 53.6703 379.851C53.177 379.851 52.757 379.971 52.4103 380.211C52.0636 380.438 51.8903 380.764 51.8903 381.191ZM64.5998 380.171H61.9398V385.591C61.9398 386.084 62.0332 386.438 62.2198 386.651C62.4198 386.851 62.7198 386.958 63.1198 386.971C63.5198 386.971 64.0132 386.958 64.5998 386.931V388.491C63.0798 388.691 61.9665 388.571 61.2598 388.131C60.5532 387.678 60.1998 386.831 60.1998 385.591V380.171H58.2198V378.491H60.1998V376.211L61.9398 375.691V378.491H64.5998V380.171ZM74.432 378.491H76.172V388.491H74.432V386.771C73.5654 388.091 72.3054 388.751 70.652 388.751C69.252 388.751 68.0587 388.244 67.072 387.231C66.0854 386.204 65.592 384.958 65.592 383.491C65.592 382.024 66.0854 380.784 67.072 379.771C68.0587 378.744 69.252 378.231 70.652 378.231C72.3054 378.231 73.5654 378.891 74.432 380.211V378.491ZM70.872 387.071C71.8854 387.071 72.732 386.731 73.412 386.051C74.092 385.358 74.432 384.504 74.432 383.491C74.432 382.478 74.092 381.631 73.412 380.951C72.732 380.258 71.8854 379.911 70.872 379.911C69.872 379.911 69.032 380.258 68.352 380.951C67.672 381.631 67.332 382.478 67.332 383.491C67.332 384.504 67.672 385.358 68.352 386.051C69.032 386.731 69.872 387.071 70.872 387.071ZM85.7083 378.491H87.4483V388.491H85.7083V387.051C85.0016 388.184 83.9216 388.751 82.4683 388.751C81.2949 388.751 80.3549 388.384 79.6483 387.651C78.9416 386.904 78.5883 385.898 78.5883 384.631V378.491H80.3283V384.531C80.3283 385.344 80.5483 385.978 80.9883 386.431C81.4283 386.871 82.0349 387.091 82.8083 387.091C83.6749 387.091 84.3749 386.824 84.9083 386.291C85.4416 385.744 85.7083 384.911 85.7083 383.791V378.491ZM91.8373 380.171C92.4107 378.931 93.4507 378.311 94.9573 378.311V380.131C94.104 380.091 93.3707 380.318 92.7573 380.811C92.144 381.304 91.8373 382.098 91.8373 383.191V388.491H90.0973V378.491H91.8373V380.171ZM104.393 378.491H106.133V388.491H104.393V386.771C103.526 388.091 102.266 388.751 100.613 388.751C99.213 388.751 98.0196 388.244 97.033 387.231C96.0463 386.204 95.553 384.958 95.553 383.491C95.553 382.024 96.0463 380.784 97.033 379.771C98.0196 378.744 99.213 378.231 100.613 378.231C102.266 378.231 103.526 378.891 104.393 380.211V378.491ZM100.833 387.071C101.846 387.071 102.693 386.731 103.373 386.051C104.053 385.358 104.393 384.504 104.393 383.491C104.393 382.478 104.053 381.631 103.373 380.951C102.693 380.258 101.846 379.911 100.833 379.911C99.833 379.911 98.993 380.258 98.313 380.951C97.633 381.631 97.293 382.478 97.293 383.491C97.293 384.504 97.633 385.358 98.313 386.051C98.993 386.731 99.833 387.071 100.833 387.071ZM114.209 380.171H111.549V385.591C111.549 386.084 111.643 386.438 111.829 386.651C112.029 386.851 112.329 386.958 112.729 386.971C113.129 386.971 113.623 386.958 114.209 386.931V388.491C112.689 388.691 111.576 388.571 110.869 388.131C110.163 387.678 109.809 386.831 109.809 385.591V380.171H107.829V378.491H109.809V376.211L111.549 375.691V378.491H114.209V380.171ZM117.149 376.671C116.816 376.671 116.536 376.558 116.309 376.331C116.083 376.104 115.969 375.831 115.969 375.511C115.969 375.191 116.083 374.918 116.309 374.691C116.536 374.451 116.816 374.331 117.149 374.331C117.469 374.331 117.743 374.451 117.969 374.691C118.196 374.918 118.309 375.191 118.309 375.511C118.309 375.831 118.196 376.104 117.969 376.331C117.743 376.558 117.469 376.671 117.149 376.671ZM116.269 388.491V378.491H118.009V388.491H116.269ZM129.104 387.231C128.077 388.244 126.83 388.751 125.364 388.751C123.897 388.751 122.65 388.244 121.624 387.231C120.61 386.218 120.104 384.971 120.104 383.491C120.104 382.011 120.61 380.764 121.624 379.751C122.65 378.738 123.897 378.231 125.364 378.231C126.83 378.231 128.077 378.738 129.104 379.751C130.13 380.764 130.644 382.011 130.644 383.491C130.644 384.971 130.13 386.218 129.104 387.231ZM125.364 387.051C126.364 387.051 127.204 386.711 127.884 386.031C128.564 385.351 128.904 384.504 128.904 383.491C128.904 382.478 128.564 381.631 127.884 380.951C127.204 380.271 126.364 379.931 125.364 379.931C124.377 379.931 123.544 380.271 122.864 380.951C122.184 381.631 121.844 382.478 121.844 383.491C121.844 384.504 122.184 385.351 122.864 386.031C123.544 386.711 124.377 387.051 125.364 387.051ZM137.675 378.231C138.848 378.231 139.788 378.604 140.495 379.351C141.202 380.084 141.555 381.084 141.555 382.351V388.491H139.815V382.451C139.815 381.638 139.595 381.011 139.155 380.571C138.715 380.118 138.108 379.891 137.335 379.891C136.468 379.891 135.768 380.164 135.235 380.711C134.702 381.244 134.435 382.071 134.435 383.191V388.491H132.695V378.491H134.435V379.931C135.142 378.798 136.222 378.231 137.675 378.231Z" fill="white"/>
<path d="M64.2031 440.069C62.8964 440.069 61.7764 439.763 60.8431 439.149C59.9231 438.536 59.2764 437.696 58.9031 436.629L60.5031 435.709C61.0498 437.403 62.2964 438.249 64.2431 438.249C65.2031 438.249 65.9364 438.056 66.4431 437.669C66.9498 437.269 67.2031 436.743 67.2031 436.089C67.2031 435.423 66.9498 434.923 66.4431 434.589C65.9364 434.256 65.0898 433.903 63.9031 433.529C63.3164 433.343 62.8698 433.196 62.5631 433.089C62.2564 432.969 61.8698 432.796 61.4031 432.569C60.9498 432.329 60.6098 432.089 60.3831 431.849C60.1564 431.596 59.9498 431.269 59.7631 430.869C59.5898 430.469 59.5031 430.016 59.5031 429.509C59.5031 428.296 59.9298 427.336 60.7831 426.629C61.6364 425.909 62.6764 425.549 63.9031 425.549C65.0098 425.549 65.9698 425.829 66.7831 426.389C67.6098 426.949 68.2298 427.689 68.6431 428.609L67.0831 429.509C66.4831 428.069 65.4231 427.349 63.9031 427.349C63.1431 427.349 62.5298 427.536 62.0631 427.909C61.5964 428.283 61.3631 428.789 61.3631 429.429C61.3631 430.043 61.5831 430.509 62.0231 430.829C62.4631 431.149 63.2231 431.483 64.3031 431.829C64.6898 431.949 64.9631 432.036 65.1231 432.089C65.2831 432.143 65.5298 432.236 65.8631 432.369C66.2098 432.503 66.4631 432.609 66.6231 432.689C66.7831 432.769 66.9964 432.883 67.2631 433.029C67.5431 433.176 67.7498 433.316 67.8831 433.449C68.0164 433.583 68.1698 433.749 68.3431 433.949C68.5298 434.136 68.6631 434.329 68.7431 434.529C68.8231 434.729 68.8898 434.963 68.9431 435.229C69.0098 435.483 69.0431 435.756 69.0431 436.049C69.0431 437.276 68.5964 438.256 67.7031 438.989C66.8098 439.709 65.6431 440.069 64.2031 440.069ZM72.52 435.609C72.6933 436.503 73.1 437.196 73.74 437.689C74.3933 438.183 75.1933 438.429 76.14 438.429C77.46 438.429 78.42 437.943 79.02 436.969L80.5 437.809C79.5266 439.316 78.06 440.069 76.1 440.069C74.5133 440.069 73.22 439.576 72.22 438.589C71.2333 437.589 70.74 436.329 70.74 434.809C70.74 433.303 71.2266 432.049 72.2 431.049C73.1733 430.049 74.4333 429.549 75.98 429.549C77.4466 429.549 78.64 430.069 79.56 431.109C80.4933 432.136 80.96 433.376 80.96 434.829C80.96 435.083 80.94 435.343 80.9 435.609H72.52ZM75.98 431.189C75.0466 431.189 74.2733 431.456 73.66 431.989C73.0466 432.509 72.6666 433.209 72.52 434.089H79.2C79.0533 433.143 78.68 432.423 78.08 431.929C77.48 431.436 76.78 431.189 75.98 431.189ZM84.7001 431.489C85.2735 430.249 86.3135 429.629 87.8201 429.629V431.449C86.9668 431.409 86.2335 431.636 85.6201 432.129C85.0068 432.623 84.7001 433.416 84.7001 434.509V439.809H82.9601V429.809H84.7001V431.489ZM96.5226 429.809H98.4026L94.4026 439.809H92.3626L88.3626 429.809H90.2426L93.3826 437.949L96.5226 429.809ZM100.754 427.989C100.421 427.989 100.141 427.876 99.9142 427.649C99.6875 427.423 99.5742 427.149 99.5742 426.829C99.5742 426.509 99.6875 426.236 99.9142 426.009C100.141 425.769 100.421 425.649 100.754 425.649C101.074 425.649 101.348 425.769 101.574 426.009C101.801 426.236 101.914 426.509 101.914 426.829C101.914 427.149 101.801 427.423 101.574 427.649C101.348 427.876 101.074 427.989 100.754 427.989ZM99.8742 439.809V429.809H101.614V439.809H99.8742ZM108.969 440.069C107.462 440.069 106.209 439.569 105.209 438.569C104.209 437.556 103.709 436.303 103.709 434.809C103.709 433.316 104.209 432.069 105.209 431.069C106.209 430.056 107.462 429.549 108.969 429.549C109.955 429.549 110.842 429.789 111.629 430.269C112.415 430.736 113.002 431.369 113.389 432.169L111.929 433.009C111.675 432.476 111.282 432.049 110.749 431.729C110.229 431.409 109.635 431.249 108.969 431.249C107.969 431.249 107.129 431.589 106.449 432.269C105.782 432.949 105.449 433.796 105.449 434.809C105.449 435.809 105.782 436.649 106.449 437.329C107.129 438.009 107.969 438.349 108.969 438.349C109.635 438.349 110.235 438.196 110.769 437.889C111.302 437.569 111.709 437.143 111.989 436.609L113.469 437.469C113.042 438.256 112.429 438.889 111.629 439.369C110.829 439.836 109.942 440.069 108.969 440.069ZM116.27 435.609C116.443 436.503 116.85 437.196 117.49 437.689C118.143 438.183 118.943 438.429 119.89 438.429C121.21 438.429 122.17 437.943 122.77 436.969L124.25 437.809C123.277 439.316 121.81 440.069 119.85 440.069C118.263 440.069 116.97 439.576 115.97 438.589C114.983 437.589 114.49 436.329 114.49 434.809C114.49 433.303 114.977 432.049 115.95 431.049C116.923 430.049 118.183 429.549 119.73 429.549C121.197 429.549 122.39 430.069 123.31 431.109C124.243 432.136 124.71 433.376 124.71 434.829C124.71 435.083 124.69 435.343 124.65 435.609H116.27ZM119.73 431.189C118.797 431.189 118.023 431.456 117.41 431.989C116.797 432.509 116.417 433.209 116.27 434.089H122.95C122.803 433.143 122.43 432.423 121.83 431.929C121.23 431.436 120.53 431.189 119.73 431.189ZM136.97 425.809C138.263 425.809 139.337 426.243 140.19 427.109C141.057 427.963 141.49 429.029 141.49 430.309C141.49 431.576 141.057 432.643 140.19 433.509C139.337 434.376 138.263 434.809 136.97 434.809H133.75V439.809H131.89V425.809H136.97ZM136.97 433.069C137.743 433.069 138.383 432.809 138.89 432.289C139.397 431.756 139.65 431.096 139.65 430.309C139.65 429.509 139.397 428.849 138.89 428.329C138.383 427.809 137.743 427.549 136.97 427.549H133.75V433.069H136.97Z" fill="white"/>
<path d="M58.6116 477.127V478.887H54.4716V491.127H52.6316V478.887H48.5116V477.127H58.6116ZM59.676 486.927C59.8493 487.821 60.256 488.514 60.896 489.007C61.5493 489.501 62.3493 489.747 63.296 489.747C64.616 489.747 65.576 489.261 66.176 488.287L67.656 489.127C66.6826 490.634 65.216 491.387 63.256 491.387C61.6693 491.387 60.376 490.894 59.376 489.907C58.3893 488.907 57.896 487.647 57.896 486.127C57.896 484.621 58.3827 483.367 59.356 482.367C60.3293 481.367 61.5893 480.867 63.136 480.867C64.6027 480.867 65.796 481.387 66.716 482.427C67.6493 483.454 68.116 484.694 68.116 486.147C68.116 486.401 68.096 486.661 68.056 486.927H59.676ZM63.136 482.507C62.2027 482.507 61.4293 482.774 60.816 483.307C60.2027 483.827 59.8227 484.527 59.676 485.407H66.356C66.2093 484.461 65.836 483.741 65.236 483.247C64.636 482.754 63.936 482.507 63.136 482.507ZM74.7966 491.387C73.2899 491.387 72.0366 490.887 71.0366 489.887C70.0366 488.874 69.5366 487.621 69.5366 486.127C69.5366 484.634 70.0366 483.387 71.0366 482.387C72.0366 481.374 73.2899 480.867 74.7966 480.867C75.7833 480.867 76.6699 481.107 77.4566 481.587C78.2433 482.054 78.8299 482.687 79.2166 483.487L77.7566 484.327C77.5033 483.794 77.1099 483.367 76.5766 483.047C76.0566 482.727 75.4633 482.567 74.7966 482.567C73.7966 482.567 72.9566 482.907 72.2766 483.587C71.6099 484.267 71.2766 485.114 71.2766 486.127C71.2766 487.127 71.6099 487.967 72.2766 488.647C72.9566 489.327 73.7966 489.667 74.7966 489.667C75.4633 489.667 76.0633 489.514 76.5966 489.207C77.1299 488.887 77.5366 488.461 77.8166 487.927L79.2966 488.787C78.8699 489.574 78.2566 490.207 77.4566 490.687C76.6566 491.154 75.7699 491.387 74.7966 491.387ZM85.9946 480.867C87.1679 480.867 88.1079 481.241 88.8146 481.987C89.5212 482.721 89.8746 483.721 89.8746 484.987V491.127H88.1346V485.087C88.1346 484.274 87.9146 483.647 87.4746 483.207C87.0346 482.754 86.4279 482.527 85.6546 482.527C84.7879 482.527 84.0879 482.801 83.5546 483.347C83.0212 483.881 82.7546 484.707 82.7546 485.827V491.127H81.0146V477.127H82.7546V482.567C83.4612 481.434 84.5412 480.867 85.9946 480.867ZM97.2836 480.867C98.457 480.867 99.397 481.241 100.104 481.987C100.81 482.721 101.164 483.721 101.164 484.987V491.127H99.4236V485.087C99.4236 484.274 99.2036 483.647 98.7636 483.207C98.3236 482.754 97.717 482.527 96.9436 482.527C96.077 482.527 95.377 482.801 94.8436 483.347C94.3103 483.881 94.0436 484.707 94.0436 485.827V491.127H92.3036V481.127H94.0436V482.567C94.7503 481.434 95.8303 480.867 97.2836 480.867ZM104.473 479.307C104.139 479.307 103.859 479.194 103.633 478.967C103.406 478.741 103.293 478.467 103.293 478.147C103.293 477.827 103.406 477.554 103.633 477.327C103.859 477.087 104.139 476.967 104.473 476.967C104.793 476.967 105.066 477.087 105.293 477.327C105.519 477.554 105.633 477.827 105.633 478.147C105.633 478.467 105.519 478.741 105.293 478.967C105.066 479.194 104.793 479.307 104.473 479.307ZM103.593 491.127V481.127H105.333V491.127H103.593ZM116.267 481.127H118.007V495.127H116.267V489.407C115.401 490.727 114.141 491.387 112.487 491.387C111.087 491.387 109.894 490.881 108.907 489.867C107.921 488.841 107.427 487.594 107.427 486.127C107.427 484.661 107.921 483.421 108.907 482.407C109.894 481.381 111.087 480.867 112.487 480.867C114.141 480.867 115.401 481.527 116.267 482.847V481.127ZM112.707 489.707C113.721 489.707 114.567 489.367 115.247 488.687C115.927 487.994 116.267 487.141 116.267 486.127C116.267 485.114 115.927 484.267 115.247 483.587C114.567 482.894 113.721 482.547 112.707 482.547C111.707 482.547 110.867 482.894 110.187 483.587C109.507 484.267 109.167 485.114 109.167 486.127C109.167 487.141 109.507 487.994 110.187 488.687C110.867 489.367 111.707 489.707 112.707 489.707ZM127.543 481.127H129.283V491.127H127.543V489.687C126.837 490.821 125.757 491.387 124.303 491.387C123.13 491.387 122.19 491.021 121.483 490.287C120.777 489.541 120.423 488.534 120.423 487.267V481.127H122.163V487.167C122.163 487.981 122.383 488.614 122.823 489.067C123.263 489.507 123.87 489.727 124.643 489.727C125.51 489.727 126.21 489.461 126.743 488.927C127.277 488.381 127.543 487.547 127.543 486.427V481.127ZM133.153 486.927C133.326 487.821 133.733 488.514 134.373 489.007C135.026 489.501 135.826 489.747 136.773 489.747C138.093 489.747 139.053 489.261 139.653 488.287L141.133 489.127C140.159 490.634 138.693 491.387 136.733 491.387C135.146 491.387 133.853 490.894 132.853 489.907C131.866 488.907 131.373 487.647 131.373 486.127C131.373 484.621 131.859 483.367 132.833 482.367C133.806 481.367 135.066 480.867 136.613 480.867C138.079 480.867 139.273 481.387 140.193 482.427C141.126 483.454 141.593 484.694 141.593 486.147C141.593 486.401 141.573 486.661 141.533 486.927H133.153ZM136.613 482.507C135.679 482.507 134.906 482.774 134.293 483.307C133.679 483.827 133.299 484.527 133.153 485.407H139.833C139.686 484.461 139.313 483.741 138.713 483.247C138.113 482.754 137.413 482.507 136.613 482.507Z" fill="white"/>
<path d="M103.01 542.446L101.87 539.306H95.57L94.43 542.446H92.45L97.67 528.446H99.77L104.99 542.446H103.01ZM96.21 537.566H101.23L98.71 530.666L96.21 537.566ZM113.264 532.446H115.004V542.446H113.264V541.006C112.557 542.139 111.477 542.706 110.024 542.706C108.851 542.706 107.911 542.339 107.204 541.606C106.497 540.859 106.144 539.852 106.144 538.586V532.446H107.884V538.486C107.884 539.299 108.104 539.932 108.544 540.386C108.984 540.826 109.591 541.046 110.364 541.046C111.231 541.046 111.931 540.779 112.464 540.246C112.997 539.699 113.264 538.866 113.264 537.746V532.446ZM123.093 534.126H120.433V539.546C120.433 540.039 120.526 540.392 120.713 540.606C120.913 540.806 121.213 540.912 121.613 540.926C122.013 540.926 122.506 540.912 123.093 540.886V542.446C121.573 542.646 120.46 542.526 119.753 542.086C119.046 541.632 118.693 540.786 118.693 539.546V534.126H116.713V532.446H118.693V530.166L120.433 529.646V532.446H123.093V534.126ZM126.952 534.126C127.525 532.886 128.565 532.266 130.072 532.266V534.086C129.218 534.046 128.485 534.272 127.872 534.766C127.258 535.259 126.952 536.052 126.952 537.146V542.446H125.212V532.446H126.952V534.126ZM132.447 538.246C132.621 539.139 133.027 539.832 133.667 540.326C134.321 540.819 135.121 541.066 136.067 541.066C137.387 541.066 138.347 540.579 138.947 539.606L140.427 540.446C139.454 541.952 137.987 542.706 136.027 542.706C134.441 542.706 133.147 542.212 132.147 541.226C131.161 540.226 130.667 538.966 130.667 537.446C130.667 535.939 131.154 534.686 132.127 533.686C133.101 532.686 134.361 532.186 135.907 532.186C137.374 532.186 138.567 532.706 139.487 533.746C140.421 534.772 140.887 536.012 140.887 537.466C140.887 537.719 140.867 537.979 140.827 538.246H132.447ZM135.907 533.826C134.974 533.826 134.201 534.092 133.587 534.626C132.974 535.146 132.594 535.846 132.447 536.726H139.127C138.981 535.779 138.607 535.059 138.007 534.566C137.407 534.072 136.707 533.826 135.907 533.826Z" fill="white"/>
<defs>
<linearGradient id="paint0_linear_15_2" x1="241.178" y1="107.252" x2="241.246" y2="41.9538" gradientUnits="userSpaceOnUse">
<stop stop-color="#2A46DA"/>
<stop offset="1" stop-color="#1BDD97"/>
</linearGradient>
<linearGradient id="paint1_linear_15_2" x1="452" y1="75.8981" x2="155.091" y2="93.8994" gradientUnits="userSpaceOnUse">
<stop stop-color="#2A46DA"/>
<stop offset="1" stop-color="#1BDD97"/>
</linearGradient>
<linearGradient id="paint2_linear_15_2" x1="287.107" y1="158.57" x2="287.152" y2="93.2719" gradientUnits="userSpaceOnUse">
<stop stop-color="#2A46DA"/>
<stop offset="1" stop-color="#1BDD97"/>
</linearGradient>
<linearGradient id="paint3_linear_15_2" x1="609" y1="127.216" x2="157.866" y2="168.978" gradientUnits="userSpaceOnUse">
<stop stop-color="#2A46DA"/>
<stop offset="1" stop-color="#1BDD97"/>
</linearGradient>
<linearGradient id="paint4_linear_15_2" x1="229.476" y1="209.888" x2="229.555" y2="144.59" gradientUnits="userSpaceOnUse">
<stop stop-color="#2A46DA"/>
<stop offset="1" stop-color="#1BDD97"/>
</linearGradient>
<linearGradient id="paint5_linear_15_2" x1="412" y1="178.534" x2="154.709" y2="192.04" gradientUnits="userSpaceOnUse">
<stop stop-color="#2A46DA"/>
<stop offset="1" stop-color="#1BDD97"/>
</linearGradient>
<linearGradient id="paint6_linear_15_2" x1="342.52" y1="312.525" x2="342.552" y2="247.226" gradientUnits="userSpaceOnUse">
<stop stop-color="#2A46DA"/>
<stop offset="1" stop-color="#1BDD97"/>
</linearGradient>
<linearGradient id="paint7_linear_15_2" x1="796" y1="281.171" x2="165.72" y2="363.368" gradientUnits="userSpaceOnUse">
<stop stop-color="#2A46DA"/>
<stop offset="1" stop-color="#1BDD97"/>
</linearGradient>
<linearGradient id="paint8_linear_15_2" x1="266.044" y1="363.843" x2="266.097" y2="298.545" gradientUnits="userSpaceOnUse">
<stop stop-color="#2A46DA"/>
<stop offset="1" stop-color="#1BDD97"/>
</linearGradient>
<linearGradient id="paint9_linear_15_2" x1="537" y1="332.489" x2="156.312" y2="362.153" gradientUnits="userSpaceOnUse">
<stop stop-color="#2A46DA"/>
<stop offset="1" stop-color="#1BDD97"/>
</linearGradient>
<linearGradient id="paint10_linear_15_2" x1="298.224" y1="466.479" x2="298.265" y2="401.181" gradientUnits="userSpaceOnUse">
<stop stop-color="#2A46DA"/>
<stop offset="1" stop-color="#1BDD97"/>
</linearGradient>
<linearGradient id="paint11_linear_15_2" x1="647" y1="435.125" x2="158.91" y2="484.082" gradientUnits="userSpaceOnUse">
<stop stop-color="#2A46DA"/>
<stop offset="1" stop-color="#1BDD97"/>
</linearGradient>
<linearGradient id="paint12_linear_15_2" x1="249.662" y1="569.116" x2="249.724" y2="503.817" gradientUnits="userSpaceOnUse">
<stop stop-color="#2A46DA"/>
<stop offset="1" stop-color="#1BDD97"/>
</linearGradient>
<linearGradient id="paint13_linear_15_2" x1="481" y1="537.762" x2="155.441" y2="559.421" gradientUnits="userSpaceOnUse">
<stop stop-color="#2A46DA"/>
<stop offset="1" stop-color="#1BDD97"/>
</linearGradient>
<linearGradient id="paint14_linear_15_2" x1="232.109" y1="517.798" x2="232.185" y2="452.499" gradientUnits="userSpaceOnUse">
<stop stop-color="#2A46DA"/>
<stop offset="1" stop-color="#1BDD97"/>
</linearGradient>
<linearGradient id="paint15_linear_15_2" x1="421" y1="486.444" x2="154.786" y2="500.905" gradientUnits="userSpaceOnUse">
<stop stop-color="#2A46DA"/>
<stop offset="1" stop-color="#1BDD97"/>
</linearGradient>
<linearGradient id="paint16_linear_15_2" x1="244.103" y1="415.161" x2="244.169" y2="349.863" gradientUnits="userSpaceOnUse">
<stop stop-color="#2A46DA"/>
<stop offset="1" stop-color="#1BDD97"/>
</linearGradient>
<linearGradient id="paint17_linear_15_2" x1="462" y1="383.807" x2="155.205" y2="403.032" gradientUnits="userSpaceOnUse">
<stop stop-color="#2A46DA"/>
<stop offset="1" stop-color="#1BDD97"/>
</linearGradient>
<linearGradient id="paint18_linear_15_2" x1="258.145" y1="261.207" x2="258.202" y2="195.908" gradientUnits="userSpaceOnUse">
<stop stop-color="#2A46DA"/>
<stop offset="1" stop-color="#1BDD97"/>
</linearGradient>
<linearGradient id="paint19_linear_15_2" x1="510" y1="229.853" x2="155.858" y2="255.503" gradientUnits="userSpaceOnUse">
<stop stop-color="#2A46DA"/>
<stop offset="1" stop-color="#1BDD97"/>
</linearGradient>
<linearGradient id="paint20_linear_15_2" x1="576" y1="24.5798" x2="158.066" y2="60.3775" gradientUnits="userSpaceOnUse">
<stop stop-color="#2A46DA"/>
<stop offset="1" stop-color="#1BDD97"/>
</linearGradient>
</defs>
</svg>
