<svg width="770" height="701" viewBox="0 0 770 701" fill="none" xmlns="http://www.w3.org/2000/svg">
<path d="M73 17H768" stroke="#1C293D" stroke-width="3" stroke-linecap="round"/>
<path d="M73 103H768" stroke="#1C293D" stroke-width="3" stroke-linecap="round"/>
<path d="M73 275H768" stroke="#1C293D" stroke-width="3" stroke-linecap="round"/>
<path d="M73 189H768" stroke="#1C293D" stroke-width="3" stroke-linecap="round"/>
<path d="M73 361H768" stroke="#1C293D" stroke-width="3" stroke-linecap="round"/>
<path d="M73 448H768" stroke="#1C293D" stroke-width="3" stroke-linecap="round"/>
<path d="M63 540H758" stroke="#1C293D" stroke-width="3" stroke-linecap="round"/>
<path d="M346.832 639.921L343.98 642.315L348.857 648.128C349.301 648.657 349.719 648.952 350.111 649.013C350.506 649.047 350.923 648.892 351.364 648.546C351.793 648.186 352.311 647.728 352.916 647.171L354.32 648.844C352.869 650.426 351.567 651.3 350.414 651.464C349.248 651.613 348.107 651.023 346.991 649.694L342.114 643.881L339.99 645.663L338.478 643.861L340.602 642.079L338.55 639.634L339.948 637.51L342.468 640.513L345.321 638.12L346.832 639.921ZM363.902 638.501C363.713 640.511 362.832 642.177 361.259 643.497C359.686 644.816 357.893 645.395 355.88 645.232C353.881 645.057 352.216 644.176 350.884 642.589C349.552 641.002 348.974 639.209 349.149 637.21C349.338 635.199 350.219 633.534 351.792 632.214C353.365 630.894 355.158 630.316 357.171 630.479C359.184 630.642 360.856 631.517 362.188 633.104C363.52 634.691 364.091 636.49 363.902 638.501ZM359.729 641.673C360.801 640.774 361.396 639.653 361.514 638.312C361.631 636.971 361.234 635.757 360.322 634.67C359.41 633.583 358.283 632.981 356.942 632.864C355.601 632.746 354.394 633.138 353.322 634.037C352.263 634.925 351.676 636.04 351.558 637.381C351.441 638.722 351.838 639.936 352.75 641.023C353.662 642.11 354.789 642.712 356.13 642.829C357.471 642.947 358.671 642.561 359.729 641.673ZM367.288 619.686L369.154 618.121L378.153 628.845L376.287 630.411L374.991 628.867C375.253 630.718 374.605 632.298 373.046 633.606C371.788 634.661 370.45 635.114 369.032 634.964C367.602 634.799 366.318 634.037 365.178 632.679L359.652 626.094L361.518 624.528L366.954 631.006C367.686 631.878 368.492 632.359 369.371 632.449C370.239 632.525 371.088 632.215 371.917 631.519C372.847 630.739 373.357 629.823 373.449 628.772C373.53 627.705 373.066 626.572 372.058 625.37L367.288 619.686ZM379.341 612.643L376.489 615.037L381.366 620.849C381.81 621.379 382.228 621.673 382.62 621.734C383.015 621.769 383.432 621.613 383.873 621.268C384.302 620.908 384.82 620.449 385.425 619.893L386.829 621.566C385.378 623.148 384.076 624.021 382.923 624.185C381.757 624.335 380.616 623.745 379.5 622.415L374.623 616.603L372.499 618.384L370.987 616.583L373.111 614.801L371.059 612.356L372.457 610.232L374.977 613.235L377.83 610.841L379.341 612.643ZM390.825 597.451L389.023 598.963L384.481 597.95L386.733 596.06L390.825 597.451ZM394.344 596.984L396.21 595.418L405.209 606.143L403.343 607.709L401.795 605.864C402.054 608.06 401.296 609.901 399.523 611.389C398.022 612.649 396.286 613.179 394.316 612.981C392.334 612.767 390.683 611.874 389.363 610.301C388.043 608.728 387.456 606.955 387.602 604.98C387.737 602.991 388.555 601.367 390.056 600.107C391.829 598.619 393.774 598.193 395.892 598.829L394.344 596.984ZM398.247 609.389C399.334 608.477 399.936 607.351 400.053 606.01C400.159 604.654 399.755 603.433 398.843 602.346C397.932 601.26 396.805 600.657 395.464 600.54C394.111 600.409 392.891 600.799 391.804 601.711C390.731 602.61 390.142 603.738 390.037 605.094C389.92 606.435 390.317 607.649 391.229 608.736C392.141 609.822 393.273 610.432 394.627 610.563C395.968 610.681 397.175 610.289 398.247 609.389ZM407.59 581.154C405.571 582.58 405.311 584.187 406.811 585.975L407.081 586.297L409.912 583.921L411.424 585.723L408.593 588.098L416.08 597.021L414.214 598.587L406.726 589.664L405.011 591.104L403.499 589.302L405.215 587.862L404.945 587.541C403.733 586.096 403.215 584.666 403.392 583.251C403.583 581.823 404.479 580.524 406.078 579.352L407.59 581.154ZM419.626 575.769L421.492 574.204L430.491 584.928L428.625 586.494L427.078 584.649C427.336 586.845 426.579 588.687 424.805 590.175C423.304 591.434 421.568 591.965 419.598 591.766C417.616 591.553 415.965 590.66 414.645 589.087C413.325 587.514 412.739 585.74 412.885 583.766C413.019 581.777 413.837 580.152 415.338 578.892C417.112 577.404 419.057 576.978 421.174 577.614L419.626 575.769ZM423.53 588.175C424.616 587.263 425.218 586.136 425.336 584.795C425.441 583.44 425.038 582.219 424.126 581.132C423.214 580.045 422.087 579.443 420.746 579.326C419.393 579.194 418.173 579.584 417.086 580.496C416.014 581.396 415.425 582.524 415.32 583.879C415.202 585.22 415.6 586.434 416.511 587.521C417.423 588.608 418.556 589.217 419.909 589.349C421.25 589.466 422.457 589.075 423.53 588.175ZM423.626 569.087C423.268 569.387 422.866 569.518 422.419 569.479C421.972 569.44 421.604 569.249 421.316 568.905C421.028 568.562 420.904 568.167 420.943 567.72C420.97 567.259 421.162 566.878 421.52 566.578C421.863 566.29 422.264 566.173 422.723 566.226C423.17 566.265 423.538 566.456 423.826 566.8C424.114 567.143 424.238 567.538 424.199 567.985C424.16 568.432 423.969 568.8 423.626 569.087ZM433.319 582.556L424.32 571.831L426.186 570.265L435.185 580.99L433.319 582.556ZM436.379 564.783L433.526 567.177L438.403 572.989C438.847 573.518 439.265 573.813 439.658 573.874C440.052 573.909 440.47 573.753 440.911 573.408C441.34 573.048 441.857 572.589 442.462 572.033L443.866 573.706C442.416 575.288 441.114 576.161 439.96 576.325C438.794 576.475 437.653 575.885 436.537 574.555L431.66 568.742L429.536 570.524L428.025 568.723L430.148 566.941L428.096 564.496L429.494 562.372L432.014 565.375L434.867 562.981L436.379 564.783ZM366.621 657.319L368.488 655.754L381.086 670.768L379.22 672.334L377.672 670.489C377.931 672.685 377.173 674.527 375.4 676.014C373.899 677.274 372.163 677.805 370.193 677.606C368.211 677.393 366.56 676.5 365.24 674.927C363.92 673.354 363.333 671.58 363.48 669.605C363.614 667.616 364.432 665.992 365.933 664.732C367.706 663.244 369.652 662.818 371.769 663.454L366.621 657.319ZM374.124 674.015C375.211 673.103 375.813 671.976 375.93 670.635C376.036 669.28 375.632 668.058 374.721 666.972C373.809 665.885 372.682 665.283 371.341 665.165C369.988 665.034 368.768 665.424 367.681 666.336C366.609 667.236 366.02 668.363 365.914 669.719C365.797 671.06 366.194 672.274 367.106 673.361C368.018 674.448 369.151 675.057 370.504 675.189C371.845 675.306 373.052 674.915 374.124 674.015ZM374.085 651.02L377.065 657.402L375.456 658.752L371.94 652.82L374.085 651.02ZM387.502 647.109L389.368 645.543L398.367 656.268L396.501 657.834L394.953 655.989C395.212 658.184 394.454 660.026 392.681 661.514C391.18 662.774 389.444 663.304 387.474 663.106C385.492 662.892 383.841 661.999 382.521 660.426C381.201 658.853 380.614 657.08 380.761 655.105C380.895 653.116 381.713 651.492 383.214 650.232C384.987 648.744 386.932 648.318 389.05 648.954L387.502 647.109ZM391.405 659.514C392.492 658.602 393.094 657.476 393.211 656.135C393.317 654.779 392.913 653.558 392.001 652.471C391.09 651.384 389.963 650.782 388.622 650.665C387.269 650.533 386.049 650.924 384.962 651.835C383.889 652.735 383.3 653.863 383.195 655.219C383.078 656.56 383.475 657.774 384.387 658.861C385.299 659.947 386.431 660.556 387.785 660.688C389.126 660.805 390.333 660.414 391.405 659.514ZM406.469 649.945C404.853 651.3 403.059 651.892 401.087 651.72C399.102 651.533 397.438 650.639 396.094 649.037C394.75 647.435 394.165 645.648 394.337 643.676C394.498 641.689 395.386 640.018 397.002 638.662C398.06 637.774 399.227 637.234 400.503 637.041C401.766 636.833 402.965 636.985 404.1 637.495L403.29 639.709C402.538 639.365 401.733 639.262 400.873 639.398C400.027 639.523 399.247 639.886 398.532 640.486C397.459 641.385 396.864 642.506 396.747 643.847C396.644 645.176 397.048 646.384 397.96 647.471C398.86 648.544 399.974 649.145 401.301 649.274C402.642 649.391 403.849 649 404.921 648.1C405.636 647.5 406.142 646.796 406.438 645.987C406.722 645.164 406.774 644.34 406.594 643.516L408.955 643.107C409.206 644.334 409.118 645.565 408.692 646.8C408.254 648.021 407.513 649.069 406.469 649.945ZM418.031 640.243C416.416 641.598 414.621 642.19 412.649 642.018C410.665 641.831 409.001 640.936 407.657 639.335C406.313 637.733 405.727 635.946 405.9 633.974C406.06 631.987 406.949 630.316 408.564 628.96C409.623 628.072 410.789 627.532 412.065 627.339C413.329 627.131 414.528 627.283 415.662 627.793L414.853 630.007C414.101 629.663 413.295 629.56 412.435 629.696C411.59 629.821 410.809 630.184 410.094 630.783C409.022 631.683 408.427 632.804 408.31 634.145C408.206 635.474 408.611 636.682 409.523 637.769C410.423 638.842 411.536 639.442 412.863 639.572C414.204 639.689 415.411 639.298 416.484 638.398C417.199 637.798 417.704 637.094 418 636.285C418.284 635.462 418.336 634.638 418.157 633.814L420.518 633.405C420.768 634.632 420.68 635.863 420.254 637.098C419.816 638.319 419.075 639.367 418.031 640.243ZM432.237 625.545C432.048 627.555 431.167 629.221 429.594 630.54C428.021 631.86 426.228 632.439 424.215 632.276C422.216 632.101 420.551 631.22 419.219 629.633C417.887 628.046 417.309 626.253 417.484 624.254C417.673 622.243 418.554 620.578 420.127 619.258C421.7 617.938 423.493 617.36 425.506 617.523C427.519 617.686 429.191 618.561 430.523 620.148C431.855 621.735 432.426 623.534 432.237 625.545ZM428.064 628.717C429.136 627.817 429.731 626.697 429.849 625.356C429.966 624.014 429.569 622.8 428.657 621.714C427.745 620.627 426.618 620.025 425.277 619.908C423.936 619.79 422.729 620.181 421.657 621.081C420.599 621.969 420.011 623.084 419.893 624.425C419.776 625.766 420.173 626.98 421.085 628.067C421.997 629.154 423.124 629.756 424.465 629.873C425.806 629.99 427.006 629.605 428.064 628.717ZM431.601 613.176C431.1 611.33 431.658 609.729 433.274 608.373L434.911 610.325C433.96 611.05 433.378 611.953 433.164 613.034C432.95 614.115 433.335 615.242 434.319 616.414L439.088 622.098L437.222 623.664L428.223 612.94L430.089 611.374L431.601 613.176ZM439.955 595.785L441.821 594.219L454.42 609.234L452.554 610.8L451.006 608.955C451.264 611.15 450.507 612.992 448.734 614.48C447.233 615.74 445.497 616.27 443.527 616.072C441.545 615.858 439.894 614.965 438.574 613.392C437.254 611.819 436.667 610.046 436.813 608.071C436.948 606.082 437.766 604.458 439.267 603.198C441.04 601.71 442.985 601.284 445.103 601.92L439.955 595.785ZM447.458 612.48C448.545 611.568 449.147 610.442 449.264 609.101C449.37 607.745 448.966 606.524 448.054 605.437C447.142 604.35 446.016 603.748 444.675 603.631C443.321 603.499 442.102 603.89 441.015 604.801C439.942 605.701 439.353 606.829 439.248 608.185C439.131 609.526 439.528 610.74 440.44 611.827C441.352 612.913 442.484 613.523 443.838 613.654C445.179 613.772 446.386 613.38 447.458 612.48Z" fill="white"/>
<path d="M104.41 643.589L106.405 641.915L119.004 656.929L117.395 658.279L100.26 653.541L109.673 664.759L107.678 666.432L95.0797 651.418L96.6884 650.068L113.805 654.785L104.41 643.589ZM112.329 640.928C111.972 641.228 111.569 641.358 111.122 641.319C110.675 641.28 110.308 641.089 110.02 640.746C109.732 640.403 109.607 640.008 109.646 639.56C109.674 639.099 109.866 638.718 110.223 638.418C110.567 638.13 110.968 638.013 111.427 638.067C111.874 638.106 112.241 638.297 112.529 638.64C112.817 638.983 112.942 639.378 112.903 639.825C112.863 640.273 112.672 640.64 112.329 640.928ZM122.022 654.396L113.023 643.672L114.889 642.106L123.888 652.831L122.022 654.396ZM128.379 623.477L130.245 621.911L142.844 636.925L140.977 638.491L139.43 636.646C139.688 638.842 138.931 640.684 137.158 642.172C135.656 643.431 133.92 643.962 131.95 643.763C129.968 643.55 128.317 642.657 126.997 641.084C125.678 639.511 125.091 637.737 125.237 635.763C125.371 633.774 126.189 632.149 127.691 630.889C129.464 629.401 131.409 628.975 133.526 629.611L128.379 623.477ZM135.882 640.172C136.968 639.26 137.57 638.133 137.688 636.792C137.793 635.437 137.39 634.216 136.478 633.129C135.566 632.042 134.44 631.44 133.098 631.323C131.745 631.191 130.525 631.581 129.438 632.493C128.366 633.393 127.777 634.521 127.672 635.876C127.554 637.217 127.952 638.431 128.863 639.518C129.775 640.605 130.908 641.214 132.261 641.346C133.602 641.463 134.809 641.072 135.882 640.172ZM135.843 617.177L138.822 623.559L137.213 624.909L133.698 618.977L135.843 617.177ZM149.259 613.266L151.125 611.7L160.124 622.425L158.258 623.991L156.711 622.146C156.969 624.342 156.212 626.183 154.438 627.671C152.937 628.931 151.201 629.462 149.231 629.263C147.249 629.05 145.598 628.156 144.278 626.584C142.958 625.011 142.372 623.237 142.518 621.262C142.652 619.273 143.47 617.649 144.971 616.389C146.745 614.901 148.69 614.475 150.807 615.111L149.259 613.266ZM153.163 625.671C154.249 624.76 154.851 623.633 154.969 622.292C155.074 620.936 154.671 619.715 153.759 618.628C152.847 617.542 151.72 616.94 150.379 616.822C149.026 616.691 147.806 617.081 146.719 617.993C145.647 618.893 145.058 620.02 144.953 621.376C144.835 622.717 145.232 623.931 146.144 625.018C147.056 626.104 148.189 626.714 149.542 626.845C150.883 626.963 152.09 626.571 153.163 625.671ZM168.226 616.102C166.61 617.458 164.816 618.049 162.844 617.877C160.86 617.69 159.195 616.796 157.852 615.194C156.508 613.593 155.922 611.806 156.095 609.833C156.255 607.847 157.143 606.175 158.759 604.82C159.817 603.932 160.984 603.391 162.26 603.198C163.524 602.99 164.723 603.142 165.857 603.652L165.047 605.867C164.296 605.523 163.49 605.419 162.63 605.556C161.784 605.68 161.004 606.043 160.289 606.643C159.217 607.543 158.622 608.663 158.504 610.004C158.401 611.334 158.806 612.542 159.718 613.628C160.618 614.701 161.731 615.302 163.058 615.431C164.399 615.548 165.606 615.157 166.678 614.257C167.393 613.657 167.899 612.953 168.195 612.144C168.479 611.321 168.531 610.497 168.351 609.673L170.713 609.264C170.963 610.491 170.875 611.723 170.449 612.957C170.011 614.178 169.27 615.226 168.226 616.102ZM179.789 606.4C178.173 607.756 176.379 608.347 174.406 608.175C172.422 607.988 170.758 607.094 169.414 605.492C168.07 603.891 167.485 602.104 167.657 600.131C167.818 598.145 168.706 596.473 170.322 595.117C171.38 594.23 172.547 593.689 173.822 593.496C175.086 593.288 176.285 593.44 177.42 593.95L176.61 596.164C175.858 595.82 175.053 595.717 174.193 595.854C173.347 595.978 172.567 596.341 171.852 596.941C170.779 597.841 170.184 598.961 170.067 600.302C169.964 601.631 170.368 602.839 171.28 603.926C172.18 604.999 173.294 605.6 174.62 605.729C175.962 605.846 177.168 605.455 178.241 604.555C178.956 603.955 179.461 603.251 179.757 602.442C180.041 601.619 180.094 600.795 179.914 599.971L182.275 599.562C182.525 600.789 182.438 602.021 182.012 603.255C181.574 604.476 180.833 605.524 179.789 606.4ZM193.994 591.702C193.805 593.713 192.924 595.378 191.351 596.698C189.778 598.018 187.985 598.596 185.972 598.433C183.974 598.258 182.308 597.377 180.977 595.79C179.645 594.203 179.066 592.41 179.241 590.411C179.43 588.4 180.311 586.735 181.884 585.415C183.457 584.095 185.25 583.517 187.263 583.68C189.276 583.843 190.948 584.718 192.28 586.305C193.612 587.892 194.184 589.691 193.994 591.702ZM189.821 594.874C190.894 593.975 191.489 592.854 191.606 591.513C191.723 590.172 191.326 588.958 190.414 587.871C189.502 586.784 188.376 586.182 187.035 586.065C185.693 585.947 184.487 586.339 183.414 587.239C182.356 588.126 181.768 589.241 181.651 590.582C181.534 591.923 181.931 593.137 182.843 594.224C183.755 595.311 184.881 595.913 186.222 596.03C187.564 596.148 188.763 595.762 189.821 594.874ZM193.359 579.333C192.858 577.487 193.415 575.886 195.031 574.53L196.669 576.482C195.718 577.207 195.135 578.11 194.921 579.191C194.707 580.272 195.092 581.399 196.076 582.572L200.846 588.256L198.98 589.821L189.981 579.097L191.847 577.531L193.359 579.333ZM201.713 561.942L203.579 560.376L216.177 575.391L214.311 576.957L212.763 575.112C213.022 577.308 212.264 579.149 210.491 580.637C208.99 581.897 207.254 582.428 205.284 582.229C203.302 582.016 201.651 581.123 200.331 579.55C199.011 577.977 198.425 576.203 198.571 574.228C198.705 572.239 199.523 570.615 201.024 569.355C202.798 567.867 204.743 567.441 206.86 568.077L201.713 561.942ZM209.215 578.637C210.302 577.726 210.904 576.599 211.022 575.258C211.127 573.902 210.724 572.681 209.812 571.594C208.9 570.508 207.773 569.906 206.432 569.788C205.079 569.657 203.859 570.047 202.772 570.959C201.7 571.859 201.111 572.986 201.005 574.342C200.888 575.683 201.285 576.897 202.197 577.984C203.109 579.07 204.242 579.68 205.595 579.811C206.936 579.929 208.143 579.537 209.215 578.637ZM126.265 669.634L128.26 667.96L140.858 682.975L139.25 684.325L122.115 679.586L131.528 690.804L129.533 692.478L116.935 677.463L118.543 676.114L135.66 680.831L126.265 669.634ZM134.184 666.974C133.826 667.274 133.424 667.404 132.977 667.365C132.53 667.326 132.162 667.135 131.875 666.791C131.587 666.448 131.462 666.053 131.501 665.606C131.528 665.145 131.721 664.764 132.078 664.464C132.421 664.176 132.822 664.059 133.282 664.112C133.729 664.151 134.096 664.342 134.384 664.686C134.672 665.029 134.796 665.424 134.757 665.871C134.718 666.318 134.527 666.686 134.184 666.974ZM143.877 680.442L134.878 669.717L136.744 668.151L145.743 678.876L143.877 680.442ZM150.234 649.522L152.1 647.956L164.698 662.971L162.832 664.537L161.284 662.692C161.543 664.888 160.785 666.729 159.012 668.217C157.511 669.477 155.775 670.007 153.805 669.809C151.823 669.595 150.172 668.702 148.852 667.129C147.532 665.556 146.946 663.783 147.092 661.808C147.226 659.819 148.044 658.195 149.545 656.935C151.318 655.447 153.264 655.021 155.381 655.657L150.234 649.522ZM157.736 666.217C158.823 665.305 159.425 664.179 159.543 662.838C159.648 661.482 159.245 660.261 158.333 659.174C157.421 658.088 156.294 657.485 154.953 657.368C153.6 657.236 152.38 657.627 151.293 658.539C150.221 659.438 149.632 660.566 149.526 661.922C149.409 663.263 149.806 664.477 150.718 665.564C151.63 666.65 152.763 667.26 154.116 667.391C155.457 667.509 156.664 667.117 157.736 666.217ZM162.481 639.209L162.69 643.858L160.888 645.37L160.228 641.099L162.481 639.209ZM165.054 654.996C166.044 655.798 167.104 656.176 168.235 656.129C169.379 656.07 170.459 655.615 171.474 654.763C172.89 653.575 173.482 652.189 173.249 650.605L175.592 650.174C175.904 652.666 175.009 654.794 172.907 656.558C171.206 657.986 169.375 658.62 167.414 658.462C165.456 658.278 163.793 657.37 162.426 655.74C161.07 654.124 160.464 652.342 160.608 650.394C160.752 648.445 161.653 646.775 163.312 645.383C164.885 644.064 166.632 643.547 168.555 643.835C170.48 644.096 172.096 645.006 173.404 646.564C173.632 646.836 173.845 647.133 174.042 647.455L165.054 654.996ZM164.788 647.142C163.787 647.982 163.197 648.964 163.019 650.088C162.83 651.198 163.052 652.29 163.687 653.366L170.851 647.355C169.841 646.471 168.793 646.035 167.706 646.046C166.618 646.057 165.646 646.422 164.788 647.142ZM174.651 641.278C174.999 641.693 175.488 641.855 176.119 641.764C176.738 641.659 177.406 641.44 178.125 641.105C178.831 640.756 179.561 640.436 180.315 640.144C181.058 639.838 181.834 639.747 182.645 639.871C183.443 639.98 184.149 640.4 184.761 641.129C185.576 642.101 185.851 643.199 185.585 644.421C185.334 645.631 184.622 646.728 183.449 647.712C182.405 648.588 181.32 649.109 180.192 649.275C179.065 649.442 178.026 649.278 177.075 648.784L177.91 646.512C178.513 646.883 179.177 647.02 179.901 646.925C180.625 646.829 181.316 646.505 181.973 645.953C182.588 645.437 183 644.897 183.208 644.332C183.405 643.753 183.293 643.213 182.873 642.713C182.525 642.298 182.042 642.143 181.423 642.248C180.792 642.339 180.124 642.559 179.418 642.907C178.699 643.242 177.963 643.555 177.209 643.847C176.455 644.139 175.678 644.23 174.88 644.12C174.081 644.011 173.382 643.598 172.782 642.883C172.002 641.954 171.717 640.889 171.928 639.688C172.154 638.476 172.81 637.414 173.896 636.502C174.769 635.77 175.709 635.322 176.717 635.159C177.727 634.969 178.698 635.08 179.629 635.493L178.801 637.686C177.647 637.095 176.498 637.279 175.354 638.239C174.825 638.683 174.483 639.19 174.327 639.759C174.159 640.314 174.267 640.821 174.651 641.278ZM189.023 624.284L190.889 622.718L199.889 633.443L198.022 635.009L196.475 633.164C196.733 635.359 195.976 637.201 194.202 638.689C192.701 639.949 190.965 640.479 188.995 640.281C187.013 640.067 185.362 639.174 184.042 637.601C182.722 636.028 182.136 634.255 182.282 632.28C182.416 630.291 183.234 628.667 184.736 627.407C186.509 625.919 188.454 625.493 190.571 626.129L189.023 624.284ZM192.927 636.689C194.013 635.777 194.615 634.651 194.733 633.31C194.838 631.954 194.435 630.733 193.523 629.646C192.611 628.559 191.484 627.957 190.143 627.84C188.79 627.708 187.57 628.099 186.483 629.01C185.411 629.91 184.822 631.038 184.717 632.394C184.599 633.735 184.997 634.949 185.908 636.036C186.82 637.122 187.953 637.732 189.306 637.863C190.647 637.98 191.854 637.589 192.927 636.689ZM207.99 627.12C206.374 628.475 204.58 629.067 202.608 628.895C200.624 628.708 198.96 627.814 197.616 626.212C196.272 624.61 195.686 622.823 195.859 620.851C196.019 618.864 196.908 617.193 198.523 615.837C199.582 614.949 200.748 614.409 202.024 614.216C203.288 614.008 204.487 614.16 205.621 614.67L204.812 616.884C204.06 616.54 203.254 616.437 202.394 616.573C201.548 616.698 200.768 617.061 200.053 617.661C198.981 618.56 198.386 619.681 198.268 621.022C198.165 622.351 198.57 623.559 199.482 624.646C200.382 625.719 201.495 626.32 202.822 626.449C204.163 626.566 205.37 626.175 206.443 625.275C207.157 624.675 207.663 623.971 207.959 623.162C208.243 622.339 208.295 621.515 208.116 620.691L210.477 620.282C210.727 621.509 210.639 622.74 210.213 623.975C209.775 625.196 209.034 626.244 207.99 627.12ZM219.553 617.418C217.937 618.773 216.143 619.365 214.171 619.193C212.186 619.006 210.522 618.111 209.178 616.51C207.834 614.908 207.249 613.121 207.421 611.149C207.582 609.162 208.47 607.491 210.086 606.135C211.144 605.247 212.311 604.707 213.587 604.514C214.85 604.306 216.049 604.458 217.184 604.968L216.374 607.182C215.622 606.838 214.817 606.735 213.957 606.871C213.111 606.996 212.331 607.359 211.616 607.958C210.543 608.858 209.948 609.979 209.831 611.32C209.728 612.649 210.132 613.857 211.044 614.944C211.944 616.017 213.058 616.617 214.384 616.747C215.726 616.864 216.933 616.473 218.005 615.573C218.72 614.973 219.225 614.269 219.521 613.46C219.805 612.637 219.858 611.813 219.678 610.989L222.039 610.58C222.289 611.807 222.202 613.038 221.776 614.273C221.338 615.494 220.597 616.542 219.553 617.418ZM233.758 602.72C233.569 604.73 232.688 606.396 231.115 607.715C229.542 609.035 227.749 609.614 225.736 609.451C223.738 609.276 222.073 608.395 220.741 606.808C219.409 605.221 218.83 603.428 219.005 601.429C219.194 599.418 220.075 597.753 221.648 596.433C223.221 595.113 225.014 594.535 227.027 594.698C229.04 594.861 230.713 595.736 232.044 597.323C233.376 598.91 233.948 600.709 233.758 602.72ZM229.585 605.892C230.658 604.992 231.253 603.872 231.37 602.531C231.488 601.189 231.09 599.975 230.178 598.889C229.266 597.802 228.14 597.2 226.799 597.083C225.457 596.965 224.251 597.356 223.178 598.256C222.12 599.144 221.532 600.259 221.415 601.6C221.298 602.941 221.695 604.155 222.607 605.242C223.519 606.329 224.645 606.931 225.986 607.048C227.328 607.165 228.527 606.78 229.585 605.892ZM233.123 590.351C232.622 588.505 233.179 586.904 234.795 585.548L236.433 587.5C235.482 588.225 234.899 589.128 234.685 590.209C234.471 591.29 234.857 592.417 235.84 593.589L240.61 599.273L238.744 600.839L229.745 590.115L231.611 588.549L233.123 590.351ZM241.477 572.96L243.343 571.394L255.941 586.409L254.075 587.975L252.527 586.13C252.786 588.326 252.029 590.167 250.255 591.655C248.754 592.915 247.018 593.445 245.048 593.247C243.066 593.033 241.415 592.14 240.095 590.567C238.775 588.994 238.189 587.221 238.335 585.246C238.469 583.257 239.287 581.633 240.788 580.373C242.562 578.885 244.507 578.459 246.624 579.095L241.477 572.96ZM248.979 589.655C250.066 588.743 250.668 587.617 250.786 586.276C250.891 584.92 250.488 583.699 249.576 582.612C248.664 581.526 247.537 580.923 246.196 580.806C244.843 580.674 243.623 581.065 242.536 581.977C241.464 582.876 240.875 584.004 240.769 585.36C240.652 586.701 241.049 587.915 241.961 589.002C242.873 590.088 244.006 590.698 245.359 590.829C246.7 590.947 247.907 590.555 248.979 589.655Z" fill="white"/>
<path d="M14.008 456V453.872L20.924 446.816C22.772 444.968 23.696 443.381 23.696 442.056C23.696 440.955 23.36 440.096 22.688 439.48C22.016 438.864 21.1947 438.556 20.224 438.556C18.376 438.556 17.032 439.433 16.192 441.188L14.008 439.9C14.624 438.631 15.4733 437.669 16.556 437.016C17.6573 436.363 18.8707 436.036 20.196 436.036C21.8387 436.036 23.2667 436.577 24.48 437.66C25.6933 438.743 26.3 440.199 26.3 442.028C26.3 444.007 25.1333 446.163 22.8 448.496L17.788 453.48H26.664V456H14.008ZM41.8842 453.592C40.5588 455.44 38.7015 456.364 36.3122 456.364C33.9229 456.364 32.0655 455.44 30.7402 453.592C29.4149 451.744 28.7522 449.28 28.7522 446.2C28.7522 443.12 29.4149 440.656 30.7402 438.808C32.0655 436.96 33.9229 436.036 36.3122 436.036C38.7015 436.036 40.5588 436.96 41.8842 438.808C43.2095 440.656 43.8722 443.12 43.8722 446.2C43.8722 449.28 43.2095 451.744 41.8842 453.592ZM32.6442 451.828C33.5029 453.153 34.7255 453.816 36.3122 453.816C37.8989 453.816 39.1215 453.153 39.9802 451.828C40.8575 450.503 41.2962 448.627 41.2962 446.2C41.2962 443.773 40.8575 441.897 39.9802 440.572C39.1215 439.228 37.8989 438.556 36.3122 438.556C34.7255 438.556 33.5029 439.219 32.6442 440.544C31.7855 441.869 31.3562 443.755 31.3562 446.2C31.3562 448.627 31.7855 450.503 32.6442 451.828ZM59.5209 453.592C58.1956 455.44 56.3382 456.364 53.9489 456.364C51.5596 456.364 49.7022 455.44 48.3769 453.592C47.0516 451.744 46.3889 449.28 46.3889 446.2C46.3889 443.12 47.0516 440.656 48.3769 438.808C49.7022 436.96 51.5596 436.036 53.9489 436.036C56.3382 436.036 58.1956 436.96 59.5209 438.808C60.8462 440.656 61.5089 443.12 61.5089 446.2C61.5089 449.28 60.8462 451.744 59.5209 453.592ZM50.2809 451.828C51.1396 453.153 52.3622 453.816 53.9489 453.816C55.5356 453.816 56.7582 453.153 57.6169 451.828C58.4942 450.503 58.9329 448.627 58.9329 446.2C58.9329 443.773 58.4942 441.897 57.6169 440.572C56.7582 439.228 55.5356 438.556 53.9489 438.556C52.3622 438.556 51.1396 439.219 50.2809 440.544C49.4222 441.869 48.9929 443.755 48.9929 446.2C48.9929 448.627 49.4222 450.503 50.2809 451.828Z" fill="white"/>
<path d="M19.532 270.176C21.492 270.176 23.1067 270.792 24.376 272.024C25.6453 273.237 26.28 274.815 26.28 276.756C26.28 278.697 25.6453 280.284 24.376 281.516C23.1067 282.748 21.492 283.364 19.532 283.364C17.5533 283.364 15.9293 282.748 14.66 281.516C13.4093 280.284 12.784 278.697 12.784 276.756C12.784 275.244 13.176 273.937 13.96 272.836L20.26 263.4H23.228L18.608 270.232C19.0187 270.195 19.3267 270.176 19.532 270.176ZM16.508 279.752C17.292 280.499 18.3 280.872 19.532 280.872C20.764 280.872 21.7627 280.499 22.528 279.752C23.312 278.987 23.704 277.988 23.704 276.756C23.704 275.524 23.312 274.535 22.528 273.788C21.7627 273.041 20.764 272.668 19.532 272.668C18.2813 272.668 17.2733 273.041 16.508 273.788C15.7427 274.535 15.36 275.524 15.36 276.756C15.36 277.988 15.7427 278.987 16.508 279.752ZM41.4584 280.592C40.1331 282.44 38.2757 283.364 35.8864 283.364C33.4971 283.364 31.6397 282.44 30.3144 280.592C28.9891 278.744 28.3264 276.28 28.3264 273.2C28.3264 270.12 28.9891 267.656 30.3144 265.808C31.6397 263.96 33.4971 263.036 35.8864 263.036C38.2757 263.036 40.1331 263.96 41.4584 265.808C42.7837 267.656 43.4464 270.12 43.4464 273.2C43.4464 276.28 42.7837 278.744 41.4584 280.592ZM32.2184 278.828C33.0771 280.153 34.2997 280.816 35.8864 280.816C37.4731 280.816 38.6957 280.153 39.5544 278.828C40.4317 277.503 40.8704 275.627 40.8704 273.2C40.8704 270.773 40.4317 268.897 39.5544 267.572C38.6957 266.228 37.4731 265.556 35.8864 265.556C34.2997 265.556 33.0771 266.219 32.2184 267.544C31.3597 268.869 30.9304 270.755 30.9304 273.2C30.9304 275.627 31.3597 277.503 32.2184 278.828ZM59.0951 280.592C57.7698 282.44 55.9125 283.364 53.5231 283.364C51.1338 283.364 49.2765 282.44 47.9511 280.592C46.6258 278.744 45.9631 276.28 45.9631 273.2C45.9631 270.12 46.6258 267.656 47.9511 265.808C49.2765 263.96 51.1338 263.036 53.5231 263.036C55.9125 263.036 57.7698 263.96 59.0951 265.808C60.4205 267.656 61.0831 270.12 61.0831 273.2C61.0831 276.28 60.4205 278.744 59.0951 280.592ZM49.8551 278.828C50.7138 280.153 51.9365 280.816 53.5231 280.816C55.1098 280.816 56.3325 280.153 57.1911 278.828C58.0685 277.503 58.5071 275.627 58.5071 273.2C58.5071 270.773 58.0685 268.897 57.1911 267.572C56.3325 266.228 55.1098 265.556 53.5231 265.556C51.9365 265.556 50.7138 266.219 49.8551 267.544C48.9965 268.869 48.5671 270.755 48.5671 273.2C48.5671 275.627 48.9965 277.503 49.8551 278.828Z" fill="white"/>
<path d="M23.424 186.864C24.376 187.349 25.1227 188.003 25.664 188.824C26.2053 189.645 26.476 190.579 26.476 191.624C26.476 193.416 25.8507 194.825 24.6 195.852C23.3493 196.86 21.7347 197.364 19.756 197.364C17.796 197.364 16.1907 196.86 14.94 195.852C13.6893 194.825 13.064 193.416 13.064 191.624C13.064 190.579 13.3347 189.645 13.876 188.824C14.4173 188.003 15.164 187.349 16.116 186.864C14.5107 185.856 13.708 184.428 13.708 182.58C13.708 180.807 14.296 179.444 15.472 178.492C16.6667 177.521 18.0947 177.036 19.756 177.036C21.436 177.036 22.864 177.521 24.04 178.492C25.2347 179.444 25.832 180.807 25.832 182.58C25.832 184.428 25.0293 185.856 23.424 186.864ZM19.756 179.528C18.7667 179.528 17.936 179.789 17.264 180.312C16.6107 180.835 16.284 181.609 16.284 182.636C16.284 183.625 16.62 184.4 17.292 184.96C17.964 185.501 18.7853 185.772 19.756 185.772C20.7267 185.772 21.548 185.501 22.22 184.96C22.892 184.4 23.228 183.625 23.228 182.636C23.228 181.609 22.9013 180.835 22.248 180.312C21.5947 179.789 20.764 179.528 19.756 179.528ZM19.756 194.872C21.0067 194.872 22.0053 194.583 22.752 194.004C23.5173 193.407 23.9 192.557 23.9 191.456C23.9 190.373 23.5173 189.543 22.752 188.964C22.0053 188.367 21.0067 188.068 19.756 188.068C18.524 188.068 17.5253 188.367 16.76 188.964C16.0133 189.543 15.64 190.373 15.64 191.456C15.64 192.557 16.0133 193.407 16.76 194.004C17.5253 194.583 18.524 194.872 19.756 194.872ZM41.9232 194.592C40.5979 196.44 38.7406 197.364 36.3512 197.364C33.9619 197.364 32.1046 196.44 30.7792 194.592C29.4539 192.744 28.7912 190.28 28.7912 187.2C28.7912 184.12 29.4539 181.656 30.7792 179.808C32.1046 177.96 33.9619 177.036 36.3512 177.036C38.7406 177.036 40.5979 177.96 41.9232 179.808C43.2486 181.656 43.9112 184.12 43.9112 187.2C43.9112 190.28 43.2486 192.744 41.9232 194.592ZM32.6832 192.828C33.5419 194.153 34.7646 194.816 36.3512 194.816C37.9379 194.816 39.1606 194.153 40.0192 192.828C40.8966 191.503 41.3352 189.627 41.3352 187.2C41.3352 184.773 40.8966 182.897 40.0192 181.572C39.1606 180.228 37.9379 179.556 36.3512 179.556C34.7646 179.556 33.5419 180.219 32.6832 181.544C31.8246 182.869 31.3952 184.755 31.3952 187.2C31.3952 189.627 31.8246 191.503 32.6832 192.828ZM59.56 194.592C58.2346 196.44 56.3773 197.364 53.988 197.364C51.5986 197.364 49.7413 196.44 48.416 194.592C47.0906 192.744 46.428 190.28 46.428 187.2C46.428 184.12 47.0906 181.656 48.416 179.808C49.7413 177.96 51.5986 177.036 53.988 177.036C56.3773 177.036 58.2346 177.96 59.56 179.808C60.8853 181.656 61.548 184.12 61.548 187.2C61.548 190.28 60.8853 192.744 59.56 194.592ZM50.32 192.828C51.1786 194.153 52.4013 194.816 53.988 194.816C55.5746 194.816 56.7973 194.153 57.656 192.828C58.5333 191.503 58.972 189.627 58.972 187.2C58.972 184.773 58.5333 182.897 57.656 181.572C56.7973 180.228 55.5746 179.556 53.988 179.556C52.4013 179.556 51.1786 180.219 50.32 181.544C49.4613 182.869 49.032 184.755 49.032 187.2C49.032 189.627 49.4613 191.503 50.32 192.828Z" fill="white"/>
<path d="M5.544 91.4H7.784L7.784 111H5.208L5.208 94.2L1.036 95.432L0.392 93.192L5.544 91.4ZM24.3725 108.592C23.0471 110.44 21.1898 111.364 18.8005 111.364C16.4111 111.364 14.5538 110.44 13.2285 108.592C11.9031 106.744 11.2405 104.28 11.2405 101.2C11.2405 98.12 11.9031 95.656 13.2285 93.808C14.5538 91.96 16.4111 91.036 18.8005 91.036C21.1898 91.036 23.0471 91.96 24.3725 93.808C25.6978 95.656 26.3605 98.12 26.3605 101.2C26.3605 104.28 25.6978 106.744 24.3725 108.592ZM15.1325 106.828C15.9911 108.153 17.2138 108.816 18.8005 108.816C20.3871 108.816 21.6098 108.153 22.4685 106.828C23.3458 105.503 23.7845 103.627 23.7845 101.2C23.7845 98.7733 23.3458 96.8973 22.4685 95.572C21.6098 94.228 20.3871 93.556 18.8005 93.556C17.2138 93.556 15.9911 94.2187 15.1325 95.544C14.2738 96.8693 13.8445 98.7547 13.8445 101.2C13.8445 103.627 14.2738 105.503 15.1325 106.828ZM42.0092 108.592C40.6838 110.44 38.8265 111.364 36.4372 111.364C34.0478 111.364 32.1905 110.44 30.8652 108.592C29.5398 106.744 28.8772 104.28 28.8772 101.2C28.8772 98.12 29.5398 95.656 30.8652 93.808C32.1905 91.96 34.0478 91.036 36.4372 91.036C38.8265 91.036 40.6838 91.96 42.0092 93.808C43.3345 95.656 43.9972 98.12 43.9972 101.2C43.9972 104.28 43.3345 106.744 42.0092 108.592ZM32.7692 106.828C33.6278 108.153 34.8505 108.816 36.4372 108.816C38.0238 108.816 39.2465 108.153 40.1052 106.828C40.9825 105.503 41.4212 103.627 41.4212 101.2C41.4212 98.7733 40.9825 96.8973 40.1052 95.572C39.2465 94.228 38.0238 93.556 36.4372 93.556C34.8505 93.556 33.6278 94.2187 32.7692 95.544C31.9105 96.8693 31.4812 98.7547 31.4812 101.2C31.4812 103.627 31.9105 105.503 32.7692 106.828ZM59.6459 108.592C58.3206 110.44 56.4632 111.364 54.0739 111.364C51.6846 111.364 49.8272 110.44 48.5019 108.592C47.1766 106.744 46.5139 104.28 46.5139 101.2C46.5139 98.12 47.1766 95.656 48.5019 93.808C49.8272 91.96 51.6846 91.036 54.0739 91.036C56.4632 91.036 58.3206 91.96 59.6459 93.808C60.9712 95.656 61.6339 98.12 61.6339 101.2C61.6339 104.28 60.9712 106.744 59.6459 108.592ZM50.4059 106.828C51.2646 108.153 52.4872 108.816 54.0739 108.816C55.6606 108.816 56.8832 108.153 57.7419 106.828C58.6192 105.503 59.0579 103.627 59.0579 101.2C59.0579 98.7733 58.6192 96.8973 57.7419 95.572C56.8832 94.228 55.6606 93.556 54.0739 93.556C52.4872 93.556 51.2646 94.2187 50.4059 95.544C49.5472 96.8693 49.1179 98.7547 49.1179 101.2C49.1179 103.627 49.5472 105.503 50.4059 106.828Z" fill="white"/>
<path d="M8.544 5.4H10.784L10.784 25H8.208L8.208 8.2L4.036 9.432L3.392 7.192L8.544 5.4ZM13.9885 25V22.872L20.9045 15.816C22.7525 13.968 23.6765 12.3813 23.6765 11.056C23.6765 9.95466 23.3405 9.096 22.6685 8.48C21.9965 7.864 21.1751 7.556 20.2045 7.556C18.3565 7.556 17.0125 8.43333 16.1725 10.188L13.9885 8.9C14.6045 7.63066 15.4538 6.66933 16.5365 6.016C17.6378 5.36266 18.8511 5.036 20.1765 5.036C21.8191 5.036 23.2471 5.57733 24.4605 6.66C25.6738 7.74266 26.2805 9.19866 26.2805 11.028C26.2805 13.0067 25.1138 15.1627 22.7805 17.496L17.7685 22.48H26.6445V25H13.9885ZM41.8646 22.592C40.5393 24.44 38.682 25.364 36.2927 25.364C33.9033 25.364 32.046 24.44 30.7207 22.592C29.3953 20.744 28.7327 18.28 28.7327 15.2C28.7327 12.12 29.3953 9.656 30.7207 7.808C32.046 5.96 33.9033 5.036 36.2927 5.036C38.682 5.036 40.5393 5.96 41.8646 7.808C43.19 9.656 43.8527 12.12 43.8527 15.2C43.8527 18.28 43.19 20.744 41.8646 22.592ZM32.6247 20.828C33.4833 22.1533 34.706 22.816 36.2927 22.816C37.8793 22.816 39.102 22.1533 39.9606 20.828C40.838 19.5027 41.2767 17.6267 41.2767 15.2C41.2767 12.7733 40.838 10.8973 39.9606 9.572C39.102 8.228 37.8793 7.556 36.2927 7.556C34.706 7.556 33.4833 8.21866 32.6247 9.544C31.766 10.8693 31.3367 12.7547 31.3367 15.2C31.3367 17.6267 31.766 19.5027 32.6247 20.828ZM59.5014 22.592C58.176 24.44 56.3187 25.364 53.9294 25.364C51.54 25.364 49.6827 24.44 48.3574 22.592C47.032 20.744 46.3694 18.28 46.3694 15.2C46.3694 12.12 47.032 9.656 48.3574 7.808C49.6827 5.96 51.54 5.036 53.9294 5.036C56.3187 5.036 58.176 5.96 59.5014 7.808C60.8267 9.656 61.4894 12.12 61.4894 15.2C61.4894 18.28 60.8267 20.744 59.5014 22.592ZM50.2614 20.828C51.12 22.1533 52.3427 22.816 53.9294 22.816C55.516 22.816 56.7387 22.1533 57.5974 20.828C58.4747 19.5027 58.9134 17.6267 58.9134 15.2C58.9134 12.7733 58.4747 10.8973 57.5974 9.572C56.7387 8.228 55.516 7.556 53.9294 7.556C52.3427 7.556 51.12 8.21866 50.2614 9.544C49.4027 10.8693 48.9734 12.7547 48.9734 15.2C48.9734 17.6267 49.4027 19.5027 50.2614 20.828Z" fill="white"/>
<path d="M26.652 362.84V365.276H24.272V369H21.668V365.276H11.672V362.84L18.7 349.4H21.5L14.472 362.84H21.668V357.296H24.272V362.84H26.652ZM41.6342 366.592C40.3088 368.44 38.4515 369.364 36.0622 369.364C33.6729 369.364 31.8155 368.44 30.4902 366.592C29.1649 364.744 28.5022 362.28 28.5022 359.2C28.5022 356.12 29.1649 353.656 30.4902 351.808C31.8155 349.96 33.6729 349.036 36.0622 349.036C38.4515 349.036 40.3088 349.96 41.6342 351.808C42.9595 353.656 43.6222 356.12 43.6222 359.2C43.6222 362.28 42.9595 364.744 41.6342 366.592ZM32.3942 364.828C33.2529 366.153 34.4755 366.816 36.0622 366.816C37.6488 366.816 38.8715 366.153 39.7302 364.828C40.6075 363.503 41.0462 361.627 41.0462 359.2C41.0462 356.773 40.6075 354.897 39.7302 353.572C38.8715 352.228 37.6488 351.556 36.0622 351.556C34.4755 351.556 33.2529 352.219 32.3942 353.544C31.5355 354.869 31.1062 356.755 31.1062 359.2C31.1062 361.627 31.5355 363.503 32.3942 364.828ZM59.2709 366.592C57.9456 368.44 56.0882 369.364 53.6989 369.364C51.3096 369.364 49.4522 368.44 48.1269 366.592C46.8016 364.744 46.1389 362.28 46.1389 359.2C46.1389 356.12 46.8016 353.656 48.1269 351.808C49.4522 349.96 51.3096 349.036 53.6989 349.036C56.0882 349.036 57.9456 349.96 59.2709 351.808C60.5962 353.656 61.2589 356.12 61.2589 359.2C61.2589 362.28 60.5962 364.744 59.2709 366.592ZM50.0309 364.828C50.8896 366.153 52.1122 366.816 53.6989 366.816C55.2856 366.816 56.5082 366.153 57.3669 364.828C58.2442 363.503 58.6829 361.627 58.6829 359.2C58.6829 356.773 58.2442 354.897 57.3669 353.572C56.5082 352.228 55.2856 351.556 53.6989 351.556C52.1122 351.556 50.8896 352.219 50.0309 353.544C49.1722 354.869 48.7429 356.755 48.7429 359.2C48.7429 361.627 49.1722 363.503 50.0309 364.828Z" fill="white"/>
<path d="M556.528 641.705C557.915 640.541 559.456 640.04 561.151 640.202C562.848 640.337 564.273 641.091 565.425 642.464C566.565 643.822 567.06 645.356 566.91 647.065C566.775 648.763 566.014 650.193 564.627 651.357L561.174 654.255L565.673 659.617L563.678 661.291L551.08 646.277L556.528 641.705ZM563.061 649.491C563.891 648.795 564.343 647.94 564.418 646.927C564.482 645.899 564.16 644.963 563.452 644.119C562.732 643.261 561.866 642.782 560.855 642.68C559.843 642.578 558.923 642.875 558.094 643.571L554.64 646.469L559.608 652.389L563.061 649.491ZM575.201 633.347L577.067 631.781L586.066 642.505L584.2 644.071L582.652 642.227C582.911 644.422 582.153 646.264 580.38 647.752C578.879 649.012 577.143 649.542 575.173 649.343C573.191 649.13 571.54 648.237 570.22 646.664C568.9 645.091 568.313 643.317 568.46 641.343C568.594 639.354 569.412 637.729 570.913 636.469C572.686 634.982 574.632 634.556 576.749 635.191L575.201 633.347ZM579.104 645.752C580.191 644.84 580.793 643.714 580.91 642.372C581.016 641.017 580.612 639.796 579.701 638.709C578.789 637.622 577.662 637.02 576.321 636.903C574.968 636.771 573.748 637.161 572.661 638.073C571.589 638.973 571 640.101 570.894 641.456C570.777 642.797 571.174 644.011 572.086 645.098C572.998 646.185 574.131 646.794 575.484 646.926C576.825 647.043 578.032 646.652 579.104 645.752ZM583.912 630.972C584.26 631.386 584.749 631.549 585.38 631.458C585.999 631.353 586.667 631.133 587.385 630.799C588.092 630.45 588.822 630.129 589.576 629.838C590.318 629.532 591.095 629.44 591.905 629.564C592.704 629.674 593.409 630.093 594.021 630.823C594.837 631.795 595.112 632.892 594.846 634.115C594.595 635.325 593.883 636.422 592.71 637.406C591.666 638.282 590.58 638.803 589.453 638.969C588.325 639.135 587.286 638.972 586.336 638.478L587.171 636.206C587.774 636.576 588.438 636.714 589.162 636.618C589.886 636.523 590.576 636.199 591.234 635.647C591.849 635.131 592.261 634.591 592.469 634.026C592.665 633.447 592.554 632.907 592.134 632.407C591.786 631.992 591.302 631.837 590.684 631.942C590.053 632.032 589.385 632.252 588.678 632.601C587.96 632.936 587.224 633.249 586.47 633.541C585.715 633.833 584.939 633.924 584.14 633.814C583.342 633.704 582.642 633.292 582.042 632.577C581.262 631.648 580.978 630.583 581.189 629.382C581.414 628.17 582.07 627.107 583.157 626.195C584.029 625.464 584.97 625.016 585.978 624.852C586.988 624.662 587.959 624.774 588.89 625.187L588.062 627.38C586.908 626.789 585.759 626.973 584.615 627.933C584.086 628.377 583.744 628.883 583.588 629.453C583.42 630.008 583.528 630.514 583.912 630.972ZM600.34 604.942L602.206 603.376L614.805 618.391L612.939 619.957L611.391 618.112C611.649 620.308 610.892 622.149 609.119 623.637C607.617 624.897 605.882 625.427 603.912 625.229C601.929 625.015 600.279 624.122 598.959 622.549C597.639 620.977 597.052 619.203 597.198 617.228C597.333 615.239 598.15 613.615 599.652 612.355C601.425 610.867 603.37 610.441 605.488 611.077L600.34 604.942ZM607.843 621.637C608.93 620.726 609.532 619.599 609.649 618.258C609.754 616.902 609.351 615.681 608.439 614.594C607.527 613.508 606.401 612.906 605.06 612.788C603.706 612.657 602.486 613.047 601.4 613.959C600.327 614.858 599.738 615.986 599.633 617.342C599.516 618.683 599.913 619.897 600.825 620.984C601.737 622.07 602.869 622.68 604.222 622.811C605.564 622.929 606.77 622.537 607.843 621.637ZM616.033 599.085L617.899 597.519L626.898 608.243L625.032 609.809L623.736 608.265C623.998 610.116 623.35 611.696 621.791 613.004C620.533 614.06 619.195 614.512 617.777 614.362C616.347 614.197 615.062 613.435 613.923 612.077L608.397 605.492L610.263 603.926L615.699 610.404C616.431 611.276 617.236 611.757 618.116 611.847C618.984 611.923 619.833 611.613 620.662 610.917C621.592 610.137 622.102 609.222 622.194 608.17C622.274 607.103 621.81 605.97 620.803 604.769L616.033 599.085ZM633.449 587.542L630.596 589.935L635.473 595.748C635.917 596.277 636.335 596.572 636.727 596.633C637.122 596.667 637.54 596.512 637.981 596.166C638.41 595.806 638.927 595.348 639.532 594.791L640.936 596.464C639.486 598.047 638.184 598.92 637.03 599.084C635.864 599.234 634.723 598.644 633.607 597.314L628.73 591.501L626.606 593.283L625.094 591.481L627.218 589.699L625.166 587.254L626.564 585.131L629.084 588.134L631.937 585.74L633.449 587.542ZM650.518 586.121C650.329 588.132 649.448 589.797 647.875 591.117C646.302 592.437 644.509 593.015 642.496 592.852C640.497 592.678 638.832 591.796 637.5 590.209C636.168 588.622 635.59 586.829 635.765 584.83C635.954 582.82 636.835 581.154 638.408 579.835C639.981 578.515 641.774 577.936 643.787 578.099C645.8 578.262 647.472 579.137 648.804 580.724C650.136 582.312 650.707 584.11 650.518 586.121ZM646.345 589.294C647.418 588.394 648.012 587.273 648.13 585.932C648.247 584.591 647.85 583.377 646.938 582.29C646.026 581.203 644.899 580.601 643.558 580.484C642.217 580.367 641.01 580.758 639.938 581.658C638.88 582.546 638.292 583.66 638.175 585.001C638.057 586.343 638.454 587.557 639.366 588.643C640.278 589.73 641.405 590.332 642.746 590.45C644.087 590.567 645.287 590.182 646.345 589.294ZM653.904 567.307L655.77 565.741L664.769 576.465L662.903 578.031L661.608 576.487C661.87 578.338 661.221 579.918 659.663 581.226C658.404 582.282 657.066 582.734 655.648 582.584C654.219 582.419 652.934 581.657 651.794 580.299L646.268 573.714L648.135 572.148L653.57 578.626C654.302 579.498 655.108 579.979 655.988 580.07C656.855 580.146 657.704 579.836 658.533 579.14C659.463 578.36 659.974 577.444 660.066 576.392C660.146 575.326 659.682 574.192 658.674 572.991L653.904 567.307ZM665.958 560.263L663.105 562.657L667.982 568.47C668.426 568.999 668.844 569.294 669.236 569.355C669.631 569.389 670.049 569.233 670.49 568.888C670.919 568.528 671.436 568.07 672.041 567.513L673.445 569.186C671.995 570.768 670.693 571.642 669.539 571.806C668.373 571.955 667.232 571.365 666.116 570.036L661.239 564.223L659.115 566.005L657.603 564.203L659.727 562.421L657.675 559.976L659.073 557.852L661.593 560.855L664.446 558.461L665.958 560.263ZM581.621 665.033L583.488 663.467L596.086 678.481L594.22 680.047L592.672 678.203C592.931 680.398 592.173 682.24 590.4 683.728C588.899 684.988 587.163 685.518 585.193 685.319C583.211 685.106 581.56 684.213 580.24 682.64C578.92 681.067 578.333 679.293 578.48 677.319C578.614 675.33 579.432 673.705 580.933 672.445C582.706 670.958 584.652 670.532 586.769 671.167L581.621 665.033ZM589.124 681.728C590.211 680.816 590.813 679.69 590.93 678.348C591.036 676.993 590.632 675.772 589.721 674.685C588.809 673.598 587.682 672.996 586.341 672.879C584.988 672.747 583.768 673.137 582.681 674.049C581.609 674.949 581.02 676.077 580.914 677.432C580.797 678.774 581.194 679.988 582.106 681.074C583.018 682.161 584.151 682.77 585.504 682.902C586.845 683.019 588.052 682.628 589.124 681.728ZM589.966 665.707L585.929 661.419L587.795 659.853L591.317 664.573L589.966 665.707ZM602.041 655.209L603.907 653.643L612.906 664.368L611.04 665.934L609.492 664.089C609.751 666.285 608.993 668.126 607.22 669.614C605.719 670.874 603.983 671.404 602.013 671.206C600.031 670.992 598.38 670.099 597.06 668.526C595.74 666.953 595.153 665.18 595.3 663.205C595.434 661.216 596.252 659.592 597.753 658.332C599.526 656.844 601.472 656.418 603.589 657.054L602.041 655.209ZM605.944 667.614C607.031 666.702 607.633 665.576 607.75 664.235C607.856 662.879 607.453 661.658 606.541 660.571C605.629 659.485 604.502 658.882 603.161 658.765C601.808 658.633 600.588 659.024 599.501 659.936C598.429 660.835 597.84 661.963 597.734 663.319C597.617 664.66 598.014 665.874 598.926 666.961C599.838 668.047 600.971 668.657 602.324 668.788C603.665 668.906 604.872 668.514 605.944 667.614ZM621.008 658.045C619.392 659.401 617.598 659.992 615.626 659.82C613.641 659.633 611.977 658.739 610.633 657.137C609.29 655.535 608.704 653.749 608.876 651.776C609.037 649.79 609.925 648.118 611.541 646.762C612.599 645.874 613.766 645.334 615.042 645.141C616.305 644.933 617.505 645.085 618.639 645.595L617.829 647.809C617.078 647.465 616.272 647.362 615.412 647.499C614.566 647.623 613.786 647.986 613.071 648.586C611.998 649.485 611.404 650.606 611.286 651.947C611.183 653.276 611.588 654.484 612.5 655.571C613.399 656.644 614.513 657.245 615.84 657.374C617.181 657.491 618.388 657.1 619.46 656.2C620.175 655.6 620.681 654.896 620.977 654.087C621.261 653.264 621.313 652.44 621.133 651.616L623.494 651.207C623.745 652.434 623.657 653.666 623.231 654.9C622.793 656.121 622.052 657.169 621.008 658.045ZM632.571 648.343C630.955 649.698 629.161 650.29 627.188 650.118C625.204 649.931 623.54 649.036 622.196 647.435C620.852 645.833 620.266 644.046 620.439 642.074C620.6 640.087 621.488 638.416 623.104 637.06C624.162 636.172 625.329 635.632 626.604 635.439C627.868 635.231 629.067 635.383 630.202 635.893L629.392 638.107C628.64 637.763 627.834 637.66 626.974 637.796C626.129 637.921 625.348 638.284 624.633 638.884C623.561 639.783 622.966 640.904 622.849 642.245C622.746 643.574 623.15 644.782 624.062 645.869C624.962 646.942 626.075 647.542 627.402 647.672C628.743 647.789 629.95 647.398 631.023 646.498C631.738 645.898 632.243 645.194 632.539 644.385C632.823 643.562 632.875 642.738 632.696 641.914L635.057 641.505C635.307 642.732 635.219 643.963 634.793 645.198C634.355 646.419 633.614 647.467 632.571 648.343ZM646.776 633.645C646.587 635.655 645.706 637.321 644.133 638.641C642.56 639.96 640.767 640.539 638.754 640.376C636.756 640.201 635.09 639.32 633.758 637.733C632.427 636.146 631.848 634.353 632.023 632.354C632.212 630.343 633.093 628.678 634.666 627.358C636.239 626.038 638.032 625.46 640.045 625.623C642.058 625.786 643.73 626.661 645.062 628.248C646.394 629.835 646.965 631.634 646.776 633.645ZM642.603 636.817C643.676 635.917 644.271 634.797 644.388 633.456C644.505 632.114 644.108 630.9 643.196 629.814C642.284 628.727 641.158 628.125 639.816 628.008C638.475 627.89 637.268 628.282 636.196 629.181C635.138 630.069 634.55 631.184 634.433 632.525C634.315 633.866 634.713 635.08 635.624 636.167C636.536 637.254 637.663 637.856 639.004 637.973C640.345 638.091 641.545 637.705 642.603 636.817ZM646.14 621.276C645.639 619.43 646.197 617.829 647.813 616.473L649.451 618.425C648.499 619.15 647.917 620.053 647.703 621.134C647.489 622.215 647.874 623.342 648.858 624.514L653.628 630.198L651.762 631.764L642.763 621.04L644.629 619.474L646.14 621.276ZM654.494 603.885L656.361 602.319L668.959 617.334L667.093 618.9L665.545 617.055C665.804 619.251 665.046 621.092 663.273 622.58C661.772 623.84 660.036 624.37 658.066 624.172C656.084 623.958 654.433 623.065 653.113 621.492C651.793 619.92 651.206 618.146 651.353 616.171C651.487 614.182 652.305 612.558 653.806 611.298C655.579 609.81 657.525 609.384 659.642 610.02L654.494 603.885ZM661.997 620.58C663.084 619.668 663.686 618.542 663.803 617.201C663.909 615.845 663.505 614.624 662.594 613.537C661.682 612.451 660.555 611.849 659.214 611.731C657.861 611.6 656.641 611.99 655.554 612.902C654.481 613.801 653.893 614.929 653.787 616.285C653.67 617.626 654.067 618.84 654.979 619.927C655.891 621.013 657.024 621.623 658.377 621.754C659.718 621.872 660.925 621.48 661.997 620.58Z" fill="white"/>
<path d="M358 388C358 346.579 391.579 313 433 313C474.421 313 508 346.579 508 388V540H358V388Z" fill="url(#paint0_linear_48_21)"/>
<path d="M415.544 357.4H417.784V377H415.208V360.2L411.036 361.432L410.392 359.192L415.544 357.4ZM431.404 366.864C432.356 367.349 433.103 368.003 433.644 368.824C434.186 369.645 434.456 370.579 434.456 371.624C434.456 373.416 433.831 374.825 432.58 375.852C431.33 376.86 429.715 377.364 427.736 377.364C425.776 377.364 424.171 376.86 422.92 375.852C421.67 374.825 421.044 373.416 421.044 371.624C421.044 370.579 421.315 369.645 421.856 368.824C422.398 368.003 423.144 367.349 424.096 366.864C422.491 365.856 421.688 364.428 421.688 362.58C421.688 360.807 422.276 359.444 423.452 358.492C424.647 357.521 426.075 357.036 427.736 357.036C429.416 357.036 430.844 357.521 432.02 358.492C433.215 359.444 433.812 360.807 433.812 362.58C433.812 364.428 433.01 365.856 431.404 366.864ZM427.736 359.528C426.747 359.528 425.916 359.789 425.244 360.312C424.591 360.835 424.264 361.609 424.264 362.636C424.264 363.625 424.6 364.4 425.272 364.96C425.944 365.501 426.766 365.772 427.736 365.772C428.707 365.772 429.528 365.501 430.2 364.96C430.872 364.4 431.208 363.625 431.208 362.636C431.208 361.609 430.882 360.835 430.228 360.312C429.575 359.789 428.744 359.528 427.736 359.528ZM427.736 374.872C428.987 374.872 429.986 374.583 430.732 374.004C431.498 373.407 431.88 372.557 431.88 371.456C431.88 370.373 431.498 369.543 430.732 368.964C429.986 368.367 428.987 368.068 427.736 368.068C426.504 368.068 425.506 368.367 424.74 368.964C423.994 369.543 423.62 370.373 423.62 371.456C423.62 372.557 423.994 373.407 424.74 374.004C425.506 374.583 426.504 374.872 427.736 374.872ZM440.929 365.716C439.66 365.716 438.605 365.296 437.765 364.456C436.925 363.616 436.505 362.589 436.505 361.376C436.505 360.181 436.925 359.164 437.765 358.324C438.624 357.465 439.678 357.036 440.929 357.036C442.198 357.036 443.253 357.456 444.093 358.296C444.933 359.136 445.353 360.163 445.353 361.376C445.353 362.589 444.933 363.616 444.093 364.456C443.272 365.296 442.217 365.716 440.929 365.716ZM439.305 363.028C439.734 363.457 440.276 363.672 440.929 363.672C441.582 363.672 442.114 363.448 442.525 363C442.954 362.552 443.169 362.011 443.169 361.376C443.169 360.741 442.954 360.209 442.525 359.78C442.114 359.332 441.582 359.108 440.929 359.108C440.276 359.108 439.734 359.332 439.305 359.78C438.894 360.209 438.689 360.741 438.689 361.376C438.689 362.029 438.894 362.58 439.305 363.028ZM437.821 374.228L450.841 359.668L452.213 360.424L439.165 375.012L437.821 374.228ZM452.549 376.076C451.709 376.916 450.654 377.336 449.385 377.336C448.116 377.336 447.061 376.916 446.221 376.076C445.381 375.236 444.961 374.209 444.961 372.996C444.961 371.783 445.381 370.756 446.221 369.916C447.061 369.076 448.116 368.656 449.385 368.656C450.654 368.656 451.709 369.076 452.549 369.916C453.389 370.756 453.809 371.783 453.809 372.996C453.809 374.209 453.389 375.236 452.549 376.076ZM447.761 374.62C448.19 375.049 448.732 375.264 449.385 375.264C450.038 375.264 450.57 375.049 450.981 374.62C451.41 374.172 451.625 373.631 451.625 372.996C451.625 372.361 451.41 371.829 450.981 371.4C450.57 370.952 450.038 370.728 449.385 370.728C448.732 370.728 448.19 370.952 447.761 371.4C447.35 371.829 447.145 372.361 447.145 372.996C447.145 373.631 447.35 374.172 447.761 374.62Z" fill="white"/>
<path d="M148 92C148 50.5787 181.579 17 223 17C264.421 17 298 50.5786 298 92V540H148V92Z" fill="url(#paint1_linear_48_21)"/>
<path d="M212.652 79.84V82.276H210.272V86H207.668V82.276H197.672V79.84L204.7 66.4H207.5L200.472 79.84H207.668V74.296H210.272V79.84H212.652ZM229.168 79.84V82.276H226.788V86H224.184V82.276H214.188V79.84L221.216 66.4H224.016L216.988 79.84H224.184V74.296H226.788V79.84H229.168ZM234.327 74.716C233.058 74.716 232.003 74.296 231.163 73.456C230.323 72.616 229.903 71.5893 229.903 70.376C229.903 69.1813 230.323 68.164 231.163 67.324C232.022 66.4653 233.077 66.036 234.327 66.036C235.597 66.036 236.651 66.456 237.491 67.296C238.331 68.136 238.751 69.1627 238.751 70.376C238.751 71.5893 238.331 72.616 237.491 73.456C236.67 74.296 235.615 74.716 234.327 74.716ZM232.703 72.028C233.133 72.4573 233.674 72.672 234.327 72.672C234.981 72.672 235.513 72.448 235.923 72C236.353 71.552 236.567 71.0107 236.567 70.376C236.567 69.7413 236.353 69.2093 235.923 68.78C235.513 68.332 234.981 68.108 234.327 68.108C233.674 68.108 233.133 68.332 232.703 68.78C232.293 69.2093 232.087 69.7413 232.087 70.376C232.087 71.0293 232.293 71.58 232.703 72.028ZM231.219 83.228L244.239 68.668L245.611 69.424L232.563 84.012L231.219 83.228ZM245.947 85.076C245.107 85.916 244.053 86.336 242.783 86.336C241.514 86.336 240.459 85.916 239.619 85.076C238.779 84.236 238.359 83.2093 238.359 81.996C238.359 80.7827 238.779 79.756 239.619 78.916C240.459 78.076 241.514 77.656 242.783 77.656C244.053 77.656 245.107 78.076 245.947 78.916C246.787 79.756 247.207 80.7827 247.207 81.996C247.207 83.2093 246.787 84.236 245.947 85.076ZM241.159 83.62C241.589 84.0493 242.13 84.264 242.783 84.264C243.437 84.264 243.969 84.0493 244.379 83.62C244.809 83.172 245.023 82.6307 245.023 81.996C245.023 81.3613 244.809 80.8293 244.379 80.4C243.969 79.952 243.437 79.728 242.783 79.728C242.13 79.728 241.589 79.952 241.159 80.4C240.749 80.8293 240.543 81.3613 240.543 81.996C240.543 82.6307 240.749 83.172 241.159 83.62Z" fill="white"/>
<path d="M568 165C568 123.579 601.579 90 643 90C684.421 90 718 123.579 718 165V540H568V165Z" fill="url(#paint2_linear_48_21)"/>
<path d="M626.848 143.436C628.341 143.716 629.564 144.36 630.516 145.368C631.468 146.376 631.944 147.655 631.944 149.204C631.944 151.108 631.291 152.611 629.984 153.712C628.677 154.813 627.091 155.364 625.224 155.364C623.731 155.364 622.405 155.028 621.248 154.356C620.091 153.665 619.269 152.676 618.784 151.388L620.968 150.1C621.547 151.911 622.965 152.816 625.224 152.816C626.437 152.816 627.427 152.499 628.192 151.864C628.957 151.229 629.34 150.343 629.34 149.204C629.34 148.065 628.957 147.179 628.192 146.544C627.427 145.891 626.437 145.564 625.224 145.564H624.552L623.516 143.968L628.052 137.836H619.344V135.4H631.104V137.696L626.848 143.436ZM633.488 135.4H645.724V137.724L638.584 155H635.868L642.952 137.864H633.488V135.4ZM652.675 143.716C651.406 143.716 650.351 143.296 649.511 142.456C648.671 141.616 648.251 140.589 648.251 139.376C648.251 138.181 648.671 137.164 649.511 136.324C650.37 135.465 651.424 135.036 652.675 135.036C653.944 135.036 654.999 135.456 655.839 136.296C656.679 137.136 657.099 138.163 657.099 139.376C657.099 140.589 656.679 141.616 655.839 142.456C655.018 143.296 653.963 143.716 652.675 143.716ZM651.051 141.028C651.48 141.457 652.022 141.672 652.675 141.672C653.328 141.672 653.86 141.448 654.271 141C654.7 140.552 654.915 140.011 654.915 139.376C654.915 138.741 654.7 138.209 654.271 137.78C653.86 137.332 653.328 137.108 652.675 137.108C652.022 137.108 651.48 137.332 651.051 137.78C650.64 138.209 650.435 138.741 650.435 139.376C650.435 140.029 650.64 140.58 651.051 141.028ZM649.567 152.228L662.587 137.668L663.959 138.424L650.911 153.012L649.567 152.228ZM664.295 154.076C663.455 154.916 662.4 155.336 661.131 155.336C659.862 155.336 658.807 154.916 657.967 154.076C657.127 153.236 656.707 152.209 656.707 150.996C656.707 149.783 657.127 148.756 657.967 147.916C658.807 147.076 659.862 146.656 661.131 146.656C662.4 146.656 663.455 147.076 664.295 147.916C665.135 148.756 665.555 149.783 665.555 150.996C665.555 152.209 665.135 153.236 664.295 154.076ZM659.507 152.62C659.936 153.049 660.478 153.264 661.131 153.264C661.784 153.264 662.316 153.049 662.727 152.62C663.156 152.172 663.371 151.631 663.371 150.996C663.371 150.361 663.156 149.829 662.727 149.4C662.316 148.952 661.784 148.728 661.131 148.728C660.478 148.728 659.936 148.952 659.507 149.4C659.096 149.829 658.891 150.361 658.891 150.996C658.891 151.631 659.096 152.172 659.507 152.62Z" fill="white"/>
<defs>
<linearGradient id="paint0_linear_48_21" x1="508" y1="468.5" x2="349.752" y2="469.071" gradientUnits="userSpaceOnUse">
<stop stop-color="#E7119E"/>
<stop offset="1" stop-color="#1B7EDA"/>
</linearGradient>
<linearGradient id="paint1_linear_48_21" x1="323.161" y1="387" x2="111.092" y2="386.59" gradientUnits="userSpaceOnUse">
<stop stop-color="#2A46DA"/>
<stop offset="1" stop-color="#1BDD97"/>
</linearGradient>
<linearGradient id="paint2_linear_48_21" x1="743.161" y1="408.356" x2="531.092" y2="407.879" gradientUnits="userSpaceOnUse">
<stop stop-color="#9E0808"/>
<stop offset="1" stop-color="#8E00E6"/>
</linearGradient>
</defs>
</svg>
